<svg id="Layer_1" data-name="Layer 1" xmlns="http://www.w3.org/2000/svg" viewBox="0 0 208.31 57.12"><defs><style>.cls-1{fill:#130c0e;}.cls-2,.cls-5,.cls-6{fill:#fff;}.cls-3{fill:#231f20;}.cls-4{fill:#eb2227;}.cls-5{font-size:13.28px;}.cls-5,.cls-6{font-family:MyriadPro-BoldIt, Myriad Pro;font-weight:700;font-style:italic;}.cls-6{font-size:14.76px;}.cls-7{letter-spacing:-0.06em;}.cls-8{letter-spacing:-0.05em;}.cls-9{fill:none;stroke:#fff;stroke-miterlimit:10;stroke-width:0.37px;}</style></defs><title>Artboard 1</title><polygon class="cls-1" points="45.96 46.78 58.78 12.84 208.31 12.84 197.63 46.78 45.96 46.78"/><path class="cls-1" d="M64.2,28.56c0,15.77-14.37,28.56-32.1,28.56S0,44.33,0,28.56,14.37,0,32.1,0,64.2,12.79,64.2,28.56"/><path class="cls-2" d="M32.07,53.07a25,25,0,0,1-19.43-8.73h-.52a25.71,25.71,0,0,0,20,9.11,25.8,25.8,0,0,0,20-9.11H51.5a25.52,25.52,0,0,1-19.43,8.73"/><path class="cls-2" d="M32.1,5.48c11.68,0,21.75,6.77,24.79,16.55l.46,0C54.29,12,44,5.08,32.1,5.08a27.67,27.67,0,0,0-20.32,8.5l.78-.2A27.26,27.26,0,0,1,32.1,5.48"/><polygon class="cls-3" points="35.62 34.49 35.09 34.49 33.13 39.89 32.97 40.32 33.52 40.32 35.62 34.49"/><path class="cls-4" d="M35.36,35.85h-19c-4,0-4.27-2.78-4.27-2.78s1.58-5.91,2.41-8.62a3.64,3.64,0,0,1,3.58-2.58h11l-.53,1.44h7.68A4.83,4.83,0,0,0,36,18.54c-1.48-2.84-5.67-2.9-5.67-2.9H15.72c-7.23,0-7.76,4-7.76,4S6.08,25.53,3.59,33.37s5.1,8.29,5.1,8.29H33.25Z"/><path class="cls-2" d="M30.35,16c.12,0,3.93.11,5.26,2.66a4.72,4.72,0,0,1,.33,4.22H29.17l.34-.93.19-.51H18a4,4,0,0,0-3.94,2.86c-.82,2.69-2.4,8.58-2.42,8.64l0,.06v.07a3.23,3.23,0,0,0,.72,1.58,4.86,4.86,0,0,0,4,1.55h18.4l-1.82,5H8.71a6.55,6.55,0,0,1-4.19-2C3.42,37.89,3.25,36,4,33.48c2.45-7.75,4.35-13.66,4.36-13.72V19.7S9,16,15.72,16H30.35m0-.4H15.72c-7.23,0-7.76,4-7.76,4S6.08,25.53,3.59,33.37s5.1,8.29,5.1,8.29H33.25l2.11-5.81h-19c-4,0-4.27-2.78-4.27-2.78s1.58-5.91,2.41-8.62A3.61,3.61,0,0,1,18,21.87H29.08l-.53,1.43h7.68A4.83,4.83,0,0,0,36,18.54c-1.48-2.84-5.67-2.9-5.67-2.9"/><path class="cls-2" d="M51,24.86l-3.15,9.67H44.76l1.69-5.15c.17-.53.38-1.08.62-1.66s.32-.82.41-1.07l-.38.67c-.34.62-.66,1.15-.94,1.58l-3.62,5.63h-2V28.9c0-.49,0-1,.07-1.58,0-.34,0-.6,0-.78-.33,1.34-.65,2.49-1,3.46l-1.47,4.53H35.71l3.15-9.67h4.45v4.28a6.14,6.14,0,0,0,0,.74,7.13,7.13,0,0,1,.43-.74l2.77-4.28Z"/><path class="cls-2" d="M56.15,29.23H61l-1.73,5.3h-1.6l.05-1.06a4,4,0,0,1-3.17,1.25,4.43,4.43,0,0,1-2.38-.56,3.42,3.42,0,0,1-1.28-1.47,3.9,3.9,0,0,1-.23-2.11,7,7,0,0,1,2.14-4.19,6.16,6.16,0,0,1,4.45-1.76c2.48,0,3.88,1,4.23,3.11l-3.09.44a1.32,1.32,0,0,0-1.49-1.29A2.14,2.14,0,0,0,55,28.2a7.8,7.8,0,0,0-.87,2.58c-.15,1.13.28,1.69,1.3,1.69a2.06,2.06,0,0,0,1.86-1.2H55.47Z"/><path class="cls-2" d="M30.15,31,29,34.53H25.78l3.16-9.67h3.65a11.83,11.83,0,0,1,1.86.1,3,3,0,0,1,1.15.46,2.3,2.3,0,0,1,.86,1,2.28,2.28,0,0,1,.19,1.32A3.55,3.55,0,0,1,35.33,30a4.54,4.54,0,0,1-3,1Zm.68-2.07h.76c1.16,0,1.79-.34,1.88-1S33.11,27,32.14,27h-.67Z"/><polygon class="cls-4" points="34.15 41.66 58.14 41.66 60.57 35.85 36.26 35.85 34.15 41.66"/><text class="cls-5" transform="translate(65.17 41.39) scale(1 1.03)">MAINTENANCE GROUP</text><text class="cls-6" transform="translate(68.71 27.45) scale(1 1.03)">CIMLINE <tspan class="cls-7" x="56.18" y="0">P</tspan><tspan class="cls-8" x="63.59" y="0">A</tspan><tspan x="71.99" y="0">VEMENT</tspan></text><path class="cls-9" d="M76.28,25.4a5.09,5.09,0,0,1-1.88.34A2.46,2.46,0,0,1,71.75,23a4.18,4.18,0,0,1,1.38-3.3,3.45,3.45,0,0,1,2.27-.79,4.37,4.37,0,0,1,1.8.33l.58-1.78A4.67,4.67,0,0,0,75.61,17a6.08,6.08,0,0,0-3.67,1.1,6,6,0,0,0-2.5,5.12,4.08,4.08,0,0,0,4.39,4.34,6.51,6.51,0,0,0,2.63-.44Z"/></svg>