<svg id="Layer_1" data-name="Layer 1" xmlns="http://www.w3.org/2000/svg" viewBox="0 0 117.67 82.49"><defs><style>.cls-1{fill:#fff;}</style></defs><title>coxreels-white</title><path class="cls-1" d="M32.34,59.47c0,1.81-.82,1.94-2.53,1.94-2.48,0-2.58-.89-2.58-3.2V55.8c0-2.21.23-2.93,2.58-2.93,1.4,0,2.37.1,2.51,1.48V55h4.25v-.6c-.08-4.64-2.06-5.07-6.31-5.07-4.54,0-7.28.74-7.28,5.86v4C23,64.79,26,65,30.25,65c1.79,0,3.51,0,4.91-1.13s1.42-2.7,1.42-4.39V59H32.34Z" transform="translate(-22.97 -15.84)"/><path class="cls-1" d="M52.25,59.32V55c0-4.76-3-5.67-7.16-5.67s-7.15.91-7.15,5.67v4.37c0,4.76,3,5.67,7.15,5.67s7.16-.91,7.16-5.67M48,58.87c0,2.31-.76,2.54-2.91,2.54s-2.84-.23-2.91-2.54V55.39c.06-2.29.76-2.51,2.91-2.51S48,53.1,48,55.39Z" transform="translate(-22.97 -15.84)"/><polygon class="cls-1" points="45.06 33.56 40.32 33.56 37.52 39.23 34.74 33.56 29.91 33.56 34.26 41.07 29.62 49.03 34.47 49.03 37.52 43.07 40.59 49.03 45.4 49.03 40.8 41.07 45.06 33.56"/><path class="cls-1" d="M82.47,54.09c0-3.86-1.75-4.62-5.32-4.68h-8V64.87h4.12v-4.1h3.2c1.24,0,1.73.78,1.69,1.94v2.16h4.12V61.76A2.58,2.58,0,0,0,79.55,59v-.16c2.93-.68,2.93-2.19,2.93-4.76m-6,3.09h-3.2V53h3.2c1.36,0,1.71.39,1.71,1.77,0,1.75.06,2.41-1.71,2.41" transform="translate(-22.97 -15.84)"/><polygon class="cls-1" points="61.66 49.03 72.96 49.03 72.96 45.65 65.79 45.65 65.79 42.64 72.38 42.64 72.38 39.77 65.79 39.77 65.79 36.94 72.82 36.94 72.82 33.56 61.66 33.56 61.66 49.03"/><polygon class="cls-1" points="86.8 36.95 86.8 33.56 75.64 33.56 75.64 49.03 86.94 49.03 86.94 45.65 79.77 45.65 79.77 42.64 86.36 42.64 86.36 39.77 79.77 39.77 79.77 36.95 86.8 36.95"/><polygon class="cls-1" points="93.62 33.56 89.5 33.56 89.5 49.03 100.08 49.03 100.08 45.44 93.62 45.44 93.62 33.56"/><path class="cls-1" d="M131.65,55.47l-1.71-.12c-1.09-.08-1.69-.13-1.69-1.36,0-.87.19-1.32,2.41-1.32,1.65,0,2.31,0,2.31,1.59h4v-.64c0-4.27-2.89-4.33-6.27-4.33-4,0-6.53.29-6.53,4.72s2.23,4.41,6,4.68l.91.06c1.94.13,2.17.1,2.17,1.44s-.64,1.42-2.58,1.42-2.6-.16-2.6-1.77h-4c0,5.07,2.62,5.15,6.55,5.15,6.81,0,6.7-2.51,6.7-5.07,0-3.55-1.13-4.12-5.71-4.45" transform="translate(-22.97 -15.84)"/><path class="cls-1" d="M69.47,97.93A.29.29,0,0,0,70,98l4.31-21.65H88.7l3.91,21.75a.29.29,0,0,0,.58,0l.42-30.63H69.16Z" transform="translate(-22.97 -15.84)"/><path class="cls-1" d="M93.25,16.25a.29.29,0,0,0-.58-.05L88.36,37.84H74L70.1,16.08a.29.29,0,0,0-.31-.24.29.29,0,0,0-.27.29l-.35,30.62H93.63Z" transform="translate(-22.97 -15.84)"/><path class="cls-1" d="M48.38,48.27h1.45A33.43,33.43,0,0,1,68.49,26.56l0-1.55A34.55,34.55,0,0,0,48.38,48.27" transform="translate(-22.97 -15.84)"/><path class="cls-1" d="M113,48.27h1.53a34.63,34.63,0,0,0-20-23.2l0,1.56A33.2,33.2,0,0,1,113,48.27" transform="translate(-22.97 -15.84)"/><path class="cls-1" d="M50.07,66.16H48.59A34.32,34.32,0,0,0,68.21,88.39V86.82A32.84,32.84,0,0,1,50.07,66.16" transform="translate(-22.97 -15.84)"/><path class="cls-1" d="M94.46,86.91v1.57a34.27,34.27,0,0,0,19.86-22.31h-1.53A32.87,32.87,0,0,1,94.46,86.91" transform="translate(-22.97 -15.84)"/><path class="cls-1" d="M81.43,89.62a32.61,32.61,0,0,1-8.12-1L73.07,90a33.22,33.22,0,0,0,8.36,1A34.49,34.49,0,0,0,90,89.92l-.24-1.37a34.74,34.74,0,0,1-8.33,1.07" transform="translate(-22.97 -15.84)"/><path class="cls-1" d="M81.43,23.89A32.62,32.62,0,0,1,89.73,25l.24-1.4a34.24,34.24,0,0,0-17.33.07L72.91,25a31.57,31.57,0,0,1,8.52-1.15" transform="translate(-22.97 -15.84)"/><path class="cls-1" d="M110.62,66.16H109A28.93,28.93,0,0,1,94.52,82.95l0,1.62a30,30,0,0,0,16.12-18.41" transform="translate(-22.97 -15.84)"/><path class="cls-1" d="M94.57,29.14V30.7a29.2,29.2,0,0,1,14.71,17.53h1.53A31,31,0,0,0,94.57,29.14" transform="translate(-22.97 -15.84)"/><path class="cls-1" d="M89.31,27.17a30.92,30.92,0,0,0-7.8-1,29.89,29.89,0,0,0-8.2,1.13l.24,1.41a28.2,28.2,0,0,1,8-1.11,28.93,28.93,0,0,1,7.53,1Z" transform="translate(-22.97 -15.84)"/><path class="cls-1" d="M53.89,66.16H52.41a30.57,30.57,0,0,0,15.8,18.25V82.8A29.29,29.29,0,0,1,53.89,66.16" transform="translate(-22.97 -15.84)"/><path class="cls-1" d="M73.75,86.42a29.75,29.75,0,0,0,7.76,1.06,32.32,32.32,0,0,0,7.88-1L89.11,85a29.4,29.4,0,0,1-7.61,1A28.37,28.37,0,0,1,74,85Z" transform="translate(-22.97 -15.84)"/><path class="cls-1" d="M52.16,48.27h1.57A29.86,29.86,0,0,1,68.45,30.7l0-1.61A31.09,31.09,0,0,0,52.16,48.27" transform="translate(-22.97 -15.84)"/><path class="cls-1" d="M55.78,48.27h1.53A25.93,25.93,0,0,1,68.45,34.64V33A27.84,27.84,0,0,0,55.78,48.27" transform="translate(-22.97 -15.84)"/><path class="cls-1" d="M94.57,33.12v1.73a26.35,26.35,0,0,1,10.94,13.43H107A27.42,27.42,0,0,0,94.57,33.12" transform="translate(-22.97 -15.84)"/><path class="cls-1" d="M74.31,82.92a28,28,0,0,0,7.1.93,27.13,27.13,0,0,0,7.29-1l-.2-1.41a26.39,26.39,0,0,1-7.1,1,25.49,25.49,0,0,1-6.82-.92Z" transform="translate(-22.97 -15.84)"/><path class="cls-1" d="M94.5,80.39a26.55,26.55,0,0,0,12.22-14.27h-1.57A25.25,25.25,0,0,1,94.5,78.74Z" transform="translate(-22.97 -15.84)"/><path class="cls-1" d="M88.67,30.7a26,26,0,0,0-7.25-1,26.28,26.28,0,0,0-7.5,1.1l.24,1.41a24.59,24.59,0,0,1,7.25-1.08,25,25,0,0,1,7,1Z" transform="translate(-22.97 -15.84)"/><path class="cls-1" d="M57.71,66.16l-1.65,0A27,27,0,0,0,68.24,80.43V78.7A25.6,25.6,0,0,1,57.71,66.16" transform="translate(-22.97 -15.84)"/><path class="cls-1" d="M94.5,76.37a22.92,22.92,0,0,0,8.6-10.21l-1.53,0A22,22,0,0,1,94.5,74.8Z" transform="translate(-22.97 -15.84)"/><path class="cls-1" d="M88.1,79.35l-.2-1.28a22.73,22.73,0,0,1-6.37,1,22,22,0,0,1-6.36-.94l-.25,1.27a22.77,22.77,0,0,0,6.56,1,24.21,24.21,0,0,0,6.63-1" transform="translate(-22.97 -15.84)"/><path class="cls-1" d="M61.48,66.14l-1.59,0a22.85,22.85,0,0,0,8.36,10.05l0-1.77a22.92,22.92,0,0,1-6.73-8.3" transform="translate(-22.97 -15.84)"/><path class="cls-1" d="M103.38,48.27a24.1,24.1,0,0,0-8.76-11.1v1.77a22.21,22.21,0,0,1,7.32,9.33Z" transform="translate(-22.97 -15.84)"/><path class="cls-1" d="M74.73,35.68a22,22,0,0,1,6.81-1.07,21.37,21.37,0,0,1,6.25.92L88,34.12a22.76,22.76,0,0,0-6.55-.92,23.3,23.3,0,0,0-7,1.05Z" transform="translate(-22.97 -15.84)"/><path class="cls-1" d="M59.6,48.27h1.57a23.36,23.36,0,0,1,7.27-9.37V37.22A24.05,24.05,0,0,0,59.6,48.27" transform="translate(-22.97 -15.84)"/><path class="cls-1" d="M138.11,50.56a1.27,1.27,0,1,1,1.27,1.27,1.27,1.27,0,0,1-1.27-1.27m2.25,0a1,1,0,1,0-1,1,1,1,0,0,0,1-1m-.35.7h-.33l-.31-.56h-.26v.56h-.29V49.88h.69c.32,0,.53.06.53.42s-.13.36-.37.37Zm-.49-.78c.15,0,.24,0,.24-.21s-.17-.16-.31-.16h-.33v.37Z" transform="translate(-22.97 -15.84)"/></svg>