<svg id="Layer_1" data-name="Layer 1" xmlns="http://www.w3.org/2000/svg" viewBox="0 0 190.22 53.78"><defs><style>.cls-1{fill:#d42b27;}</style></defs><title>elgin</title><path class="cls-1" d="M90.36,42,65.64,42c-.27.68-.51,1.28-.74,1.93l24.89,0-4,14.39H61.49l-.93,2.19H85.33L81.45,75.28h-38l12.14-46.9H94Z" transform="translate(-43.43 -28.38)"/><polygon class="cls-1" points="61.35 29.88 81.96 29.88 77.88 46.66 41.19 46.66 53.24 0.24 69.3 0.24 61.35 29.88"/><path class="cls-1" d="M160.69,28.61l-3.22,13.81-25.48,0c-1.35,0-3.75,2-4.36,3.88a10.15,10.15,0,0,0,1.45,8.78,12.58,12.58,0,0,0,8.51,4.59l1-3.14-2.2-.51,3.41-10.94h17L149.11,75,124,75l4.36-18.71-20.46,0S111.64,36.45,119.6,31a21.64,21.64,0,0,1,7.06-2.43Z" transform="translate(-43.43 -28.38)"/><polygon class="cls-1" points="135.26 0.24 132.1 13.59 117.03 13.61 120.15 0.28 120.4 0.24 135.26 0.24"/><path class="cls-1" d="M198.37,28.61c4,4.36,7.83,9,11.92,13.13l3.65-13.12,15.62,0L226.19,42l-.36,0H178.42l3.41-13.37Z" transform="translate(-43.43 -28.38)"/><polygon class="cls-1" points="174 46.47 158.59 46.43 146.49 31.21 142.82 46.42 126.99 46.43 134.32 16.54 181.97 16.49 174 46.47"/><polygon class="cls-1" points="124.15 46.59 108.61 46.66 116.29 16.75 131.32 16.7 124.15 46.59"/><path class="cls-1" d="M230.47,30.37a1.59,1.59,0,1,1,1.59,1.57,1.57,1.57,0,0,1-1.59-1.57m1.59,1.31a1.31,1.31,0,1,0-1.28-1.31,1.27,1.27,0,0,0,1.28,1.31m-.33-.4h-.27V29.47h.69c.43,0,.64.16.64.51a.47.47,0,0,1-.47.5l.51.8h-.31l-.48-.78h-.32Zm.33-1c.23,0,.44,0,.44-.29s-.2-.27-.39-.27h-.37v.56Z" transform="translate(-43.43 -28.38)"/><path class="cls-1" d="M123.74,80.33a1.44,1.44,0,0,0,.83.25.83.83,0,0,0,.9-.64c.06-.35-.1-.56-.58-.75s-.9-.55-.81-1.08a1.35,1.35,0,0,1,1.41-1,1.49,1.49,0,0,1,.8.19l-.2.4a1.22,1.22,0,0,0-.68-.18.75.75,0,0,0-.81.57c-.06.35.14.53.62.73s.86.56.76,1.11A1.4,1.4,0,0,1,124.47,81a1.72,1.72,0,0,1-.92-.25Z" transform="translate(-43.43 -28.38)"/><path class="cls-1" d="M128.86,80.18c-.05.28-.09.53-.11.74h-.44l0-.44h0a1.25,1.25,0,0,1-1,.5c-.43,0-.89-.24-.73-1.19l.28-1.59h.49l-.26,1.5c-.09.52,0,.87.45.87a.89.89,0,0,0,.73-.45.78.78,0,0,0,.09-.25l.29-1.66h.49Z" transform="translate(-43.43 -28.38)"/><path class="cls-1" d="M130.25,76.94h.49l-.3,1.7h0a1.23,1.23,0,0,1,1-.49c.67,0,1,.56.9,1.38A1.61,1.61,0,0,1,130.89,81a.79.79,0,0,1-.82-.51h0l-.11.45h-.43c0-.19.1-.46.15-.7Zm0,2.9a1,1,0,0,0,0,.18.62.62,0,0,0,.64.58c.52,0,.9-.42,1-1s-.1-1-.63-1a1,1,0,0,0-.85.61.86.86,0,0,0-.07.21Z" transform="translate(-43.43 -28.38)"/><path class="cls-1" d="M132.76,80.42a1.22,1.22,0,0,0,.62.19.53.53,0,0,0,.59-.4c0-.24-.08-.37-.41-.5s-.65-.44-.59-.77a1,1,0,0,1,1.08-.8,1.1,1.1,0,0,1,.63.17l-.18.35a1,1,0,0,0-.53-.16.48.48,0,0,0-.51.37c0,.23.1.33.43.47s.64.41.57.82a1.07,1.07,0,0,1-1.16.82,1.35,1.35,0,0,1-.73-.19Z" transform="translate(-43.43 -28.38)"/><path class="cls-1" d="M135,80.92l.48-2.72h.49l-.48,2.72Zm.8-3.22a.25.25,0,0,1-.25-.32.38.38,0,0,1,.37-.31.25.25,0,0,1,.26.31.39.39,0,0,1-.38.32Z" transform="translate(-43.43 -28.38)"/><path class="cls-1" d="M139.32,76.94l-.58,3.29c0,.24-.08.51-.1.7h-.44l.06-.47h0a1.22,1.22,0,0,1-1,.53c-.66,0-1.07-.55-.93-1.38a1.61,1.61,0,0,1,1.48-1.46.74.74,0,0,1,.75.41h0l.28-1.62Zm-.91,2.37a.92.92,0,0,0,0-.21.59.59,0,0,0-.61-.57,1.12,1.12,0,0,0-1,1c-.1.56.1,1,.62,1a.93.93,0,0,0,.83-.59.81.81,0,0,0,.06-.21Z" transform="translate(-43.43 -28.38)"/><path class="cls-1" d="M139.44,80.92l.48-2.72h.5l-.48,2.72Zm.8-3.22a.26.26,0,0,1-.26-.32.39.39,0,0,1,.38-.31.25.25,0,0,1,.26.31.38.38,0,0,1-.38.32Z" transform="translate(-43.43 -28.38)"/><path class="cls-1" d="M142.78,80.27a4.9,4.9,0,0,0-.07.65h-.44v-.34h0a1.22,1.22,0,0,1-.9.4.63.63,0,0,1-.69-.78c.12-.66.76-1,1.81-1v-.06c0-.22.05-.64-.51-.63a1.5,1.5,0,0,0-.75.2l-.05-.33a2,2,0,0,1,.94-.24c.84,0,.94.57.84,1.11Zm-.35-.74c-.54,0-1.17.09-1.26.61a.36.36,0,0,0,.38.47.85.85,0,0,0,.75-.46.56.56,0,0,0,.05-.16Z" transform="translate(-43.43 -28.38)"/><path class="cls-1" d="M143.79,79.05c.06-.32.1-.6.13-.85h.43l-.07.53h0a1,1,0,0,1,.86-.6l.13,0-.08.46H145a.87.87,0,0,0-.77.63,1.68,1.68,0,0,0-.06.24L144,80.92h-.49Z" transform="translate(-43.43 -28.38)"/><path class="cls-1" d="M146.09,78.2l.3,1.61c0,.18.06.39.08.55h0c.08-.16.17-.37.27-.57l.82-1.59h.52L147,80.14a5.29,5.29,0,0,1-1.23,1.71,1.74,1.74,0,0,1-.66.31l-.05-.42a1.37,1.37,0,0,0,.47-.24,2,2,0,0,0,.51-.55.35.35,0,0,0,.06-.12.28.28,0,0,0,0-.12l-.56-2.51Z" transform="translate(-43.43 -28.38)"/><path class="cls-1" d="M150.36,81a1.06,1.06,0,0,1-1.05-1.4,1.65,1.65,0,0,1,1.6-1.44A1.06,1.06,0,0,1,152,79.53a1.65,1.65,0,0,1-1.6,1.45Zm.09-.37a1.16,1.16,0,0,0,1-1.06c.08-.46,0-1-.63-1a1.14,1.14,0,0,0-1,1.06c-.1.59.15,1,.63,1Z" transform="translate(-43.43 -28.38)"/><path class="cls-1" d="M152.39,80.92l.41-2.34h-.37l.07-.38h.37l0-.13a1.56,1.56,0,0,1,.49-.95,1.11,1.11,0,0,1,.7-.25,1,1,0,0,1,.41.08l-.13.38a.7.7,0,0,0-.31-.06c-.42,0-.59.37-.67.79l0,.15H154l-.07.38h-.65l-.41,2.34Z" transform="translate(-43.43 -28.38)"/><polygon class="cls-1" points="112.42 48.76 114.46 48.76 114.39 49.17 112.84 49.17 112.62 50.43 114.05 50.43 113.98 50.83 112.55 50.83 112.25 52.54 111.76 52.54 112.42 48.76"/><path class="cls-1" d="M158.23,79.65c-.11.67.27.94.76.94a2.08,2.08,0,0,0,.78-.13l0,.35a2.47,2.47,0,0,1-.94.17,1,1,0,0,1-1.1-1.37,1.65,1.65,0,0,1,1.54-1.47c.89,0,1,.78.89,1.28a1.24,1.24,0,0,1-.06.24Zm1.51-.35c.06-.31,0-.8-.54-.8a1,1,0,0,0-.9.8Z" transform="translate(-43.43 -28.38)"/><path class="cls-1" d="M163.59,76.94,163,80.22c0,.24-.09.51-.1.7h-.44l.06-.47h0a1.23,1.23,0,0,1-1,.53c-.66,0-1.07-.55-.92-1.38a1.61,1.61,0,0,1,1.47-1.46.74.74,0,0,1,.75.41h0l.29-1.62Zm-.91,2.37a.85.85,0,0,0,0-.21.59.59,0,0,0-.61-.57,1.11,1.11,0,0,0-1,1c-.1.56.1,1,.62,1a.93.93,0,0,0,.83-.59,1,1,0,0,0,.06-.21Z" transform="translate(-43.43 -28.38)"/><path class="cls-1" d="M164.21,79.65c-.11.67.27.94.76.94a2.08,2.08,0,0,0,.78-.13l0,.35a2.48,2.48,0,0,1-.94.17,1,1,0,0,1-1.09-1.37,1.65,1.65,0,0,1,1.54-1.47c.89,0,1,.78.89,1.28a1.08,1.08,0,0,1-.06.24Zm1.51-.35c.06-.31,0-.8-.54-.8a1,1,0,0,0-.9.8Z" transform="translate(-43.43 -28.38)"/><path class="cls-1" d="M166.85,79.05c.06-.32.1-.6.13-.85h.43l-.07.53h0a1,1,0,0,1,.86-.6l.13,0-.08.46h-.17a.87.87,0,0,0-.77.63,1.79,1.79,0,0,0-.06.24L167,80.92h-.5Z" transform="translate(-43.43 -28.38)"/><path class="cls-1" d="M170.35,80.27a4.8,4.8,0,0,0-.08.65h-.44l0-.34h0a1.22,1.22,0,0,1-.9.4.63.63,0,0,1-.69-.78c.12-.66.76-1,1.81-1v-.06c0-.22.05-.64-.5-.63a1.49,1.49,0,0,0-.75.2l-.06-.33a2,2,0,0,1,.94-.24c.84,0,.94.57.84,1.11Zm-.35-.74c-.53,0-1.17.09-1.26.61a.36.36,0,0,0,.37.47.85.85,0,0,0,.75-.46.65.65,0,0,0,.05-.16Z" transform="translate(-43.43 -28.38)"/><polygon class="cls-1" points="128.3 48.56 128.79 48.56 128.09 52.54 127.6 52.54 128.3 48.56"/><path class="cls-1" d="M173.59,80.33a1.44,1.44,0,0,0,.83.25.83.83,0,0,0,.91-.64c.06-.35-.1-.56-.58-.75s-.9-.55-.81-1.08a1.35,1.35,0,0,1,1.41-1,1.5,1.5,0,0,1,.8.19l-.2.4a1.23,1.23,0,0,0-.68-.18.75.75,0,0,0-.81.57c-.06.35.14.53.62.73s.86.56.76,1.11A1.4,1.4,0,0,1,174.31,81a1.71,1.71,0,0,1-.92-.25Z" transform="translate(-43.43 -28.38)"/><path class="cls-1" d="M176.29,80.92l.48-2.72h.5l-.48,2.72Zm.81-3.22a.25.25,0,0,1-.25-.32.38.38,0,0,1,.38-.31.25.25,0,0,1,.26.31.38.38,0,0,1-.37.32Z" transform="translate(-43.43 -28.38)"/><path class="cls-1" d="M180,80.52a1.9,1.9,0,0,1-.61,1.24,1.72,1.72,0,0,1-1.05.33,1.54,1.54,0,0,1-.86-.22l.19-.38a1.28,1.28,0,0,0,.76.22,1,1,0,0,0,1-1l.05-.3h0a1.18,1.18,0,0,1-.95.45c-.67,0-1.05-.57-.92-1.33a1.61,1.61,0,0,1,1.48-1.44.73.73,0,0,1,.76.47h0l.09-.4h.44c0,.19-.1.41-.15.74Zm-.27-1.25a.77.77,0,0,0,0-.22.57.57,0,0,0-.6-.53c-.47,0-.88.4-1,1s.1,1,.63,1a.88.88,0,0,0,.77-.51.85.85,0,0,0,.09-.26Z" transform="translate(-43.43 -28.38)"/><path class="cls-1" d="M181.09,78.94c.05-.29.08-.51.11-.74h.44l-.05.44h0a1.23,1.23,0,0,1,1-.51c.38,0,.92.23.76,1.16l-.29,1.62h-.49l.28-1.57c.08-.44,0-.81-.49-.81a.89.89,0,0,0-.75.51.8.8,0,0,0-.07.23l-.29,1.64h-.5Z" transform="translate(-43.43 -28.38)"/><path class="cls-1" d="M185.89,80.27a4.71,4.71,0,0,0-.08.65h-.44l0-.34h0a1.21,1.21,0,0,1-.9.4.63.63,0,0,1-.69-.78c.12-.66.76-1,1.81-1v-.06c0-.22,0-.64-.51-.63a1.5,1.5,0,0,0-.75.2l-.05-.33a2,2,0,0,1,.94-.24c.84,0,.94.57.84,1.11Zm-.36-.74c-.54,0-1.17.09-1.26.61a.36.36,0,0,0,.38.47.86.86,0,0,0,.75-.46.67.67,0,0,0,0-.16Z" transform="translate(-43.43 -28.38)"/><polygon class="cls-1" points="143.84 48.56 144.33 48.56 143.63 52.54 143.14 52.54 143.84 48.56"/><path class="cls-1" d="M191.74,80.8a2.67,2.67,0,0,1-1,.18,1.45,1.45,0,0,1-1.52-1.92,2.32,2.32,0,0,1,2.33-2,1.84,1.84,0,0,1,.87.17l-.19.4a1.57,1.57,0,0,0-.73-.16A1.74,1.74,0,0,0,189.7,79c-.16.93.27,1.52,1.18,1.52a2.12,2.12,0,0,0,.83-.16Z" transform="translate(-43.43 -28.38)"/><path class="cls-1" d="M193.34,81a1.06,1.06,0,0,1-1.05-1.4,1.65,1.65,0,0,1,1.6-1.44A1.06,1.06,0,0,1,195,79.53a1.65,1.65,0,0,1-1.6,1.45Zm.08-.37a1.16,1.16,0,0,0,1-1.06c.08-.46,0-1-.63-1a1.14,1.14,0,0,0-1,1.06c-.1.59.15,1,.63,1Z" transform="translate(-43.43 -28.38)"/><path class="cls-1" d="M195.67,79.05c.06-.32.1-.6.13-.85h.43l-.07.53h0a1,1,0,0,1,.86-.6l.13,0-.08.46h-.17a.86.86,0,0,0-.77.63,1.28,1.28,0,0,0-.06.24l-.26,1.45h-.49Z" transform="translate(-43.43 -28.38)"/><path class="cls-1" d="M197.51,79.09c.06-.35.11-.63.13-.89h.45l-.06.47h0a1.28,1.28,0,0,1,1.05-.53c.66,0,1.06.56.91,1.38A1.59,1.59,0,0,1,198.52,81a.77.77,0,0,1-.76-.43h0L197.49,82H197Zm.37.73a.82.82,0,0,0,0,.2.61.61,0,0,0,.63.58c.52,0,.9-.43,1-1s-.1-1-.62-1a1,1,0,0,0-.86.61,1.77,1.77,0,0,0-.06.2Z" transform="translate(-43.43 -28.38)"/><path class="cls-1" d="M201.48,81a1.06,1.06,0,0,1-1.06-1.4,1.65,1.65,0,0,1,1.6-1.44,1.06,1.06,0,0,1,1.06,1.39,1.65,1.65,0,0,1-1.6,1.45Zm.08-.37a1.16,1.16,0,0,0,1-1.06c.08-.46,0-1-.63-1a1.14,1.14,0,0,0-1,1.06c-.1.59.15,1,.63,1Z" transform="translate(-43.43 -28.38)"/><path class="cls-1" d="M203.8,79.05c.06-.32.1-.6.13-.85h.43l-.07.53h0a1,1,0,0,1,.86-.6l.13,0-.08.46H205a.86.86,0,0,0-.77.63,1.58,1.58,0,0,0-.06.24L204,80.92h-.49Z" transform="translate(-43.43 -28.38)"/><path class="cls-1" d="M207.3,80.27a4.56,4.56,0,0,0-.07.65h-.44v-.34h0a1.21,1.21,0,0,1-.9.4.64.64,0,0,1-.69-.78c.12-.66.76-1,1.81-1v-.06c0-.22,0-.64-.51-.63a1.5,1.5,0,0,0-.75.2l-.05-.33a2,2,0,0,1,.94-.24c.84,0,.94.57.84,1.11Zm-.35-.74c-.54,0-1.17.09-1.26.61a.36.36,0,0,0,.38.47.85.85,0,0,0,.75-.46.61.61,0,0,0,.05-.16Z" transform="translate(-43.43 -28.38)"/><path class="cls-1" d="M209.14,77.55l-.11.65h.71l-.07.38H209L208.7,80c-.06.34,0,.53.28.53a1,1,0,0,0,.29,0l0,.38a1.52,1.52,0,0,1-.45.06.59.59,0,0,1-.5-.21,1,1,0,0,1-.06-.71l.26-1.48h-.42l.07-.38h.42l.09-.5Z" transform="translate(-43.43 -28.38)"/><path class="cls-1" d="M209.81,80.92l.48-2.72h.49l-.48,2.72Zm.8-3.22a.25.25,0,0,1-.25-.32.38.38,0,0,1,.37-.31.25.25,0,0,1,.26.31.38.38,0,0,1-.37.32Z" transform="translate(-43.43 -28.38)"/><path class="cls-1" d="M212.22,81a1.07,1.07,0,0,1-1.06-1.4,1.65,1.65,0,0,1,1.6-1.44,1.06,1.06,0,0,1,1.06,1.39,1.64,1.64,0,0,1-1.6,1.45Zm.08-.37a1.16,1.16,0,0,0,1-1.06c.08-.46,0-1-.63-1a1.14,1.14,0,0,0-1,1.06c-.11.59.15,1,.63,1Z" transform="translate(-43.43 -28.38)"/><path class="cls-1" d="M214.56,78.94c.05-.29.08-.51.11-.74h.44l-.05.44h0a1.23,1.23,0,0,1,1-.51c.38,0,.92.23.76,1.16l-.28,1.62H216l.28-1.57c.08-.44,0-.81-.48-.81a.88.88,0,0,0-.75.51.76.76,0,0,0-.07.23l-.29,1.64h-.5Z" transform="translate(-43.43 -28.38)"/></svg>