<svg id="Layer_1" data-name="Layer 1" xmlns="http://www.w3.org/2000/svg" viewBox="0 0 205.1 59.69"><defs><style>.cls-1{fill:#fff;}</style></defs><title>envirosight-white</title><path class="cls-1" d="M58.41,57.38A21.55,21.55,0,1,0,80,35.83,21.57,21.57,0,0,0,58.41,57.38m5.24,0A16.31,16.31,0,1,1,80,73.7,16.33,16.33,0,0,1,63.64,57.38Z" transform="translate(-39.8 -27.58)"/><path class="cls-1" d="M58.41,57.38A21.55,21.55,0,1,0,80,35.83,21.57,21.57,0,0,0,58.41,57.38m5.24,0A16.31,16.31,0,1,1,80,73.7,16.33,16.33,0,0,1,63.64,57.38Z" transform="translate(-39.8 -27.58)"/><polyline class="cls-1" points="193.27 36.96 194.52 36.96 193.27 42.81 195.53 42.81 195.32 43.81 191.8 43.81 193.27 36.96"/><polyline class="cls-1" points="197.32 36.96 198.58 36.96 197.32 42.81 199.58 42.81 199.37 43.81 195.85 43.81 197.32 36.96"/><path class="cls-1" d="M243.51,71.25a4.23,4.23,0,0,1-1.54.25c-2.08,0-2.83-1.52-2.4-3.52a4,4,0,0,1,3.87-3.52,3.86,3.86,0,0,1,1.46.28l-.31,1.13a2.19,2.19,0,0,0-1.22-.37c-1,0-2.09.71-2.46,2.48s.36,2.48,1.4,2.48a2.49,2.49,0,0,0,1.37-.35l-.18,1.15" transform="translate(-39.8 -27.58)"/><polyline class="cls-1" points="74.98 43.74 80.37 18.39 86.21 18.39 80.83 43.74 74.98 43.74"/><path class="cls-1" d="M133.58,50.47h.09a11.35,11.35,0,0,1,3.06-3.6,6,6,0,0,1,3.93-1.35l-1.47,6.92c-3.17-.31-5.81.49-6.7,4.23l-3.11,14.65h-5.84L128.92,46h5.62l-1,4.49" transform="translate(-39.8 -27.58)"/><path class="cls-1" d="M145.34,54.6c.51-2.38,1-4.81,4.12-4.81,2.92,0,2.4,2.43,1.9,4.81l-1.8,8.45c-.66,3.1-1.17,4.45-3.87,4.45s-2.81-1.35-2.16-4.45l1.8-8.45M144.75,72c7.52.14,9.58-3.64,11.41-12.45s2.94-14.25-5.74-14.25-10.08,5.57-12,14.25S137,72.13,144.75,72Z" transform="translate(-39.8 -27.58)"/><path class="cls-1" d="M162.06,63c-1.44,4.67.38,4.54,1.73,4.54a2.87,2.87,0,0,0,3-2.83c.22-1.44-1.28-2.25-2.24-3l-2.72-2.2c-2.49-2-3.88-4.36-3.11-8,.83-3.91,4.41-6.16,10-6.16s7.64,3,6.35,8.4h-5.84c.74-2.83.16-3.91-1.87-3.91a2.7,2.7,0,0,0-2.91,2.07c-.32,1.48.62,2.16,1.58,2.92L170.17,58c1.3.85,3.12,3.28,2.94,5-.44,4.41-2.49,9-10.58,9-3.1,0-8.62-1.3-6.31-9h5.84" transform="translate(-39.8 -27.58)"/><polyline class="cls-1" points="133.06 43.74 138.45 18.39 144.29 18.39 138.91 43.74 133.06 43.74"/><path class="cls-1" d="M195.69,55.41,194.08,63c-.62,2.92-1.9,4.49-3.79,4.49s-2-1.93-1.63-4.36l1.8-8.45c.71-2.52,1-4.9,3.69-4.9s2.07,3.6,1.55,5.62M180.74,74.15c-.59,4.27,2.29,5.71,6.16,5.71,8,0,10.32-4.13,11.41-9.3L203.54,46H197.7l-.55,2.61h-.09c-.32-2.29-1.72-3.32-4.38-3.28-3.79.09-6.37,2.07-8,9l-1.95,9.17c-.72,4-.68,8.5,4.26,8.5a7,7,0,0,0,6.05-3.33l.07.09-.62,2.92c-.42,2-1.29,4-3.76,4a3.13,3.13,0,0,1-1.72-.36,1,1,0,0,1-.44-1.12Z" transform="translate(-39.8 -27.58)"/><path class="cls-1" d="M200.57,71.32l7.16-33.71h5.84l-2.33,11h.09c2.29-3,4.7-3.28,6-3.28,3.33,0,5.61,1.93,4.47,6.47L217.6,71.32h-5.84L215.44,54c.53-2.47.6-4.09-1.58-4.18s-3.39,2-3.87,4.67l-3.58,16.85h-5.84" transform="translate(-39.8 -27.58)"/><path class="cls-1" d="M229.82,71.41c-3.55.4-8.47.72-7.47-4L226,50.24h-2.38l.91-4.27h2.34l1.48-7h5.89l-1.48,7h2.47l-.91,4.27h-2.47L228.5,66c-.09,1.08,1.55.94,2.29.85l-1,4.58" transform="translate(-39.8 -27.58)"/><path class="cls-1" d="M126.94,41.07A3.11,3.11,0,1,1,123.83,38a3.11,3.11,0,0,1,3.11,3.11" transform="translate(-39.8 -27.58)"/><path class="cls-1" d="M185.24,41.07A3.11,3.11,0,1,1,182.13,38a3.11,3.11,0,0,1,3.11,3.11" transform="translate(-39.8 -27.58)"/><path class="cls-1" d="M112.86,45.92l-5.53,14.2a74.41,74.41,0,0,0-2.4,7.51h-.09a65.69,65.69,0,0,0,.79-7.51l.55-14.2H99.93a23,23,0,0,1,.43,22.36l.06,3h7.28l11.23-25.35h-6.07" transform="translate(-39.8 -27.58)"/><path class="cls-1" d="M58.58,66.34l0,0H47.14l2.21-10.38h7.52A22.94,22.94,0,0,1,57.74,51H50.4l1.8-8.49H62.35a23.1,23.1,0,0,1,5.93-4.94H47L39.8,71.26H61.39a23,23,0,0,1-2.81-4.93" transform="translate(-39.8 -27.58)"/><path class="cls-1" d="M92.22,27.58,83.48,59.66H83.4L76.63,47.08h-6L63,84.85a32.17,32.17,0,0,0,4.81,2.41L74.3,54.87h.08l7,14.54H87L96.94,30a32.18,32.18,0,0,0-4.72-2.45" transform="translate(-39.8 -27.58)"/><path class="cls-1" d="M80,41.07A16.33,16.33,0,0,1,96.27,57.38h5.24A21.57,21.57,0,0,0,80,35.83v5.24" transform="translate(-39.8 -27.58)"/></svg>