<?xml version="1.0" encoding="utf-8"?>
<!-- Generator: Adobe Illustrator 21.0.2, SVG Export Plug-In . SVG Version: 6.00 Build 0)  -->
<svg version="1.1" id="Layer_1" xmlns="http://www.w3.org/2000/svg" xmlns:xlink="http://www.w3.org/1999/xlink" x="0px" y="0px"
	 viewBox="0 0 210.2 108.3" style="enable-background:new 0 0 210.2 108.3;" xml:space="preserve">
<style type="text/css">
	.st0{fill:#E5DB80;}
</style>
<g>
	<path class="st0" d="M162.3,20.2H50.1C39,20.2,30,29.2,30,40.3V68c0,11.1,9,20.1,20.1,20.1h112.2c11.1,0,20.1-9,20.1-20.1V40.3
		C182.4,29.2,173.4,20.2,162.3,20.2z M81.4,71.1h-15v-8.8h-6.1v8.8h-15V38.5h15v8.8h6.1v-8.8h15V71.1z M124.8,53.5h-11.3v17.6h-15
		V53.5H88v-15h10.6h15h11.3V53.5z M167,53.5h-21.8v2.6H167v15h-21.8h-10.8h-4.2V38.5h4.2h10.8H167V53.5z"/>
</g>
</svg>
