<svg id="Layer_1" data-name="Layer 1" xmlns="http://www.w3.org/2000/svg" viewBox="0 0 77.78 62.54"><defs><style>.cls-1{fill:#231f20;}.cls-1,.cls-2{fill-rule:evenodd;}.cls-2{fill:#ef4135;}</style></defs><title>multiquip</title><path class="cls-1" d="M98.15,77.08h1.07c.64,0,1.93,0,1.93,1.35s-1.26,1.37-1.82,1.37H98.15ZM95.34,86h2.81V82.37h1.26a4.49,4.49,0,0,0,3.35-1,4.13,4.13,0,0,0,1.2-3,3.93,3.93,0,0,0-1.35-3c-.62-.52-1.39-.84-3.52-.84H95.34Zm-4.28,0H94V74.5H91.06ZM80.92,74.5v6.93A4.41,4.41,0,0,0,82.08,85a4.69,4.69,0,0,0,3.3,1.22,4.32,4.32,0,0,0,3.2-1.24,4.41,4.41,0,0,0,1.16-3.52V74.5H86.8v6.93c0,.92,0,2.19-1.46,2.19s-1.48-1.41-1.48-2.19V74.5Zm-5.85,8.86a2.77,2.77,0,0,1-1.33.28A3,3,0,0,1,71,81.71a2.68,2.68,0,0,1,1-.17,4.08,4.08,0,0,1,3.11,1.82m1.46-1.55a5.68,5.68,0,0,0-4.25-2.42,4.07,4.07,0,0,0-1.63.39,3.14,3.14,0,0,1,6.27.39,3.56,3.56,0,0,1-.39,1.65m3.88,2.06h-.26a1.9,1.9,0,0,1-1.24-.39,5.62,5.62,0,0,0,.94-3.32,6.07,6.07,0,1,0-6.09,6,5.69,5.69,0,0,0,3.22-.9,3.57,3.57,0,0,0,2.7.9,7.2,7.2,0,0,0,.73,0ZM63.93,86h2.92V74.5H63.93Zm-6.35,0h2.94V77.08h2.23V74.5H55.33v2.57h2.25ZM49.8,86h6.33V83.42H52.74v-8.9H49.8ZM39.48,74.5v6.93A4.41,4.41,0,0,0,40.63,85a4.69,4.69,0,0,0,3.3,1.22,4.32,4.32,0,0,0,3.2-1.24,4.41,4.41,0,0,0,1.16-3.52V74.5H45.35v6.93c0,.92,0,2.19-1.46,2.19s-1.48-1.41-1.48-2.19V74.5ZM26.24,86h2.59V78.82h0L31.33,86h1.93l2.44-7.14,0,0V86h2.62V74.51H34.56l-2.25,6.69h0L30,74.51H26.24Z" transform="translate(-26.24 -23.68)"/><path class="cls-1" d="M102,84.3v-.55h.37c.19,0,.39,0,.39.26s-.2.29-.43.29Zm0,.23h.31l.47.77h.3l-.5-.78a.46.46,0,0,0,.46-.49c0-.35-.21-.51-.63-.51h-.67V85.3H102Zm-.93-.12a1.25,1.25,0,1,1,1.25,1.29,1.25,1.25,0,0,1-1.25-1.29m1.25,1.54a1.54,1.54,0,1,0-1.56-1.54,1.54,1.54,0,0,0,1.56,1.54" transform="translate(-26.24 -23.68)"/><path class="cls-2" d="M104,58.28V23.68H26.24V49.74l12.42-19.8h7.68v19.3l12.18-19.3h7.72v9.14A17.79,17.79,0,0,1,82.44,29a18.12,18.12,0,0,1,18.08,18.08,17,17,0,0,1-3.09,9.89,7.22,7.22,0,0,0,4.14,1.33Z" transform="translate(-26.24 -23.68)"/><path class="cls-2" d="M104,65.27v5.3H26.24v-6.2L38.53,45v19.5h7.76l12.08-19.3V64.54h7.87V55A17.82,17.82,0,0,0,82.39,65.21a18.39,18.39,0,0,0,9.78-2.94,11.81,11.81,0,0,0,7.66,3Z" transform="translate(-26.24 -23.68)"/><path class="cls-2" d="M85.83,55.81a10.83,10.83,0,0,1-3.39.66,9.21,9.21,0,0,1-8.13-4.55A11.62,11.62,0,0,1,78,51.65c3.13.17,5.56,1.82,7.85,4.16" transform="translate(-26.24 -23.68)"/><path class="cls-2" d="M85.37,47a34.21,34.21,0,0,1,5.35,4.34,9.66,9.66,0,0,0,1-4.23,9.41,9.41,0,0,0-18.68-1.58A14.21,14.21,0,0,1,85.37,47" transform="translate(-26.24 -23.68)"/></svg>