<svg id="Layer_1" data-name="Layer 1" xmlns="http://www.w3.org/2000/svg" viewBox="0 0 204.12 66.84"><defs><style>.cls-1{fill:#231f20;}.cls-2{fill:#f15c2b;}</style></defs><title>national</title><path class="cls-1" d="M65.7,75.46l1.38-.08a2.14,2.14,0,0,0,.18.92,1.37,1.37,0,0,0,.67.62,2.5,2.5,0,0,0,1.13.24,2.28,2.28,0,0,0,1.35-.33,1,1,0,0,0,.45-.78.89.89,0,0,0-.27-.62,4.38,4.38,0,0,0-1.36-.71,13.52,13.52,0,0,1-1.38-.6,2.18,2.18,0,0,1-.76-.67,1.55,1.55,0,0,1-.26-.88,1.88,1.88,0,0,1,.75-1.49,3.24,3.24,0,0,1,2.11-.62,3.57,3.57,0,0,1,2.3.64,2.15,2.15,0,0,1,.82,1.69l-1.34.09A1.37,1.37,0,0,0,71,71.83a2.12,2.12,0,0,0-1.36-.39,1.78,1.78,0,0,0-1.1.3.82.82,0,0,0-.39.64.76.76,0,0,0,.34.61,5.77,5.77,0,0,0,1.17.55,8.16,8.16,0,0,1,2,1,1.79,1.79,0,0,1,.65,1.4A1.86,1.86,0,0,1,71.88,77a2.47,2.47,0,0,1-1.12.84,4.56,4.56,0,0,1-1.77.32,4.25,4.25,0,0,1-2.36-.63,2.16,2.16,0,0,1-.92-2.05" transform="translate(-40.23 -20.28)"/><path class="cls-1" d="M73.28,78,75,70.63h1.37L74.65,78Zm2-8.73.32-1.42H77l-.32,1.42Z" transform="translate(-40.23 -20.28)"/><path class="cls-1" d="M76.67,78.65l1.38.11a1.23,1.23,0,0,0,.11.65.84.84,0,0,0,.41.34,2.53,2.53,0,0,0,1,.15,2.31,2.31,0,0,0,1.78-.59A4.3,4.3,0,0,0,82,77.58l.14-.6a3.28,3.28,0,0,1-2.26,1,2.75,2.75,0,0,1-2-.82A3.14,3.14,0,0,1,77,74.84a4.23,4.23,0,0,1,.65-2.28A4.59,4.59,0,0,1,79.16,71,3.54,3.54,0,0,1,81,70.46a2.7,2.7,0,0,1,2.43,1.37l.28-1.2H85l-1.63,7.1a5.61,5.61,0,0,1-.69,1.83,2.84,2.84,0,0,1-1.19,1,4.11,4.11,0,0,1-1.77.36A5.37,5.37,0,0,1,78,80.7,2.11,2.11,0,0,1,77,80a1.59,1.59,0,0,1-.34-1,2.05,2.05,0,0,1,0-.37m1.71-3.92a3.12,3.12,0,0,0,.16,1.14,1.79,1.79,0,0,0,.64.81,1.63,1.63,0,0,0,.93.28,2.42,2.42,0,0,0,1.33-.43,3,3,0,0,0,1.07-1.34,4.21,4.21,0,0,0,.41-1.73A1.93,1.93,0,0,0,82.38,72,1.86,1.86,0,0,0,81,71.47a2,2,0,0,0-1,.25,2.8,2.8,0,0,0-.87.75,3.48,3.48,0,0,0-.61,1.2,4.11,4.11,0,0,0-.21,1.06" transform="translate(-40.23 -20.28)"/><path class="cls-1" d="M85.34,78,87,70.63h1.25L88,71.92a6.49,6.49,0,0,1,1.53-1.11A3.27,3.27,0,0,1,91,70.46a2.27,2.27,0,0,1,1.54.49,1.65,1.65,0,0,1,.56,1.31,6.28,6.28,0,0,1-.21,1.28L91.77,78H90.4l1.13-4.66a4.65,4.65,0,0,0,.17-1,.73.73,0,0,0-.28-.6,1.25,1.25,0,0,0-.81-.23,2.87,2.87,0,0,0-1.9.7,4.27,4.27,0,0,0-1.22,2.38L86.71,78Z" transform="translate(-40.23 -20.28)"/><path class="cls-1" d="M99.34,77.07a5.46,5.46,0,0,1-1.37.82,3.78,3.78,0,0,1-1.4.26,2.6,2.6,0,0,1-1.79-.6,2.08,2.08,0,0,1-.37-2.62,2.31,2.31,0,0,1,.81-.76,3.79,3.79,0,0,1,1.24-.41,15.14,15.14,0,0,1,1.75-.13,6.78,6.78,0,0,0,1.85-.25,3,3,0,0,0,.16-.85.8.8,0,0,0-.35-.68,2.36,2.36,0,0,0-1.39-.34,2.58,2.58,0,0,0-1.41.35,2,2,0,0,0-.8,1l-1.38-.11A3.35,3.35,0,0,1,96.23,71a4.26,4.26,0,0,1,2.32-.58,3.84,3.84,0,0,1,2.36.65,1.49,1.49,0,0,1,.67,1.26,5.85,5.85,0,0,1-.19,1.36l-.45,1.83a6.25,6.25,0,0,0-.21,1.42,4.36,4.36,0,0,0,.17,1H99.5a4.27,4.27,0,0,1-.16-.91m.51-2.81a3.58,3.58,0,0,1-.62.16q-.33.06-1.1.12a9.16,9.16,0,0,0-1.68.25,1.4,1.4,0,0,0-.74.47,1.15,1.15,0,0,0-.25.72,1.08,1.08,0,0,0,.4.86,1.69,1.69,0,0,0,1.13.34,2.78,2.78,0,0,0,1.31-.33,2.5,2.5,0,0,0,1-.92,5,5,0,0,0,.57-1.67" transform="translate(-40.23 -20.28)"/><polygon class="cls-1" points="62.22 57.7 64.54 47.55 65.91 47.55 63.59 57.7 62.22 57.7"/><path class="cls-1" d="M110.24,78l1.68-7.35h1.37L111.61,78Zm2-8.73.32-1.42h1.37l-.32,1.42Z" transform="translate(-40.23 -20.28)"/><path class="cls-1" d="M113.7,78l1.68-7.35h1.25l-.29,1.29a6.49,6.49,0,0,1,1.53-1.11,3.27,3.27,0,0,1,1.45-.35,2.27,2.27,0,0,1,1.54.49,1.65,1.65,0,0,1,.56,1.31,6.28,6.28,0,0,1-.21,1.28L120.14,78h-1.37l1.13-4.66a4.65,4.65,0,0,0,.17-1,.73.73,0,0,0-.28-.6,1.25,1.25,0,0,0-.81-.23,2.87,2.87,0,0,0-1.9.7,4.27,4.27,0,0,0-1.22,2.38L115.08,78Z" transform="translate(-40.23 -20.28)"/><path class="cls-1" d="M127.82,75.3l1.38.13a4.22,4.22,0,0,1-1.46,2.05,3.64,3.64,0,0,1-2.15.67,2.94,2.94,0,0,1-2.12-.78,2.85,2.85,0,0,1-.81-2.17,5.74,5.74,0,0,1,.52-2.37,3.89,3.89,0,0,1,1.49-1.77,4.09,4.09,0,0,1,2.21-.61,3,3,0,0,1,2,.67,2.25,2.25,0,0,1,.75,1.77l-1.34.09a1.45,1.45,0,0,0-.44-1.11,1.62,1.62,0,0,0-1.14-.4,2.23,2.23,0,0,0-1.43.48,3.11,3.11,0,0,0-.95,1.45,5.62,5.62,0,0,0-.34,1.87,2,2,0,0,0,.45,1.41,1.48,1.48,0,0,0,1.11.47,2.06,2.06,0,0,0,1.27-.46,3,3,0,0,0,1-1.41" transform="translate(-40.23 -20.28)"/><path class="cls-1" d="M130.27,75.19a4.89,4.89,0,0,1,1.38-3.56,4,4,0,0,1,3-1.16,3.28,3.28,0,0,1,2.34.83,2.92,2.92,0,0,1,.89,2.24,5.1,5.1,0,0,1-.56,2.36,3.93,3.93,0,0,1-1.59,1.67,4.35,4.35,0,0,1-2.17.58,3.9,3.9,0,0,1-1.7-.37,2.66,2.66,0,0,1-1.17-1,3,3,0,0,1-.4-1.55m1.35-.13a2.11,2.11,0,0,0,.54,1.57,1.89,1.89,0,0,0,1.38.54,2.43,2.43,0,0,0,.87-.16,2.54,2.54,0,0,0,.8-.49,3.4,3.4,0,0,0,.63-.76,4.23,4.23,0,0,0,.42-.91,4,4,0,0,0,.23-1.31A2.1,2.1,0,0,0,136,72a1.87,1.87,0,0,0-1.38-.55,2.48,2.48,0,0,0-1.17.28,3.06,3.06,0,0,0-1,.82,3.53,3.53,0,0,0-.63,1.25,4.77,4.77,0,0,0-.2,1.27" transform="translate(-40.23 -20.28)"/><path class="cls-1" d="M138.63,78l1.68-7.35h1.22l-.35,1.51a5.38,5.38,0,0,1,1.22-1.26,2.11,2.11,0,0,1,1.21-.41,2.58,2.58,0,0,1,1,.27l-.56,1.16a1.41,1.41,0,0,0-.78-.23,2.19,2.19,0,0,0-1.48.73,5.38,5.38,0,0,0-1.2,2.64L139.93,78Z" transform="translate(-40.23 -20.28)"/><path class="cls-1" d="M143.13,80.8l2.33-10.18h1.27l-.23,1a5,5,0,0,1,1.26-.93,2.72,2.72,0,0,1,1.17-.26,2.55,2.55,0,0,1,1.9.77,3,3,0,0,1,.75,2.19,5.14,5.14,0,0,1-.42,2.09,4.64,4.64,0,0,1-1,1.52,4.29,4.29,0,0,1-1.22.85,3.17,3.17,0,0,1-1.27.27,2.48,2.48,0,0,1-2.24-1.34l-.91,4ZM145.84,75a3.4,3.4,0,0,0,.13,1.14,1.57,1.57,0,0,0,.62.72,1.81,1.81,0,0,0,1,.28,2.16,2.16,0,0,0,1.91-1.22,4.77,4.77,0,0,0,.73-2.48,2,2,0,0,0-.49-1.44,1.61,1.61,0,0,0-1.22-.51,1.92,1.92,0,0,0-1,.25,2.79,2.79,0,0,0-.83.76,4.38,4.38,0,0,0-.63,1.23,4,4,0,0,0-.25,1.27" transform="translate(-40.23 -20.28)"/><path class="cls-1" d="M152.62,75.19A4.89,4.89,0,0,1,154,71.63a4,4,0,0,1,3-1.16,3.28,3.28,0,0,1,2.34.83,2.93,2.93,0,0,1,.89,2.24,5.1,5.1,0,0,1-.56,2.36,3.92,3.92,0,0,1-1.59,1.67,4.35,4.35,0,0,1-2.17.58,3.9,3.9,0,0,1-1.7-.37,2.67,2.67,0,0,1-1.17-1,3,3,0,0,1-.4-1.55m1.35-.13a2.11,2.11,0,0,0,.54,1.57,1.89,1.89,0,0,0,1.38.54,2.43,2.43,0,0,0,.87-.16,2.55,2.55,0,0,0,.8-.49,3.4,3.4,0,0,0,.63-.76,4.23,4.23,0,0,0,.42-.91,4,4,0,0,0,.24-1.31,2.1,2.1,0,0,0-.55-1.54,1.87,1.87,0,0,0-1.38-.55,2.48,2.48,0,0,0-1.17.28,3.06,3.06,0,0,0-1,.82,3.54,3.54,0,0,0-.63,1.25,4.77,4.77,0,0,0-.2,1.27" transform="translate(-40.23 -20.28)"/><path class="cls-1" d="M161,78l1.68-7.35h1.22l-.35,1.51a5.4,5.4,0,0,1,1.22-1.26,2.11,2.11,0,0,1,1.21-.41,2.58,2.58,0,0,1,1,.27l-.56,1.16a1.42,1.42,0,0,0-.78-.23,2.19,2.19,0,0,0-1.48.73A5.36,5.36,0,0,0,163,75L162.28,78Z" transform="translate(-40.23 -20.28)"/><path class="cls-1" d="M171.53,77.07a5.44,5.44,0,0,1-1.37.82,3.78,3.78,0,0,1-1.4.26,2.6,2.6,0,0,1-1.79-.6,2.08,2.08,0,0,1-.37-2.62,2.31,2.31,0,0,1,.81-.76,3.79,3.79,0,0,1,1.24-.41,15.14,15.14,0,0,1,1.75-.13,6.78,6.78,0,0,0,1.85-.25,3,3,0,0,0,.16-.85.8.8,0,0,0-.35-.68,2.36,2.36,0,0,0-1.39-.34,2.58,2.58,0,0,0-1.41.35,2,2,0,0,0-.8,1l-1.38-.11A3.35,3.35,0,0,1,168.42,71a4.26,4.26,0,0,1,2.32-.58,3.84,3.84,0,0,1,2.36.65,1.49,1.49,0,0,1,.67,1.26,5.85,5.85,0,0,1-.19,1.36l-.45,1.83a6.25,6.25,0,0,0-.21,1.42,4.36,4.36,0,0,0,.17,1h-1.39a4.2,4.2,0,0,1-.16-.91m.51-2.81a3.58,3.58,0,0,1-.62.16q-.33.06-1.1.12a9.18,9.18,0,0,0-1.68.25,1.41,1.41,0,0,0-.74.47,1.15,1.15,0,0,0-.25.72,1.08,1.08,0,0,0,.4.86,1.69,1.69,0,0,0,1.13.34,2.78,2.78,0,0,0,1.31-.33,2.51,2.51,0,0,0,1-.92,5,5,0,0,0,.57-1.67" transform="translate(-40.23 -20.28)"/><path class="cls-1" d="M177.93,77l-.23,1a4,4,0,0,1-1,.12,2.1,2.1,0,0,1-1.3-.37.9.9,0,0,1-.36-.76,7,7,0,0,1,.2-1.12l1-4.29h-1.08l.21-.95h1.08l.42-1.81,1.56-.87-.61,2.67h1.34l-.21.95h-1.34l-.92,4.08a7.07,7.07,0,0,0-.17.93.42.42,0,0,0,.14.34.71.71,0,0,0,.46.12,3.72,3.72,0,0,0,.81-.08" transform="translate(-40.23 -20.28)"/><path class="cls-1" d="M184.92,75.5l1.33.11a3.69,3.69,0,0,1-1.32,1.72,3.87,3.87,0,0,1-2.47.81,3.57,3.57,0,0,1-1.64-.38,2.59,2.59,0,0,1-1.14-1.1A3.39,3.39,0,0,1,179.3,75a4.87,4.87,0,0,1,.61-2.34A4.1,4.1,0,0,1,181.49,71a4.18,4.18,0,0,1,2.1-.55,3.2,3.2,0,0,1,2.3.82,2.93,2.93,0,0,1,.86,2.23,6.07,6.07,0,0,1-.1,1.11H180.7a3.3,3.3,0,0,0,0,.39,2.19,2.19,0,0,0,.52,1.57,1.69,1.69,0,0,0,1.27.54,2.64,2.64,0,0,0,1.39-.42,2.79,2.79,0,0,0,1.06-1.2m-4-1.84h4.53c0-.13,0-.22,0-.28a1.93,1.93,0,0,0-.52-1.45,1.83,1.83,0,0,0-1.33-.5A2.58,2.58,0,0,0,182,72a3.28,3.28,0,0,0-1.08,1.67" transform="translate(-40.23 -20.28)"/><path class="cls-1" d="M193,76.91a3.4,3.4,0,0,1-2.45,1.23,2.56,2.56,0,0,1-1.9-.77,3.06,3.06,0,0,1-.76-2.24,5.07,5.07,0,0,1,.6-2.45A4.28,4.28,0,0,1,190,71a3.44,3.44,0,0,1,1.81-.55,2.46,2.46,0,0,1,2.26,1.32l.91-3.95h1.37L194,78h-1.27Zm-3.76-2a3.53,3.53,0,0,0,.17,1.21,1.59,1.59,0,0,0,1.53,1,2.21,2.21,0,0,0,1.69-.89,4.29,4.29,0,0,0,1-2.91,1.84,1.84,0,0,0-.5-1.37,1.72,1.72,0,0,0-1.26-.49,2,2,0,0,0-.9.2,2.56,2.56,0,0,0-.81.68,4.19,4.19,0,0,0-.67,1.22,3.85,3.85,0,0,0-.27,1.3" transform="translate(-40.23 -20.28)"/><path class="cls-2" d="M197,71.33A1.32,1.32,0,1,0,195.76,70,1.29,1.29,0,0,0,197,71.33" transform="translate(-40.23 -20.28)"/><path class="cls-2" d="M201,63.9a1.26,1.26,0,0,0-.52,1.65,1.13,1.13,0,0,0,1.5.55l.06,0a1.24,1.24,0,0,0,.53-1.61A1.15,1.15,0,0,0,201,63.9" transform="translate(-40.23 -20.28)"/><path class="cls-2" d="M204.93,59.11a1.45,1.45,0,0,0,.21,2,1.27,1.27,0,0,0,1.83-.22l0-.08a1.43,1.43,0,0,0-.21-1.9,1.3,1.3,0,0,0-1.89.22" transform="translate(-40.23 -20.28)"/><path class="cls-2" d="M208.89,54.31a1.81,1.81,0,0,0,.94,2.31,1.64,1.64,0,0,0,2.16-1l0-.12a1.78,1.78,0,0,0-.94-2.19,1.67,1.67,0,0,0-2.2,1" transform="translate(-40.23 -20.28)"/><path class="cls-2" d="M212.84,49.52a2.24,2.24,0,0,0,1.67,2.64A2.13,2.13,0,0,0,217,50.4c0-.05,0-.1,0-.16a2.22,2.22,0,0,0-1.67-2.48,2.14,2.14,0,0,0-2.51,1.76" transform="translate(-40.23 -20.28)"/><path class="cls-2" d="M216.8,44.73a2.72,2.72,0,0,0,2.41,3A2.66,2.66,0,0,0,222,45.17c0-.07,0-.13,0-.2a2.7,2.7,0,0,0-2.4-2.77,2.67,2.67,0,0,0-2.83,2.53" transform="translate(-40.23 -20.28)"/><path class="cls-2" d="M224.26,42.87a3.3,3.3,0,1,0-3.14-3.3,3.22,3.22,0,0,0,3.14,3.3" transform="translate(-40.23 -20.28)"/><path class="cls-2" d="M202.57,76.7a1.32,1.32,0,1,0-1.26-1.32,1.29,1.29,0,0,0,1.26,1.32" transform="translate(-40.23 -20.28)"/><path class="cls-2" d="M207.54,81.91a1.32,1.32,0,1,0-1.26-1.32,1.29,1.29,0,0,0,1.26,1.32" transform="translate(-40.23 -20.28)"/><path class="cls-2" d="M212.51,87.13a1.32,1.32,0,1,0-1.26-1.32,1.29,1.29,0,0,0,1.26,1.32" transform="translate(-40.23 -20.28)"/><path class="cls-2" d="M206.53,69.27a1.26,1.26,0,0,0-.52,1.65,1.13,1.13,0,0,0,1.5.55l.07,0a1.24,1.24,0,0,0,.53-1.61,1.15,1.15,0,0,0-1.57-.55" transform="translate(-40.23 -20.28)"/><path class="cls-2" d="M210.48,64.47a1.46,1.46,0,0,0,.21,2,1.27,1.27,0,0,0,1.83-.22l.05-.08a1.42,1.42,0,0,0-.21-1.9,1.3,1.3,0,0,0-1.88.22" transform="translate(-40.23 -20.28)"/><path class="cls-2" d="M214.44,59.68a1.81,1.81,0,0,0,.94,2.31,1.65,1.65,0,0,0,2.16-1l0-.12a1.78,1.78,0,0,0-.94-2.19,1.67,1.67,0,0,0-2.2,1" transform="translate(-40.23 -20.28)"/><path class="cls-2" d="M218.4,54.88a2.24,2.24,0,0,0,1.68,2.64,2.13,2.13,0,0,0,2.49-1.76c0-.05,0-.1,0-.16a2.22,2.22,0,0,0-1.67-2.48,2.14,2.14,0,0,0-2.51,1.76" transform="translate(-40.23 -20.28)"/><path class="cls-2" d="M222.35,50.09a2.72,2.72,0,0,0,2.41,3,2.66,2.66,0,0,0,2.81-2.53c0-.07,0-.13,0-.2a2.7,2.7,0,0,0-2.4-2.77,2.67,2.67,0,0,0-2.83,2.53" transform="translate(-40.23 -20.28)"/><path class="cls-2" d="M229.81,48.24a3.3,3.3,0,1,0-3.14-3.3,3.22,3.22,0,0,0,3.14,3.3" transform="translate(-40.23 -20.28)"/><path class="cls-2" d="M235.68,53.77a3.3,3.3,0,1,0-3.14-3.3,3.22,3.22,0,0,0,3.14,3.3" transform="translate(-40.23 -20.28)"/><path class="cls-2" d="M241.2,58.94a3.3,3.3,0,1,0-3.14-3.3,3.22,3.22,0,0,0,3.14,3.3" transform="translate(-40.23 -20.28)"/><path class="cls-2" d="M212.08,74.63a1.26,1.26,0,0,0-.52,1.65,1.13,1.13,0,0,0,1.5.55l.07,0a1.24,1.24,0,0,0,.53-1.61,1.15,1.15,0,0,0-1.57-.55" transform="translate(-40.23 -20.28)"/><path class="cls-2" d="M216.76,79.54a1.26,1.26,0,0,0-.52,1.65,1.13,1.13,0,0,0,1.5.55l.07,0a1.24,1.24,0,0,0,.52-1.61,1.15,1.15,0,0,0-1.57-.55" transform="translate(-40.23 -20.28)"/><path class="cls-2" d="M216,69.84a1.46,1.46,0,0,0,.21,2,1.28,1.28,0,0,0,1.83-.22l.05-.08a1.43,1.43,0,0,0-.21-1.9,1.3,1.3,0,0,0-1.88.22" transform="translate(-40.23 -20.28)"/><path class="cls-2" d="M220,65a1.81,1.81,0,0,0,.94,2.31,1.65,1.65,0,0,0,2.16-1l0-.12a1.78,1.78,0,0,0-.94-2.19,1.67,1.67,0,0,0-2.2,1" transform="translate(-40.23 -20.28)"/><path class="cls-2" d="M224,60.25a2.24,2.24,0,0,0,1.68,2.64,2.13,2.13,0,0,0,2.49-1.76c0-.05,0-.1,0-.16a2.22,2.22,0,0,0-1.67-2.48A2.14,2.14,0,0,0,224,60.25" transform="translate(-40.23 -20.28)"/><path class="cls-2" d="M229.21,65.77a2.24,2.24,0,0,0,1.67,2.64,2.13,2.13,0,0,0,2.49-1.76c0-.05,0-.1,0-.16A2.22,2.22,0,0,0,231.72,64a2.14,2.14,0,0,0-2.51,1.76" transform="translate(-40.23 -20.28)"/><path class="cls-2" d="M227.91,55.45a2.72,2.72,0,0,0,2.41,3,2.66,2.66,0,0,0,2.81-2.53c0-.07,0-.13,0-.2a2.7,2.7,0,0,0-2.4-2.77,2.67,2.67,0,0,0-2.83,2.53" transform="translate(-40.23 -20.28)"/><path class="cls-2" d="M233.3,61.11a2.72,2.72,0,0,0,2.41,3,2.66,2.66,0,0,0,2.81-2.53c0-.07,0-.13,0-.2a2.7,2.7,0,0,0-2.4-2.77,2.67,2.67,0,0,0-2.83,2.53" transform="translate(-40.23 -20.28)"/><path class="cls-2" d="M191.91,66a1.32,1.32,0,1,0-1.26-1.32A1.29,1.29,0,0,0,191.91,66" transform="translate(-40.23 -20.28)"/><path class="cls-2" d="M195.86,58.54a1.26,1.26,0,0,0-.52,1.65,1.13,1.13,0,0,0,1.5.55l.07,0a1.24,1.24,0,0,0,.52-1.61,1.14,1.14,0,0,0-1.57-.55" transform="translate(-40.23 -20.28)"/><path class="cls-2" d="M199.82,53.74a1.46,1.46,0,0,0,.21,2,1.27,1.27,0,0,0,1.83-.22l.05-.08a1.42,1.42,0,0,0-.21-1.9,1.3,1.3,0,0,0-1.88.22" transform="translate(-40.23 -20.28)"/><path class="cls-2" d="M203.78,49a1.81,1.81,0,0,0,.94,2.31,1.65,1.65,0,0,0,2.16-1l0-.12A1.78,1.78,0,0,0,206,48a1.67,1.67,0,0,0-2.2,1" transform="translate(-40.23 -20.28)"/><path class="cls-2" d="M207.73,44.16a2.24,2.24,0,0,0,1.68,2.64A2.13,2.13,0,0,0,211.9,45c0-.05,0-.1,0-.16a2.22,2.22,0,0,0-1.67-2.48,2.14,2.14,0,0,0-2.51,1.76" transform="translate(-40.23 -20.28)"/><path class="cls-2" d="M211.69,39.36a2.72,2.72,0,0,0,2.41,3,2.66,2.66,0,0,0,2.81-2.53c0-.07,0-.13,0-.2a2.7,2.7,0,0,0-2.4-2.77,2.67,2.67,0,0,0-2.83,2.53" transform="translate(-40.23 -20.28)"/><path class="cls-2" d="M219.15,37.51a3.3,3.3,0,1,0-3.14-3.3,3.22,3.22,0,0,0,3.14,3.3" transform="translate(-40.23 -20.28)"/><path class="cls-2" d="M214.08,32.19a3.3,3.3,0,1,0-3.14-3.3,3.22,3.22,0,0,0,3.14,3.3" transform="translate(-40.23 -20.28)"/><path class="cls-2" d="M209,26.88a3.3,3.3,0,1,0-3.14-3.3,3.22,3.22,0,0,0,3.14,3.3" transform="translate(-40.23 -20.28)"/><path class="cls-2" d="M186.8,60.61a1.32,1.32,0,1,0-1.26-1.32,1.29,1.29,0,0,0,1.26,1.32" transform="translate(-40.23 -20.28)"/><path class="cls-2" d="M181.76,55.32A1.32,1.32,0,1,0,180.51,54a1.29,1.29,0,0,0,1.26,1.32" transform="translate(-40.23 -20.28)"/><path class="cls-2" d="M190.75,53.17a1.26,1.26,0,0,0-.52,1.65,1.13,1.13,0,0,0,1.5.55l.07,0a1.23,1.23,0,0,0,.52-1.61,1.15,1.15,0,0,0-1.57-.55" transform="translate(-40.23 -20.28)"/><path class="cls-2" d="M185.61,47.78a1.26,1.26,0,0,0-.52,1.65,1.13,1.13,0,0,0,1.5.55l.07,0a1.24,1.24,0,0,0,.53-1.61,1.15,1.15,0,0,0-1.57-.55" transform="translate(-40.23 -20.28)"/><path class="cls-2" d="M194.71,48.38a1.46,1.46,0,0,0,.21,2,1.27,1.27,0,0,0,1.83-.22l0-.08a1.42,1.42,0,0,0-.21-1.9,1.3,1.3,0,0,0-1.88.22" transform="translate(-40.23 -20.28)"/><path class="cls-2" d="M198.67,43.59a1.81,1.81,0,0,0,.94,2.31,1.64,1.64,0,0,0,2.16-1l0-.12a1.78,1.78,0,0,0-.94-2.19,1.67,1.67,0,0,0-2.2,1" transform="translate(-40.23 -20.28)"/><path class="cls-2" d="M202.62,38.79a2.24,2.24,0,0,0,1.68,2.64,2.13,2.13,0,0,0,2.49-1.76c0-.05,0-.1,0-.16A2.21,2.21,0,0,0,205.14,37a2.14,2.14,0,0,0-2.51,1.76" transform="translate(-40.23 -20.28)"/><path class="cls-2" d="M206.58,34A2.72,2.72,0,0,0,209,37a2.66,2.66,0,0,0,2.81-2.53c0-.07,0-.13,0-.2a2.7,2.7,0,0,0-2.4-2.77A2.67,2.67,0,0,0,206.58,34" transform="translate(-40.23 -20.28)"/><path class="cls-2" d="M201.55,28.72a2.72,2.72,0,0,0,2.41,3,2.66,2.66,0,0,0,2.81-2.53c0-.07,0-.13,0-.2a2.7,2.7,0,0,0-2.4-2.77,2.67,2.67,0,0,0-2.83,2.53" transform="translate(-40.23 -20.28)"/><path class="cls-2" d="M189.6,43a1.46,1.46,0,0,0,.21,2,1.27,1.27,0,0,0,1.83-.22l0-.08a1.42,1.42,0,0,0-.21-1.9,1.3,1.3,0,0,0-1.89.22" transform="translate(-40.23 -20.28)"/><path class="cls-2" d="M193.56,38.22a1.81,1.81,0,0,0,.94,2.31,1.65,1.65,0,0,0,2.16-1l0-.12a1.78,1.78,0,0,0-.94-2.19,1.67,1.67,0,0,0-2.2,1" transform="translate(-40.23 -20.28)"/><path class="cls-2" d="M198.17,32.21a2.28,2.28,0,0,0,1,3.85,2.13,2.13,0,0,0,2.49-1.76c0-.05,0-.1,0-.16A2.22,2.22,0,0,0,200,31.67a2,2,0,0,0-.68,0,7.8,7.8,0,0,0-1.18.57" transform="translate(-40.23 -20.28)"/><path class="cls-2" d="M221.15,75.2a1.45,1.45,0,0,0,.21,2,1.27,1.27,0,0,0,1.83-.22l.05-.08A1.43,1.43,0,0,0,223,75a1.3,1.3,0,0,0-1.88.22" transform="translate(-40.23 -20.28)"/><path class="cls-2" d="M225.1,70.4a1.81,1.81,0,0,0,.94,2.31,1.65,1.65,0,0,0,2.16-1l0-.12a1.78,1.78,0,0,0-.94-2.19,1.67,1.67,0,0,0-2.2,1" transform="translate(-40.23 -20.28)"/><polygon class="cls-1" points="6.77 43.27 9.68 30.44 11.59 43.3 18.77 43.27 25.21 19.6 18.46 19.6 15.53 32.82 13.61 19.56 6.52 19.56 0 43.3 6.77 43.27"/><polygon class="cls-1" points="102.86 43.19 105.68 30.44 107.62 43.22 114.84 43.27 121.21 19.6 114.45 19.6 111.53 32.82 109.55 19.51 102.46 19.51 96.02 43.16 102.86 43.19"/><path class="cls-1" d="M74.1,39.89l8.54-.07V63.59l-7.18,0,.3-4.63-5.39,0-2,4.65h-7.2ZM72.32,54.83l3.71.05,1.22-10.36Z" transform="translate(-40.23 -20.28)"/><path class="cls-1" d="M170,39.89l8.58,0-.05,23.58-7.07,0,.45-4.6-5.63.07-2,4.65H157ZM168.3,54.77l3.91,0,.93-10.2Z" transform="translate(-40.23 -20.28)"/><polygon class="cls-1" points="47.94 19.48 46.44 24.38 52.17 24.42 46.88 43.24 54.12 43.22 59.2 24.43 64.9 24.38 66.17 19.48 47.94 19.48"/><polygon class="cls-1" points="69.21 19.48 76.3 19.48 69.78 43.19 62.69 43.3 69.21 19.48"/><polygon class="cls-1" points="146.87 19.48 153.73 19.6 148.67 38.42 157.11 38.42 155.98 43.19 140.23 43.19 146.87 19.48"/><path class="cls-1" d="M118.56,45.48c1.46-3.33,4.73-5.94,11.34-5.83,7.22.43,8.44,3.12,7.34,7.73L134.42,58c-1.12,3.33-4.48,5.78-11.29,5.78-4.12,0-8.74-1-7.72-6.61,1.13-5,3.15-11.67,3.15-11.67m6.71.47c-.68,2.5-2,6.52-2.75,9.85-.76,2.53-.41,3.66,1.78,3.77,1.8.36,3.22-1.38,3.56-2.69S130.5,47,130.5,47c.34-1.43,1.22-3-1.59-3.4,0,0-3-.13-3.64,2.38" transform="translate(-40.23 -20.28)"/></svg>