<svg id="Layer_1" data-name="Layer 1" xmlns="http://www.w3.org/2000/svg" viewBox="0 0 204.12 66.84"><defs><style>.cls-1{fill:#fff;}</style></defs><title>national-white</title><path class="cls-1" d="M64.39,74.13l1.38-.08a2.14,2.14,0,0,0,.18.92,1.37,1.37,0,0,0,.67.62,2.5,2.5,0,0,0,1.13.24,2.28,2.28,0,0,0,1.35-.33,1,1,0,0,0,.45-.78.89.89,0,0,0-.27-.62,4.38,4.38,0,0,0-1.36-.71,13.52,13.52,0,0,1-1.38-.6,2.18,2.18,0,0,1-.76-.67,1.55,1.55,0,0,1-.26-.88,1.88,1.88,0,0,1,.75-1.49,3.24,3.24,0,0,1,2.11-.62,3.57,3.57,0,0,1,2.3.64,2.15,2.15,0,0,1,.82,1.69l-1.34.09a1.37,1.37,0,0,0-.51-1.05,2.12,2.12,0,0,0-1.36-.39,1.78,1.78,0,0,0-1.1.3.82.82,0,0,0-.39.64.76.76,0,0,0,.34.61,5.77,5.77,0,0,0,1.17.55,8.16,8.16,0,0,1,2,1,1.79,1.79,0,0,1,.65,1.4,1.86,1.86,0,0,1-.37,1.07,2.47,2.47,0,0,1-1.12.84,4.56,4.56,0,0,1-1.77.32,4.25,4.25,0,0,1-2.36-.63,2.16,2.16,0,0,1-.92-2.05" transform="translate(-38.91 -18.95)"/><path class="cls-1" d="M72,76.65l1.68-7.35H75l-1.68,7.35Zm2-8.73.32-1.42h1.37l-.32,1.42Z" transform="translate(-38.91 -18.95)"/><path class="cls-1" d="M75.35,77.32l1.38.11a1.23,1.23,0,0,0,.11.65.84.84,0,0,0,.41.34,2.53,2.53,0,0,0,1,.15A2.31,2.31,0,0,0,80,78a4.3,4.3,0,0,0,.66-1.73l.14-.6a3.28,3.28,0,0,1-2.26,1,2.75,2.75,0,0,1-2-.82,3.14,3.14,0,0,1-.82-2.32,4.23,4.23,0,0,1,.65-2.28,4.59,4.59,0,0,1,1.53-1.57,3.54,3.54,0,0,1,1.83-.53,2.7,2.7,0,0,1,2.43,1.37l.28-1.2h1.27L82,76.39a5.61,5.61,0,0,1-.69,1.83,2.84,2.84,0,0,1-1.19,1,4.11,4.11,0,0,1-1.77.36,5.37,5.37,0,0,1-1.66-.23,2.11,2.11,0,0,1-1-.67,1.59,1.59,0,0,1-.34-1,2.05,2.05,0,0,1,0-.37m1.71-3.92a3.12,3.12,0,0,0,.16,1.14,1.79,1.79,0,0,0,.64.81,1.63,1.63,0,0,0,.93.28,2.42,2.42,0,0,0,1.33-.43,3,3,0,0,0,1.07-1.34,4.21,4.21,0,0,0,.41-1.73,1.93,1.93,0,0,0-.55-1.44,1.86,1.86,0,0,0-1.35-.54,2,2,0,0,0-1,.25,2.8,2.8,0,0,0-.87.75,3.48,3.48,0,0,0-.61,1.2,4.11,4.11,0,0,0-.21,1.06" transform="translate(-38.91 -18.95)"/><path class="cls-1" d="M84,76.65l1.68-7.35H87l-.29,1.29a6.49,6.49,0,0,1,1.53-1.11,3.27,3.27,0,0,1,1.45-.35,2.27,2.27,0,0,1,1.54.49,1.65,1.65,0,0,1,.56,1.31,6.28,6.28,0,0,1-.21,1.28l-1.08,4.44H89.09L90.21,72a4.65,4.65,0,0,0,.17-1,.73.73,0,0,0-.28-.6,1.25,1.25,0,0,0-.81-.23,2.87,2.87,0,0,0-1.9.7,4.27,4.27,0,0,0-1.22,2.38l-.78,3.42Z" transform="translate(-38.91 -18.95)"/><path class="cls-1" d="M98,75.73a5.46,5.46,0,0,1-1.37.82,3.78,3.78,0,0,1-1.4.26,2.6,2.6,0,0,1-1.79-.6,2.08,2.08,0,0,1-.37-2.62,2.31,2.31,0,0,1,.81-.76,3.79,3.79,0,0,1,1.24-.41,15.14,15.14,0,0,1,1.75-.13A6.78,6.78,0,0,0,98.74,72a3,3,0,0,0,.16-.85.8.8,0,0,0-.35-.68,2.36,2.36,0,0,0-1.39-.34,2.58,2.58,0,0,0-1.41.35,2,2,0,0,0-.8,1l-1.38-.11a3.35,3.35,0,0,1,1.34-1.67,4.26,4.26,0,0,1,2.32-.58,3.84,3.84,0,0,1,2.36.65,1.49,1.49,0,0,1,.67,1.26,5.85,5.85,0,0,1-.19,1.36l-.45,1.83a6.25,6.25,0,0,0-.21,1.42,4.36,4.36,0,0,0,.17,1H98.19a4.27,4.27,0,0,1-.16-.91m.51-2.81a3.58,3.58,0,0,1-.62.16q-.33.06-1.1.12a9.16,9.16,0,0,0-1.68.25,1.4,1.4,0,0,0-.74.47,1.15,1.15,0,0,0-.25.72,1.08,1.08,0,0,0,.4.86,1.69,1.69,0,0,0,1.13.34A2.78,2.78,0,0,0,97,75.51a2.5,2.5,0,0,0,1-.92,5,5,0,0,0,.57-1.67" transform="translate(-38.91 -18.95)"/><polygon class="cls-1" points="62.22 57.7 64.54 47.55 65.91 47.55 63.59 57.7 62.22 57.7"/><path class="cls-1" d="M108.93,76.65l1.68-7.35H112l-1.68,7.35Zm2-8.73.32-1.42h1.37l-.32,1.42Z" transform="translate(-38.91 -18.95)"/><path class="cls-1" d="M112.39,76.65l1.68-7.35h1.25L115,70.59a6.49,6.49,0,0,1,1.53-1.11,3.27,3.27,0,0,1,1.45-.35,2.27,2.27,0,0,1,1.54.49,1.65,1.65,0,0,1,.56,1.31,6.28,6.28,0,0,1-.21,1.28l-1.08,4.44h-1.37L118.57,72a4.65,4.65,0,0,0,.17-1,.73.73,0,0,0-.28-.6,1.25,1.25,0,0,0-.81-.23,2.87,2.87,0,0,0-1.9.7,4.27,4.27,0,0,0-1.22,2.38l-.78,3.42Z" transform="translate(-38.91 -18.95)"/><path class="cls-1" d="M126.5,74l1.38.13a4.22,4.22,0,0,1-1.46,2.05,3.64,3.64,0,0,1-2.15.67,2.94,2.94,0,0,1-2.12-.78,2.85,2.85,0,0,1-.81-2.17,5.74,5.74,0,0,1,.52-2.37,3.89,3.89,0,0,1,1.49-1.77,4.09,4.09,0,0,1,2.21-.61,3,3,0,0,1,2,.67,2.25,2.25,0,0,1,.75,1.77l-1.34.09a1.45,1.45,0,0,0-.44-1.11,1.62,1.62,0,0,0-1.14-.4,2.23,2.23,0,0,0-1.43.48,3.11,3.11,0,0,0-.95,1.45,5.62,5.62,0,0,0-.34,1.87,2,2,0,0,0,.45,1.41,1.48,1.48,0,0,0,1.11.47,2.06,2.06,0,0,0,1.27-.46,3,3,0,0,0,1-1.41" transform="translate(-38.91 -18.95)"/><path class="cls-1" d="M129,73.86a4.89,4.89,0,0,1,1.38-3.56,4,4,0,0,1,3-1.16,3.28,3.28,0,0,1,2.34.83,2.92,2.92,0,0,1,.89,2.24,5.1,5.1,0,0,1-.56,2.36,3.93,3.93,0,0,1-1.59,1.67,4.35,4.35,0,0,1-2.17.58,3.9,3.9,0,0,1-1.7-.37,2.66,2.66,0,0,1-1.17-1,3,3,0,0,1-.4-1.55m1.35-.13a2.11,2.11,0,0,0,.54,1.57,1.89,1.89,0,0,0,1.38.54,2.43,2.43,0,0,0,.87-.16,2.54,2.54,0,0,0,.8-.49,3.4,3.4,0,0,0,.63-.76,4.23,4.23,0,0,0,.42-.91,4,4,0,0,0,.23-1.31,2.1,2.1,0,0,0-.55-1.54,1.87,1.87,0,0,0-1.38-.55,2.48,2.48,0,0,0-1.17.28,3.06,3.06,0,0,0-1,.82,3.53,3.53,0,0,0-.63,1.25,4.77,4.77,0,0,0-.2,1.27" transform="translate(-38.91 -18.95)"/><path class="cls-1" d="M137.31,76.65,139,69.29h1.22l-.35,1.51a5.38,5.38,0,0,1,1.22-1.26,2.11,2.11,0,0,1,1.21-.41,2.58,2.58,0,0,1,1,.27l-.56,1.16a1.41,1.41,0,0,0-.78-.23,2.19,2.19,0,0,0-1.48.73,5.38,5.38,0,0,0-1.2,2.64l-.68,2.95Z" transform="translate(-38.91 -18.95)"/><path class="cls-1" d="M141.82,79.47l2.33-10.18h1.27l-.23,1a5,5,0,0,1,1.26-.93,2.72,2.72,0,0,1,1.17-.26,2.55,2.55,0,0,1,1.9.77,3,3,0,0,1,.75,2.19,5.14,5.14,0,0,1-.42,2.09,4.64,4.64,0,0,1-1,1.52,4.29,4.29,0,0,1-1.22.85,3.17,3.17,0,0,1-1.27.27,2.48,2.48,0,0,1-2.24-1.34l-.91,4Zm2.71-5.82a3.4,3.4,0,0,0,.13,1.14,1.57,1.57,0,0,0,.62.72,1.81,1.81,0,0,0,1,.28,2.16,2.16,0,0,0,1.91-1.22,4.77,4.77,0,0,0,.73-2.48,2,2,0,0,0-.49-1.44,1.61,1.61,0,0,0-1.22-.51,1.92,1.92,0,0,0-1,.25,2.79,2.79,0,0,0-.83.76,4.38,4.38,0,0,0-.63,1.23,4,4,0,0,0-.25,1.27" transform="translate(-38.91 -18.95)"/><path class="cls-1" d="M151.3,73.86a4.89,4.89,0,0,1,1.38-3.56,4,4,0,0,1,3-1.16A3.28,3.28,0,0,1,158,70a2.93,2.93,0,0,1,.89,2.24,5.1,5.1,0,0,1-.56,2.36,3.92,3.92,0,0,1-1.59,1.67,4.35,4.35,0,0,1-2.17.58,3.9,3.9,0,0,1-1.7-.37,2.67,2.67,0,0,1-1.17-1,3,3,0,0,1-.4-1.55m1.35-.13a2.11,2.11,0,0,0,.54,1.57,1.89,1.89,0,0,0,1.38.54,2.43,2.43,0,0,0,.87-.16,2.55,2.55,0,0,0,.8-.49,3.4,3.4,0,0,0,.63-.76,4.23,4.23,0,0,0,.42-.91,4,4,0,0,0,.24-1.31,2.1,2.1,0,0,0-.55-1.54,1.87,1.87,0,0,0-1.38-.55,2.48,2.48,0,0,0-1.17.28,3.06,3.06,0,0,0-1,.82,3.54,3.54,0,0,0-.63,1.25,4.77,4.77,0,0,0-.2,1.27" transform="translate(-38.91 -18.95)"/><path class="cls-1" d="M159.66,76.65l1.68-7.35h1.22l-.35,1.51a5.4,5.4,0,0,1,1.22-1.26,2.11,2.11,0,0,1,1.21-.41,2.58,2.58,0,0,1,1,.27l-.56,1.16a1.42,1.42,0,0,0-.78-.23,2.19,2.19,0,0,0-1.48.73,5.36,5.36,0,0,0-1.2,2.64L161,76.65Z" transform="translate(-38.91 -18.95)"/><path class="cls-1" d="M170.21,75.73a5.44,5.44,0,0,1-1.37.82,3.78,3.78,0,0,1-1.4.26,2.6,2.6,0,0,1-1.79-.6,2.08,2.08,0,0,1-.37-2.62,2.31,2.31,0,0,1,.81-.76,3.79,3.79,0,0,1,1.24-.41,15.14,15.14,0,0,1,1.75-.13,6.78,6.78,0,0,0,1.85-.25,3,3,0,0,0,.16-.85.8.8,0,0,0-.35-.68,2.36,2.36,0,0,0-1.39-.34,2.58,2.58,0,0,0-1.41.35,2,2,0,0,0-.8,1l-1.38-.11a3.35,3.35,0,0,1,1.34-1.67,4.26,4.26,0,0,1,2.32-.58,3.84,3.84,0,0,1,2.36.65,1.49,1.49,0,0,1,.67,1.26,5.85,5.85,0,0,1-.19,1.36l-.45,1.83a6.25,6.25,0,0,0-.21,1.42,4.36,4.36,0,0,0,.17,1h-1.39a4.2,4.2,0,0,1-.16-.91m.51-2.81a3.58,3.58,0,0,1-.62.16q-.33.06-1.1.12a9.18,9.18,0,0,0-1.68.25,1.41,1.41,0,0,0-.74.47,1.15,1.15,0,0,0-.25.72,1.08,1.08,0,0,0,.4.86,1.69,1.69,0,0,0,1.13.34,2.78,2.78,0,0,0,1.31-.33,2.51,2.51,0,0,0,1-.92,5,5,0,0,0,.57-1.67" transform="translate(-38.91 -18.95)"/><path class="cls-1" d="M176.61,75.63l-.23,1a4,4,0,0,1-1,.12,2.1,2.1,0,0,1-1.3-.37.9.9,0,0,1-.36-.76,7,7,0,0,1,.2-1.12l1-4.29h-1.08l.21-.95h1.08l.42-1.81,1.56-.87-.61,2.67h1.34l-.21.95H176.3l-.92,4.08a7.07,7.07,0,0,0-.17.93.42.42,0,0,0,.14.34.71.71,0,0,0,.46.12,3.72,3.72,0,0,0,.81-.08" transform="translate(-38.91 -18.95)"/><path class="cls-1" d="M183.6,74.17l1.33.11A3.69,3.69,0,0,1,183.61,76a3.87,3.87,0,0,1-2.47.81,3.57,3.57,0,0,1-1.64-.38,2.59,2.59,0,0,1-1.14-1.1A3.39,3.39,0,0,1,178,73.7a4.87,4.87,0,0,1,.61-2.34,4.1,4.1,0,0,1,1.58-1.68,4.18,4.18,0,0,1,2.1-.55,3.2,3.2,0,0,1,2.3.82,2.93,2.93,0,0,1,.86,2.23,6.07,6.07,0,0,1-.1,1.11h-5.93a3.3,3.3,0,0,0,0,.39,2.19,2.19,0,0,0,.52,1.57,1.69,1.69,0,0,0,1.27.54,2.64,2.64,0,0,0,1.39-.42,2.79,2.79,0,0,0,1.06-1.2m-4-1.84h4.53c0-.13,0-.22,0-.28a1.93,1.93,0,0,0-.52-1.45,1.83,1.83,0,0,0-1.33-.5,2.58,2.58,0,0,0-1.61.56,3.28,3.28,0,0,0-1.08,1.67" transform="translate(-38.91 -18.95)"/><path class="cls-1" d="M191.71,75.58a3.4,3.4,0,0,1-2.45,1.23,2.56,2.56,0,0,1-1.9-.77,3.06,3.06,0,0,1-.76-2.24,5.07,5.07,0,0,1,.6-2.45,4.28,4.28,0,0,1,1.51-1.66,3.44,3.44,0,0,1,1.81-.55,2.46,2.46,0,0,1,2.26,1.32l.91-3.95H195l-2.32,10.15h-1.27Zm-3.76-2a3.53,3.53,0,0,0,.17,1.21,1.59,1.59,0,0,0,1.53,1,2.21,2.21,0,0,0,1.69-.89,4.29,4.29,0,0,0,1-2.91,1.84,1.84,0,0,0-.5-1.37,1.72,1.72,0,0,0-1.26-.49,2,2,0,0,0-.9.2,2.56,2.56,0,0,0-.81.68,4.19,4.19,0,0,0-.67,1.22,3.85,3.85,0,0,0-.27,1.3" transform="translate(-38.91 -18.95)"/><path class="cls-1" d="M195.7,70a1.32,1.32,0,1,0-1.26-1.32A1.29,1.29,0,0,0,195.7,70" transform="translate(-38.91 -18.95)"/><path class="cls-1" d="M199.66,62.57a1.26,1.26,0,0,0-.52,1.65,1.13,1.13,0,0,0,1.5.55l.06,0a1.24,1.24,0,0,0,.53-1.61,1.15,1.15,0,0,0-1.57-.55" transform="translate(-38.91 -18.95)"/><path class="cls-1" d="M203.61,57.77a1.45,1.45,0,0,0,.21,2,1.27,1.27,0,0,0,1.83-.22l0-.08a1.43,1.43,0,0,0-.21-1.9,1.3,1.3,0,0,0-1.89.22" transform="translate(-38.91 -18.95)"/><path class="cls-1" d="M207.57,53a1.81,1.81,0,0,0,.94,2.31,1.64,1.64,0,0,0,2.16-1l0-.12a1.78,1.78,0,0,0-.94-2.19,1.67,1.67,0,0,0-2.2,1" transform="translate(-38.91 -18.95)"/><path class="cls-1" d="M211.53,48.19a2.24,2.24,0,0,0,1.67,2.64,2.13,2.13,0,0,0,2.49-1.76c0-.05,0-.1,0-.16A2.22,2.22,0,0,0,214,46.43a2.14,2.14,0,0,0-2.51,1.76" transform="translate(-38.91 -18.95)"/><path class="cls-1" d="M215.48,43.39a2.72,2.72,0,0,0,2.41,3,2.66,2.66,0,0,0,2.81-2.53c0-.07,0-.13,0-.2a2.7,2.7,0,0,0-2.4-2.77,2.67,2.67,0,0,0-2.83,2.53" transform="translate(-38.91 -18.95)"/><path class="cls-1" d="M222.94,41.54a3.3,3.3,0,1,0-3.14-3.3,3.22,3.22,0,0,0,3.14,3.3" transform="translate(-38.91 -18.95)"/><path class="cls-1" d="M201.25,75.37A1.32,1.32,0,1,0,200,74a1.29,1.29,0,0,0,1.26,1.32" transform="translate(-38.91 -18.95)"/><path class="cls-1" d="M206.22,80.58A1.32,1.32,0,1,0,205,79.26a1.29,1.29,0,0,0,1.26,1.32" transform="translate(-38.91 -18.95)"/><path class="cls-1" d="M211.19,85.79a1.32,1.32,0,1,0-1.26-1.32,1.29,1.29,0,0,0,1.26,1.32" transform="translate(-38.91 -18.95)"/><path class="cls-1" d="M205.21,67.93a1.26,1.26,0,0,0-.52,1.65,1.13,1.13,0,0,0,1.5.55l.07,0a1.24,1.24,0,0,0,.53-1.61,1.15,1.15,0,0,0-1.57-.55" transform="translate(-38.91 -18.95)"/><path class="cls-1" d="M209.17,63.14a1.46,1.46,0,0,0,.21,2,1.27,1.27,0,0,0,1.83-.22l.05-.08a1.42,1.42,0,0,0-.21-1.9,1.3,1.3,0,0,0-1.88.22" transform="translate(-38.91 -18.95)"/><path class="cls-1" d="M213.12,58.34a1.81,1.81,0,0,0,.94,2.31,1.65,1.65,0,0,0,2.16-1l0-.12a1.78,1.78,0,0,0-.94-2.19,1.67,1.67,0,0,0-2.2,1" transform="translate(-38.91 -18.95)"/><path class="cls-1" d="M217.08,53.55a2.24,2.24,0,0,0,1.68,2.64,2.13,2.13,0,0,0,2.49-1.76c0-.05,0-.1,0-.16a2.22,2.22,0,0,0-1.67-2.48,2.14,2.14,0,0,0-2.51,1.76" transform="translate(-38.91 -18.95)"/><path class="cls-1" d="M221,48.76a2.72,2.72,0,0,0,2.41,3,2.66,2.66,0,0,0,2.81-2.53c0-.07,0-.13,0-.2a2.7,2.7,0,0,0-2.4-2.77A2.67,2.67,0,0,0,221,48.76" transform="translate(-38.91 -18.95)"/><path class="cls-1" d="M228.49,46.9a3.3,3.3,0,1,0-3.14-3.3,3.22,3.22,0,0,0,3.14,3.3" transform="translate(-38.91 -18.95)"/><path class="cls-1" d="M234.36,52.44a3.3,3.3,0,1,0-3.14-3.3,3.22,3.22,0,0,0,3.14,3.3" transform="translate(-38.91 -18.95)"/><path class="cls-1" d="M239.89,57.61a3.3,3.3,0,1,0-3.14-3.3,3.22,3.22,0,0,0,3.14,3.3" transform="translate(-38.91 -18.95)"/><path class="cls-1" d="M210.76,73.3a1.26,1.26,0,0,0-.52,1.65,1.13,1.13,0,0,0,1.5.55l.07,0a1.24,1.24,0,0,0,.53-1.61,1.15,1.15,0,0,0-1.57-.55" transform="translate(-38.91 -18.95)"/><path class="cls-1" d="M215.44,78.2a1.26,1.26,0,0,0-.52,1.65,1.13,1.13,0,0,0,1.5.55l.07,0a1.24,1.24,0,0,0,.52-1.61,1.15,1.15,0,0,0-1.57-.55" transform="translate(-38.91 -18.95)"/><path class="cls-1" d="M214.72,68.5a1.46,1.46,0,0,0,.21,2,1.28,1.28,0,0,0,1.83-.22l.05-.08a1.43,1.43,0,0,0-.21-1.9,1.3,1.3,0,0,0-1.88.22" transform="translate(-38.91 -18.95)"/><path class="cls-1" d="M218.68,63.71a1.81,1.81,0,0,0,.94,2.31,1.65,1.65,0,0,0,2.16-1l0-.12a1.78,1.78,0,0,0-.94-2.19,1.67,1.67,0,0,0-2.2,1" transform="translate(-38.91 -18.95)"/><path class="cls-1" d="M222.63,58.91a2.24,2.24,0,0,0,1.68,2.64,2.13,2.13,0,0,0,2.49-1.76c0-.05,0-.1,0-.16a2.22,2.22,0,0,0-1.67-2.48,2.14,2.14,0,0,0-2.51,1.76" transform="translate(-38.91 -18.95)"/><path class="cls-1" d="M227.89,64.44a2.24,2.24,0,0,0,1.67,2.64,2.13,2.13,0,0,0,2.49-1.76c0-.05,0-.1,0-.16a2.22,2.22,0,0,0-1.67-2.48,2.14,2.14,0,0,0-2.51,1.76" transform="translate(-38.91 -18.95)"/><path class="cls-1" d="M226.59,54.12a2.72,2.72,0,0,0,2.41,3,2.66,2.66,0,0,0,2.81-2.53c0-.07,0-.13,0-.2a2.7,2.7,0,0,0-2.4-2.77,2.67,2.67,0,0,0-2.83,2.53" transform="translate(-38.91 -18.95)"/><path class="cls-1" d="M232,59.78a2.72,2.72,0,0,0,2.41,3,2.66,2.66,0,0,0,2.81-2.53c0-.07,0-.13,0-.2a2.7,2.7,0,0,0-2.4-2.77A2.67,2.67,0,0,0,232,59.78" transform="translate(-38.91 -18.95)"/><path class="cls-1" d="M190.59,64.64a1.32,1.32,0,1,0-1.26-1.32,1.29,1.29,0,0,0,1.26,1.32" transform="translate(-38.91 -18.95)"/><path class="cls-1" d="M194.55,57.21a1.26,1.26,0,0,0-.52,1.65,1.13,1.13,0,0,0,1.5.55l.07,0a1.24,1.24,0,0,0,.52-1.61,1.14,1.14,0,0,0-1.57-.55" transform="translate(-38.91 -18.95)"/><path class="cls-1" d="M198.5,52.41a1.46,1.46,0,0,0,.21,2,1.27,1.27,0,0,0,1.83-.22l.05-.08a1.42,1.42,0,0,0-.21-1.9,1.3,1.3,0,0,0-1.88.22" transform="translate(-38.91 -18.95)"/><path class="cls-1" d="M202.46,47.62a1.81,1.81,0,0,0,.94,2.31,1.65,1.65,0,0,0,2.16-1l0-.12a1.78,1.78,0,0,0-.94-2.19,1.67,1.67,0,0,0-2.2,1" transform="translate(-38.91 -18.95)"/><path class="cls-1" d="M206.42,42.82a2.24,2.24,0,0,0,1.68,2.64,2.13,2.13,0,0,0,2.49-1.76c0-.05,0-.1,0-.16a2.22,2.22,0,0,0-1.67-2.48,2.14,2.14,0,0,0-2.51,1.76" transform="translate(-38.91 -18.95)"/><path class="cls-1" d="M210.37,38a2.72,2.72,0,0,0,2.41,3,2.66,2.66,0,0,0,2.81-2.53c0-.07,0-.13,0-.2a2.7,2.7,0,0,0-2.4-2.77A2.67,2.67,0,0,0,210.37,38" transform="translate(-38.91 -18.95)"/><path class="cls-1" d="M217.83,36.17a3.3,3.3,0,1,0-3.14-3.3,3.22,3.22,0,0,0,3.14,3.3" transform="translate(-38.91 -18.95)"/><path class="cls-1" d="M212.77,30.86a3.3,3.3,0,1,0-3.14-3.3,3.22,3.22,0,0,0,3.14,3.3" transform="translate(-38.91 -18.95)"/><path class="cls-1" d="M207.7,25.55a3.3,3.3,0,1,0-3.14-3.3,3.22,3.22,0,0,0,3.14,3.3" transform="translate(-38.91 -18.95)"/><path class="cls-1" d="M185.48,59.27A1.32,1.32,0,1,0,184.22,58a1.29,1.29,0,0,0,1.26,1.32" transform="translate(-38.91 -18.95)"/><path class="cls-1" d="M180.44,54a1.32,1.32,0,1,0-1.26-1.32A1.29,1.29,0,0,0,180.44,54" transform="translate(-38.91 -18.95)"/><path class="cls-1" d="M189.44,51.84a1.26,1.26,0,0,0-.52,1.65,1.13,1.13,0,0,0,1.5.55l.07,0a1.23,1.23,0,0,0,.52-1.61,1.15,1.15,0,0,0-1.57-.55" transform="translate(-38.91 -18.95)"/><path class="cls-1" d="M184.29,46.44a1.26,1.26,0,0,0-.52,1.65,1.13,1.13,0,0,0,1.5.55l.07,0a1.24,1.24,0,0,0,.53-1.61,1.15,1.15,0,0,0-1.57-.55" transform="translate(-38.91 -18.95)"/><path class="cls-1" d="M193.39,47a1.46,1.46,0,0,0,.21,2,1.27,1.27,0,0,0,1.83-.22l0-.08a1.42,1.42,0,0,0-.21-1.9,1.3,1.3,0,0,0-1.88.22" transform="translate(-38.91 -18.95)"/><path class="cls-1" d="M197.35,42.25a1.81,1.81,0,0,0,.94,2.31,1.64,1.64,0,0,0,2.16-1l0-.12a1.78,1.78,0,0,0-.94-2.19,1.67,1.67,0,0,0-2.2,1" transform="translate(-38.91 -18.95)"/><path class="cls-1" d="M201.31,37.46A2.24,2.24,0,0,0,203,40.1a2.13,2.13,0,0,0,2.49-1.76c0-.05,0-.1,0-.16a2.21,2.21,0,0,0-1.67-2.48,2.14,2.14,0,0,0-2.51,1.76" transform="translate(-38.91 -18.95)"/><path class="cls-1" d="M205.26,32.67a2.72,2.72,0,0,0,2.41,3,2.66,2.66,0,0,0,2.81-2.53c0-.07,0-.13,0-.2a2.7,2.7,0,0,0-2.4-2.77,2.67,2.67,0,0,0-2.83,2.53" transform="translate(-38.91 -18.95)"/><path class="cls-1" d="M200.23,27.39a2.72,2.72,0,0,0,2.41,3,2.66,2.66,0,0,0,2.81-2.53c0-.07,0-.13,0-.2a2.7,2.7,0,0,0-2.4-2.77,2.67,2.67,0,0,0-2.83,2.53" transform="translate(-38.91 -18.95)"/><path class="cls-1" d="M188.28,41.68a1.46,1.46,0,0,0,.21,2,1.27,1.27,0,0,0,1.83-.22l0-.08a1.42,1.42,0,0,0-.21-1.9,1.3,1.3,0,0,0-1.89.22" transform="translate(-38.91 -18.95)"/><path class="cls-1" d="M192.24,36.89a1.81,1.81,0,0,0,.94,2.31,1.65,1.65,0,0,0,2.16-1l0-.12a1.78,1.78,0,0,0-.94-2.19,1.67,1.67,0,0,0-2.2,1" transform="translate(-38.91 -18.95)"/><path class="cls-1" d="M196.85,30.88a2.28,2.28,0,0,0,1,3.85A2.13,2.13,0,0,0,200.36,33c0-.05,0-.1,0-.16a2.22,2.22,0,0,0-1.67-2.48,2,2,0,0,0-.68,0,7.8,7.8,0,0,0-1.18.57" transform="translate(-38.91 -18.95)"/><path class="cls-1" d="M219.83,73.87a1.45,1.45,0,0,0,.21,2,1.27,1.27,0,0,0,1.83-.22l.05-.08a1.43,1.43,0,0,0-.21-1.9,1.3,1.3,0,0,0-1.88.22" transform="translate(-38.91 -18.95)"/><path class="cls-1" d="M223.79,69.07a1.81,1.81,0,0,0,.94,2.31,1.65,1.65,0,0,0,2.16-1l0-.12a1.78,1.78,0,0,0-.94-2.19,1.67,1.67,0,0,0-2.2,1" transform="translate(-38.91 -18.95)"/><polygon class="cls-1" points="6.77 43.27 9.68 30.44 11.59 43.3 18.77 43.27 25.21 19.6 18.46 19.6 15.53 32.82 13.61 19.56 6.52 19.56 0 43.3 6.77 43.27"/><polygon class="cls-1" points="102.86 43.19 105.68 30.44 107.62 43.22 114.84 43.27 121.21 19.6 114.45 19.6 111.53 32.82 109.55 19.51 102.46 19.51 96.02 43.16 102.86 43.19"/><path class="cls-1" d="M72.78,38.55l8.54-.07V62.25l-7.18,0,.3-4.63-5.39,0-2,4.65h-7.2ZM71,53.5l3.71.05L75.94,43.2Z" transform="translate(-38.91 -18.95)"/><path class="cls-1" d="M168.67,38.55l8.58,0-.05,23.58-7.07,0,.45-4.6-5.63.07-2,4.65h-7.2ZM167,53.44l3.91,0,.93-10.2Z" transform="translate(-38.91 -18.95)"/><polygon class="cls-1" points="47.94 19.48 46.44 24.38 52.17 24.42 46.88 43.24 54.12 43.22 59.2 24.43 64.9 24.38 66.17 19.48 47.94 19.48"/><polygon class="cls-1" points="69.21 19.48 76.3 19.48 69.78 43.19 62.69 43.3 69.21 19.48"/><polygon class="cls-1" points="146.87 19.48 153.73 19.6 148.67 38.42 157.11 38.42 155.98 43.19 140.23 43.19 146.87 19.48"/><path class="cls-1" d="M117.24,44.15c1.46-3.33,4.73-5.94,11.34-5.83,7.22.43,8.44,3.12,7.34,7.73l-2.81,10.6c-1.12,3.33-4.48,5.78-11.29,5.78-4.12,0-8.74-1-7.72-6.61,1.13-5,3.15-11.67,3.15-11.67m6.71.47c-.68,2.5-2,6.52-2.75,9.85-.76,2.53-.41,3.66,1.78,3.77,1.8.36,3.22-1.38,3.56-2.69s2.64-9.9,2.64-9.9c.34-1.43,1.22-3-1.59-3.4,0,0-3-.13-3.64,2.38" transform="translate(-38.91 -18.95)"/></svg>