<?xml version="1.0" encoding="utf-8"?>
<!-- Generator: Adobe Illustrator 21.0.2, SVG Export Plug-In . SVG Version: 6.00 Build 0)  -->
<svg version="1.1" id="Layer_1" xmlns="http://www.w3.org/2000/svg" xmlns:xlink="http://www.w3.org/1999/xlink" x="0px" y="0px"
	 viewBox="0 0 210.2 108.3" style="enable-background:new 0 0 210.2 108.3;" xml:space="preserve">
<style type="text/css">
	.st0{fill:#262B6B;stroke:#000000;stroke-width:0.5;stroke-linejoin:round;stroke-miterlimit:10;}
	.st1{fill:#FFC70A;stroke:#000000;stroke-width:0.5;stroke-linejoin:round;stroke-miterlimit:10;}
</style>
<g>
	<path class="st0" d="M19.1,69.6c0,0,56.5-44.4,110.3-42.8s53.1,39.9,52.1,47.5s-17.5,12.6-34.8-3.2s-29.6-19.7-60.8-17.1
		C54.7,56.7,21.4,72,21.4,72L19.1,69.6z"/>
	<g>
		<path class="st1" d="M26.4,66l1.5-4.4c0,0,4.5,0.9,4.9-2s-3.9-3.1-4.7-1c-0.9,2.1-5.1,14-5.1,14l-6.4,0.3l4.9-13.4
			c0,0,2.4-8.1,10.4-7.7c8,0.4,9.3,4.8,5.9,9.9C33.9,67.4,26.4,66,26.4,66z"/>
		<path class="st1" d="M48.8,72.5h5.8l2.6-7.1c0,0,2.3-5.1-3.4-6.7c-9.5-2.7-15.7,4.4-16,8.8c-0.3,4.3,2.1,4.8,5.5,4.9
			c3.4,0.1,4,0.1,4,0.1l1.4-4c0,0-4.1,0.5-5.1-1.4c-0.6-1.2,0.6-4.5,4.5-4.9c3.4-0.3,4,1.8,3,4.4C50.1,69.3,48.8,72.5,48.8,72.5z"/>
		<path class="st1" d="M71.2,63.2l2-4.7c0,0-4.8-0.6-7.8,0.5c-3.2,1.1-7.1,4.7-7.1,8.7s3.7,4.9,5.8,4.9c2.1,0,3.1,0,3.1,0l1.8-4.3
			l-2.8-0.1c0,0-2.4,0.1-2-2.1c0.4-2,1.6-2.7,3-2.9C68.3,63.1,71.2,63.2,71.2,63.2z"/>
		<path class="st1" d="M115.7,63.2l2-4.7c0,0-4.8-0.6-7.8,0.5c-3.2,1.1-7.1,4.7-7.1,8.7s3.7,4.9,5.8,4.9c2.1,0,3.1,0,3.1,0l1.8-4.3
			l-2.8-0.1c0,0-2.4,0.1-2-2.1c0.4-2,1.6-2.7,3-2.9C112.7,63.1,115.7,63.2,115.7,63.2z"/>
		<polygon class="st1" points="76.7,58.3 83,58.3 77.5,72.5 71.1,72.5 		"/>
		<path class="st1" d="M81.3,51.1c3,0,3.6,2.2,3.6,3.3c0,1.1-0.8,2.8-3.6,2.8c-2.8,0-3.6-1.8-3.6-3C77.7,52.9,78.5,51.1,81.3,51.1z"
			/>
		<path class="st1" d="M102.2,51.1c3,0,3.6,2.2,3.6,3.3c0,1.1-0.8,2.8-3.6,2.8c-2.8,0-3.6-1.8-3.6-3C98.6,52.9,99.4,51.1,102.2,51.1
			z"/>
		<path class="st1" d="M98,51.5l-2.2,4.7c0,0-2.5-0.3-3.5,0.4c-1,0.7-1.2,1.6-1.2,1.6h4.2l-1.6,4.2h-3.8l-3.7,10.1h-6l6.2-15.1
			c0,0,1.2-4.2,5.3-5.4C95.7,50.9,98,51.5,98,51.5z"/>
		<polygon class="st1" points="103.7,58.6 97.7,58.6 92.4,72.5 98.8,72.5 		"/>
		<polygon class="st1" points="140.5,51.6 155.8,51.6 153.9,56.7 149.2,56.7 144,71.8 137.3,71.8 143.3,56.7 138.3,56.7 		"/>
		<path class="st1" d="M163.9,64.7l2.7,2.7l-2.8,2.2c0,0-3.5,3-9.6,2.5c-6-0.5-6.4-6-3.1-9.8s7.7-5.9,11.8-5c4.6,1,5.3,4.3,5.3,4.3
			l-10.4,4.6l-1.3-2.3l5.2-2.6c0,0-1.5-1.2-3.8-0.1c-2.3,1.1-4,4.2-2.8,5.6c1.2,1.4,4.4,1.2,6.5-0.4
			C163.8,64.9,163.9,64.7,163.9,64.7z"/>
		<path class="st1" d="M174.9,51.6h5.3L176,61.7c0,0,2.1,0.3,3.8-1.6c1.7-1.9,1.9-2.5,1.9-2.5h5.8c0,0-0.8,1.6-2.8,3.8
			c-1,1.1-2.8,2.4-2.8,2.4s1.4-0.1,2,0.8s0,2.4-0.5,3.6c-0.5,1.3-1.1,3.1-1.1,3.1h-5.5l1.4-3.5c0,0,0.5-1-0.4-1.7
			c-0.9-0.7-3.1-0.4-3.1-0.4l-2.1,5.5h-5.2L174.9,51.6z"/>
	</g>
	<g>
		<path d="M189,52.1H188v-0.4h2.6v0.4h-1.1v3.1H189V52.1z"/>
		<path d="M193.9,53.7c0-0.5-0.1-1.1-0.1-1.5h0c-0.1,0.4-0.3,0.8-0.4,1.3l-0.6,1.7h-0.3l-0.6-1.7c-0.2-0.5-0.3-0.9-0.4-1.3h0
			c0,0.4,0,1-0.1,1.5l-0.1,1.5h-0.4l0.2-3.5h0.6l0.6,1.7c0.1,0.4,0.3,0.8,0.3,1.2h0c0.1-0.3,0.2-0.7,0.4-1.2l0.6-1.7h0.6l0.2,3.5
			h-0.4L193.9,53.7z"/>
	</g>
</g>
</svg>
