<svg id="Layer_1" data-name="Layer 1" xmlns="http://www.w3.org/2000/svg" xmlns:xlink="http://www.w3.org/1999/xlink" viewBox="0 0 119.02 116.32"><defs><style>.cls-1{fill:#fff;}.cls-2{clip-path:url(#clip-path);}.cls-3{clip-path:url(#clip-path-2);}</style><clipPath id="clip-path" transform="translate(-11.65 5.57)"><path class="cls-1" d="M33.48,69.08V28.33l1.53,0,31.07,0c1.43.23,4.12,1.42,4.12,4.32V50.78c0,1.86-.9,3.58-2.89,3.58L71,58V45.38a5,5,0,0,1,1.18-3.52,4.68,4.68,0,0,1,3.31-1c1.64,0,11,0,18.45,0,5,0,9,0,9.47,0a5.51,5.51,0,0,1,5.25,5.3V57.18l-10.38,0,0-6.4H81.37l0,7.17,0,8.54s16.77,0,16.77,0v-4.7l10.67,0-.05,9.87a6,6,0,0,1-6,5.18L74.64,76.8c-2,0-3.85-2.09-4.61-2.8l-.79-.78L51,54.92H44.72V69.08H33.48m1.8-1.81h7.56l0-13.9h9.12L71.17,72.69c.71.66,2.3,2.46,4.11,2.46l27.39,0c3.13,0,4.26-2,4.26-3.72,0-.12,0-7.83,0-7.83h-7v3.29c0,1-.37,1.39-1.53,1.39H81c-1.24,0-1.48-.57-1.48-1.53l0-16.29A1.55,1.55,0,0,1,80.86,49H98.48a1.54,1.54,0,0,1,1.12.37,1.59,1.59,0,0,1,.38,1.18V55.4h6.8V46.12a3.75,3.75,0,0,0-3.48-3.49H93.87c-7.5,0-16.83,0-18.48,0a2.61,2.61,0,0,0-1.93.63,3.18,3.18,0,0,0-.72,2.13v17l-9.25-9.21,2.44,0a2.71,2.71,0,0,0,2.4-2.71V32.71c0-2.1-2.49-2.53-2.59-2.54H35.28Z"/></clipPath><clipPath id="clip-path-2" transform="translate(-11.65 5.57)"><path class="cls-1" d="M44,37H60.26a1.24,1.24,0,0,1,.92.31,1.17,1.17,0,0,1,.3.88v7a1.13,1.13,0,0,1-.32.8,1.27,1.27,0,0,1-.9.35c-1,0-15.07,0-16.64,0a1.08,1.08,0,0,1-.78-.31,1.48,1.48,0,0,1-.38-1.05V38.46C42.46,37.24,43,37,44,37m.25,7.62H59.64V38.76H44.24Z"/></clipPath></defs><title>rc-white</title><path class="cls-1" d="M33.48,69.08V28.33l1.53,0,31.07,0c1.43.23,4.12,1.42,4.12,4.32V50.78c0,1.86-.9,3.58-2.89,3.58L71,58V45.38a5,5,0,0,1,1.18-3.52,4.68,4.68,0,0,1,3.31-1c1.64,0,11,0,18.45,0,5,0,9,0,9.47,0a5.51,5.51,0,0,1,5.25,5.3V57.18l-10.38,0,0-6.4H81.37l0,7.17,0,8.54s16.77,0,16.77,0v-4.7l10.67,0-.05,9.87a6,6,0,0,1-6,5.18L74.64,76.8c-2,0-3.85-2.09-4.61-2.8l-.79-.78L51,54.92H44.72V69.08H33.48m1.8-1.81h7.56l0-13.9h9.12L71.17,72.69c.71.66,2.3,2.46,4.11,2.46l27.39,0c3.13,0,4.26-2,4.26-3.72,0-.12,0-7.83,0-7.83h-7v3.29c0,1-.37,1.39-1.53,1.39H81c-1.24,0-1.48-.57-1.48-1.53l0-16.29A1.55,1.55,0,0,1,80.86,49H98.48a1.54,1.54,0,0,1,1.12.37,1.59,1.59,0,0,1,.38,1.18V55.4h6.8V46.12a3.75,3.75,0,0,0-3.48-3.49H93.87c-7.5,0-16.83,0-18.48,0a2.61,2.61,0,0,0-1.93.63,3.18,3.18,0,0,0-.72,2.13v17l-9.25-9.21,2.44,0a2.71,2.71,0,0,0,2.4-2.71V32.71c0-2.1-2.49-2.53-2.59-2.54H35.28Z" transform="translate(-11.65 5.57)"/><g class="cls-2"><rect class="cls-1" x="30.6" y="7.77" width="81.13" height="89.64" transform="matrix(0.53, -0.85, 0.85, 0.53, -22.82, 90.59)"/></g><path class="cls-1" d="M44,37H60.26a1.24,1.24,0,0,1,.92.31,1.17,1.17,0,0,1,.3.88v7a1.13,1.13,0,0,1-.32.8,1.27,1.27,0,0,1-.9.35c-1,0-15.07,0-16.64,0a1.08,1.08,0,0,1-.78-.31,1.48,1.48,0,0,1-.38-1.05V38.46C42.46,37.24,43,37,44,37m.25,7.62H59.64V38.76H44.24Z" transform="translate(-11.65 5.57)"/><g class="cls-3"><rect class="cls-1" x="42.97" y="31.08" width="18.01" height="21.09" transform="translate(-22.53 69.17) rotate(-57.96)"/></g><path class="cls-1" d="M36.4,66.16l0-34.75H64.61c2.26,0,2.73,1.34,2.73,2.53V49.29c0,1.35,0,2.94-2.19,2.94-.93,0-4.21,0-3.93,0L73.82,64.77l0-19.19a2.11,2.11,0,0,1,.56-1.39,1.63,1.63,0,0,1,1.13-.45c1.67,0,27.85,0,27.85,0a2.83,2.83,0,0,1,2.42,2.57l0,8.12h-4.74l0-3.73a3.12,3.12,0,0,0-.65-2.14c-.68-.68-1.71-.51-2.68-.51L81.09,48a2.42,2.42,0,0,0-2.57,2.64l0,16.3a2.27,2.27,0,0,0,2.51,2.57H98.46a2.33,2.33,0,0,0,2.57-2.4l0-2.52h4.93l0,7v0a3.07,3.07,0,0,1-3.23,2.66H76a6.63,6.63,0,0,1-4.09-2.1L52.29,52.44l-10.37-.06V66.21l-5.52-.06m5.1-27.6v6.86a1.77,1.77,0,0,0,.63,1.48,2,2,0,0,0,1.49.5l16.57,0a2.59,2.59,0,0,0,1.76-.63,2.86,2.86,0,0,0,.59-2.17V38.15A2.1,2.1,0,0,0,62,36.56c-.44-.44-.9-.5-2.08-.5l-15.8,0C42.08,36,41.5,36.54,41.5,38.56Z" transform="translate(-11.65 5.57)"/></svg>