<?xml version="1.0" encoding="utf-8"?>
<!-- Generator: Adobe Illustrator 21.0.2, SVG Export Plug-In . SVG Version: 6.00 Build 0)  -->
<svg version="1.1" id="Layer_1" xmlns="http://www.w3.org/2000/svg" xmlns:xlink="http://www.w3.org/1999/xlink" x="0px" y="0px"
	 viewBox="0 0 279 108.3" style="enable-background:new 0 0 279 108.3;" xml:space="preserve">
<style type="text/css">
	.st0{fill:#FFFFFF;}
</style>
<g>
	<path class="st0" d="M55.4,48.4c6.7,0,6.6,3.4,5.6,6.9l-2,5.8c-1.3,3.7-4.8,7.7-11.3,7.7H20.5l1.3-7c2.2,1.2,3.4,1.7,8.5,1.7h12.3
		c1.5,0,2-0.4,2.4-1.5l0.2-0.6c0.4-1.2,0.1-1.5-1.4-1.5H31.2c-6.7,0-6.6-3.4-5.5-7l1.9-5.6c1.5-4.5,6.2-7.4,11.7-7.4h25.1L63.2,47
		c-0.7-1.4-4.6-1.9-8-1.9H43.9c-1.4,0-2.1,0.4-2.3,1.1l-0.4,1.2c-0.2,0.7,0.2,1.1,1.6,1.1H55.4"/>
	<path class="st0" d="M90.3,61.6c-1.5,4.3-3.5,6.3-8.2,6.3H65.8c-4.7,0-5.4-2-3.9-6.3l2.8-8.3c1.5-4.3,3.5-6.3,8.2-6.3h16.3
		c4.7,0,5.4,2,3.9,6.3L90.3,61.6 M72.2,62.1c-0.4,1.2-0.2,1.7,0.9,1.7h4.4c1.2,0,1.8-0.5,2.2-1.7l3.2-9.3c0.4-1.2,0.2-1.7-1-1.7
		h-4.4c-1.2,0-1.7,0.5-2.1,1.7L72.2,62.1z"/>
	<path class="st0" d="M108.3,47l-0.4,2.2h0.1c0.9-1.1,1.9-2.2,3.4-2.2h8.5c4.9,0,6,2.9,4.4,7.6l-2.9,8.5c-1,2.9-0.7,3.7-0.5,4.8
		h-12.8c1-1.1,1.8-1.9,2.8-4.8l3.5-10.3c0.4-1.3,0.1-1.7-1.1-1.7h-3.8c-1.3,0-1.9,0.4-2.3,1.7l-3.5,10.3c-1,2.9-0.7,3.7-0.5,4.8
		H90.4c1-1.1,1.8-1.9,2.8-4.8L97,51.8c1-2.9,0.7-3.7,0.5-4.8H108.3"/>
	<path class="st0" d="M136.3,59.7l-0.7,2c-0.5,1.5,0,2.1,1.7,2.1h10.1c2,0,3.1-0.1,5.1-0.9l-2.5,5h-20.9c-4.7,0-5.4-2-3.9-6.3
		l2.8-8.3c1.5-4.3,3.5-6.3,8.2-6.3h15.9c4.7,0,5.4,2,3.9,6.3l-2.2,6.4H136.3 M145.1,55.6l1-2.8c0.4-1.2,0.2-1.7-0.9-1.7h-4.3
		c-1.2,0-1.7,0.5-2.1,1.7l-1,2.8H145.1z"/>
	<path class="st0" d="M165.7,42.7l10.6-0.3l-1.5,4.5h8.3l-1.4,4.1h-8.3l-3.8,11c-0.5,1.3-0.4,1.7,1.5,1.7h3.7c2,0,3.5-0.6,4-0.8
		l-2.3,4.9h-13.1c-3.3,0-5.8-1.3-4-6.5l3.5-10.3h-4.5l1.4-4.1h4.5L165.7,42.7"/>
	<path class="st0" d="M185.7,51.8c1-2.9,0.7-3.7,0.5-4.8h11.6l-5.5,16.1c-1,2.9-0.7,3.7-0.5,4.8H179c1-1.1,1.8-1.9,2.8-4.8
		L185.7,51.8 M200.3,39.5l-1.9,5.5h-10.3l1.9-5.5H200.3z"/>
	<path class="st0" d="M206.4,61.7c-0.5,1.5,0,2.1,1.7,2.1h5.1c3.5,0,4.5-0.4,5.9-1l-2.5,5.1h-16.2c-4.8,0-5.7-2.7-4.4-6.5l2.7-7.9
		c1.3-3.8,4-6.5,8.8-6.5h16.3l-0.8,5.2c-0.5-0.8-2-1.1-4.6-1.1h-6c-1.7,0-2.6,0.6-3.1,2.1L206.4,61.7"/>
	<path class="st0" d="M245.8,53.2c4.8,0,4.7,2.4,4,5l-1.4,4.2c-0.9,2.7-3.5,5.5-8.1,5.5h-19.5l0.9-5c1.6,0.9,2.4,1.2,6.1,1.2h8.8
		c1.1,0,1.5-0.3,1.8-1.1l0.2-0.4c0.3-0.8,0.1-1.1-1-1.1h-9.1c-4.8,0-4.7-2.4-4-5l1.4-4c1.1-3.2,4.4-5.3,8.4-5.3h18l-0.9,5.2
		c-0.5-1-3.3-1.4-5.7-1.4h-8.1c-1,0-1.5,0.3-1.7,0.8l-0.3,0.9c-0.2,0.5,0.1,0.8,1.2,0.8H245.8"/>
	<path class="st0" d="M256.4,59.7c0.7,0,1.4,0.2,2,0.5c0.7,0.4,1.2,0.9,1.5,1.5c0.4,0.7,0.6,1.3,0.6,2.1c0,0.7-0.2,1.4-0.5,2
		c-0.4,0.7-0.9,1.2-1.5,1.5c-0.7,0.4-1.3,0.5-2,0.5c-0.7,0-1.4-0.2-2.1-0.5c-0.7-0.4-1.2-0.9-1.5-1.5c-0.4-0.7-0.5-1.3-0.5-2
		c0-0.7,0.2-1.4,0.6-2.1c0.4-0.7,0.9-1.2,1.5-1.5C255,59.9,255.7,59.7,256.4,59.7 M256.4,60.4c-0.6,0-1.1,0.1-1.7,0.4
		c-0.5,0.3-1,0.7-1.3,1.3c-0.3,0.6-0.5,1.1-0.5,1.7c0,0.6,0.2,1.2,0.5,1.7c0.3,0.5,0.7,1,1.3,1.3c0.5,0.3,1.1,0.5,1.7,0.5
		c0.6,0,1.2-0.2,1.7-0.5c0.5-0.3,1-0.7,1.3-1.3c0.3-0.5,0.5-1.1,0.5-1.7c0-0.6-0.2-1.2-0.5-1.7c-0.3-0.6-0.7-1-1.3-1.3
		C257.5,60.5,256.9,60.4,256.4,60.4z M254.6,66.1v-4.4h1.5c0.5,0,0.9,0,1.1,0.1c0.2,0.1,0.4,0.2,0.6,0.4c0.1,0.2,0.2,0.4,0.2,0.6
		c0,0.3-0.1,0.6-0.3,0.8c-0.2,0.2-0.5,0.4-0.9,0.4c0.2,0.1,0.3,0.1,0.4,0.2c0.2,0.2,0.4,0.5,0.7,0.9l0.5,0.9h-0.9l-0.4-0.7
		c-0.3-0.5-0.6-0.9-0.7-1c-0.1-0.1-0.3-0.2-0.6-0.2h-0.4v1.9H254.6z M255.3,63.6h0.9c0.4,0,0.7-0.1,0.8-0.2c0.2-0.1,0.2-0.3,0.2-0.5
		c0-0.1,0-0.2-0.1-0.4s-0.2-0.2-0.3-0.2c-0.1-0.1-0.4-0.1-0.7-0.1h-0.8V63.6z"/>
</g>
</svg>
