<?xml version="1.0" encoding="utf-8"?>
<!-- Generator: Adobe Illustrator 21.0.2, SVG Export Plug-In . SVG Version: 6.00 Build 0)  -->
<svg version="1.1" id="Layer_1" xmlns="http://www.w3.org/2000/svg" xmlns:xlink="http://www.w3.org/1999/xlink" x="0px" y="0px"
	 viewBox="0 0 214.3 108.3" style="enable-background:new 0 0 214.3 108.3;" xml:space="preserve">
<style type="text/css">
	.st0{fill:#E7CB1D;}
</style>
<g>
	<g>
		<path class="st0" d="M41.7,66c-4.4,0-8-2.1-9.6-3.2c-0.5,0.6-1.4,1.7-1.6,3.2H29V51.3h1.7c0.7,7.3,5.3,11.4,11.7,11.4
			c3.7,0,6.6-2,6.6-5.7c0-3-2.4-5.3-7-7.6l-5.8-3c-4.1-2.1-7-5.6-7-10.4c0-5.4,4.4-9.7,10.7-9.7c3.5,0,6.2,1.3,8,2.6
			c0.5-0.5,1.1-1.3,1.4-2.6h1.6v14.4h-1.7c-0.5-5.1-2.8-11.2-9-11.2c-3.3,0-6.1,1.8-6.1,5c0,3,2.2,4.6,7.4,7.3l5.7,3
			c4.9,2.5,6.7,6.3,6.7,9.6C53.9,61.3,48.4,66,41.7,66z"/>
		<path class="st0" d="M61.2,50.6c-4.7,0-8.5-3.4-8.5-7.6c0-4.2,3.8-7.6,8.5-7.6c4.7,0,8.5,3.4,8.5,7.6
			C69.7,47.2,65.9,50.6,61.2,50.6z M61.2,36.7c-3.9,0-5.3,3.5-5.3,6.3c0,2.8,1.4,6.3,5.3,6.3c4,0,5.3-3.5,5.3-6.3
			C66.5,40.2,65.2,36.7,61.2,36.7z"/>
		<path class="st0" d="M84.8,40.2v4.2c0,4-2.6,6.2-6.2,6.2c-3.5,0-6.5-2.1-6.5-6.2v-4.2c0-3-0.4-3.5-2.8-3.5v-0.8h8.4v0.8
			c-2.3,0-2.8,0.5-2.8,3.5v4.4c0,2.8,1.7,4.2,4,4.2c2.3,0,4.1-1.4,4.1-4.2v-4.4c0-3-0.3-3.5-2.7-3.5v-0.8h7.1v0.8
			C85.2,36.7,84.8,37.2,84.8,40.2z"/>
		<path class="st0" d="M93.5,37.2c-3.1,0-3.5,0.5-3.9,1.9l-0.2,0.8h-0.7l0.3-4h15.6l0.3,4h-0.7l-0.2-0.8c-0.4-1.4-0.8-1.9-3.9-1.9
			h-1.9v8.5c0,3,0.4,3.6,2.8,3.6V50h-8.5v-0.8c2.3,0,2.8-0.6,2.8-3.6v-8.5H93.5z"/>
		<path class="st0" d="M112.4,45.7c0,3,0.4,3.6,2.8,3.6V50h-8.5v-0.8c2.4,0,2.8-0.6,2.8-3.6v-5.4c0-3-0.4-3.5-2.8-3.5v-0.8h8.5v0.8
			c-2.4,0-2.8,0.5-2.8,3.5v1.7h7.4v-1.7c0-3-0.4-3.5-2.8-3.5v-0.8h8.5v0.8c-2.4,0-2.8,0.5-2.8,3.5v5.4c0,3,0.4,3.6,2.8,3.6V50h-8.5
			v-0.8c2.3,0,2.8-0.6,2.8-3.6v-2.5h-7.4V45.7z"/>
		<path class="st0" d="M133.2,48.7h1.5c3.1,0,3.5-0.5,3.9-1.9l0.2-0.8h0.7l-0.3,4h-14.2v-0.8c2.4,0,2.8-0.6,2.8-3.6v-5.4
			c0-3-0.4-3.5-2.8-3.5v-0.8h8.5v0.8c-2.4,0-2.8,0.5-2.8,3.5v5C130.6,48.2,131,48.7,133.2,48.7z"/>
		<path class="st0" d="M145.8,46.9c-0.8,1.7-0.8,2.4,1.8,2.4V50h-6.8v-0.8c2.1,0,2.5-0.6,3.6-2.9l5.2-11h0.8l5.1,11
			c1.1,2.3,1.5,2.9,3.4,2.9V50h-8.2v-0.8c2.4,0,2.7-0.7,1.9-2.4l-0.6-1.4h-5.5L145.8,46.9z M149.2,39.6l-2.1,4.5h4.2L149.2,39.6z"/>
		<path class="st0" d="M172.3,40.2v10.3h-0.9L161.5,40v5.6c0,3,0.4,3.6,2.8,3.6V50h-6.8v-0.8c2.4,0,2.8-0.6,2.8-3.6v-5.4
			c0-3-0.4-3.5-2.8-3.5v-0.8h4.2l9.3,9.9v-5.6c0-3-0.4-3.5-2.8-3.5v-0.8h6.8v0.8C172.6,36.7,172.3,37.2,172.3,40.2z"/>
		<path class="st0" d="M174.1,49.2c2.4,0,2.8-0.6,2.8-3.6v-5.4c0-3-0.4-3.5-2.8-3.5v-0.8h7.6c6.1,0,8.7,3.2,8.7,7.1
			s-2.6,7.1-8.7,7.1h-7.6V49.2z M181.8,37.2c-0.2,0-2,0-2,0v9.2c0,2,0.2,2.3,1.7,2.3h0.3c4.4,0,5.2-3.2,5.2-5.8
			C187,40.4,186.2,37.2,181.8,37.2z"/>
	</g>
	<g>
		<path class="st0" d="M52.3,56.9c-7.1,0-7.7,1.3-8.6,4.9l-0.4,1.5h-1.5l0.5-9.4h34.1l0.5,9.4h-1.5L75,61.8
			c-0.9-3.6-1.5-4.9-8.6-4.9h-4.4v19.7c0,7.7,1,9,6.1,9v1.5H50.5v-1.5c5.1,0,6.1-1.3,6.1-9V56.9H52.3z"/>
		<path class="st0" d="M76.3,82.5c-4.8,0-8.7-3.5-8.7-7.8c0-4.2,3.9-7.7,8.7-7.7c4.8,0,8.7,3.5,8.7,7.7C85,79,81.1,82.5,76.3,82.5z
			 M76.3,68.3c-4,0-5.4,3.6-5.4,6.4c0,2.9,1.4,6.4,5.4,6.4c4,0,5.4-3.6,5.4-6.4C81.7,71.9,80.4,68.3,76.3,68.3z"/>
		<path class="st0" d="M92.5,82.5c-4.8,0-8.7-3.5-8.7-7.8c0-4.2,3.9-7.7,8.7-7.7c4.8,0,8.7,3.5,8.7,7.7
			C101.2,79,97.3,82.5,92.5,82.5z M92.5,68.3c-4,0-5.4,3.6-5.4,6.4c0,2.9,1.4,6.4,5.4,6.4c4,0,5.4-3.6,5.4-6.4
			C97.9,71.9,96.5,68.3,92.5,68.3z"/>
		<path class="st0" d="M110.4,80.6h1.5c3.1,0,3.6-0.5,3.9-1.9l0.2-0.8h0.7l-0.3,4.1h-14.5v-0.8c2.4,0,2.8-0.6,2.8-3.6v-5.5
			c0-3.1-0.4-3.6-2.8-3.6v-0.8h8.6v0.8c-2.4,0-2.8,0.5-2.8,3.6V77C107.7,80.1,108.1,80.6,110.4,80.6z"/>
	</g>
	<g>
		<path class="st0" d="M124.3,79.6c0,1.9,0.2,2.3,1.5,2.3v0.4h-3.8v-0.4c1.3,0,1.5-0.3,1.5-2.3v-3.1c0-1.9-0.2-2.2-1.5-2.2v-0.4h2.9
			l2.9,6.4l2.9-6.4h2.7v0.4c-1.3,0-1.5,0.3-1.5,2.2v3.1c0,1.9,0.3,2.3,1.5,2.3v0.4H129v-0.4c1.3,0,1.5-0.3,1.5-2.3V76l-2.9,6.6h-0.3
			l-3-6.8V79.6z"/>
		<path class="st0" d="M138.9,81.9v0.4h-3.8v-0.4c1.1,0,1.3-0.3,1.3-1.6v-2.5c0-1.4-0.2-1.6-1.3-1.6v-0.4h5.9l0.2,1.8h-0.3l-0.1-0.4
			c-0.2-0.6-0.4-0.9-1.8-0.9h-1.3v2.2c1.5,0,1.6-0.1,1.6-1.1h0.4v2.9h-0.4c0-1-0.1-1.1-1.6-1.1v1.1
			C137.7,81.6,137.9,81.9,138.9,81.9z"/>
		<path class="st0" d="M142.8,79c0-1.9,1.6-3.4,3.7-3.4c0.8,0,1.6,0.4,2.1,0.9c0.1-0.2,0.2-0.4,0.3-0.7h0.4v2.6h-0.4
			c-0.3-1.4-1.1-2.3-2.3-2.3c-1.7,0-2.2,1.6-2.2,2.9s0.5,2.9,2.2,2.9c1,0,1.8-0.3,1.8-1.2c0-0.7-0.3-0.9-1.2-0.9v-0.4h3.6v0.4
			c-1.1,0-1.3,0.2-1.3,1.6v0.6c-0.8,0-2.2,0.6-3,0.6C144.5,82.5,142.8,80.9,142.8,79z"/>
		<path class="st0" d="M153.7,82.4c-0.6,0-1.1-0.5-1.1-1c0-0.6,0.5-1,1.1-1c0.6,0,1.1,0.5,1.1,1C154.8,81.9,154.3,82.4,153.7,82.4z"
			/>
		<path class="st0" d="M161.8,82.2v-0.4c1.3,0,1.5-0.3,1.5-2.3v-3.1c0-1.9-0.2-2.2-1.5-2.2v-0.4h4.4v0.4c-1.3,0-1.5,0.3-1.5,2.2v3.1
			c0,1.9,0.2,2.3,1.5,2.3v0.4H161.8z"/>
		<path class="st0" d="M174.7,77.8v4.7h-0.4l-4.5-4.8v2.6c0,1.4,0.2,1.6,1.3,1.6v0.4H168v-0.4c1.1,0,1.3-0.3,1.3-1.6v-2.5
			c0-1.4-0.2-1.6-1.3-1.6v-0.4h1.9l4.2,4.5v-2.5c0-1.4-0.2-1.6-1.3-1.6v-0.4h3.1v0.4C174.9,76.2,174.7,76.4,174.7,77.8z"/>
		<path class="st0" d="M183.5,82.2c-0.1-0.3-0.2-0.5-0.2-0.7c-0.5,0.5-1.3,0.9-2.1,0.9c-2,0-3.7-1.6-3.7-3.5c0-1.9,1.6-3.4,3.7-3.4
			c0.8,0,1.6,0.4,2.1,0.9c0.1-0.2,0.2-0.4,0.3-0.7h0.4v2.6h-0.4c-0.3-1.4-1.1-2.3-2.3-2.3c-1.7,0-2.2,1.6-2.2,2.9s0.5,2.9,2.2,2.9
			c1.2,0,2-0.9,2.3-2.3h0.4v2.7H183.5z"/>
	</g>
	<g>
		<path class="st0" d="M61.8,23.7h-0.9c-0.3,0-0.5,0.2-0.5,0.5l-1,11.9c0,0.2,0,0.3,0.1,0.4c0.1,0.1,0.2,0.2,0.4,0.2h2.9
			c0.2,0,0.3-0.1,0.4-0.2c0.1-0.1,0.2-0.3,0.1-0.4l-0.9-11.9C62.3,24,62,23.7,61.8,23.7z"/>
		<path class="st0" d="M54.1,45.4c0.1,0,0.3-0.1,0.4-0.1c0.1-0.1,0.2-0.2,0.2-0.4l0-2.9c0-0.2-0.1-0.3-0.2-0.4
			c-0.1-0.1-0.2-0.1-0.4-0.1c0,0,0,0,0,0l-11.8,1c-0.3,0-0.5,0.3-0.5,0.5l0,0.9c0,0.3,0.2,0.5,0.5,0.5L54.1,45.4
			C54.1,45.4,54.1,45.4,54.1,45.4z M42.2,43l11.8-1L42.2,43l0,0.5L42.2,43z"/>
		<path class="st0" d="M54.8,40.1c0.1,0.1,0.2,0.2,0.4,0.2c0,0,0,0,0,0c0.1,0,0.3-0.1,0.4-0.2l2-2c0.1-0.1,0.2-0.3,0.2-0.4
			c0-0.2-0.1-0.3-0.2-0.4l-9-7.7c-0.1-0.1-0.2-0.1-0.4-0.1c-0.1,0-0.3,0.1-0.4,0.2l-0.7,0.7c-0.2,0.2-0.2,0.5,0,0.7L54.8,40.1z"/>
		<path class="st0" d="M62.7,49.7h-2.9c-0.2,0-0.3,0.1-0.4,0.2c-0.1,0.1-0.2,0.3-0.1,0.4l0.9,11.9c0,0.3,0.3,0.5,0.5,0.5h0.9
			c0.3,0,0.5-0.2,0.5-0.5l1-11.9c0-0.2,0-0.3-0.1-0.4C63,49.7,62.8,49.7,62.7,49.7z M60.7,62.1l-0.9-11.9L60.7,62.1L60.7,62.1z"/>
		<path class="st0" d="M80.2,42.4l-11.8-1c0,0,0,0,0,0c-0.1,0-0.3,0-0.4,0.1c-0.1,0.1-0.2,0.2-0.2,0.4l0,2.9c0,0.2,0.1,0.3,0.2,0.4
			c0.1,0.1,0.2,0.1,0.4,0.1c0,0,0,0,0,0l11.9-0.9c0.3,0,0.5-0.3,0.5-0.5l0-0.9C80.7,42.7,80.5,42.5,80.2,42.4z M68.3,44.8L68.3,44.8
			l0-2.9h0L68.3,44.8z"/>
		<path class="st0" d="M67.2,40.2C67.2,40.2,67.2,40.2,67.2,40.2c0.2,0,0.3-0.1,0.4-0.2l7.6-9.1c0.2-0.2,0.2-0.5,0-0.7l-0.7-0.7
			c-0.1-0.1-0.2-0.2-0.4-0.2c-0.1,0-0.2,0-0.4,0.1l-9,7.7c-0.1,0.1-0.2,0.2-0.2,0.4c0,0.2,0.1,0.3,0.2,0.4l2,2
			C66.9,40.2,67,40.2,67.2,40.2z M74.8,30.6l-7.6,9.1l0,0L74.8,30.6z"/>
		<path class="st0" d="M56.1,46.3c-0.1-0.1-0.2-0.2-0.4-0.2c0,0,0,0,0,0c-0.2,0-0.3,0.1-0.4,0.2l-7.6,9.1c-0.2,0.2-0.2,0.5,0,0.7
			l0.7,0.7c0.1,0.1,0.2,0.2,0.4,0.2c0.1,0,0.2,0,0.4-0.1l9-7.7c0.1-0.1,0.2-0.2,0.2-0.4c0-0.2-0.1-0.3-0.2-0.4L56.1,46.3z"/>
		<path class="st0" d="M68.1,46.4c-0.1-0.1-0.2-0.2-0.4-0.2c0,0,0,0,0,0c-0.1,0-0.3,0.1-0.4,0.2l-2,2c-0.1,0.1-0.2,0.3-0.2,0.4
			c0,0.2,0.1,0.3,0.2,0.4l9,7.7c0.1,0.1,0.2,0.1,0.4,0.1c0.1,0,0.3-0.1,0.4-0.2l0.7-0.7c0.2-0.2,0.2-0.5,0-0.7L68.1,46.4z"/>
	</g>
</g>
</svg>
