<?xml version="1.0" encoding="utf-8"?>
<!-- Generator: Adobe Illustrator 21.0.2, SVG Export Plug-In . SVG Version: 6.00 Build 0)  -->
<svg version="1.1" id="Layer_1" xmlns="http://www.w3.org/2000/svg" xmlns:xlink="http://www.w3.org/1999/xlink" x="0px" y="0px"
	 viewBox="0 0 229 108.3" style="enable-background:new 0 0 229 108.3;" xml:space="preserve">
<style type="text/css">
	.st0{fill:#FFFFFF;}
	.st1{fill:#EFEFEF;}
	.st2{fill:none;}
</style>
<path d="M182.9,51.6"/>
<g>
	<polygon class="st0" points="31.6,88.3 33.5,88.3 34.4,83 32.5,83 	"/>
	<polygon class="st0" points="45,84.8 44.9,85.5 43.7,83 42,83 41.1,88.3 42.9,88.3 43.2,86.6 43.3,85.9 44.4,88.3 46.2,88.3 
		47.1,83 45.3,83 	"/>
	<path class="st0" d="M56.4,83h-2.3l-0.9,5.3h2.3c1.8,0,2.9-0.9,3.3-2.7c0.1-0.8,0-1.4-0.3-1.9C58,83.3,57.3,83,56.4,83z M55.5,86.9
		h-0.2l0.4-2.4h0.2c0.4,0,0.7,0.1,0.8,0.2c0.1,0.2,0.2,0.5,0.1,1C56.6,86.5,56.2,86.9,55.5,86.9z"/>
	<path class="st0" d="M68.7,86.2c-0.1,0.6-0.3,0.8-0.8,0.8c-0.2,0-0.4,0-0.4-0.1c-0.1-0.1-0.1-0.4-0.1-0.6l0.6-3.2H66L65.5,86
		c-0.1,0.8-0.1,1.5,0.3,1.9c0.3,0.4,1,0.6,1.9,0.6c1.7,0,2.7-0.7,2.9-2.4l0.5-3h-1.9L68.7,86.2z"/>
	<path class="st0" d="M80.4,82.9c-1.4,0-2.4,0.7-2.6,1.7c-0.2,1.3,1,1.6,1.7,1.8c0.5,0.1,0.8,0.2,0.8,0.4c0,0.2-0.3,0.3-0.6,0.3
		c-0.1,0-0.3,0-0.4-0.1c-0.1-0.1-0.1-0.2-0.1-0.3l0-0.1h-1.8l0,0.1c-0.1,0.4,0.1,0.8,0.3,1.2c0.4,0.4,1,0.7,1.7,0.7
		c1.5,0,2.6-0.7,2.8-1.8c0.2-1.2-0.9-1.5-1.7-1.7c-0.4-0.1-0.8-0.2-0.8-0.4c0-0.2,0.3-0.2,0.5-0.2c0.1,0,0.3,0,0.3,0.1
		c0.1,0,0.1,0.1,0.1,0.2l0,0.1h1.8l0-0.1c0-0.5-0.1-0.9-0.4-1.2C81.7,83.1,81.1,82.9,80.4,82.9z"/>
	<polygon class="st0" points="89.3,84.6 90.7,84.6 90.1,88.3 92,88.3 92.7,84.6 94.1,84.6 94.4,83 89.5,83 	"/>
	<path class="st0" d="M103.2,83h-2.5l-0.9,5.3h1.9l0.3-1.8h0.4c0.3,0,0.5,0,0.6,0.1c0.1,0.1,0.1,0.3,0,0.6c-0.1,0.4-0.1,0.8-0.1,0.9
		l0,0.1h1.9l0.1-0.4h-0.1c0-0.1,0-0.3,0.1-0.6l0-0.2c0.2-0.9,0-1.2-0.4-1.3c0.4-0.2,0.8-0.7,0.9-1.2c0.1-0.5,0-0.8-0.2-1.1
		C104.9,83.2,104.3,83,103.2,83z M103.5,84.8c0,0.2-0.1,0.4-0.7,0.4h-0.5l0.1-0.7h0.7c0.2,0,0.3,0,0.4,0.1
		C103.5,84.7,103.6,84.7,103.5,84.8z"/>
	<polygon class="st0" points="111.4,88.3 113.3,88.3 114.2,83 112.3,83 	"/>
	<path class="st0" d="M135.1,82.9c-1.4,0-2.4,0.7-2.6,1.7c-0.2,1.3,1,1.6,1.7,1.8c0.5,0.1,0.8,0.2,0.8,0.4c0,0.2-0.3,0.3-0.6,0.3
		c-0.1,0-0.3,0-0.4-0.1c-0.1-0.1-0.1-0.2-0.1-0.3l0-0.1h-1.8l0,0.1c-0.1,0.4,0.1,0.8,0.3,1.2c0.4,0.4,1,0.7,1.7,0.7
		c1.5,0,2.6-0.7,2.8-1.8c0.2-1.2-0.9-1.5-1.7-1.7c-0.4-0.1-0.8-0.2-0.8-0.4c0-0.1,0.2-0.2,0.5-0.2c0.1,0,0.3,0,0.3,0.1
		c0.1,0,0.1,0.1,0.1,0.2l0,0.1h1.8l0-0.1c0-0.5-0.1-0.9-0.4-1.2C136.3,83.1,135.8,82.9,135.1,82.9z"/>
	<polygon class="st0" points="120.4,88.3 124.8,88.3 125.1,86.9 122.5,86.9 122.6,86.4 124.7,86.4 124.9,84.9 122.9,84.9 
		122.9,84.5 125.4,84.5 125.6,83 121.3,83 	"/>
	<polygon class="st0" points="149.4,88.3 151.3,88.3 152.2,83 150.3,83 	"/>
	<polygon class="st0" points="162.5,84.8 162.4,85.5 161.3,83 159.5,83 158.6,88.3 160.4,88.3 160.7,86.6 160.8,85.9 162,88.3 
		163.7,88.3 164.6,83 162.8,83 	"/>
	<path class="st0" d="M173.7,82.9c-1.5,0-2.8,1.1-3.1,2.7c-0.1,0.8,0,1.6,0.4,2.1c0.4,0.5,1.1,0.7,1.9,0.7c1.4,0,2.5-0.8,2.9-2.2
		l0-0.2H174l0,0.1c-0.1,0.3-0.3,0.8-0.9,0.8c-0.3,0-0.4-0.1-0.5-0.2c-0.2-0.2-0.2-0.5-0.1-1c0.2-0.9,0.5-1.4,1.1-1.4
		c0.2,0,0.4,0.1,0.5,0.2c0.1,0.1,0.2,0.3,0.1,0.5l0,0.1h1.8l0-0.1c0-0.7-0.1-1.2-0.5-1.6C175.1,83.1,174.5,82.9,173.7,82.9z"/>
	<polygon class="st0" points="181.3,86.6 181,88.3 182.7,88.3 183,86.6 	"/>
</g>
<g>
	<polygon class="st0" points="116,45.8 120.1,27.7 111.9,27.7 106.5,51.5 106.4,51.8 125.3,51.8 126.7,45.8 	"/>
	<path class="st0" d="M53.8,32c-3.1-0.8-5.6-1.4-5.3-3c0.2-1,1.3-1.6,3.3-1.6c1,0,1.8,0.2,2.4,0.5c0.7,0.4,1,1,1,1.9l0,0.3h10.1
		l0-0.2c0.1-2.8-0.7-5.2-2.3-6.9c-2-2.1-5.2-3.1-9.4-3.1c-8.4,0-14.3,3.9-15.4,10.1c-1.3,7.5,5.4,9.1,10.3,10.4
		c3,0.8,5.4,1.3,5.2,2.9c-0.2,1.3-1.9,2.1-4.4,2.1c-1,0-1.9-0.3-2.6-0.7c-0.7-0.5-1.1-1.2-1.1-2.2l0-0.2H35.4l0,0.2
		c-0.3,2.5,0.4,4.9,2,6.8c2.2,2.5,5.8,3.9,10.2,3.9c9.2,0,15.4-4.1,16.6-10.9C65.3,35,58.7,33.3,53.8,32z"/>
	<polygon class="st0" points="88.4,27.7 66.3,27.7 64.8,34.4 71.7,34.4 67.8,51.8 76,51.8 80,34.4 86.9,34.4 	"/>
	<polygon class="st0" points="94.9,42.6 104.7,42.6 106,36.6 96.3,36.6 96.9,33.7 108.5,33.7 109.8,27.7 90.1,27.7 84.7,51.5 
		84.6,51.8 104.8,51.8 106.2,45.8 94.2,45.8 	"/>
	<path class="st0" d="M192.8,34.7c0.5-2.1,0.3-3.6-0.6-4.7c-1.3-1.6-4-2.3-8.6-2.3h-11.3l-5.4,23.8l-0.1,0.3h8.2l1.9-8.2h2.2
		c1.6,0,2.6,0.2,3,0.7c0.5,0.6,0.3,1.6,0,3.1c-0.5,2.2-0.6,3.7-0.5,4.2l0,0.2h8.2l0.3-1.2h-0.3c-0.2,0-0.2-0.1-0.2-0.1
		c-0.2-0.3,0-1.3,0.4-2.9l0.2-0.8c1-4.3,0-5.4-2.1-6.3C190.5,39.6,192.2,37.6,192.8,34.7z M184.9,35.9c-0.3,1.4-1.5,2-3.9,2h-2.7
		l0.9-4.2h3.4c1,0,1.7,0.2,2.1,0.7C185,34.8,185.1,35.3,184.9,35.9z"/>
	<polygon class="st0" points="155.2,27.7 144.1,45.8 135.7,45.8 139.8,27.7 131.6,27.7 126.2,51.5 126.1,51.8 140.4,51.8 145,51.8 
		148.3,51.8 157.2,37.2 159.7,51.8 166.5,51.8 162.5,27.7 	"/>
</g>
<path class="st1" d="M198.9,31.6c-0.3-0.5-0.6-0.8-1.1-1.1c-0.5-0.3-1-0.4-1.5-0.4s-1,0.1-1.5,0.4c-0.5,0.3-0.8,0.6-1.1,1.1
	c-0.3,0.5-0.4,0.9-0.4,1.5c0,0.5,0.1,1,0.4,1.5c0.3,0.5,0.6,0.8,1.1,1.1c0.5,0.3,1,0.4,1.5,0.4c0.5,0,1-0.1,1.5-0.4
	c0.5-0.3,0.8-0.6,1.1-1.1c0.3-0.5,0.4-0.9,0.4-1.5C199.3,32.5,199.1,32,198.9,31.6z M196.9,32.5c0,0.1,0,0.2-0.1,0.2
	c0,0-0.1,0.1-0.4,0.1h-0.5v-0.6h0.5c0.3,0,0.4,0,0.4,0.1C196.8,32.3,196.9,32.4,196.9,32.5z M197.7,34.4c0,0,0-0.2,0-0.7
	c0-0.2,0-0.4-0.1-0.5c0-0.1-0.1-0.1-0.2-0.2c0.1-0.1,0.2-0.2,0.2-0.3c0.1-0.1,0.1-0.3,0.1-0.4c0-0.2,0-0.4-0.1-0.5
	c-0.1-0.2-0.2-0.3-0.4-0.3c-0.2-0.1-0.4-0.1-0.7-0.1h-1.5v3.3h0.8v-1.2h0.5c0.2,0,0.3,0,0.3,0c0,0,0.1,0.1,0.1,0.1c0,0,0,0.1,0,0.5
	c0,0.1,0,0.2,0,0.3c0,0.1,0,0.1,0.1,0.2l0,0h0.8c-0.1,0.1-0.2,0.2-0.3,0.2c-0.3,0.2-0.7,0.3-1.1,0.3c-0.4,0-0.8-0.1-1.1-0.3
	c-0.3-0.2-0.6-0.5-0.8-0.8c-0.2-0.3-0.3-0.7-0.3-1.1c0-0.6,0.2-1.1,0.6-1.5s1-0.6,1.6-0.6c0.6,0,1.1,0.2,1.6,0.6
	c0.4,0.4,0.6,1,0.6,1.6c0,0.4-0.1,0.7-0.3,1.1c-0.1,0.2-0.2,0.3-0.4,0.5l-0.1,0C197.7,34.5,197.7,34.5,197.7,34.4z"/>
<g>
	<polygon class="st2" points="139.7,74 155.1,74 153.2,72.3 142.3,72.3 	"/>
	<polygon class="st2" points="148.7,68.4 146.3,69.9 150.3,69.9 	"/>
	<path class="st0" d="M45.4,53.5c-9.7,0-10.8-6-10.8-6.2l-0.5,0c0,2.2,0.8,4,2.2,5.4c3.2,3,8.8,3.3,10.9,3.3c0.5,0,0.8,0,0.9,0h86
		l-2.8-2.5L45.4,53.5z"/>
	<polygon class="st0" points="189.2,56 189.7,53.5 173.5,53.5 169.5,56 	"/>
	<path class="st0" d="M44.8,57.6c-9.7,0-10.8-6-10.8-6.2l-0.5,0c0,2.2,0.8,4,2.2,5.4c3.2,3,8.8,3.3,10.9,3.3c0.5,0,0.8,0,0.9,0h91.2
		l-2.8-2.5L44.8,57.6z"/>
	<polygon class="st0" points="188.3,60.1 188.9,57.6 166.9,57.6 162.9,60.1 	"/>
	<path class="st0" d="M140.6,61.7l-97,0c-9.7,0-10.8-6-10.8-6.2l-0.5,0c0,2.2,0.8,4,2.2,5.4c3.2,3,8.8,3.3,10.9,3.3
		c0.5,0,0.8,0,0.9,0h93.2l1.4-2.3L140.6,61.7z"/>
	<polygon class="st0" points="187.3,64.2 187.8,61.7 162,61.7 162.4,64.2 	"/>
	<path class="st0" d="M42.8,65.8c-9.7,0-10.8-6-10.8-6.2l-0.5,0c0,2.2,0.8,4,2.2,5.4c3.2,3,8.8,3.3,10.9,3.3c0.5,0,0.8,0,0.9,0h91.5
		l1.5-2.5L42.8,65.8z"/>
	<polygon class="st0" points="186.6,68.2 187.1,65.8 162.7,65.8 163.1,68.2 	"/>
	<path class="st0" d="M41.9,69.9c-9.7,0-10.8-6-10.8-6.2l-0.5,0c0,2.2,0.8,4,2.2,5.4c3.2,3,8.8,3.3,10.9,3.3c0.5,0,0.8,0,0.9,0h90
		l1.5-2.5L41.9,69.9z"/>
	<polygon class="st0" points="153.2,72.3 150.3,69.9 146.3,69.9 142.3,72.3 	"/>
	<polygon class="st0" points="185.7,72.3 186.2,69.9 163.3,69.9 163.7,72.3 	"/>
	<polygon class="st0" points="184.8,76.4 185.4,74 164,74 164.4,76.4 	"/>
	<path class="st0" d="M41.1,74c-9.7,0-10.8-6-10.8-6.2l-0.5,0c0,2.2,0.8,4,2.2,5.4c3.2,3,8.8,3.3,10.9,3.3c0.5,0,0.8,0,0.9,0h88.4
		l1.5-2.5L41.1,74z"/>
	<polygon class="st0" points="139.7,74 135.7,76.4 157.9,76.4 155.1,74 	"/>
</g>
</svg>
