<?xml version="1.0" encoding="utf-8"?>
<!-- Generator: Adobe Illustrator 21.0.2, SVG Export Plug-In . SVG Version: 6.00 Build 0)  -->
<svg version="1.1" id="Layer_1" xmlns="http://www.w3.org/2000/svg" xmlns:xlink="http://www.w3.org/1999/xlink" x="0px" y="0px"
	 viewBox="0 0 279 108.3" style="enable-background:new 0 0 279 108.3;" xml:space="preserve">
<style type="text/css">
	.st0{fill:#FFFFFF;}
</style>
<g id="vmCUjf_1_">
	<g>
		<path class="st0" d="M70.9,38.3c-0.1,0.2-0.2,0.4-0.3,0.6c-4.9,7.8-9.8,15.7-14.7,23.5c-0.1,0.2-0.3,0.4-0.4,0.7
			c-4.3,0-8.6,0-13,0c0.3-3.4,0.7-6.8,1-10.1c-0.1,0-0.1,0-0.2-0.1c-2.1,3.4-4.2,6.8-6.3,10.2c-4.3,0-8.6,0-12.9,0
			c0-0.7,0.1-1.3,0.1-2c0.4-3.8,0.7-7.6,1.1-11.3c0.3-3.3,0.6-6.6,0.9-10c0-0.5,0.1-1,0.1-1.5c4.2,0,8.5,0,12.7,0
			c-0.5,3.7-1.1,7.4-1.6,11c0.1,0,0.1,0,0.2,0c0.1-0.1,0.2-0.2,0.3-0.4c2-3.4,4-6.9,5.9-10.3c0.1-0.1,0.1-0.3,0.2-0.4
			c3.1,0,6.3,0,9.4,0c-0.5,3.7-1,7.4-1.4,11.1c0.2-0.2,0.3-0.4,0.4-0.6c1.4-2.5,2.8-5,4.2-7.5c0.6-1,1.1-2,1.6-3
			C62.4,38.3,66.6,38.3,70.9,38.3z"/>
		<path class="st0" d="M170.4,76c-0.3-0.1-0.6-0.2-0.9-0.3c-0.7-0.3-0.9-0.7-0.8-1.4c0.2-0.6,0.4-1.3,0.7-1.9c1.7,0,3.3,0,5,0
			c-0.1,0.4-0.2,0.7-0.2,1c0.8,0.6,1.3,0.2,1.6-1.1c-0.2-0.1-0.5-0.3-0.8-0.4c-1-0.4-1.9-0.7-2.9-1c-0.3-0.1-0.6-0.2-0.9-0.4
			c-0.5-0.3-0.7-0.7-0.5-1.3c0.1-0.5,0.3-1,0.5-1.5c0.3-0.7,0.9-1.1,1.6-1.3c0.6-0.2,1.2-0.3,1.9-0.3c1.9,0,3.7,0,5.6,0
			c0.4,0,0.9,0.1,1.3,0.2c0.9,0.2,1.1,0.7,0.9,1.6c-0.1,0.4-0.3,0.7-0.4,1.1c-1.6,0-3.2,0-4.9,0c-0.1-0.2-0.1-0.4-0.2-0.6
			c-0.8-0.1-0.9-0.1-1.2,0.7c0.2,0.1,0.5,0.3,0.7,0.4c1.1,0.4,2.3,0.8,3.4,1.3c0.9,0.3,1.1,0.7,0.9,1.7c-0.2,0.6-0.4,1.2-0.6,1.8
			c-0.4,0.9-1.2,1.4-2.1,1.6c-0.2,0.1-0.5,0.1-0.7,0.2C175,76,172.7,76,170.4,76z"/>
		<path class="st0" d="M23.5,72.5c0.5,0,1,0,1.4,0c0.1,0.2,0.2,0.4,0.3,0.6c1,0.5,1.7,0.2,1.6-0.9c-0.4-0.1-0.9-0.3-1.4-0.4
			c-0.6-0.2-1.3-0.3-1.4-1.1c-0.1-0.8,0.3-1.4,1-1.8c0.9-0.6,2-0.6,3-0.3c0.6,0.2,0.8,0.6,0.6,1.5c-0.4,0-0.9,0-1.3,0.1
			c-0.1-0.3-0.2-0.4-0.2-0.6c-0.8-0.3-1.2-0.2-1.5,0.7c0.2,0.1,0.4,0.3,0.7,0.4c0.4,0.1,0.8,0.2,1.1,0.3c1,0.3,1.3,0.9,0.9,1.9
			c-0.3,0.7-0.8,1.1-1.4,1.2c-0.7,0.1-1.4,0.1-2.1,0.1c-0.6,0-1-0.4-1.3-0.9C23.5,73,23.5,72.8,23.5,72.5z"/>
		<path class="st0" d="M247.5,65.3c-0.1,0.2-0.2,0.3-0.3,0.5c-0.7,1.6-2.2,2.4-3.9,2c-1.6-0.4-2.6-1.8-2.4-3.5c0.1-1.6,1.4-2.8,3-3
			c1.3-0.1,2.7,0.7,3.2,1.9c0.1,0.2,0.2,0.5,0.3,0.7C247.5,64.4,247.5,64.9,247.5,65.3z M244.2,61.8c-1.6,0-2.9,1.2-2.9,2.8
			c0,1.6,1.3,2.9,2.9,2.9c1.6,0,2.9-1.3,2.9-2.9C247.1,63.1,245.8,61.8,244.2,61.8z"/>
		<path class="st0" d="M100.2,38.5c0.3,0,0.6,0,0.9,0c6.5,0,13,0,19.5,0c1.3,0,2.7,0.2,4,0.4c1.6,0.3,2.4,1.3,2.6,2.7
			c0,0.2,0,0.5,0,0.7c-0.5,4-2.7,6.5-6.7,7.4c-0.2,0-0.4,0.1-0.6,0.3c0.4,0.1,0.7,0.2,1.1,0.4c1.6,0.7,2.3,1.9,2,3.6
			c-0.2,0.9-0.4,1.9-0.7,2.8c-0.6,1.8-1.3,3.6-1.9,5.4c-0.1,0.3-0.2,0.6-0.3,0.9c-4.2,0-8.4,0-12.6,0c0.1-0.3,0.2-0.6,0.3-0.9
			c0.8-2.4,1.7-4.7,2.5-7.1c0.1-0.2,0.2-0.5,0.2-0.7c0.2-0.8-0.1-1.3-0.9-1.4c-0.6-0.1-1.2,0-1.9,0c-1.2,3.4-2.4,6.7-3.6,10.1
			c-4.2,0-8.3,0-12.5,0C94.3,54.8,97.2,46.7,100.2,38.5z M109.4,47.7c0.5,0,0.9,0,1.3,0c1.6,0,2.5-0.8,2.8-2.4
			c0.1-0.7-0.1-1.1-0.8-1.2c-0.7-0.1-1.3,0-2,0C110.3,45.2,109.9,46.4,109.4,47.7z"/>
		<path class="st0" d="M148.9,63.1c2.9-8.2,5.8-16.3,8.8-24.5c4.2,0,8.3,0,12.5,0c-1,2.8-2,5.5-2.9,8.3c1.1,0,2.1,0,3.3,0
			c1-2.7,2-5.5,3-8.3c4.2,0,8.3,0,12.5,0c-2.9,8.2-5.8,16.4-8.8,24.5c-4.2,0-8.3,0-12.5,0c1.3-3.6,2.5-7,3.8-10.6
			c-1.1,0-2.2,0-3.3,0c-1.3,3.5-2.5,7.1-3.8,10.6C157.2,63.1,153.1,63.1,148.9,63.1z"/>
		<path class="st0" d="M193.6,63.1c-2.7,0-5.5,0-8.2,0c-0.6,0-1.2-0.1-1.7-0.2c-2.2-0.5-3.1-1.8-2.5-4c0.4-1.6,1-3.2,1.6-4.8
			c1.2-3.3,2.4-6.7,3.6-10c1-3.1,3.2-4.7,6.3-5.2c1.1-0.2,2.2-0.3,3.3-0.3c4.3,0,8.6,0,12.9,0c1.1,0,2.2,0.1,3.3,0.2
			c0.3,0,0.7,0.1,1,0.3c1.7,0.6,2.4,1.7,2,3.5c-0.1,0.7-0.4,1.3-0.6,2c-1.5,4.2-3,8.4-4.5,12.6c-0.1,0.3-0.3,0.7-0.4,1
			c-1.2,2.8-3.3,4.4-6.4,4.8c-0.9,0.1-1.9,0.2-2.9,0.2C198.1,63.1,195.8,63.1,193.6,63.1C193.6,63.1,193.6,63.1,193.6,63.1z
			 M195.6,57.6c1,0,1.8-0.5,2.2-1.6c0.4-0.9,0.7-1.8,1-2.7c0.9-2.6,1.9-5.2,2.8-7.8c0.4-1.3-0.2-1.9-1.5-1.7
			c-0.9,0.2-1.4,0.8-1.7,1.6c-0.5,1.2-0.9,2.4-1.3,3.6c-0.8,2.3-1.7,4.6-2.5,6.9C194.2,57.1,194.6,57.6,195.6,57.6z"/>
		<path class="st0" d="M243.5,49c-1.7,4.7-3.3,9.4-5,14c-2.1,0-4.2,0-6.4,0c-0.2-0.5-0.3-1-0.5-1.6c-1.3,1-2.8,1.4-4.3,1.5
			c-0.6,0.1-1.2,0.1-1.7,0.1c-3.2,0-6.4,0-9.7,0c-0.8,0-1.5-0.2-2.3-0.4c-1.6-0.5-2.3-1.7-2-3.3c0.3-1.3,0.7-2.5,1.1-3.7
			c1.4-3.9,2.8-7.8,4.1-11.7c1.1-3.1,3.2-4.8,6.4-5.2c0.9-0.1,1.8-0.2,2.6-0.2c4.8,0,9.7,0,14.5,0c1,0,2,0.2,3,0.4
			c1.1,0.2,2,0.8,2.3,2c0.1,0.3,0.1,0.7,0.1,1c-0.2,1.5-0.8,2.8-1.2,4.1c-4.2,0-8.3,0-12.5,0c0.1-0.3,0.2-0.6,0.3-0.9
			c0.2-0.6-0.1-1-0.7-1.2c-1-0.3-2,0.2-2.5,1.3c-0.3,0.7-0.6,1.4-0.8,2.2c-1,2.7-2,5.5-3,8.2c-0.1,0.3-0.2,0.6-0.2,0.9
			c-0.1,0.7,0.2,1.1,0.9,1.1c0.9,0.1,1.7-0.3,2.1-1.1c0.3-0.6,0.6-1.4,0.9-2.2c-0.6,0-1.1-0.1-1.7-0.1c0.6-1.8,1.2-3.5,1.9-5.3
			C234,49,238.7,49,243.5,49z"/>
		<path class="st0" d="M93,38.6c-1,8.2-2.1,16.3-3.1,24.5c-4.3,0-8.5,0-12.9,0c0.4-1.7,0.7-3.4,1.1-5.2c-1.2,0-2.4,0-3.7,0
			c-0.8,1.7-1.7,3.4-2.6,5.2c-4.3,0-8.5,0-12.9,0c4.8-8.2,9.6-16.4,14.4-24.5C79.9,38.6,86.4,38.6,93,38.6z M81.2,44.4
			c-0.1,0-0.1,0-0.2-0.1c-1.4,2.6-2.7,5.3-4.2,8c1,0,1.8,0,2.7,0C80.1,49.7,80.6,47.1,81.2,44.4z"/>
		<path class="st0" d="M128.2,44c0.7-1.9,1.3-3.7,2-5.5c8.5,0,16.9,0,25.4,0c-0.7,1.9-1.3,3.7-2,5.5c-2.2,0-4.3,0-6.5,0
			c-2.3,6.4-4.5,12.7-6.8,19c-4.1,0-8.2,0-12.4,0c2.3-6.4,4.5-12.6,6.8-19C132.5,44,130.4,44,128.2,44z"/>
		<path class="st0" d="M221.8,67c-0.4,3-0.9,5.8-1.3,8.7c-1.3,0-2.5,0-3.7,0c0.1-0.5,0.1-0.9,0.2-1.4c-0.4,0-0.7,0-1.1,0
			c-0.2,0.4-0.5,0.9-0.8,1.4c-1.2,0-2.4,0-3.8,0c1.8-3,3.6-5.9,5.4-8.7C218.4,67,220,67,221.8,67z M217.9,70.7c-0.1,0-0.1,0-0.2-0.1
			c-0.4,0.7-0.7,1.3-1.1,2.1c0.4,0,0.6,0,0.9-0.1C217.6,72,217.7,71.4,217.9,70.7z"/>
		<path class="st0" d="M198.3,68.6c1.2,0,2.3,0,3.5,0c0.1,0.9,0.3,1.7,0.4,2.6c0.1,0,0.1,0,0.2,0.1c0.3-0.9,0.7-1.8,1-2.6
			c1.1,0,2.1,0,3.2,0c-0.8,2.4-1.7,4.7-2.5,7c-1.1,0-2.2,0-3.4,0c-0.1-1-0.3-2-0.4-3c-0.1,0-0.1,0-0.2,0c-0.4,1-0.7,2-1.1,3
			c-1.1,0-2.1,0-3.2,0C196.7,73.2,197.5,70.9,198.3,68.6z"/>
		<path class="st0" d="M190.9,75.7c-0.8,0-1.6,0-2.4,0c-1,0-1.4-0.5-1-1.5c0.5-1.4,1-2.8,1.5-4.1c0.4-1.1,1.3-1.4,2.3-1.4
			c1.6-0.1,3.1,0,4.7,0c0.2,0,0.4,0.1,0.6,0.1c0.6,0.2,0.9,0.5,0.7,1.1c-0.5,1.5-1.1,3.1-1.7,4.6c-0.4,0.9-1.2,1.2-2.1,1.3
			C192.5,75.7,191.7,75.7,190.9,75.7z M191,73.9c0.7,0.2,0.9,0.2,1.1-0.4c0.3-0.8,0.6-1.7,0.9-2.5c0.1-0.2,0.1-0.5,0.2-0.7
			c-0.6-0.3-0.8-0.2-1,0.3c-0.2,0.6-0.4,1.1-0.6,1.7C191.4,72.9,191.2,73.4,191,73.9z"/>
		<path class="st0" d="M230.5,70.8c-1.1,0-2.2,0-3.2,0c-0.1-0.2-0.2-0.4-0.4-0.7c-0.2,0.1-0.6,0.2-0.7,0.4c-0.5,1.1-0.9,2.3-1.3,3.4
			c0.7,0.3,0.9,0.2,1.2-0.6c-0.1-0.1-0.2-0.2-0.3-0.3c0.2-0.4,0.3-0.8,0.5-1.3c1.3,0,2.6,0,4,0c-0.5,1.3-0.9,2.6-1.4,3.9
			c-0.7-0.1-1.4,0.3-2-0.3c-1.6,0.5-3.2,0.3-4.9,0.3c-0.6,0-0.8-0.4-0.7-1c0-0.2,0.1-0.5,0.2-0.7c0.4-1.2,0.9-2.4,1.3-3.6
			c0.3-0.9,1-1.5,2-1.5c1.7-0.1,3.4-0.1,5,0c1.2,0,1.5,0.6,1,1.7C230.6,70.6,230.6,70.7,230.5,70.8z"/>
		<path class="st0" d="M212.4,71c-0.2,0.6-0.4,1-0.6,1.5c-0.7,0-1.4,0-2.2,0c-0.2,0.5-0.4,1-0.6,1.6c0.8,0,1.4,0,2.2,0
			c-0.2,0.6-0.4,1-0.5,1.5c-1.9,0-3.8,0-5.8,0c0.8-2.4,1.7-4.7,2.5-7c1.9,0,3.8,0,5.8,0c-0.2,0.5-0.3,1-0.5,1.5c-0.7,0-1.5,0-2.2,0
			c-0.1,0.3-0.2,0.5-0.3,0.9C210.9,71,211.6,71,212.4,71z"/>
		<path class="st0" d="M232.1,68.7c1.9,0,3.8,0,5.7,0c-0.2,0.5-0.3,1-0.5,1.5c-0.7,0-1.4,0-2.2,0c-0.1,0.3-0.2,0.5-0.3,0.9
			c0.7,0,1.4,0,2.2,0c-0.2,0.6-0.4,1-0.5,1.5c-0.7,0-1.4,0-2.2,0c-0.2,0.5-0.4,1-0.6,1.6c0.8,0,1.4,0,2.2,0c-0.2,0.6-0.3,1-0.5,1.5
			c-1.9,0-3.8,0-5.7,0C230.5,73.3,231.3,71.1,232.1,68.7z"/>
		<path class="st0" d="M184.4,75.6c-1.2,0-2.3,0-3.5,0c0.6-1.8,1.3-3.6,1.9-5.4c-0.6,0-1.2-0.1-1.8-0.1c0.1-0.2,0.1-0.4,0.2-0.5
			c0.4,0,0.7-0.1,1-0.1c0.1-0.3,0.3-0.5,0.4-0.9c2,0,4,0,6.1,0c-0.2,0.5-0.3,1-0.5,1.4c-0.6,0-1.2,0.1-1.9,0.1
			C185.7,72,185.1,73.8,184.4,75.6z"/>
		<path class="st0" d="M42.4,68.6c0.5,0,1,0,1.5,0c-0.1,1.3-0.2,2.5-0.3,3.6c0.1,0,0.1,0,0.2,0.1c0.5-1.2,1.1-2.5,1.6-3.7
			c0.6,0,1.2,0,1.9,0c0,1.2,0,2.4,0,3.6c0.1,0,0.1,0,0.2,0.1c0.2-0.6,0.4-1.2,0.6-1.8c0.2-0.6,0.4-1.2,0.6-1.8c0.4,0,0.8,0,1.3,0
			c-0.7,1.9-1.4,3.7-2.1,5.5c-0.6,0-1.2,0-1.9,0c0-1.3,0-2.6,0-3.8c-0.1,0-0.2,0-0.2,0c-0.6,1.3-1.2,2.6-1.8,3.9c-0.6,0-1.1,0-1.8,0
			C42.3,72.3,42.4,70.5,42.4,68.6z"/>
		<path class="st0" d="M81.1,68.6c0.3,1.3,0.6,2.6,1,3.9c0.1,0,0.1,0,0.2,0c0.3-1.3,0.6-2.6,0.8-3.9c0.4,0,0.8,0,1.3,0
			c-0.4,1.9-0.8,3.7-1.2,5.5c-0.7,0-1.4,0-2.1,0c-0.3-1.4-0.7-2.7-1-4c-0.1,0-0.1,0-0.2,0c-0.3,1.3-0.6,2.7-0.9,4
			c-0.4,0-0.8,0-1.3,0c0.4-1.9,0.8-3.7,1.2-5.5C79.7,68.6,80.4,68.6,81.1,68.6z"/>
		<path class="st0" d="M153.2,71.3c1.1,0.7,1.1,1.9,0,2.6c-0.2,0.1-0.5,0.3-0.7,0.3c-1.1,0-2.3,0-3.5,0c0.4-1.9,0.8-3.7,1.2-5.5
			c1.1,0,2.2,0,3.3,0c0.4,0,0.8,0.2,1,0.7c0.1,0.5,0.1,0.9-0.3,1.3C153.9,70.8,153.6,71,153.2,71.3z M150.7,73.1
			c1.3,0.3,1.9,0,1.8-1.1c-0.4-0.4-1-0.3-1.5-0.2c-0.1,0.2-0.1,0.3-0.2,0.5C150.8,72.5,150.7,72.8,150.7,73.1z M151.2,70.7
			c1.3,0.3,1.8,0,1.7-1c-0.4-0.3-0.9-0.2-1.5-0.1C151.3,70,151.3,70.4,151.2,70.7z"/>
		<path class="st0" d="M92,68.4c1.7,0,2.4,0.8,2.2,2.5c-0.2,2.3-1.9,3.7-4.2,3.4c-1-0.1-1.6-0.7-1.8-1.7c-0.3-1.8,1.1-3.7,2.8-4
			C91.4,68.4,91.7,68.4,92,68.4z M92.8,70.8c-0.1-1.2-0.9-1.7-1.9-1.1c-0.2,0.1-0.4,0.3-0.6,0.5c-0.4,0.6-0.6,1.3-0.6,2.1
			c0,0.7,0.4,1,1.1,1c0.6,0,1-0.3,1.2-0.8C92.5,71.9,92.6,71.3,92.8,70.8z"/>
		<path class="st0" d="M63.3,68.6c1.3,0,2.4,0,3.6,0c0.5,0,0.8,0.4,0.8,1c0,0.7-0.3,1.3-0.9,1.6c-0.1,0.1-0.3,0.1-0.4,0.2
			c0.8,0.5,0.9,1.4,0.5,2.8c-0.4,0-0.9,0-1.4,0c0-0.4,0-0.7,0-1c0-0.3,0-0.6,0-1c-0.4-0.1-0.8-0.1-1.3-0.1c-0.2,0.8-0.3,1.5-0.5,2.2
			c-0.5,0-0.9,0-1.5,0C62.6,72.2,62.9,70.4,63.3,68.6z M64.3,70.9c0.5,0,0.9,0.1,1.2,0c0.4-0.1,0.7-0.4,0.6-0.9
			c0-0.4-0.4-0.5-0.8-0.5c-0.3,0-0.5,0-0.8,0C64.5,70,64.5,70.4,64.3,70.9z"/>
		<path class="st0" d="M133.7,72.5c0.4,0,0.8,0,1.2,0c0.2,0.5,0.5,0.9,1.2,0.8c0.5-0.1,0.8-0.3,0.8-1c-0.2-0.1-0.4-0.2-0.6-0.3
			c-0.4-0.1-0.8-0.2-1.2-0.4c-0.9-0.3-1.3-0.9-0.8-1.8c0.2-0.4,0.6-0.8,1-1c0.8-0.5,1.8-0.5,2.7-0.2c0.7,0.2,0.9,0.7,0.8,1.5
			c-0.4,0-0.9,0-1.4,0c-0.1-0.2-0.1-0.4-0.2-0.5c-0.9-0.4-1.4-0.1-1.4,0.9c0.5,0.2,1,0.3,1.5,0.5c1.3,0.4,1.6,1.3,0.7,2.4
			c-0.2,0.2-0.4,0.4-0.7,0.6c-1,0.5-2,0.5-3,0.2C133.7,73.9,133.5,73.3,133.7,72.5z"/>
		<path class="st0" d="M129.8,68.6c-0.1,0.3-0.1,0.6-0.2,0.9c-0.9,0-1.8,0-2.7,0c-0.1,0.5-0.2,0.8-0.3,1.3c0.8,0,1.6,0,2.5,0
			c-0.1,0.4-0.1,0.7-0.2,1c-0.8,0-1.6,0-2.5,0c-0.1,0.4-0.2,0.8-0.3,1.3c1,0,1.8,0,2.8,0c-0.1,0.4-0.1,0.7-0.2,1c-1.4,0-2.8,0-4.2,0
			c0.4-1.9,0.8-3.6,1.2-5.5C127.1,68.6,128.4,68.6,129.8,68.6z"/>
		<path class="st0" d="M37.1,74.1c-1.4,0-2.8,0-4.2,0c0.4-1.9,0.8-3.6,1.2-5.5c1.4,0,2.7,0,4.1,0c0,0.3-0.1,0.6-0.1,0.9
			c-0.9,0-1.8,0-2.7,0c-0.1,0.4-0.2,0.8-0.3,1.3c0.9,0,1.6,0,2.5,0c-0.1,0.4-0.1,0.7-0.2,1c-0.8,0-1.7,0-2.5,0
			c-0.1,0.4-0.2,0.8-0.3,1.3c0.9,0,1.8,0,2.7,0C37.2,73.5,37.1,73.8,37.1,74.1z"/>
		<path class="st0" d="M55.2,71.9c-0.1,0.5-0.2,0.8-0.3,1.3c0.9,0,1.8,0,2.7,0c-0.1,0.4-0.1,0.7-0.2,1c-1.4,0-2.8,0-4.2,0
			c0.4-1.8,0.8-3.6,1.2-5.5c1.4,0,2.7,0,4.1,0c0,0.1,0,0.3,0,0.4c0,0.1-0.1,0.3-0.1,0.5c-0.9,0-1.7,0-2.7,0
			c-0.1,0.4-0.2,0.8-0.3,1.3c0.9,0,1.6,0,2.5,0c-0.1,0.4-0.1,0.7-0.2,1C56.9,71.9,56.1,71.9,55.2,71.9z"/>
		<path class="st0" d="M106.8,74.1c0-0.7,0.2-1.2,0.7-1.7c0.8-0.7,1.6-1.5,2.4-2.2c0.2-0.2,0.3-0.3,0.5-0.5c0-0.1,0-0.1,0-0.2
			c-0.8,0-1.5,0-2.4,0c0.1-0.4,0.1-0.6,0.1-0.9c1.5,0,3,0,4.5,0c-0.1,0.4-0.1,0.8-0.2,1.1c-1.2,1.1-2.3,2.2-3.5,3.2
			c0,0.1,0,0.1,0.1,0.2c0.9,0,1.8,0,2.7,0c-0.1,0.4-0.1,0.6-0.2,0.9C109.9,74.1,108.4,74.1,106.8,74.1z"/>
		<path class="st0" d="M102.8,73.1c-0.1,0.4-0.2,0.7-0.2,1c-1.6,0-3.1,0-4.7,0c0-0.7,0.1-1.2,0.6-1.6c0.8-0.7,1.6-1.5,2.4-2.2
			c0.2-0.2,0.4-0.3,0.6-0.4c0-0.1-0.1-0.2-0.1-0.3c-0.8,0-1.5,0-2.4,0c0.1-0.4,0.1-0.7,0.1-1c1.5,0,3,0,4.5,0c0,0.6-0.1,1.1-0.6,1.5
			c-0.9,0.7-1.7,1.5-2.5,2.3c-0.2,0.2-0.4,0.3-0.6,0.4c0.1,0.1,0.1,0.2,0.2,0.3C100.9,73.1,101.8,73.1,102.8,73.1z"/>
		<path class="st0" d="M161.1,74.1c-0.5,0-0.9,0-1.4,0c0-0.2,0-0.4,0.1-0.5c0.4-1,0.2-2-0.3-3c-0.3-0.6-0.5-1.3-0.8-2
			c0.6,0,1.1,0,1.7,0c0.2,0.7,0.5,1.4,0.8,2.3c0.6-0.8,1.2-1.6,1.8-2.3c0.5,0,0.9,0,1.5,0c-0.5,0.6-0.9,1.1-1.3,1.6
			c-0.2,0.3-0.5,0.6-0.8,0.9c-0.6,0.7-1,1.4-1.1,2.3C161.2,73.7,161.2,73.9,161.1,74.1z"/>
		<path class="st0" d="M116.1,74.1c0.4-1.9,0.8-3.6,1.2-5.5c0.5,0,0.9,0,1.5,0c-0.3,1.5-0.6,2.9-0.9,4.5c0.9,0,1.6,0,2.5,0
			c-0.1,0.4-0.1,0.7-0.2,1C118.7,74.1,117.5,74.1,116.1,74.1z"/>
		<path class="st0" d="M243.1,62.8c0.5,0,0.9,0,1.2,0c0.4,0,0.9,0,1.1,0.5c0.2,0.5,0,0.9-0.3,1.2c0.1,0.6,0.3,1.2,0.4,1.8
			c-0.3,0-0.4,0-0.6,0c-0.1-0.5-0.2-0.9-0.3-1.4c-0.3,0-0.6-0.1-1-0.1c-0.1,0.6-0.1,1-0.1,1.4c-0.1,0-0.1,0-0.2,0.1
			c-0.1-0.1-0.3-0.2-0.3-0.3C243.1,65,243.1,64,243.1,62.8z M243.6,64.4c0.5,0.1,0.9,0.2,1.1-0.2c0.1-0.2,0-0.5,0-0.8
			c-0.5,0-0.8,0-1.1,0.1C243.6,63.7,243.6,64,243.6,64.4z"/>
	</g>
</g>
</svg>
