<?xml version="1.0" encoding="utf-8"?>
<!-- Generator: Adobe Illustrator 21.0.2, SVG Export Plug-In . SVG Version: 6.00 Build 0)  -->
<svg version="1.1" id="Layer_1" xmlns="http://www.w3.org/2000/svg" xmlns:xlink="http://www.w3.org/1999/xlink" x="0px" y="0px"
	 viewBox="0 0 279 108.3" style="enable-background:new 0 0 279 108.3;" xml:space="preserve">
<style type="text/css">
	.st0{fill:#695E4A;}
</style>
<path class="st0" d="M51.2,61.3c1.3,0,2.9-0.4,3.2-2c0.4-3.2-8.7-2.4-7.8-9.4c0.6-4.8,5-7.7,9.5-7.7c2.5,0,4.3,0.6,6.4,1.4l-0.8,5.8
	c-1.5-1.2-3-2.1-5.1-2.1c-1.1,0-2.7,0.4-2.8,1.8c-0.4,3.4,8.8,2.1,7.8,9.5c-0.7,5.2-5.2,7.8-10,7.8c-2.3,0-5-0.5-7.1-1.5l0.8-6
	C46.9,60.2,49.1,61.3,51.2,61.3 M71.7,56l-0.6-13.2h-7.7l2.6,23h6.5l5.9-10.4l3.3,10.4h6.5l8.3-23h-7.2L85.2,56l-4.5-13.2h-0.8
	L71.7,56z M114,42.8H98.4l-3,23h14.4l3.8-5.5h-10.3l0.5-3.5h7.2l0.7-5.4h-7.2l0.4-3.1h8.4L114,42.8z M132.6,42.8H117l-3,23h14.4
	l3.8-5.5H122l0.4-3.5h7.2l0.7-5.4h-7.2l0.4-3.1h8.4L132.6,42.8z M146.5,42.8h-10.9l-3,23h7.3L141,57c5.5,0,12.2,0.1,13.2-7.3
	C154.8,44.9,150.7,42.8,146.5,42.8 M146.9,50.3c-0.2,1.4-1.3,2.2-2.7,2.2l-3.2,3.9l1.1-8.4h2C145.7,48,147.2,48.5,146.9,50.3
	 M160.7,61.3c-2.1,0-4.4-1.1-5.8-2.4l-0.8,6c2,0.9,4.7,1.5,7.1,1.5c4.8,0,9.3-2.6,10-7.8c1-7.4-8.3-6.1-7.8-9.5
	c0.2-1.3,1.8-1.8,2.9-1.8c2.1,0,3.6,0.9,5.1,2.1l0.7-5.8c-2.2-0.9-4-1.4-6.4-1.4c-4.5,0-8.9,2.9-9.5,7.7c-0.9,7,8.2,6.1,7.8,9.4
	C163.6,60.9,162,61.3,160.7,61.3 M193.1,42.8h-19.7l-0.7,5.5h6.2l-2.3,17.5h7.3l2.3-17.5h6.2L193.1,42.8z M210.1,42.8h-15.6l-3,23
	h14.4l3.8-5.5h-10.3l0.5-3.5h7.2l0.7-5.4h-7.2l0.4-3.1h8.4L210.1,42.8z M224.2,42.8h-11.3l-3,23h7.1l1.3-9.5h1.9l4.4,9.5h7.9
	l-5.1-10.7c2.1-1.3,3.8-3.1,4.1-5.6C232,44.6,228.5,42.8,224.2,42.8 M221.4,52L221.4,52l-3.1,3.7l1-7.8h3.2c1,0,1.9,0.8,1.8,1.8
	c-0.2,1.4-1.3,2.3-2.6,2.3H221.4"/>
</svg>
