<?xml version="1.0" encoding="utf-8"?>
<!-- Generator: Adobe Illustrator 21.0.2, SVG Export Plug-In . SVG Version: 6.00 Build 0)  -->
<svg version="1.1" id="Layer_1" xmlns="http://www.w3.org/2000/svg" xmlns:xlink="http://www.w3.org/1999/xlink" x="0px" y="0px"
	 viewBox="0 0 279 108.3" style="enable-background:new 0 0 279 108.3;" xml:space="preserve">
<style type="text/css">
	.st0{fill:#FFFFFF;}
	.st1{clip-path:url(#SVGID_2_);fill:url(#SVGID_3_);}
</style>
<g>
	<path class="st0" d="M66.4,64.8v-5.7c0,0,0.1-4.8-1.6-7.1c-1-1.5-2.8-3.7-7.2-6.3l-3.3-2c0,0-3.2-1.4-3.2-3.1
		c0-1.7,0.4-2.1,1.4-2.1c1,0,1.9,0,1.9,0s1,0.1,1.1,1c0.1,0.9,0,1.6,0,1.6l10.1,0V30.4H48.1c-1.4,0-7.3-0.8-7.4,7.4
		c-0.1,8.1,0,4.4,0,4.4s-0.5,4.5,4.2,8.1c3.1,2.4,6.4,4.1,8.8,6.2c1.1,1,1.7,1.9,1.9,2.8c0.4,1.9,0.2,2.2,0,2.5
		c-0.4,0.4-1.1,0.3-1.9,0.3c-0.9,0-1.8,0.1-2.1-0.5c-0.2-0.5-0.2-2.5-0.2-2.5H40.9l0,11.3h14.5c0,0,5.5,0.2,8.4-1
		C65.5,68.6,66.4,67.1,66.4,64.8"/>
	<path class="st0" d="M66.9,30.7L75,61.9l8.7,0l5-13.6l4.5,13.6l9.2,0l7.9-31.1H97.7l0,7.7c0,0,1.7-0.1,1.1,2.2l-1.4,6l-4.2-15.9H86
		l-4.1,15.9l-4.6-15.9L66.9,30.7z"/>
	<path class="st0" d="M110.1,38.6c0,0-0.3-4.2,1.8-6.5c1.2-1.3,3.4-1.7,5.7-1.7l5.9,0c0,0,5.5,0,7.5,1.5c2.1,1.6,2,4.8,2,6.7v10.3
		h-13.3v1.9c0,0,0.1,1.5,1.2,1.9c0.3,0.1,1.1,0.1,1.5,0.1c1.8,0,2-0.9,2-2h8.6l0,9.4c0,0,0.4,1.8-1.9,1.7c-2.3,0-15.9,0-15.9,0
		s-5.1,0.9-5.1-8.1V38.6z M123.5,42.5c0,0,0-0.7,0-1.8c0-1.1-1.3-1.3-1.3-1.3s0.1,0-1.2,0c-1.3,0-1.3,1.4-1.3,1.4v1.7H123.5z"/>
	<path class="st0" d="M135.3,30.7l17.9-0.1c0,0,5.1-0.8,7.3,4.6c0.6,1.5,0.8,3.4,0.8,6l0,20.6l-12.4,0v-9.3c0,0,2,0.1,2-1.9
		c0-2,0-9.3,0-9.3s0-2.3-2-2.7c-1.3-0.3-1.9,0.4-1.9,0.4v22.8l-9.6,0V41.3c0,0-0.1-2.5-2.1-2.6V30.7z"/>
	<path class="st0" d="M163.1,37.8c0,0-0.1-3.4,1.4-5.4c1.5-2,5.7-1.9,5.7-1.9H186l0,9.7h-9.3V39c0,0-0.1-0.8-1.1-0.9
		c-1,0-1.5,0-1.5,0s-1.4,0.1-1.4,1c0,0.9,0.1,1.6,1.3,2.1l6,2c0,0,4.5,1.5,5.6,2.8c1.1,1.3,1.1,3.6,1.1,3.6l0,6.1
		c0,0,0.2,2.8-1.2,4.3c0,0-0.8,1.6-8.4,1.6l-13.6,0v-10l9.4,0l0,1.4c0,0,0,0.8,1.2,0.9c1.2,0,1.7,0,1.7,0s0.9,0.1,1.1-0.7
		c0.1-0.8-0.3-2-0.6-2.3c0,0-0.7-0.6-2.1-1.1c-1.4-0.5-3.3-1.2-4.2-1.6c-0.9-0.3-4.2-1.5-5.7-2.6c-1-0.8-1.2-2.6-1.2-3.5L163.1,37.8
		z"/>
	<path class="st0" d="M204.6,30c0.8,0,4.2-0.1,5.4,0.9c2.3,2,2.3,6,2.3,6.9c0,0.5,0,16.9,0,16.9c0,2.7-0.4,4.8-2,6
		c-2.4,1.7-6.2,1.4-6.2,1.4s-5.8,0-8.9,0c-4.1,0.1-5.4-1.8-5.4-1.8c-1.6-1.9-1.5-4.4-1.5-4.4l0-19.1c0,0-0.3-3.9,2.2-5.9
		c1.6-1.1,6.1-0.9,6.1-0.9S201.6,30,204.6,30 M197.5,49.9c0,2.2,2.1,2,2.1,2s0.2,0,1.9,0c1.7,0,1.7-1.6,1.7-1.6s0-7.1,0-8.9
		c0-1.8-2-1.8-2-1.8s0.4,0-1.6,0c-2.1,0-2,1.8-2,1.8L197.5,49.9z"/>
	<path class="st0" d="M214.5,30.8l17.9-0.1c0,0,5.1-0.8,7.3,4.6c0.6,1.5,0.8,3.4,0.8,6l0,20.6l-12.4,0v-9.3c0,0,2,0.1,2-1.9
		c0-2,0-9.3,0-9.3s0-2.3-2-2.7c-1.3-0.3-1.9,0.4-1.9,0.4V62l-9.6,0V41.3c0,0-0.1-2.5-2.1-2.6V30.8z"/>
</g>
<g>
	<defs>
		<path id="SVGID_1_" d="M157.4,66C141,66,53.6,67.2,38.4,91.2c-0.1,0.1-0.4,0.5-0.4,0.5l68.1,0.2c0,0,15.5-21.5,59.1-23.1
			c18.8-1.1,36.1-1.2,53.7-1.4c1.4,0,2.8,0,4.2,0c2,0,4,0,5.9,0c2,0,4,0,6,0c1.5,0,3.1,0,4.6,0c0.5,0,0.8-0.2,1-0.4
			c0.1-0.2,0.2-0.6,0.2-0.8v0c0-0.1,0-0.2,0-0.2H160c0,0-0.7,0-2,0H157.4z"/>
	</defs>
	<clipPath id="SVGID_2_">
		<use xlink:href="#SVGID_1_"  style="overflow:visible;"/>
	</clipPath>
	<linearGradient id="SVGID_3_" gradientUnits="userSpaceOnUse" x1="170.6826" y1="83.409" x2="170.6826" y2="67.6263">
		<stop  offset="0" style="stop-color:#FFFFFF;stop-opacity:0"/>
		<stop  offset="1" style="stop-color:#FFFFFF"/>
	</linearGradient>
	<rect x="37.1" y="42.6" class="st1" width="267.2" height="63.4"/>
</g>
</svg>
