<?xml version="1.0" encoding="utf-8"?>
<!-- Generator: Adobe Illustrator 21.0.2, SVG Export Plug-In . SVG Version: 6.00 Build 0)  -->
<svg version="1.1" id="Layer_1" xmlns="http://www.w3.org/2000/svg" xmlns:xlink="http://www.w3.org/1999/xlink" x="0px" y="0px"
	 viewBox="0 0 234.7 108.3" style="enable-background:new 0 0 234.7 108.3;" xml:space="preserve">
<style type="text/css">
	.st0{fill:#DF2228;}
</style>
<g>
	<path class="st0" d="M85.9,45.7v28.9h22.2v2.8H44.4v7.2h80.9V74.6v-7.2V52.9v-7.2H85.9z M108.1,67.3h-5V52.9h5V67.3z"/>
	<polygon class="st0" points="44.9,74.6 62.1,74.6 62.1,42.8 82.7,42.8 82.7,25.7 24.3,25.7 24.3,42.8 44.9,42.8 	"/>
	<rect x="65.5" y="45.7" class="st0" width="17.2" height="28.9"/>
	<path class="st0" d="M128.3,45.7v28.9h38.6v-7.2h-21.4v-4.5h21.4h0.1V45.7h-0.1H128.3z M145.4,55.6v-2.7h4.3v2.7H145.4z"/>
	<polygon class="st0" points="191.9,45.7 191.9,45.9 191.8,45.7 187.3,50.9 187.3,45.7 170.1,45.7 170.1,74.6 187.3,74.6 
		187.3,61.9 191.9,56.5 191.9,60.1 209.1,60.1 209.1,45.7 	"/>
</g>
</svg>
