<?xml version="1.0" encoding="utf-8"?>
<!-- Generator: Adobe Illustrator 21.0.2, SVG Export Plug-In . SVG Version: 6.00 Build 0)  -->
<svg version="1.1" id="Layer_1" xmlns="http://www.w3.org/2000/svg" xmlns:xlink="http://www.w3.org/1999/xlink" x="0px" y="0px"
	 viewBox="0 0 279 108.3" style="enable-background:new 0 0 279 108.3;" xml:space="preserve">
<style type="text/css">
	.st0{fill:#07A1C7;}
</style>
<g>
	<path class="st0" d="M70.1,32.5H58.7H57v1.7v1.1v1.5l1.4,0.3c0.2,0,0.4,0.1,0.4,0.1c1.3,0.2,1.7,0.5,1.8,0.6
		c0.2,0.2,0.3,0.3,0.3,0.3c0,0.3-0.1,1.3-1.2,4c0,0-4.6,11.9-7.1,18.4l-7.7-18.8c-1-2.4-1.1-3.4-1.1-3.8c0-0.2,0-0.3,0.2-0.4
		c0.1,0,0.6-0.3,2.4-0.5l1.6-0.2v-1.6v-1.1v-1.7h-1.7H31h-1.7v1.7v1.1v1.6l1.6,0.1c1.1,0.1,1.7,0.3,2,0.5c0.4,0.2,0.8,0.5,1.1,0.9
		c0,0,0.3,0.5,1.3,2.8c0,0,13.7,33.5,13.7,33.5l0.4,1.1h1.2h1.3H53l0.4-1.1l12.8-33.1c0.6-1.7,1.4-3,2.1-3.7
		c0.4-0.4,1.1-0.7,2.1-0.9l1.4-0.3v-1.4v-1.1v-1.7H70.1z"/>
	<path class="st0" d="M135.5,63.5l-0.8-0.5l-1.4-0.9l-1,1.4c-2,3-3.8,5-5.4,5.9c-1.5,0.9-3.3,1.4-5.4,1.4c-2.4,0-4.5-0.6-6.4-1.8
		c-1.8-1.2-3.2-2.9-4.1-5.1c-1-2.4-1.5-5.2-1.5-8.5c0-4,0.5-7.4,1.6-10.1c1-2.5,2.3-4.4,4-5.5c1.7-1.1,3.5-1.7,5.6-1.7
		c2.5,0,4.5,0.7,6.3,2.2c1.8,1.5,3.2,4.1,4.2,7.8l0.4,1.3h1.3h0.9h1.9l-0.1-1.9l-0.9-13.3l-0.1-1.6h-1.6h-1h-1.4l-0.3,1.4
		c-0.1,0.6-0.3,1-0.6,1.3c-0.1,0-0.4-0.2-0.7-0.4c-2.9-1.6-5.8-2.3-8.7-2.3c-3.7,0-7.2,1-10.3,3c-3.1,2-5.6,4.7-7.4,8.3
		c-1.7,3.5-2.6,7.4-2.6,11.5c0,5.2,1.4,9.7,4.1,13.6c3.7,5.3,8.9,7.9,15.5,7.9c3.7,0,7-0.9,9.7-2.7c2.7-1.8,5-4.6,7-8.3l0.7-1.4
		L135.5,63.5z"/>
	<path class="st0" d="M171.8,44.1l-0.3-9.1l-0.1-1.7h-1.7h-30.2h-1.7l-0.1,1.7l-0.3,9.1l-0.1,1.8h1.8h1h1.6l0.1-1.6
		c0.1-1.5,0.4-2.6,0.9-3.4c0.5-0.7,1-1.2,1.6-1.4c0.2-0.1,1-0.3,3-0.3h2.7v28c0,2.5-0.3,3.2-0.3,3.3c-0.2,0.2-0.5,0.7-1.9,0.7h-1.3
		h-1.7V73v1.1v1.7h1.7h15.7h1.7v-1.7V73v-1.7h-1.7h-1.3c-1.2,0-1.7-0.4-1.9-0.6c-0.1-0.1-0.4-0.9-0.4-3.5v-28h3.4
		c1.2,0,2.2,0.2,2.8,0.6c0.6,0.4,1.1,0.9,1.5,1.7c0.1,0.3,0.4,1,0.7,2.9l0.2,1.5h1.5h1h1.8L171.8,44.1z"/>
	<path class="st0" d="M206.2,38.8c-3.8-4.2-8.4-6.3-13.7-6.3c-5.2,0-9.8,1.9-13.6,5.6c-4.3,4.2-6.4,9.7-6.4,16.4
		c0,6.5,1.9,11.8,5.6,16c3.8,4.2,8.5,6.3,14,6.3c5.5,0,10.2-2.2,14.1-6.4c3.8-4.2,5.7-9.6,5.7-15.9C211.9,48.2,210,43,206.2,38.8
		 M202.2,55.1c0,5.7-1,9.9-3,12.4c-1.9,2.4-4.2,3.6-7.2,3.6c-2.7,0-4.8-1.1-6.4-3.2c-2.3-3.1-3.5-7.7-3.5-13.6
		c0-5.8,1.1-10.2,3.3-13.1c1.6-2.1,3.8-3.2,6.5-3.2c3,0,5.2,1.1,6.8,3.2C201.1,44.2,202.2,48.9,202.2,55.1"/>
	<path class="st0" d="M248.3,71.3c-1.7-0.2-3.1-0.6-4.1-1.3c-0.7-0.5-2-1.7-4-4.6c0,0-4.1-6-6.3-9.2c2.3-0.9,4.1-2.1,5.4-3.6
		c1.7-2.1,2.6-4.6,2.6-7.4c0-2.6-0.8-5-2.3-6.9c-1.5-1.9-3.4-3.2-5.5-3.9c-2-0.7-5-1-9.2-1h-13.4h-1.7v1.7v1.1V38h1.7h1.4
		c1.3,0,1.6,0.5,1.8,0.6c0,0,0,0,0,0c0,0.1,0.4,0.8,0.4,3.4v25.2c0,2.5-0.3,3.2-0.3,3.3c-0.2,0.4-0.7,0.8-1.8,0.8h-1.4h-1.7V73v1.1
		v1.7h1.7h15.7h1.7v-1.7V73v-1.7h-1.7h-1.4c-1.1,0-1.5-0.3-1.7-0.6l0,0c-0.1-0.1-0.4-0.8-0.4-3.4v-9.6c0.3,0,0.7,0,1.1,0l11.9,17.5
		l0.5,0.8h0.9h9.9h1.7v-1.7V73v-1.6L248.3,71.3z M223.7,39.3c1-0.2,1.8-0.4,2.4-0.4c1.8,0,3.2,0.6,4.3,1.7c1.1,1.2,1.7,2.8,1.7,4.8
		c0,2-0.7,3.6-2.1,4.9c-1.4,1.3-3.5,1.9-6.4,2V39.3z"/>
	<path class="st0" d="M243,34.5c1.5,0,2.6,1.1,2.6,2.5c0,1.4-1.2,2.5-2.6,2.5c-1.5,0-2.7-1.1-2.7-2.5
		C240.3,35.6,241.5,34.5,243,34.5L243,34.5z M243,34.8c-1.2,0-2.2,0.9-2.2,2.1c0,1.2,1,2.1,2.2,2.1c1.2,0,2.1-0.9,2.1-2.1
		S244.2,34.8,243,34.8L243,34.8z M242.5,38.4H242v-2.8c0.3,0,0.5-0.1,0.9-0.1c0.5,0,0.8,0.1,0.9,0.2c0.2,0.1,0.3,0.3,0.3,0.6
		c0,0.4-0.3,0.6-0.6,0.7v0c0.3,0,0.4,0.3,0.5,0.7c0.1,0.4,0.1,0.6,0.2,0.7h-0.5c-0.1-0.1-0.1-0.3-0.2-0.7c-0.1-0.4-0.3-0.5-0.6-0.5
		h-0.3V38.4z M242.5,36.8h0.3c0.4,0,0.7-0.1,0.7-0.5c0-0.2-0.2-0.5-0.7-0.5c-0.2,0-0.3,0-0.3,0V36.8z"/>
	<path class="st0" d="M103.3,71.4V73v1.1v1.7h-1.7H86.9h-1.7v-1.7V73v-1.7l1.7-0.1c1.5-0.1,1.9-0.3,1.9-0.4c0.2-0.1,0.2-0.2,0.2-0.3
		c0-0.3-0.1-1.1-1-3.3c0,0-1.1-2.9-1.8-4.5h-12c-0.7,1.8-2.1,5-2.1,5c-0.7,1.7-0.8,2.5-0.8,2.7c0,0.1,0.1,0.2,0.2,0.2
		c0,0,0.5,0.3,2.5,0.5l1.6,0.1V73v1.1v1.7h-1.7H62.2h-1.7v-1.7V73v-1.5l1.4-0.3c1.6-0.3,2-0.6,2.1-0.6c0.4-0.4,1.3-1.6,2.7-5.1
		l13.2-32l0.4-1.1h1.2h1.1h1.2l0.4,1.1c0,0,12.6,32.5,12.6,32.4c1.2,3.1,2,4.1,2.4,4.4c0.5,0.5,1.4,0.8,2.4,0.8L103.3,71.4z
		 M80.3,47.9l-3.8,9.3h7.4L80.3,47.9z"/>
</g>
</svg>
