<?xml version="1.0" encoding="utf-8"?>
<!-- Generator: Adobe Illustrator 21.0.2, SVG Export Plug-In . SVG Version: 6.00 Build 0)  -->
<svg version="1.1" id="Layer_1" xmlns="http://www.w3.org/2000/svg" xmlns:xlink="http://www.w3.org/1999/xlink" x="0px" y="0px"
	 viewBox="0 0 279 108.3" style="enable-background:new 0 0 279 108.3;" xml:space="preserve">
<style type="text/css">
	.st0{fill:#FFFFFF;}
</style>
<rect x="36.7" y="53" class="st0" width="205" height="5.1"/>
<rect x="36.7" y="56.4" class="st0" width="205" height="2"/>
<polygon class="st0" points="48.4,42.2 55,32.4 60.4,32.4 51.5,46 45.4,46 36.7,32.4 42.2,32.4 "/>
<rect x="62.2" y="32.4" class="st0" width="5.1" height="13.5"/>
<polygon class="st0" points="81,42.2 87.6,32.4 93,32.4 84.2,46 78.1,46 69.3,32.4 74.8,32.4 "/>
<path class="st0" d="M98.5,46H93l9-13.5h6.4l8.9,13.5h-5.5l-1.6-2.3h-10.1L98.5,46z M102,40.5h6.4l-3.2-4.8L102,40.5z"/>
<polygon class="st0" points="117.4,46 125.5,39.1 118,32.4 124.3,32.4 129.5,37.2 134.6,32.4 140.7,32.4 133.4,39.1 141.4,46 
	134.9,46 129.5,41.2 124,46 "/>
<polygon class="st0" points="41.6,78.4 36.7,78.4 36.7,64.9 44.1,64.9 50,73.3 56,64.9 63.4,64.9 63.4,78.4 58.5,78.4 58.5,68.8 
	51.7,78.4 48.4,78.4 41.6,68.8 "/>
<polygon class="st0" points="84.8,68.2 71.8,68.2 71.8,70.2 84.1,70.2 84.1,73.1 71.8,73.1 71.8,75.1 85,75.1 85,78.4 66.8,78.4 
	66.8,64.9 84.8,64.9 "/>
<polygon class="st0" points="98.8,78.4 93.7,78.4 93.7,68.2 86.8,68.2 86.8,64.9 105.7,64.9 105.7,68.2 98.8,68.2 "/>
<g>
	<path class="st0" d="M121.3,64.9c2.6,0,4.4,0.3,5.4,1s1.4,1.8,1.4,3.5c0,1.2-0.2,2-0.6,2.6c-0.4,0.6-1.1,1-2.1,1.2
		c0.9,0.2,1.5,0.5,2,0.9c0.4,0.4,0.7,1,0.7,1.7v2.8h-5.1v-2.1c0-0.5-0.2-0.9-0.5-1.1c-0.3-0.2-0.9-0.3-1.8-0.3h-7.5v3.5H108V64.9
		H121.3z M121.1,68.2h-8v3.3h8c0.7,0,1.1-0.1,1.4-0.4c0.3-0.3,0.4-0.7,0.4-1.4c0-0.5-0.1-0.9-0.4-1.2
		C122.2,68.4,121.7,68.2,121.1,68.2"/>
	<path class="st0" d="M139.1,78.6c-1.9,0-3.4-0.1-4.2-0.2c-0.9-0.1-1.6-0.4-2.2-0.7c-0.6-0.4-1.1-0.9-1.4-1.5
		c-0.3-0.6-0.4-1.5-0.4-2.5v-3.7c0-1.1,0.1-2,0.4-2.7c0.3-0.7,0.7-1.2,1.4-1.6c0.6-0.3,1.3-0.6,2.2-0.7c0.9-0.1,2.3-0.2,4.2-0.2h5.9
		c1.9,0,3.3,0.1,4.2,0.2c0.9,0.1,1.7,0.4,2.2,0.7c0.6,0.4,1.1,0.9,1.4,1.6c0.3,0.7,0.4,1.5,0.4,2.5v3.8c0,1-0.1,1.9-0.4,2.5
		c-0.3,0.7-0.7,1.2-1.4,1.6c-0.6,0.3-1.3,0.6-2.2,0.7c-0.9,0.1-2.3,0.2-4.2,0.2H139.1z M140.5,75.2h3.2c1.8,0,3-0.2,3.6-0.6
		c0.6-0.4,0.9-1,0.9-2v-1.9c0-1-0.3-1.7-0.9-2c-0.6-0.4-1.8-0.5-3.6-0.5h-3.2c-1.8,0-3,0.2-3.6,0.6c-0.6,0.4-0.9,1.1-0.9,2.1v1.9
		c0,1,0.3,1.6,0.9,2C137.5,75,138.7,75.2,140.5,75.2"/>
	<polygon class="st0" points="167.1,78.4 162.1,78.4 162.1,68.2 155.2,68.2 155.2,64.9 174,64.9 174,68.2 167.1,68.2 	"/>
	<polygon class="st0" points="194.3,68.2 181.3,68.2 181.3,70.2 193.6,70.2 193.6,73.1 181.3,73.1 181.3,75.1 194.5,75.1 
		194.5,78.4 176.3,78.4 176.3,64.9 194.3,64.9 	"/>
	<path class="st0" d="M213.2,69.7v-0.1c0-0.5-0.2-0.9-0.6-1.2c-0.4-0.2-1.1-0.4-2-0.4h-4c-1.7,0-2.8,0.2-3.3,0.5
		c-0.5,0.3-0.7,1.1-0.7,2.2v1.9c0,1,0.3,1.6,0.8,2c0.5,0.4,1.6,0.5,3.3,0.5h2.9c1.6,0,2.7-0.1,3.2-0.4c0.5-0.3,0.7-0.8,0.7-1.5v-0.1
		h5.1c0,0,0,0,0,0.1c0,0.4,0,0.7,0,0.9c0,0.9-0.1,1.6-0.4,2.1c-0.3,0.6-0.7,1-1.3,1.4c-0.5,0.3-1.3,0.6-2.2,0.7
		c-0.9,0.1-2.2,0.2-4,0.2h-5.6c-1.7,0-3-0.1-3.8-0.2c-0.8-0.2-1.5-0.4-2.1-0.8c-0.7-0.4-1.2-1-1.5-1.6c-0.3-0.6-0.5-1.4-0.5-2.4
		v-3.7c0-1.9,0.6-3.3,1.7-4.1c1.1-0.8,3.2-1.2,6.1-1.2h5.6c1.8,0,3.1,0.1,4,0.2c0.9,0.1,1.5,0.4,2,0.7c0.5,0.3,0.9,0.8,1.2,1.3
		c0.2,0.6,0.4,1.2,0.4,2.1c0,0.2,0,0.4,0,0.5c0,0.1,0,0.2,0,0.3H213.2z"/>
	<polygon class="st0" points="226.4,78.4 221.3,78.4 221.3,64.9 226.4,64.9 226.4,69.8 236.7,69.8 236.7,64.9 241.8,64.9 
		241.8,78.4 236.7,78.4 236.7,73.1 226.4,73.1 	"/>
</g>
</svg>
