<?xml version="1.0" encoding="utf-8"?>
<!-- Generator: Adobe Illustrator 21.0.2, SVG Export Plug-In . SVG Version: 6.00 Build 0)  -->
<svg version="1.1" id="Layer_1" xmlns="http://www.w3.org/2000/svg" xmlns:xlink="http://www.w3.org/1999/xlink" x="0px" y="0px"
	 viewBox="0 0 279 108.3" style="enable-background:new 0 0 279 108.3;" xml:space="preserve">
<style type="text/css">
	.st0{fill:#FFFFFF;}
	.st1{fill-rule:evenodd;clip-rule:evenodd;fill:#FFFFFF;}
</style>
<polygon class="st0" points="44.8,46.2 55.5,68.9 60.3,68.9 62.2,65.4 53.1,46.2 "/>
<polygon class="st0" points="73.7,57.1 68.5,46.2 63.4,46.2 59.5,54.5 63.5,62.9 66.2,57.7 71.4,68.9 76.3,68.9 87.1,46.2 79,46.2 
	"/>
<path class="st1" d="M66.1,81.6c-16.1,0-27.6-11.8-27.6-27.4c0-16.5,12.7-27.4,27.6-27.4c14.7,0,27.4,10.9,27.4,27.4
	C93.5,70.6,80.7,81.6,66.1,81.6L66.1,81.6z M66,30.3c-13.4,0-23.9,9.9-23.9,24.1c0,13.2,9.1,24.1,23.9,24.1
	c13.3,0,23.7-9.8,23.7-24.1C89.7,40.2,79.3,30.3,66,30.3L66,30.3z"/>
<polygon class="st0" points="130.5,32.8 126.1,42.7 121.2,32.8 116.2,32.8 111.4,42.7 107.4,32.8 98.7,32.8 107.8,53.3 112.8,53.3 
	118.2,43.2 123.2,53.3 128.6,53.3 137.1,32.8 "/>
<polygon class="st0" points="139.2,32.8 136.8,38.6 140.1,45.2 134,45.2 131.9,50.2 142.1,50.2 143.4,53.3 150.9,53.3 141.6,32.8 
	"/>
<path class="st0" d="M149.3,42.7c0,4.3,3.4,10.6,11.2,10.6c2.6,0,5.1-0.5,7-1.6V46c-2.1,1.2-3.2,1.2-5.1,1.2c-3.3,0-5.4-1.7-5.4-4.4
	c0-2.8,1.7-4.8,5-4.8c1.9,0,3.8,0.8,5.7,2l0.1-6.1c-1.8-0.8-4-1.2-6.5-1.2C154.5,32.5,149.3,37.2,149.3,42.7z"/>
<polygon class="st0" points="195.1,53.3 211.1,53.3 211.1,48.5 202.5,48.5 202.5,45.2 210.1,45.2 210.1,40.8 202.5,40.8 202.5,37.4 
	211.1,37.4 211.1,32.8 195.1,32.8 "/>
<polygon class="st0" points="185.8,32.8 177.3,41.7 177.3,32.8 170,32.8 169.9,53.3 177.3,53.3 177.3,43.9 185,53.1 193.7,53.1 
	184.6,42.3 193.7,32.8 "/>
<path class="st0" d="M229.3,44c3.6-1,4-3.2,4-5.1c0-2.9-1.1-6.1-8.8-6.1h-11v4.6h10.8c1,0,1.9,0.6,1.9,1.7c0,1.4-1,1.7-1.9,1.7
	h-10.8l0,12.7h7.4v-8.1h1.7l5.5,7.9h7.8C236,53.1,230.2,45.2,229.3,44z"/>
<g>
	<polygon class="st0" points="128,77.2 144,77.2 144,72.4 135.4,72.4 135.4,69.1 143,69.1 143,64.7 135.4,64.7 135.4,61.2 144,61.2 
		144,56.6 128,56.6 	"/>
</g>
<polygon class="st0" points="102.4,56.6 102.4,77.2 108.9,77.2 108.9,66.7 118.7,77.2 124.5,77.2 124.5,56.6 118,56.6 118,66.9 
	108.2,56.6 "/>
<polygon class="st0" points="213.5,56.6 213.5,77.2 220,77.2 220,66.7 229.7,77.2 235.6,77.2 235.6,56.6 229.1,56.6 229.1,66.9 
	219.3,56.6 "/>
<path class="st0" d="M147,56.6v13c0,0,0.2,8.3,10.3,8.3c10.1,0,10.1-8.3,10.1-8.3v-13h-6.3L161,68.4c0,0-0.5,3.6-3.7,3.6
	c-3.2,0-3.7-3.7-3.7-3.7V56.6H147z"/>
<path class="st0" d="M185.9,56.6v4.5h-7c0,0-1.8,0.1-1.8,1.5c0,0.5,0.4,0.9,0.9,1.2c1.1,0.8,5.9,2.6,5.9,2.6s3.4,1.4,3.4,4.7
	c0,3.3-2,6.1-6.8,6.1h-10.9v-5h9.1c0,0,1.6,0,1.6-1.1c0,0,0.2-0.6-0.9-1.2l-5.4-2.3c0,0-4-1.4-4-5.1c0,0,0-5.8,5.8-5.8H185.9z"/>
<path class="st1" d="M200,77.4c-6.5,0-11-4.6-11-10.7c0-6.4,5.1-10.7,11-10.7c5.9,0,11,4.3,11,10.7C211,73.2,205.8,77.4,200,77.4
	L200,77.4z M200,61.9c-2.4,0-4.2,2-4.2,4.9c0,2.7,1.6,4.9,4.2,4.9c2.4,0,4.2-2,4.2-4.9C204.2,63.9,202.3,61.9,200,61.9L200,61.9z"/>
</svg>
