<?xml version="1.0" encoding="utf-8"?>
<!-- Generator: Adobe Illustrator 21.0.2, SVG Export Plug-In . SVG Version: 6.00 Build 0)  -->
<svg version="1.1" id="Layer_1" xmlns="http://www.w3.org/2000/svg" xmlns:xlink="http://www.w3.org/1999/xlink" x="0px" y="0px"
	 viewBox="0 0 279 108.3" style="enable-background:new 0 0 279 108.3;" xml:space="preserve">
<style type="text/css">
	.st0{fill:#E72729;}
	.st1{clip-path:url(#SVGID_2_);fill:#E72729;}
</style>
<g>
	<polygon class="st0" points="52.1,74.7 61,74.7 65.1,62.7 69.5,74.6 78.9,74.6 86.5,46.9 76.6,45.6 73.7,55.6 68.9,44.2 60.1,42.8 
		56.4,54.4 51.8,41.8 40.3,40 	"/>
	<polygon class="st0" points="88.5,74.6 97.3,74.6 97.3,65.5 104.9,65.5 104.9,74.6 113.8,74.6 113.8,51.2 104.9,49.8 104.9,58.1 
		97.3,58.1 97.3,48.7 88.5,47.2 	"/>
	<polygon class="st0" points="116.4,74.7 132.6,74.7 132.6,69.5 125.6,69.6 125.6,66.5 132.6,66 132.6,61.4 125.7,60.5 125.7,57.7 
		132.6,58.1 132.6,53.6 116.4,51.4 	"/>
	<polygon class="st0" points="135.4,53.7 135.4,74.6 156.4,74.6 156.4,67.9 143.6,68.1 143.6,52.2 	"/>
	<polygon class="st0" points="159,50.5 159,74.7 188.2,74.7 188.2,68 168.5,68.1 168.5,64.1 188.2,63.3 188.2,57.9 168.5,57.9 
		168.5,55.7 188.2,52.9 188.2,45.2 	"/>
	<polygon class="st0" points="216.8,40.8 216.8,59 201,43.3 191.1,44.9 191.1,74.7 201.6,74.7 201.6,60.1 216.7,74.7 227.9,74.7 
		227.9,39.1 	"/>
	<g>
		<defs>
			<rect id="SVGID_1_" x="40.3" y="36.2" width="198.3" height="38.5"/>
		</defs>
		<clipPath id="SVGID_2_">
			<use xlink:href="#SVGID_1_"  style="overflow:visible;"/>
		</clipPath>
		<path class="st1" d="M235,43.5c-1.9,0-3.6-1.3-3.6-3.6c0-2.3,1.7-3.6,3.6-3.6c1.9,0,3.6,1.3,3.6,3.6
			C238.6,42.1,236.9,43.5,235,43.5 M235,37.1c-1.4,0-2.6,1.1-2.6,2.8c0,1.7,1.2,2.8,2.6,2.8v0c1.4,0,2.6-1.1,2.6-2.8
			C237.6,38.2,236.4,37.1,235,37.1 M234.4,41.8h-0.8v-3.9h1.5c1,0,1.6,0.3,1.6,1.2c0,0.7-0.4,1-0.9,1l1,1.7h-1l-0.9-1.6h-0.4V41.8z
			 M235.1,39.5c0.4,0,0.6-0.1,0.6-0.5c0-0.4-0.4-0.4-0.7-0.4h-0.6v0.9H235.1z"/>
	</g>
</g>
</svg>
