<svg id="Layer_2" data-name="Layer 2" xmlns="http://www.w3.org/2000/svg" width="7.36in" height="2.66in" viewBox="0 0 529.71 191.23">
  <defs>
    <style>
      .cls-1 {
        fill: #231f20;
      }

      .cls-2 {
        fill: #0098d6;
        fill-rule: evenodd;
      }
    </style>
  </defs>
  <title>NewMetroQuip_noblack</title>
  <path class="cls-1" d="M816.4,492.87H793L790.73,504h23.4a7.13,7.13,0,0,0,3.82-.78,3.92,3.92,0,0,0,1.52-2.62l.88-4.36a2.68,2.68,0,0,0-.46-2.62c-.56-.51-1.73-.78-3.5-.78Zm-40.55,34.78,8.53-42h37.84c3.5,0,5.88.65,7.16,1.92s1.62,3.36,1,6.24l-1.89,9.29a9.56,9.56,0,0,1-3.6,6.24c-1.8,1.27-4.45,1.92-7.91,1.92H789.26l-3.33,16.39Z" transform="translate(-354.38 -413.16)"/>
  <polygon class="cls-1" points="406.56 114.49 415.09 72.48 425.28 72.48 416.75 114.49 406.56 114.49"/>
  <path class="cls-1" d="M725.2,485.64l-6.93,34.15h29.26l6.93-34.15H764.8l-6.51,32.06c-.78,3.83-2.07,6.43-3.89,7.83s-4.89,2.12-9.19,2.12H717.4q-6.41,0-8.24-2.09t-.66-7.87L715,485.64Z" transform="translate(-354.38 -413.16)"/>
  <path class="cls-1" d="M652.82,518h17.55l-2.5-11.11,9.34-3.49,4,14.61h11l6.59-32.46H659.41L652.82,518Zm-6-29.49c.95-4.67,2.47-7.85,4.56-9.57s5.64-2.57,10.62-2.57h37.72q7.48,0,9.58,2.57c1.39,1.72,1.62,4.9.67,9.57l-5.49,27q-1.43,7-4.56,9.57t-10.62,2.55h-5.53l3.78,13.2H675.77l-3.08-13.2h-21q-7.48,0-9.58-2.55t-.67-9.57Z" transform="translate(-354.38 -413.16)"/>
  <path class="cls-1" d="M586.71,495.54q1.17-5.74,3.82-7.82c1.77-1.39,4.8-2.09,9.1-2.09h32.51c4.34,0,7.1.7,8.29,2.09s1.39,4,.62,7.82l-4.5,22.17q-1.17,5.76-3.85,7.85t-9.08,2.09H591.11c-4.31,0-7-.7-8.25-2.09s-1.42-4-.64-7.85l4.5-22.17Zm5.35,24.06h33.87l5.33-26.25H597.39Z" transform="translate(-354.38 -413.16)"/>
  <path class="cls-1" d="M528.65,527.65l8.53-42H575c6.27,0,9.46,1.91,8.2,8.16l-2,9.87c-1.85,9.09-9.35,8.07-17.25,8.07l16.76,15.91H566l-14.39-15.91H542l-3.23,15.91Zm40.55-34.78H545.8l-2.36,11.62h23.4c5.58,0,5.12-2.3,6.32-8.23C573.74,493.44,572.18,492.87,569.2,492.87Z" transform="translate(-354.38 -413.16)"/>
  <polygon class="cls-1" points="157.74 80 150.74 114.49 140.5 114.49 147.51 80 127.22 80 128.75 72.48 179.6 72.48 178.08 80 157.74 80"/>
  <polygon class="cls-1" points="71.36 114.49 79.89 72.48 124.97 72.48 123.46 79.89 88.72 79.89 86.86 89.05 107.1 89.05 105.63 96.29 85.39 96.29 83.29 106.62 118.56 106.62 116.97 114.49 71.36 114.49"/>
  <path class="cls-1" d="M354.38,527.65l10.42-51.29h9.65l17.87,31,29.93-31h9.56l-10.42,51.29H410.32L416.75,496c.12-.61.32-1.39.59-2.33s.6-2,1-3.15c-.91,1.33-1.7,2.42-2.35,3.26s-1.25,1.57-1.74,2.12l-24.46,25.62h-2.38l-14.09-25.72A24.21,24.21,0,0,1,372,493a16.59,16.59,0,0,1-.74-2.48c-.12,1.06-.23,2-.36,2.9s-.28,1.72-.45,2.53L364,527.65Z" transform="translate(-354.38 -413.16)"/>
  <path class="cls-2" d="M823.59,535c71.35-46.91-26.32-94.69-180.69-115.28-3.89-.5-41.09-5.15-53.52-6.47,6.57-.36,23.17.66,24.12.71,66.89,4.22,124.1,13.38,168.45,25.7,67,18.59,104.61,44.37,102,71.14-6.87,70.77-201.15,93.81-265.4,93.61-119.89-2.08-230.34-27.74-263.45-60.84C436.69,578.32,711.57,601.12,823.59,535Z" transform="translate(-354.38 -413.16)"/>
</svg>
