<svg id="Layer_2" data-name="Layer 2" xmlns="http://www.w3.org/2000/svg" width="17in" height="11in" viewBox="0 0 1224 792">
  <defs>
    <style>
      .cls-1 {
        fill: #d1d3d4;
      }

      .cls-1, .cls-2, .cls-4 {
        fill-rule: evenodd;
      }

      .cls-3 {
        fill: #fff;
      }

      .cls-4 {
        fill: #0098d6;
      }
    </style>
  </defs>
  <title>NewMetroQuip [Converted]</title>
  <path class="cls-1" d="M612,522.57c160.34,0,291.12-56.86,291.12-126.57S772.34,269.43,612,269.43,320.88,326.29,320.88,396,451.66,522.57,612,522.57Z"/>
  <path class="cls-2" d="M612,513.42c150.49,0,273.24-52.75,273.24-117.42S762.49,278.58,612,278.58,338.76,331.33,338.76,396,461.51,513.42,612,513.42Z"/>
  <path class="cls-3" d="M804.74,380.19H782.55l-2.15,10.57h22.19a6.76,6.76,0,0,0,3.62-.74,3.71,3.71,0,0,0,1.45-2.48l.84-4.13a2.54,2.54,0,0,0-.44-2.48c-.53-.49-1.64-.74-3.32-.74Zm-38.46,33,8.09-39.85h35.89c3.31,0,5.58.61,6.79,1.82s1.54,3.19,1,5.92l-1.79,8.81a9.07,9.07,0,0,1-3.42,5.92c-1.71,1.21-4.22,1.82-7.5,1.82H779l-3.16,15.55Z"/>
  <polygon class="cls-3" points="752.14 413.18 760.23 373.33 769.89 373.33 761.8 413.18 752.14 413.18"/>
  <path class="cls-3" d="M718.25,373.33l-6.58,32.39h27.75L746,373.33h9.8l-6.18,30.41c-.74,3.63-2,6.09-3.69,7.43s-4.63,2-8.72,2H710.84q-6.08,0-7.81-2t-.62-7.46l6.18-30.41Z"/>
  <path class="cls-3" d="M649.59,404h16.65l-2.37-10.54,8.86-3.31L676.49,404h10.4l6.25-30.79h-37.3L649.59,404Zm-5.64-28c.9-4.43,2.34-7.45,4.33-9.08s5.35-2.43,10.08-2.43h35.78q7.09,0,9.09,2.43c1.32,1.63,1.54,4.65.64,9.08l-5.21,25.63q-1.35,6.67-4.33,9.08t-10.07,2.42H679l3.58,12.52H671.35l-2.92-12.52h-20q-7.09,0-9.09-2.42t-.64-9.08Z"/>
  <path class="cls-3" d="M586.89,382.72q1.11-5.44,3.63-7.41c1.68-1.32,4.55-2,8.63-2H630q6.17,0,7.86,2t.58,7.41l-4.27,21q-1.11,5.47-3.65,7.44t-8.62,2H591.05c-4.08,0-6.68-.66-7.83-2s-1.35-3.8-.61-7.44l4.27-21ZM592,405.54h32.12l5.06-24.9H597Z"/>
  <path class="cls-3" d="M531.82,413.18l8.09-39.85H575.8c5.94,0,9,1.81,7.77,7.74l-1.9,9.36c-1.75,8.63-8.87,7.65-16.37,7.65l15.89,15.09H567.25l-13.65-15.09h-9.16l-3.07,15.09Zm38.46-33H548.08l-2.24,11H568c5.29,0,4.86-2.19,6-7.81C574.58,380.73,573.1,380.19,570.28,380.19Z"/>
  <polygon class="cls-3" points="516.14 380.46 509.5 413.18 499.79 413.18 506.43 380.46 487.19 380.46 488.64 373.33 536.88 373.33 535.43 380.46 516.14 380.46"/>
  <polygon class="cls-3" points="434.21 413.18 442.3 373.33 485.06 373.33 483.63 380.36 450.67 380.36 448.91 389.05 468.1 389.05 466.71 395.91 447.51 395.91 445.52 405.71 478.98 405.71 477.47 413.18 434.21 413.18"/>
  <path class="cls-3" d="M366.52,413.18l9.88-48.64h9.16l16.95,29.4,28.38-29.4H440l-9.88,48.64H419.58l6.1-30c.12-.58.3-1.32.56-2.22s.57-1.88.9-3c-.87,1.26-1.61,2.29-2.23,3.09s-1.18,1.49-1.65,2l-23.2,24.3H397.8l-13.36-24.39a22.9,22.9,0,0,1-1.2-2.61,15.7,15.7,0,0,1-.7-2.36c-.11,1-.22,1.93-.34,2.75s-.27,1.63-.42,2.4l-6.1,30Z"/>
  <path class="cls-4" d="M811.56,420.14c67.67-44.49-25-89.82-171.38-109.34-3.69-.47-39-4.88-50.76-6.14,6.23-.34,22,.62,22.88.68,63.44,4,117.7,12.69,159.77,24.37,63.51,17.64,99.22,42.08,96.76,67.47C862.31,464.3,678,486.16,617.09,486c-113.72-2-218.48-26.31-249.88-57.71C444.59,461.24,705.32,482.87,811.56,420.14Z"/>
</svg>
