<svg id="Layer_1" data-name="Layer 1" xmlns="http://www.w3.org/2000/svg" viewBox="0 0 208.31 57.12"><defs><style>.cls-1{fill:#130c0e;}.cls-2{fill:#eb2227;}.cls-3{fill:#fff;}</style></defs><title>Artboard 1</title><path class="cls-1" d="M208.31,12.84H58.9C53.16,5.11,43.3,0,32.1,0,14.37,0,0,12.79,0,28.56S14.37,57.12,32.1,57.12A33.72,33.72,0,0,0,56.82,46.78H197.63Z"/><path class="cls-2" d="M33.25,41.66H8.69s-7.58-.44-5.1-8.29S8,19.65,8,19.65s.53-4,7.76-4H30.35s4.19.06,5.67,2.9a4.83,4.83,0,0,1,.21,4.77H28.55l.53-1.44h-11a3.64,3.64,0,0,0-3.58,2.58c-.83,2.71-2.41,8.62-2.41,8.62s.28,2.78,4.27,2.78h19Zm.9,0h24l2.43-5.81H36.26Z"/><path class="cls-3" d="M32.07,53.07A25.52,25.52,0,0,0,51.5,44.34H52a25.8,25.8,0,0,1-20,9.11,25.71,25.71,0,0,1-20-9.11h.52a25,25,0,0,0,19.43,8.73m0-47.59c11.68,0,21.75,6.77,24.79,16.55l.46,0C54.29,12,44,5.08,32.1,5.08a27.67,27.67,0,0,0-20.32,8.5l.78-.2A27.26,27.26,0,0,1,32.1,5.48M30.35,16H15.72C9,16,8.41,19.66,8.41,19.7v.06c0,.06-1.91,6-4.36,13.72-.78,2.47-.61,4.41.49,5.78a6.55,6.55,0,0,0,4.19,2H32.92l1.82-5H16.34a4.86,4.86,0,0,1-4-1.55,3.23,3.23,0,0,1-.72-1.58V33l0-.06c0-.06,1.6-5.95,2.42-8.64A4,4,0,0,1,18,21.48H29.7l-.19.51-.34.93h6.77a4.72,4.72,0,0,0-.33-4.22C34.28,16.15,30.47,16,30.35,16m0-.4s4.19.06,5.67,2.9a4.83,4.83,0,0,1,.21,4.77H28.55l.53-1.43H18a3.61,3.61,0,0,0-3.51,2.58c-.83,2.71-2.41,8.62-2.41,8.62s.28,2.78,4.27,2.78h19l-2.11,5.81H8.69s-7.58-.44-5.1-8.29S8,19.65,8,19.65s.53-4,7.76-4H30.35m16.2,9.22-2.77,4.28a7.13,7.13,0,0,0-.43.74,6.14,6.14,0,0,1,0-.74V24.86H38.86l-3.15,9.67h2.51L39.69,30c.32-1,.64-2.12,1-3.46,0,.18,0,.44,0,.78,0,.56-.07,1.09-.07,1.58v5.63h2l3.62-5.63c.28-.43.6-1,.94-1.58l.38-.67c-.09.25-.22.6-.41,1.07s-.45,1.13-.62,1.66l-1.69,5.15h3.11L51,24.86Zm8.92,6.41h1.82a2.06,2.06,0,0,1-1.86,1.2c-1,0-1.45-.56-1.3-1.69A7.8,7.8,0,0,1,55,28.2a2.14,2.14,0,0,1,1.92-1.31,1.32,1.32,0,0,1,1.49,1.29l3.09-.44c-.35-2.07-1.75-3.11-4.23-3.11a6.16,6.16,0,0,0-4.45,1.76,7,7,0,0,0-2.14,4.19,3.9,3.9,0,0,0,.23,2.11,3.42,3.42,0,0,0,1.28,1.47,4.43,4.43,0,0,0,2.38.56,4,4,0,0,0,3.17-1.25l-.05,1.06h1.6L61,29.23H56.15ZM32.31,31a4.54,4.54,0,0,0,3-1,3.55,3.55,0,0,0,1.32-2.31,2.28,2.28,0,0,0-.19-1.32,2.3,2.3,0,0,0-.86-1A3,3,0,0,0,34.45,25a11.83,11.83,0,0,0-1.86-.1H28.94l-3.16,9.67H29L30.15,31Zm-.84-4h.67c1,0,1.42.31,1.33.92s-.72,1-1.88,1h-.76Zm43.3,14.43L76,32.18H73.38l-1.66,3.5c-.38.83-.86,1.91-1.21,2.94h-.05c0-1-.11-2.08-.16-2.94L70,32.18H67.46l-2.25,9.21H67l.89-3.8c.23-1,.5-2.38.75-3.59h0c.06,1.23.12,2.5.2,3.51l.32,3.73h1.49l1.84-3.77c.49-1,1-2.28,1.54-3.47h0c-.26,1.32-.45,2.59-.6,3.59l-.55,3.8ZM81.38,39l.18,2.39h2l-1-9.21H80.06L75.7,41.39h2L78.8,39Zm-2-1.5.89-2c.24-.53.49-1.24.72-1.8h0c0,.56.1,1.3.14,1.8l.17,2Zm6.84-5.32-1.7,9.21h1.91l1.7-9.21ZM90,41.39l.58-3.22c.27-1.45.48-2.77.59-3.65l0,0a28.88,28.88,0,0,0,.88,3.21l1.24,3.68h2L97,32.18H95.18l-.61,3.35a23.11,23.11,0,0,0-.41,3.31h0c-.21-1-.45-2-.81-3.15l-1.18-3.51H89.88l-1.7,9.21Zm8.7,0h1.91l1.37-7.49h2.39l.32-1.72H98l-.34,1.72H100Zm11.49-5.56H107l.38-2h3.37l.32-1.68h-5.3L104,41.39h5.49l.3-1.68h-3.57l.41-2.23h3.19Zm2.53,5.56.58-3.22c.27-1.45.48-2.77.59-3.65l0,0a26.73,26.73,0,0,0,.87,3.21L116,41.39h2l1.69-9.21H117.9l-.61,3.35a23.11,23.11,0,0,0-.41,3.31h0c-.22-1-.46-2-.81-3.15l-1.19-3.51H112.6l-1.71,9.21ZM124.79,39l.19,2.39h2l-1-9.21h-2.46l-4.36,9.21h2L122.21,39Zm-2-1.5.89-2c.24-.53.5-1.24.72-1.8h0c0,.56.09,1.3.13,1.8l.17,2Zm7,3.89.59-3.22c.26-1.45.48-2.77.58-3.65l0,0a28.88,28.88,0,0,0,.88,3.21l1.25,3.68h2l1.69-9.21H135l-.61,3.35a21.93,21.93,0,0,0-.42,3.31h0c-.21-1-.45-2-.81-3.15l-1.18-3.51h-2.25L128,41.39Zm13.64-1.84a4.65,4.65,0,0,1-1.7.3,2.21,2.21,0,0,1-2.38-2.45,3.78,3.78,0,0,1,1.23-3,3.19,3.19,0,0,1,2-.71,4,4,0,0,1,1.62.3l.52-1.6a4.25,4.25,0,0,0-2-.39,5.47,5.47,0,0,0-3.29,1,5.41,5.41,0,0,0-2.26,4.61,3.68,3.68,0,0,0,4,3.91,6,6,0,0,0,2.37-.4Zm7.3-3.72h-3.19l.37-2h3.38l.32-1.68h-5.3l-1.7,9.21H150l.31-1.68h-3.58l.42-2.23h3.19Zm11.48.31H158.9l-.3,1.57H160l-.36,1.95a2.59,2.59,0,0,1-1,.16,2.1,2.1,0,0,1-2.3-2.32,3.79,3.79,0,0,1,1.29-3,3.58,3.58,0,0,1,2.28-.74,4.73,4.73,0,0,1,1.9.38l.57-1.67a5.81,5.81,0,0,0-2.38-.41,6,6,0,0,0-3.94,1.34,5.49,5.49,0,0,0-1.84,4.21,3.83,3.83,0,0,0,1.13,2.85,4.3,4.3,0,0,0,3,1,9.48,9.48,0,0,0,2.9-.52Zm.65,5.25h1.9l.66-3.63H166c.76,0,1.13.34,1.21,1.46a15.09,15.09,0,0,0,.26,2.17h2a16.47,16.47,0,0,1-.35-2.61c-.09-.83-.31-1.45-.85-1.68V37a2.68,2.68,0,0,0,2-2.59,2,2,0,0,0-1-1.81,4.56,4.56,0,0,0-2.35-.53,10.62,10.62,0,0,0-2.39.25Zm3.32-7.65a3.13,3.13,0,0,1,.75-.07c.75,0,1.36.33,1.36,1.06a1.62,1.62,0,0,1-1.79,1.55h-.8ZM175.85,32a4.61,4.61,0,0,0-3.27,1.31,6.23,6.23,0,0,0-1.65,4.36,3.53,3.53,0,0,0,3.63,3.84,4.6,4.6,0,0,0,3.31-1.32,6.28,6.28,0,0,0,1.59-4.35C179.46,33.67,178.21,32,175.85,32Zm-.23,1.64c1.41,0,1.81,1.11,1.81,2.25a5.37,5.37,0,0,1-1.09,3.31,2.19,2.19,0,0,1-1.51.67c-1.3,0-1.87-1-1.87-2.27a5.07,5.07,0,0,1,1.12-3.26A2.08,2.08,0,0,1,175.62,33.67Zm5.95-1.49-.94,5.14a7.46,7.46,0,0,0-.14,1.28,2.67,2.67,0,0,0,3,2.94c2.43,0,3.63-1.34,4.15-4.13l1-5.23h-1.92l-1,5.32c-.32,1.71-1,2.39-2,2.39a1.22,1.22,0,0,1-1.3-1.31,5.26,5.26,0,0,1,.09-1.1l1-5.3Zm7,9.21h1.87l.62-3.32a5,5,0,0,0,.78.06,4.56,4.56,0,0,0,2.86-.85,3.25,3.25,0,0,0,1.22-2.6,2.28,2.28,0,0,0-1-2,4.18,4.18,0,0,0-2.38-.61,10.22,10.22,0,0,0-2.34.25Zm3.28-7.64a3.33,3.33,0,0,1,.77-.07c.75,0,1.37.29,1.37,1.18a1.76,1.76,0,0,1-1.91,1.68,3.46,3.46,0,0,1-.73-.07ZM76.28,25.4a5.1,5.1,0,0,1-1.89.34A2.46,2.46,0,0,1,71.75,23a4.21,4.21,0,0,1,1.37-3.3,3.49,3.49,0,0,1,2.28-.79,4.37,4.37,0,0,1,1.8.33l.57-1.78A4.63,4.63,0,0,0,75.6,17a6,6,0,0,0-6.17,6.22,4.09,4.09,0,0,0,4.4,4.34,6.51,6.51,0,0,0,2.63-.44Zm3.16-8.19L77.55,27.45h2.13l1.89-10.24ZM92,27.45l1.35-10.24H90.48L88.64,21.1c-.43.93-1,2.13-1.35,3.27h-.06c0-1.14-.11-2.31-.17-3.27l-.31-3.89H83.9L81.41,27.45h1.94l1-4.22c.25-1.11.55-2.65.83-4h0c.06,1.37.13,2.78.22,3.91l.35,4.15h1.66l2-4.2c.55-1.12,1.17-2.54,1.71-3.86h0c-.28,1.48-.5,2.89-.67,4L90,27.45Zm1.75,0h5.95l.35-1.91H96.24l1.53-8.33H95.65Zm9-10.24L100.9,27.45H103l1.89-10.24ZM107,27.45l.65-3.58c.29-1.61.53-3.07.65-4.06l0,0a32.21,32.21,0,0,0,1,3.57l1.38,4.09h2.2l1.88-10.24h-2l-.68,3.72a26.56,26.56,0,0,0-.46,3.68h0c-.24-1.12-.5-2.19-.9-3.49l-1.32-3.91h-2.49L105,27.45Zm14.66-6.18h-3.55l.42-2.19h3.75l.35-1.87h-5.89l-1.89,10.24h6.1l.34-1.87h-4l.46-2.47h3.54Zm3.54,6.18h2.08l.68-3.69a6.45,6.45,0,0,0,.87.06,5.07,5.07,0,0,0,3.17-.94A3.6,3.6,0,0,0,133.33,20a2.51,2.51,0,0,0-1.08-2.17,4.57,4.57,0,0,0-2.64-.69,11,11,0,0,0-2.59.28ZM128.82,19a3.29,3.29,0,0,1,.85-.08c.83,0,1.52.32,1.52,1.31a2,2,0,0,1-2.12,1.87,3.59,3.59,0,0,1-.82-.08Zm9.37,5.83.2,2.66h2.23l-1.16-10.24h-2.73l-4.84,10.24h2.25l1.18-2.66Zm-2.25-1.67,1-2.2c.27-.59.55-1.38.8-2h0c0,.63.1,1.45.15,2l.19,2.2Zm9.64,4.33,5.14-10.24h-2.38l-2.23,4.86c-.48,1.07-1,2.16-1.32,3.16h0c-.06-1.06-.14-2.06-.24-3.14l-.44-4.88h-2.2l1.24,10.24Zm11.22-6.18h-3.54l.41-2.19h3.75l.35-1.87h-5.88L150,27.45h6.09l.34-1.87h-4l.46-2.47h3.54ZM168,27.45l1.35-10.24h-2.88l-1.85,3.89c-.42.93-1,2.13-1.34,3.27h-.06c0-1.14-.12-2.31-.18-3.27l-.3-3.89h-2.85l-2.5,10.24h2l1-4.22c.25-1.11.55-2.65.83-4h0c.06,1.37.13,2.78.22,3.91l.35,4.15h1.65l2-4.2c.55-1.12,1.17-2.54,1.71-3.86h.05c-.28,1.48-.51,2.89-.67,4l-.6,4.22Zm8.55-6.18H173l.41-2.19h3.75l.35-1.87h-5.88l-1.89,10.24h6.09l.34-1.87h-4l.46-2.47h3.54Zm2.81,6.18.65-3.58c.29-1.61.53-3.07.65-4.06l0,0a34.4,34.4,0,0,0,1,3.57l1.39,4.09h2.2l1.87-10.24h-2l-.68,3.72a25.11,25.11,0,0,0-.46,3.68h0c-.24-1.12-.51-2.19-.9-3.49l-1.32-3.91h-2.49l-1.89,10.24Zm9.67,0h2.12l1.52-8.33h2.66l.35-1.91h-7.39l-.37,1.91h2.62Z"/></svg>