<svg version="1.1" id="Layer_1" xmlns="http://www.w3.org/2000/svg" x="0" y="0" viewBox="0 0 489 418" xml:space="preserve"><style type="text/css">.st0{fill:#0093d0}</style><path class="st0" d="M376.9 267.6l-83.9-67 5.9-6c2.4-2.4 4.3-3.7 8.1-6.1 7.3 2.6 15.1 4 23.2 4 38.4 0 69.6-31.1 69.6-69.6 0-5.6-.7-11-1.9-16.2l-8.7 7.6-24.5 21.5c-13.1 11.5-33.1 10.1-44.5-3s-10.1-33.1 3-44.5l33.7-29.6c-8.2-3.4-17.3-5.3-26.7-5.3-38.4 0-69.6 31.1-69.6 69.6 0 8.1 1.4 16 4 23.2-1.3 3.9-3.2 6-5.1 7.8-4.2-4.1-11.2-4.2-15.5.1l-4.9 4.9-61.5-61.5-19.9-27.9-37.5-16.2-9.9 9.2 15.9 39.5 30 19 60.4 60.4-5.6 5.6c-4 4-4.3 10.3-.9 14.6L119.5 289c-12.3 12.3-12.3 32.3 0 44.5 12.3 12.3 32.3 12.3 44.5 0l91.6-94.4 65.5 83.7c14.6 18.7 42.3 20.3 59 3.6 16.7-16.6 15.2-44.1-3.2-58.8zm-232.8 53.9c-6.4 0-11.7-5.2-11.7-11.7 0-6.4 5.2-11.7 11.7-11.7 6.4 0 11.7 5.2 11.7 11.7-.1 6.5-5.3 11.7-11.7 11.7z"/></svg>