<svg version="1.1" id="Layer_1" xmlns="http://www.w3.org/2000/svg" x="0" y="0" viewBox="0 0 477 598.5" xml:space="preserve"><style type="text/css">.st0{fill:#0093d0}</style><path class="st0" d="M291.1 397.8c-34.4 4.9-68.6 9.8-103.2 14.7-1.6-23-13.3-41-24.8-59.1-12.5-19.7-25.3-39.2-36.6-59.5-10.9-19.6-16.1-41.1-15.7-63.7 1.1-61.2 48.3-114.3 108.9-122.7 69-9.5 131.4 34.8 144.4 103 5.4 28.3.4 55.3-12.2 81-4.5 9.3-9.6 18.2-15 27.1-15.8 26.1-36.2 49.5-45.8 79.2zm-101.3 61.8c-.9-8.5-1.8-16.2-2.7-24.5 34.4-4.9 68-9.7 101.9-14.6v24.8c-32.6 4.7-65.2 9.4-99.2 14.3zm90.9 9.3c-13.4 25.6-54.7 31.6-75.2 10.8 12.8-1.9 25.3-3.6 37.7-5.4 12.3-1.8 24.6-3.6 37.5-5.4z" id="wV3R6C.tif"/></svg>