<svg version="1.1" id="Layer_1" xmlns="http://www.w3.org/2000/svg" x="0" y="0" viewBox="0 0 612 544.5" xml:space="preserve"><style type="text/css">.st0{fill:#0093d0}</style><path class="st0" d="M535.2 307.5c-8.4 8.1-20 18.1-35.8 30.3-58.8 45.1-167.8 41.8-181.1 41.2-.9 0-1.3-.1-1.3-.1s.5 0 1.3.1c6.6.2 38.7-.8 118.5-28.1 60.9-20.9 84.3-51.8 93.1-69.8.5-7.3.8-17.9.6-33.3-.5-40.1-12-68.2-28.6-95.2-5.3-8.7-16.3-23.9-33.2-38.9-30.4-8.1-76-11.7-118.7 18.6-75.4 53.6-120.8 207.5-120.8 207.5s23.6-138.1 103.3-207.5C371.8 98 407.2 89 434.2 89.4 412 77.6 384.5 69.3 351.5 70c-17.6 4.5-35.1 11.9-51.1 23.2-75.4 53.5-120.8 207.5-120.8 207.5s23.6-138.1 103.3-207.5c7.1-6.2 14.2-11.6 21.3-16.4-7.4 1.9-15 4.3-22.8 7.1C148.5 132 143.5 276.7 143.5 276.7s-3.5 2.6-41.1 31.7c-37.6 29.1-39.9 24.6-26.6 63.2 13.3 38.6 45.1 60.2 98.2 88.2 53.1 28.1 51.1 24.1 86.7 11 35.6-13 148.4-52.6 148.4-52.6C561.6 382.1 546 325.5 540 315.5c-1.6-2.8-3.3-5.5-4.8-8z"/><path class="st0" d="M318.3 379c-.9 0-1.3-.1-1.3-.1s.4.1 1.3.1z"/></svg>