<svg version="1.1" id="Layer_1" xmlns="http://www.w3.org/2000/svg" x="0" y="0" viewBox="0 0 764 832" xml:space="preserve"><style type="text/css">.st0{fill:#0093d0}</style><path class="st0" d="M75.7 237.9c1.6-8.7 2.8-17.4 4.8-26 3.1-13.5 8.7-25.8 18.8-36.6 4.8 4.7 9.6 9.2 14.2 13.9 32.8 32.8 65.6 65.6 98.5 98.4 10.9 10.9 21.8 22 32.8 32.8 2.5 2.4 2.4 4.7 1.5 7.6-4.7 15.1-4.4 30.2.6 45.2 3.6 10.7 10 19.5 17.7 27.5 29.3 30.4 58.4 61.1 88.2 91.1 13 13.1 26.9 25.4 41.3 36.9 18.5 14.8 40 17.1 62.4 10.9 4.3-1.2 6.8-.4 10 2.7 20.8 21.1 41.8 41.9 62.7 62.9 21 21.1 42.1 42.1 63.1 63.2 5.9 5.9 11.9 11.6 18.1 17.6-9.3 9.4-19.9 14.7-31.5 17.8-9.9 2.7-20.1 4.2-30.2 6.2h-29c-1.4-.3-2.9-.8-4.3-.9-30.6-2.8-60-10.4-88.2-22.3-39.7-16.7-75.2-40.5-109.3-66.4-26.1-19.9-50.7-41.5-74.1-64.5-26.6-26.2-51.6-53.8-74.3-83.4-21.3-27.7-41.3-56.3-57.6-87.4-14.7-28.2-25.6-57.8-31.3-89.1-1.9-10.6-3.2-21.3-4.8-32-.1-8.8-.1-17.5-.1-26.1zm129-154c11.8 5.2 19.3 15.6 28.1 24.3 30.8 30.4 61 61.4 92 91.7 11.9 11.7 12.1 26.1-.3 37.7-14.6 13.6-28.4 28.1-42.5 42.3-3.3 3.3-6.1 7-8.8 10.1-48-48.1-95.9-96-144.2-144.3.3-.3 1.1-1.5 2.1-2.5 17.2-17.2 34.2-34.5 51.6-51.5 3.3-3.3 8-5.2 12-7.8h10zm497 506c-3.3 10.6-12.1 16.9-19.4 24.3-13.4 13.6-27 27.1-40.6 40.7-.8.8-1.8 1.5-2.3 1.9-48.1-48-96-95.9-143.8-143.7 9-8.9 18.4-18.2 27.8-27.6 8.4-8.3 16.8-16.6 25.1-25.1 11.5-11.8 24.7-11.9 36.3-.4 36.1 36.2 72.4 72.3 108.3 108.6 3.6 3.7 5.8 8.8 8.6 13.2v8.1z" id="SXQrBe_1_"/></svg>