<?xml version="1.0" encoding="utf-8"?>
<!-- Generator: Adobe Illustrator 21.0.2, SVG Export Plug-In . SVG Version: 6.00 Build 0)  -->
<svg version="1.1" id="Layer_1" xmlns="http://www.w3.org/2000/svg" xmlns:xlink="http://www.w3.org/1999/xlink" x="0px" y="0px"
	 viewBox="0 0 764 832" style="enable-background:new 0 0 764 832;" xml:space="preserve">
<style type="text/css">
	.st0{fill:#0093d0;}
</style>
<g id="SXQrBe_1_">
	<g>
		<path class="st0" d="M75.7,237.9c1.6-8.7,2.8-17.4,4.8-26c3.1-13.5,8.7-25.8,18.8-36.6c4.8,4.7,9.6,9.2,14.2,13.9
			c32.8,32.8,65.6,65.6,98.5,98.4c10.9,10.9,21.8,22,32.8,32.8c2.5,2.4,2.4,4.7,1.5,7.6c-4.7,15.1-4.4,30.2,0.6,45.2
			c3.6,10.7,10,19.5,17.7,27.5c29.3,30.4,58.4,61.1,88.2,91.1c13,13.1,26.9,25.4,41.3,36.9c18.5,14.8,40,17.1,62.4,10.9
			c4.3-1.2,6.8-0.4,10,2.7c20.8,21.1,41.8,41.9,62.7,62.9c21,21.1,42.1,42.1,63.1,63.2c5.9,5.9,11.9,11.6,18.1,17.6
			c-9.3,9.4-19.9,14.7-31.5,17.8c-9.9,2.7-20.1,4.2-30.2,6.2c-9.7,0-19.3,0-29,0c-1.4-0.3-2.9-0.8-4.3-0.9
			c-30.6-2.8-60-10.4-88.2-22.3c-39.7-16.7-75.2-40.5-109.3-66.4c-26.1-19.9-50.7-41.5-74.1-64.5c-26.6-26.2-51.6-53.8-74.3-83.4
			c-21.3-27.7-41.3-56.3-57.6-87.4c-14.7-28.2-25.6-57.8-31.3-89.1c-1.9-10.6-3.2-21.3-4.8-32C75.7,255.2,75.7,246.5,75.7,237.9z"/>
		<path class="st0" d="M204.7,83.9c11.8,5.2,19.3,15.6,28.1,24.3c30.8,30.4,61,61.4,92,91.7c11.9,11.7,12.1,26.1-0.3,37.7
			c-14.6,13.6-28.4,28.1-42.5,42.3c-3.3,3.3-6.1,7-8.8,10.1C225.2,241.9,177.3,194,129,145.7c0.3-0.3,1.1-1.5,2.1-2.5
			c17.2-17.2,34.2-34.5,51.6-51.5c3.3-3.3,8-5.2,12-7.8C198,83.9,201.4,83.9,204.7,83.9z"/>
		<path class="st0" d="M701.7,589.9c-3.3,10.6-12.1,16.9-19.4,24.3c-13.4,13.6-27,27.1-40.6,40.7c-0.8,0.8-1.8,1.5-2.3,1.9
			c-48.1-48-96-95.9-143.8-143.7c9-8.9,18.4-18.2,27.8-27.6c8.4-8.3,16.8-16.6,25.1-25.1c11.5-11.8,24.7-11.9,36.3-0.4
			c36.1,36.2,72.4,72.3,108.3,108.6c3.6,3.7,5.8,8.8,8.6,13.2C701.7,584.5,701.7,587.2,701.7,589.9z"/>
	</g>
</g>
</svg>
