<?xml version="1.0" encoding="utf-8"?>
<!-- Generator: Adobe Illustrator 21.0.2, SVG Export Plug-In . SVG Version: 6.00 Build 0)  -->
<svg version="1.1" id="Layer_1" xmlns="http://www.w3.org/2000/svg" xmlns:xlink="http://www.w3.org/1999/xlink" x="0px" y="0px"
	 viewBox="0 0 489 418" style="enable-background:new 0 0 489 418;" xml:space="preserve">
<style type="text/css">
	.st0{fill:#0093d0;}
</style>
<path class="st0" d="M376.9,267.6L293,200.6l5.9-6c2.4-2.4,4.3-3.7,8.1-6.1c7.3,2.6,15.1,4,23.2,4c38.4,0,69.6-31.1,69.6-69.6
	c0-5.6-0.7-11-1.9-16.2l-8.7,7.6l-24.5,21.5c-13.1,11.5-33.1,10.1-44.5-3s-10.1-33.1,3-44.5l33.7-29.6c-8.2-3.4-17.3-5.3-26.7-5.3
	c-38.4,0-69.6,31.1-69.6,69.6c0,8.1,1.4,16,4,23.2c-1.3,3.9-3.2,6-5.1,7.8c-4.2-4.1-11.2-4.2-15.5,0.1l-4.9,4.9l-61.5-61.5
	l-19.9-27.9l-37.5-16.2l-9.9,9.2l15.9,39.5l30,19l60.4,60.4l-5.6,5.6c-4,4-4.3,10.3-0.9,14.6L119.5,289c-12.3,12.3-12.3,32.3,0,44.5
	c12.3,12.3,32.3,12.3,44.5,0l91.6-94.4l65.5,83.7c14.6,18.7,42.3,20.3,59,3.6l0,0C396.8,309.8,395.3,282.3,376.9,267.6z
	 M144.1,321.5c-6.4,0-11.7-5.2-11.7-11.7c0-6.4,5.2-11.7,11.7-11.7c6.4,0,11.7,5.2,11.7,11.7C155.7,316.3,150.5,321.5,144.1,321.5z"
	/>
</svg>
