<?xml version="1.0" encoding="utf-8"?>
<!-- Generator: Adobe Illustrator 21.0.2, SVG Export Plug-In . SVG Version: 6.00 Build 0)  -->
<svg version="1.1" id="Layer_1" xmlns="http://www.w3.org/2000/svg" xmlns:xlink="http://www.w3.org/1999/xlink" x="0px" y="0px"
	 viewBox="0 0 477 598.5" style="enable-background:new 0 0 477 598.5;" xml:space="preserve">
<style type="text/css">
	.st0{fill:#0093d0;}
</style>
<g id="wV3R6C.tif">
	<g>
		<path class="st0" d="M291.1,397.8c-34.4,4.9-68.6,9.8-103.2,14.7c-1.6-23-13.3-41-24.8-59.1c-12.5-19.7-25.3-39.2-36.6-59.5
			c-10.9-19.6-16.1-41.1-15.7-63.7c1.1-61.2,48.3-114.3,108.9-122.7c69-9.5,131.4,34.8,144.4,103c5.4,28.3,0.4,55.3-12.2,81
			c-4.5,9.3-9.6,18.2-15,27.1C321.1,344.7,300.7,368.1,291.1,397.8z"/>
		<path class="st0" d="M189.8,459.6c-0.9-8.5-1.8-16.2-2.7-24.5c34.4-4.9,68-9.7,101.9-14.6c0,8.4,0,16.1,0,24.8
			C256.4,450,223.8,454.7,189.8,459.6z"/>
		<path class="st0" d="M280.7,468.9c-13.4,25.6-54.7,31.6-75.2,10.8c12.8-1.9,25.3-3.6,37.7-5.4
			C255.5,472.5,267.8,470.7,280.7,468.9z"/>
	</g>
</g>
</svg>
