<svg id="Layer_1" data-name="Layer 1" xmlns="http://www.w3.org/2000/svg" viewBox="0 0 298 77.617"><defs><style>.cls-1{fill:#a7a7a9;}.cls-2{fill:#fff;}.cls-3{fill:#4b4f55;}.cls-4{fill:#b52b2f;}</style></defs><title>paladin-color-logo</title><path class="cls-1" d="M71.446,15.165l-.018-1.432-.962-.407A95.583,95.583,0,0,0,39.831,6.552c-.02.9-.043,1.957-.064,3.144v.041a92.933,92.933,0,0,1,28.5,6.128C68.208,38.707,52.743,62.3,37.52,72.679c-.538,1.443-1.146,3.106-1.777,4.885l.786-.481c8.6-5.014,17.262-14.025,23.766-24.721C67.49,40.528,71.453,27.522,71.453,15.74,71.453,15.547,71.45,15.356,71.446,15.165Z"/><path class="cls-1" d="M35.725,77.563h0V0s-4.162-.028-4.162,3.58c0,.526.025,1.558.056,2.973A95.58,95.58,0,0,0,.989,13.326l-.956.4L.011,15.1c-.005.212-.011.426-.011.64C0,40.71,18.119,67.018,34.907,77.073l.818.5Z"/><path class="cls-2" d="M39.855,9.744c.02-3.568.032-5.873.032-6.163C39.887-.028,35.725,0,35.725,0V77.617c.638-1.8,1.253-3.481,1.8-4.938C52.743,62.3,68.208,38.707,68.266,15.866A92.946,92.946,0,0,0,39.855,9.744Z"/><path class="cls-2" d="M31.95,67.495v-.012C19.194,56.906,7.021,37.079,6.17,17.87a90.564,90.564,0,0,1,25.558-5.193c-.012-1.045-.027-2.031-.044-2.938a92.927,92.927,0,0,0-28.5,6.128C3.245,38.39,18.709,62.025,33.932,72.638,32.776,69.55,31.95,67.495,31.95,67.495Z"/><path class="cls-2" d="M35.725,0s4.162-.028,4.162,3.58c0,1.588-.223,7.716-.19,15.4a62.346,62.346,0,0,1,13.512,1.774L52.765,23.4c-2.712-.545-4.985-.907-4.985-.907-5.251-.958-6.614,2.475-6.709,4.987-.152,4-1.57,40.015-1.57,40.015s-1.78,4.491-3.775,10.122Z"/><path class="cls-3" d="M30.38,27.479c-.1-2.512-1.458-5.945-6.709-4.987,0,0-2.273.362-4.985.907l-.444-2.649a62.346,62.346,0,0,1,13.512-1.774c.01-2.262,0-4.384-.025-6.3A90.564,90.564,0,0,0,6.17,17.87c.851,19.21,13.024,39.036,25.779,49.613C31.929,66.956,30.531,31.449,30.38,27.479Z"/><path class="cls-4" d="M39.722,12.677c-.022,1.916-.035,4.038-.025,6.3a62.346,62.346,0,0,1,13.512,1.774L52.765,23.4c-2.712-.545-4.985-.907-4.985-.907-5.251-.958-6.614,2.475-6.709,4.987-.151,3.969-1.548,39.464-1.57,40C52.256,56.905,64.428,37.079,65.28,17.87A90.563,90.563,0,0,0,39.722,12.677Z"/><path class="cls-3" d="M100.475,33.526H96.348v4.928h4.127c1.656,0,3.215-.582,3.215-2.49C103.691,34.076,102.1,33.526,100.475,33.526Zm7.576,7.914a10.584,10.584,0,0,1-4.915.924H96.348v.353c0,3.608,1.716,3.3,4.778,3.3v3.947H84.511V46.016c1.167,0,2.856.047,3.792-.727a2.36,2.36,0,0,0,.9-2.066c.018-.553.018-1.111.018-1.66V38.454c0-.528,0-1.066-.018-1.606a2.911,2.911,0,0,0-.9-2.535c-1-.818-2.563-.787-3.792-.787V29.573h18.624c2.439,0,5.044.325,6.7,2.336a6.459,6.459,0,0,1,1.4,4.174,5.78,5.78,0,0,1-3.183,5.357m14.262-5.988L119.594,40.1h5.615Zm1.829,14.511V46.016c.545,0,1.1-.018,1.645-.053.8-.1,1.928-.189,1.928-1.194a2.672,2.672,0,0,0-.491-1.338h-9.538a1.777,1.777,0,0,0-.544,1.189c0,1.556,2.575,1.378,3.613,1.4v3.947H108.022V46.016a5.447,5.447,0,0,0,3.574-1.056,12.717,12.717,0,0,0,1.977-2.576l7.6-12.812h6.05l7.64,12.6c1.313,2.2,2.346,3.759,5.128,3.839v3.947h-15.85m18.063,0V46.016c1.237,0,2.82.093,3.84-.727a2.348,2.348,0,0,0,.875-2.01c.029-.583.029-1.133.029-1.717V37.984a7.884,7.884,0,0,0-.34-3.085,1.791,1.791,0,0,0-.564-.637c-1.076-.785-2.566-.735-3.84-.735V29.573h16.567v3.954c-1.208,0-2.774-.049-3.782.735a1.956,1.956,0,0,0-.609.671,8.477,8.477,0,0,0-.309,3.051v8.032h5.565c3.111,0,3.849-.881,4.125-3.934h4.072v7.881H142.2m42.076-14.511L181.556,40.1h5.621ZM186.1,49.964V46.016c.546,0,1.1-.018,1.646-.053.794-.1,1.922-.189,1.922-1.194a2.573,2.573,0,0,0-.484-1.338h-9.531a1.78,1.78,0,0,0-.551,1.189c0,1.556,2.573,1.378,3.611,1.4v3.947H170.006V46.016a5.5,5.5,0,0,0,3.573-1.056,12.354,12.354,0,0,0,1.95-2.576l7.612-12.812h6.046l7.643,12.6c1.332,2.2,2.353,3.759,5.128,3.839v3.947H186.1m38.023-15.83a10.275,10.275,0,0,0-4.279-.607h-3.864v12.49H220.3c2.235,0,4.477-.115,6.032-1.955a6.526,6.526,0,0,0,1.415-4.117A6,6,0,0,0,224.126,34.133Zm6.441,14.517c-2.07,1.2-4.485,1.313-6.823,1.313H204.073V46.016c1.246,0,2.849.093,3.874-.727a2.375,2.375,0,0,0,.9-2.231c.024-.462.024-1.068.024-1.5V37.984c0-.42,0-1.033-.024-1.488-.031-.975-.063-1.624-.9-2.234-1.125-.834-2.571-.735-3.874-.735V29.573h18.009c3.977,0,8.2.593,10.93,3.759a10.624,10.624,0,0,1,2.411,6.726,10.032,10.032,0,0,1-4.856,8.593m6.687,1.313V46.016c1.221,0,2.775.072,3.785-.727a2.363,2.363,0,0,0,.9-2.167c.02-.526.02-1.04.02-1.559V37.984c0-.5,0-1.033-.02-1.56a2.361,2.361,0,0,0-.9-2.163c-1.058-.785-2.525-.735-3.785-.735V29.573h16.5v3.954c-1.234,0-2.747-.049-3.773.735a2.377,2.377,0,0,0-.87,2.163c-.031.526-.031,1.061-.031,1.56v3.579c0,.519,0,1.033.031,1.559a2.386,2.386,0,0,0,.87,2.167c1.074.8,2.485.727,3.773.727v3.947h-16.5m50.252-15.726a2.343,2.343,0,0,0-.878,2.187c-.036.526-.036,1.061-.036,1.56v11.98h-4.483L265.621,37.338v4.226c0,.519,0,1.033.045,1.559a2.367,2.367,0,0,0,.869,2.2c1,.737,2.67.69,3.834.69v3.947h-13.7V46.016c1.144,0,2.9.047,3.82-.69a2.384,2.384,0,0,0,.907-2.175c0-.555,0-1.069,0-1.588V38.238c0-.53,0-1.083,0-1.587-.044-.985-.062-1.717-.907-2.351-1.037-.8-2.556-.773-3.82-.773V29.573h10.774L282.31,41.047V38.238c0-.53,0-1.083-.023-1.587a2.582,2.582,0,0,0-.9-2.351c-1-.8-2.646-.773-3.877-.773V29.573h13.751v3.954c-1.1,0-2.849-.031-3.759.711m3.942,12.778h2.769v.568h-1.039v2.533h-.687V47.584h-1.042Zm6.552,0v3.1h-.652V48.2l-.731,1.916h-.5l-.733-1.925v1.925h-.651v-3.1h.852l.785,2.008.775-2.008ZM97.61,58.023H94.151v8h1.955V62.911h.989c3.26,0,3.612-1.7,3.612-2.428C100.707,59.293,99.893,58.023,97.61,58.023Zm-1.5,1.677H97.4c1.356,0,1.356.517,1.356.766,0,.322,0,.766-1.565.766H96.106Zm21.422-1.677h1.953l-2.294,8H115.6l-1.354-4.414-1.282,4.414h-1.594l-2.336-8h1.954l1.2,4.279,1.264-4.279h1.588l1.3,4.293Zm4.78,6.322h4.368V66.02h-6.321v-8h6.087V59.7h-4.134v1.318h2.939v1.675h-2.939Zm12.126-3.977c0-1.472-1.244-2.346-3.33-2.346h-3.226v8h1.957V62.85H131l1.707,3.17h2.175l-1.912-3.552A2.235,2.235,0,0,0,134.434,60.369Zm-4.6-.669h1.176c1.471,0,1.471.442,1.471.706s0,.765-1.46.765h-1.187Zm6.32-1.677h6.027V59.7h-4.075v1.318h3.021v1.675h-3.021V66.02h-1.953Zm12.055,0h1.954V63.4c0,1.647-1.36,2.719-3.47,2.719s-3.472-1.072-3.472-2.719V58.023h1.956v5.441c0,.6.593.984,1.516.984s1.516-.388,1.516-.984Zm5.887,6.322h4V66.02h-5.956v-8H154.1Zm10.826-6.322-2.975,8h2.071l.8-2.183h2.322l.794,2.183h2.075l-2.979-8Zm.48,4.14.572-1.693.572,1.693ZM182.677,59.7h-2.531V66.02h-1.955V59.7h-5.021V66.02h-1.952V59.7h-2.531V58.023h13.989Zm2.1-1.677-2.977,8h2.069l.8-2.183h2.32l.794,2.183h2.075l-2.98-8Zm.476,4.14.572-1.693.572,1.693Zm10.109.554,1.854.295-.161.548a3.318,3.318,0,0,1-3.466,2.562c-2.338,0-3.741-1.532-3.741-4.1s1.4-4.094,3.741-4.094a3.185,3.185,0,0,1,3.348,2.4l.149.507-1.851.457-.14-.457a1.453,1.453,0,0,0-1.62-1.232c-1.062,0-1.671.882-1.671,2.421,0,1.607.624,2.429,1.857,2.429.835,0,1.294-.384,1.572-1.307Zm7.869-4.694h1.95v8h-1.95V62.693H200.2V66.02h-1.955v-8H200.2v2.995h3.034Zm9.836,0H215.4v8h-1.861V61.872L212,66.02h-1.429l-1.554-4.157V66.02h-1.858v-8h2.309l1.813,4.75Zm6.264,6.322H223.7V66.02h-6.323v-8h6.09V59.7H219.33v1.318h2.939v1.675H219.33Zm10.742-6.322h1.866v8h-1.549l-3.532-5.131V66.02H225v-8h2.118l2.957,4.314Zm2.835,0h7.01V59.7h-2.529V66.02h-1.954V59.7h-2.527Zm11.012,0h7.013V59.7H248.4V66.02h-1.957V59.7h-2.528ZM270.4,64.345h4V66.02h-5.958v-8H270.4Zm11.225-.785c0,.6-.242,2.562-3.355,2.562a3.58,3.58,0,0,1-3.469-2.09l-.3-.548,1.877-.555.188.4a1.758,1.758,0,0,0,1.747,1.123c.32,0,1.353-.062,1.353-.754,0-.464-.925-.751-1.824-1.028-1.3-.4-2.926-.894-2.926-2.437,0-1.336,1.282-2.3,3.05-2.3a3.268,3.268,0,0,1,3.26,2.046l.221.572-1.893.352-.135-.436a1.411,1.411,0,0,0-1.482-.861c-.48,0-1.06.106-1.068.586-.008.309.961.6,1.67.821C279.918,61.429,281.628,61.955,281.628,63.56ZM105,57.925c-2.382,0-3.807,1.53-3.807,4.094s1.425,4.1,3.807,4.1,3.813-1.532,3.813-4.1S107.393,57.925,105,57.925Zm0,6.523c-.457,0-1.853,0-1.853-2.429S104.547,59.6,105,59.6s1.857,0,1.857,2.421S105.464,64.448,105,64.448Zm150.039-6.523c-2.384,0-3.811,1.53-3.811,4.094s1.428,4.1,3.811,4.1,3.809-1.532,3.809-4.1S257.426,57.925,255.043,57.925Zm0,6.523c-.458,0-1.855,0-1.855-2.429s1.4-2.421,1.855-2.421,1.858,0,1.858,2.421S255.5,64.448,255.043,64.448Zm8.273-6.523c-2.387,0-3.808,1.53-3.808,4.094s1.422,4.1,3.808,4.1,3.813-1.532,3.813-4.1S265.7,57.925,263.316,57.925Zm0,6.523c-.456,0-1.855,0-1.855-2.429s1.4-2.421,1.855-2.421,1.856,0,1.856,2.421S263.779,64.448,263.316,64.448Z"/></svg>