<svg xmlns="http://www.w3.org/2000/svg" viewBox="0 0 745.5 655.5">
  <path d="M136 405.3c-40.8 0-73.9 33.1-73.9 73.9 0 40.8 33.1 73.9 73.9 73.9s73.9-33.1 73.9-73.9c0-40.8-33.1-73.9-73.9-73.9zm0 109c-19.4 0-35.1-15.7-35.1-35.1 0-19.4 15.7-35.1 35.1-35.1s35.1 15.7 35.1 35.1c0 19.4-15.8 35.1-35.1 35.1zM537.6 242.8c-85.7 0-155.1 69.4-155.1 155.1S451.9 553 537.6 553s155.1-69.4 155.1-155.1-69.5-155.1-155.1-155.1zm0 245.4c-49.9 0-90.3-40.4-90.3-90.3s40.4-90.3 90.3-90.3 90.3 40.4 90.3 90.3-40.5 90.3-90.3 90.3z"/>
  <path d="M534.1 224.4c46.3 0 88.2 18.6 118.7 48.8v-30.9c-15.5-11.5-32.8-20.7-51.3-27.2V90.7H427.9l-10 22h23.5l-39 140.7H146.7v140c27.1 1.2 51 15.1 65.6 36h156.9c-2.5-11.6-3.9-23.7-3.9-36.1-.1-93.3 75.5-168.9 168.8-168.9zm-69.9-111.7h115.1v96c-4-.9-8-1.7-12-2.3v-78.3H474l-26.2 96.3c-5.9 2.9-11.6 6.2-17.2 9.7l33.6-121.4zM254.1 398h-24V277.4h24V398zm31.3 0h-24V277.4h24V398zm30.7-.1h-24V277.3h24v120.6z"/>
  <circle cx="136" cy="479.2" r="14"/>
  <circle cx="537.6" cy="398" r="14"/>
</svg>