<?xml version="1.0" encoding="utf-8"?>
<!-- Generator: Adobe Illustrator 21.0.2, SVG Export Plug-In . SVG Version: 6.00 Build 0)  -->
<svg version="1.1" id="Layer_1" xmlns="http://www.w3.org/2000/svg" xmlns:xlink="http://www.w3.org/1999/xlink" x="0px" y="0px"
	 viewBox="0 0 612 544.5" style="enable-background:new 0 0 612 544.5;" xml:space="preserve">
<style type="text/css">
	.st0{fill:#0093d0;}
</style>
<g>
	<path class="st0" d="M535.2,307.5c-8.4,8.1-20,18.1-35.8,30.3c-58.8,45.1-167.8,41.8-181.1,41.2c-0.9,0-1.3-0.1-1.3-0.1
		s0.5,0,1.3,0.1c6.6,0.2,38.7-0.8,118.5-28.1c60.9-20.9,84.3-51.8,93.1-69.8c0.5-7.3,0.8-17.9,0.6-33.3c-0.5-40.1-12-68.2-28.6-95.2
		c-5.3-8.7-16.3-23.9-33.2-38.9c-30.4-8.1-76-11.7-118.7,18.6c-75.4,53.6-120.8,207.5-120.8,207.5s23.6-138.1,103.3-207.5
		C371.8,98,407.2,89,434.2,89.4C412,77.6,384.5,69.3,351.5,70c-17.6,4.5-35.1,11.9-51.1,23.2C225,146.7,179.6,300.7,179.6,300.7
		s23.6-138.1,103.3-207.5c7.1-6.2,14.2-11.6,21.3-16.4c-7.4,1.9-15,4.3-22.8,7.1C148.5,132,143.5,276.7,143.5,276.7
		s-3.5,2.6-41.1,31.7c-37.6,29.1-39.9,24.6-26.6,63.2c13.3,38.6,45.1,60.2,98.2,88.2c53.1,28.1,51.1,24.1,86.7,11
		c35.6-13,148.4-52.6,148.4-52.6C561.6,382.1,546,325.5,540,315.5C538.4,312.7,536.7,310,535.2,307.5z"/>
	<path class="st0" d="M318.3,379c-0.9,0-1.3-0.1-1.3-0.1S317.4,379,318.3,379z"/>
</g>
</svg>
