<svg xmlns="http://www.w3.org/2000/svg" viewBox="0 0 1258 792">
  <path d="M528.7 182l80.9 83.3h395.1l-7.4-19.3H622l-82-84.7H282.7l18.6 20zM968 531.3h61.3v44H968zM188 528.2h79.3v47.1H188zM401.3 452.7c-53.9 0-97.6 43.7-97.6 97.6 0 53.9 43.7 97.6 97.6 97.6 53.9 0 97.6-43.7 97.6-97.6 0-53.9-43.7-97.6-97.6-97.6zm0 156.5c-32.6 0-59-26.4-59-59s26.4-59 59-59 59 26.4 59 59-26.4 59-59 59zM854.9 452.7c-53.9 0-97.6 43.7-97.6 97.6 0 53.9 43.7 97.6 97.6 97.6 53.9 0 97.6-43.7 97.6-97.6 0-53.9-43.7-97.6-97.6-97.6zm0 156.5c-32.6 0-59-26.4-59-59s26.4-59 59-59 59 26.4 59 59-26.4 59-59 59z"/>
  <circle cx="401.3" cy="550.2" r="17.7"/>
  <circle cx="853.9" cy="551.3" r="17.7"/>
  <path d="M556.7 474.7v16h213.1c18.1-27.8 49.5-46.2 85.2-46.2s67 18.4 85.2 46.2H958l-46-92.3-170.7 76.3H556.7zM401.8 442.5c37.3 0 70.1 19.2 89.2 48.2h52.4l-71.3-256H332.7l-32 90.7-85.3 44v155.3H272V562h24c-.5-4.3-.8-8.6-.8-13 0-58.8 47.7-106.5 106.6-106.5zm-68.5-193.8h108v74H306l27.3-74zm-86 226h-19.7V402h19.7v72.7z"/>
  <path d="M764 500.7H496.7c7.3 14.2 11.4 30.3 11.6 47.3h245v-1.8c-.1-16.4 3.8-31.8 10.7-45.5zM1000.7 500.7H945.8c6.9 13.7 10.7 29.1 10.7 45.5v1.8h1.5v-23.7h42.7v-23.6zM523.3 193.7H306l20 22.7h155.3l71.3 249.3H742l287.3-130L1008 277H604.7l-81.4-83.3zM816 367c0 6.6-5.4 12-12 12H572.7c-6.6 0-12-5.4-12-12v-1.3c0-6.6 5.4-12 12-12H804c6.6 0 12 5.4 12 12v1.3zm80.7-46.7v1.3c0 6.6-5.4 12-12 12h-312c-6.6 0-12-5.4-12-12v-1.3c0-6.6 5.4-12 12-12h312c6.6 0 12 5.4 12 12z"/>
</svg>
