<svg id="Layer_1" data-name="Layer 1" xmlns="http://www.w3.org/2000/svg" viewBox="0 0 188.17 48.3"><defs><style>.cls-1{fill:#005dac;}.cls-2{fill:#231f20;}</style></defs><title>acari</title><path class="cls-1" d="M48.44,72.21v5.47h.84a4.52,4.52,0,0,0,1.79-.26,2.05,2.05,0,0,0,.91-.87A3,3,0,0,0,52.34,75a2.74,2.74,0,0,0-.84-2.14,3.58,3.58,0,0,0-2.44-.69Zm-1.79-1.59h2.14a7.62,7.62,0,0,1,3.07.47,3.85,3.85,0,0,1,1.65,1.52,4.93,4.93,0,0,1,.29,4.31,3.82,3.82,0,0,1-1,1.4,3.63,3.63,0,0,1-1.39.77,10.76,10.76,0,0,1-2.59.21H46.65Z" transform="translate(-45 -30.99)"/><path class="cls-1" d="M69.67,74h.56a2.38,2.38,0,0,0,1.18-.21.75.75,0,0,0,.32-.69.79.79,0,0,0-.16-.49.89.89,0,0,0-.43-.3,3.55,3.55,0,0,0-1-.09h-.49Zm-1.8-3.39h1.91a6.85,6.85,0,0,1,2.23.26,2.25,2.25,0,0,1,1.07.85,2.45,2.45,0,0,1,.41,1.41A2.25,2.25,0,0,1,73,74.56a2.73,2.73,0,0,1-1.35.87l2.24,3.86H72l-2.13-3.67h-.17v3.67h-1.8Z" transform="translate(-45 -30.99)"/><rect class="cls-1" x="42.14" y="39.63" width="1.79" height="8.68"/><polygon class="cls-1" points="57.83 39.63 59.63 39.63 59.63 46.73 62.26 46.73 62.26 48.3 57.83 48.3 57.83 39.63"/><polygon class="cls-1" points="75.5 39.63 77.31 39.63 77.31 46.73 79.93 46.73 79.93 48.3 75.5 48.3 75.5 39.63"/><polygon class="cls-1" points="108.76 39.63 113.46 39.63 113.46 41.24 110.55 41.24 110.55 42.81 113.46 42.81 113.46 44.4 110.55 44.4 110.55 48.3 108.76 48.3 108.76 39.63"/><path class="cls-1" d="M173.85,74h.56a2.38,2.38,0,0,0,1.18-.21.75.75,0,0,0,.32-.69.79.79,0,0,0-.16-.49.88.88,0,0,0-.43-.3,3.55,3.55,0,0,0-1-.09h-.49ZM172,70.61H174a6.85,6.85,0,0,1,2.23.26,2.25,2.25,0,0,1,1.07.85,2.45,2.45,0,0,1,.41,1.41,2.25,2.25,0,0,1-.45,1.43,2.73,2.73,0,0,1-1.35.87l2.24,3.86h-2L174,75.62h-.17v3.67H172Z" transform="translate(-45 -30.99)"/><polygon class="cls-1" points="146.46 39.63 151.63 39.63 151.63 41.24 148.25 41.24 148.25 42.81 151.63 42.81 151.63 44.4 148.25 44.4 148.25 46.68 151.63 46.68 151.63 48.3 146.46 48.3 146.46 39.63"/><polygon class="cls-1" points="165.19 39.63 170.36 39.63 170.36 41.24 166.98 41.24 166.98 42.81 170.36 42.81 170.36 44.4 166.98 44.4 166.98 46.68 170.36 46.68 170.36 48.3 165.19 48.3 165.19 39.63"/><path class="cls-2" d="M67.37,37.73,58.42,55.64H76.28Zm14.8,29.74-3.31-6.53h-23l-3.31,6.53H45l17.83-36h9.13l17.93,36Z" transform="translate(-45 -30.99)"/><path class="cls-2" d="M125,42.68a18.92,18.92,0,0,0-6.73-4.7,21.72,21.72,0,0,0-8.77-1.78,20.9,20.9,0,0,0-12.72,3.91Q91.44,44,91.44,49.45t5.32,9.34a20.9,20.9,0,0,0,12.72,3.91q9.58,0,15.47-6.43L131,59.18a25.81,25.81,0,0,1-9.27,6.38,32.08,32.08,0,0,1-12.26,2.35,29.57,29.57,0,0,1-17.79-5.4q-7.47-5.47-7.47-13t7.47-13A29.28,29.28,0,0,1,109.48,31a32.59,32.59,0,0,1,12.33,2.38,25.8,25.8,0,0,1,9.27,6.45Z" transform="translate(-45 -30.99)"/><path class="cls-2" d="M147.64,37.73,138.7,55.64h17.86Zm14.8,29.74-3.31-6.53h-23l-3.31,6.53h-7.54l17.83-36h9.13l17.93,36Z" transform="translate(-45 -30.99)"/><path class="cls-2" d="M200.61,41.75a4.39,4.39,0,0,0-2-3.61,8,8,0,0,0-4.86-1.5h-19v10.2h19a8,8,0,0,0,4.86-1.5,4.37,4.37,0,0,0,2-3.58m-.71,25.71L187.82,52.13H174.75V67.47h-7.22v-36H193.7a16.35,16.35,0,0,1,9.94,3.07q4.19,3.07,4.19,7.28a8.58,8.58,0,0,1-3.42,6.69A15.44,15.44,0,0,1,196,52l12.26,15.46Z" transform="translate(-45 -30.99)"/><rect class="cls-2" x="163.41" y="0.44" width="7.22" height="36.04"/><polygon class="cls-2" points="174.43 0.89 178.68 0.89 178.68 2.22 177.28 2.22 177.28 7.95 175.79 7.95 175.79 2.22 174.43 2.22 174.43 0.89"/><polygon class="cls-2" points="180.44 0.89 181.87 0.89 183.65 5.82 185.45 0.89 186.88 0.89 188.17 7.95 186.75 7.95 185.93 3.49 184.29 7.95 183 7.95 181.38 3.49 180.53 7.95 179.1 7.95 180.44 0.89"/></svg>