<svg id="Layer_1" data-name="Layer 1" xmlns="http://www.w3.org/2000/svg" viewBox="0 0 208.31 57.12"><defs><style>.cls-1{fill:#fff;}</style></defs><title>cimline-white</title><path class="cls-1" d="M166.53,47.85c0-1-.69-1.31-1.5-1.31a5.37,5.37,0,0,0-.87.06l-.56,3a3.85,3.85,0,0,0,.83.08A2,2,0,0,0,166.53,47.85Z" transform="translate(-35.33 -27.66)"/><path class="cls-1" d="M159.76,61.37h0c-.23.56-.48,1.27-.72,1.8l-.88,2H160l-.17-2C159.84,62.67,159.8,61.93,159.76,61.37Z" transform="translate(-35.33 -27.66)"/><path class="cls-1" d="M173.24,48.58c0-.56-.09-1.38-.13-2h0c-.25.62-.53,1.41-.8,2l-1,2.2h2.14Z" transform="translate(-35.33 -27.66)"/><path class="cls-1" d="M211,61.33a2.1,2.1,0,0,0-1.54.7,5.1,5.1,0,0,0-1.12,3.27c0,1.3.57,2.27,1.86,2.27h0a2.08,2.08,0,0,0,1.5-.67,5.35,5.35,0,0,0,1.09-3.31C212.76,62.44,212.36,61.33,211,61.33Z" transform="translate(-35.33 -27.66)"/><path class="cls-1" d="M228,61.35a4.84,4.84,0,0,0-.78.05l-.5,2.73a3.46,3.46,0,0,0,.74.07,1.75,1.75,0,0,0,1.9-1.68C229.37,61.63,228.74,61.35,228,61.35Z" transform="translate(-35.33 -27.66)"/><path class="cls-1" d="M116.34,61.37h0c-.23.56-.48,1.27-.72,1.8l-.88,2h1.93l-.17-2C116.42,62.67,116.38,61.93,116.34,61.37Z" transform="translate(-35.33 -27.66)"/><path class="cls-1" d="M202.2,61.32a3,3,0,0,0-.74.07L201,63.94h.78a1.63,1.63,0,0,0,1.79-1.54C203.57,61.65,203,61.32,202.2,61.32Z" transform="translate(-35.33 -27.66)"/><path class="cls-1" d="M94.23,40.51c-5.74-7.74-15.6-12.84-26.8-12.84-17.73,0-32.1,12.79-32.1,28.56s14.37,28.56,32.1,28.56A33.72,33.72,0,0,0,92.15,74.45H233l10.68-33.94Zm129.39,4.37H231l-.35,1.91H228l-1.54,8.33h-2.12l1.54-8.33h-2.63Zm-16.65,0h5.89l-.35,1.87h-3.75l-.41,2.17h3.56l-.35,1.84H208l-.46,2.49h4l-.34,1.87h-6.11Zm-8.9,0,.31,3.91c.06,1,.16,2.11.18,3.25h.06A34.09,34.09,0,0,1,200,48.77l1.84-3.89h2.88l-1.34,10.24h-2.07l.6-4.23c.16-1.11.38-2.51.66-4h0c-.55,1.32-1.17,2.74-1.71,3.86l-2,4.2H197.1l-.35-4.15c-.09-1.12-.16-2.54-.22-3.91h0c-.28,1.35-.58,2.9-.83,4l-1,4.23h-1.95l2.49-10.24Zm-5,0-.35,1.87H189l-.41,2.17h3.56l-.35,1.84h-3.53l-.46,2.49h4l-.34,1.87h-6.11l1.89-10.24Zm-13.7,0,.44,4.88c.1,1.09.18,2.08.24,3.15h0c.37-1,.84-2.1,1.33-3.16l2.23-4.86h2.38l-5.13,10.24h-2.46l-1.24-10.24Zm-4.61,0L176,55.12h-2.23l-.21-2.66h-2.86l-1.17,2.66h-2.27l4.85-10.24Zm-22.76,0h5.89l-.35,1.87h-3.75l-.41,2.17H157l-.35,1.84h-3.53l-.46,2.49h4l-.34,1.87h-6.11Zm-9.83,0h2.49L146,48.78c.4,1.31.66,2.37.9,3.5h0a27.73,27.73,0,0,1,.46-3.68l.68-3.72h2l-1.89,10.24H146L144.62,51a34.79,34.79,0,0,1-1-3.57h0c-.1,1-.34,2.45-.63,4.07l-.66,3.59h-2Zm-4.09,0h2.13l-1.89,10.24h-2.12Zm-7.14,0h2.13l-1.53,8.33h3.82L135,55.12h-5.95Zm-14.08,0L115,55.12h-2.12l1.89-10.24Zm-9.62.93a6.13,6.13,0,0,1,3.64-1.08,5,5,0,0,1,2.18.43l-.59,1.78a4.23,4.23,0,0,0-1.8-.33,3.49,3.49,0,0,0-2.27.79,4.25,4.25,0,0,0-1.37,3.3,2.46,2.46,0,0,0,2.64,2.72,5,5,0,0,0,1.89-.33l.18,1.76a6.55,6.55,0,0,1-2.61.44,4.08,4.08,0,0,1-4.4-4.35A6,6,0,0,1,107.28,45.8ZM90.76,60.13a2,2,0,0,0,1.86-1.2H90.81l.67-2h4.87l-1.73,5.3H93l0-1.06a4,4,0,0,1-3.17,1.25,4.35,4.35,0,0,1-2.38-.57,3.36,3.36,0,0,1-1.28-1.46A3.85,3.85,0,0,1,86,58.25a7,7,0,0,1,2.15-4.19A6.15,6.15,0,0,1,92.6,52.3q3.72,0,4.23,3.11l-3.09.43a1.32,1.32,0,0,0-1.48-1.29,2.13,2.13,0,0,0-1.92,1.32,7.66,7.66,0,0,0-.87,2.58Q89.24,60.13,90.76,60.13ZM82.44,55c-.35.62-.66,1.15-.94,1.59l-3.62,5.63h-2V56.57c0-.49,0-1,.07-1.59,0-.34,0-.59,0-.78q-.5,2-1,3.46l-1.48,4.53H71l3.15-9.67h4.44V56.8a7,7,0,0,0,0,.74,6.41,6.41,0,0,1,.43-.74l2.77-4.28h4.47l-3.15,9.67H80.1L81.78,57q.26-.79.62-1.66c.19-.47.33-.83.41-1.07ZM70.66,57.69a4.55,4.55,0,0,1-3,1H65.49l-1.16,3.55H61.12l3.15-9.67h3.65a12.67,12.67,0,0,1,1.86.1,3.11,3.11,0,0,1,1.15.46,2.27,2.27,0,0,1,.86,1A2.31,2.31,0,0,1,72,55.37,3.57,3.57,0,0,1,70.66,57.69ZM67.43,32.75c11.92,0,22.19,6.93,25.25,16.93l-.46,0c-3-9.79-13.11-16.56-24.79-16.56A27.27,27.27,0,0,0,47.89,41c-.27.06-.53.13-.77.2A27.65,27.65,0,0,1,67.43,32.75ZM39.7,67.4c-1.13-1.21-1.78-3.18-.78-6.36L39.26,60c1.6-5.07,2.92-9.19,3.58-11.25l.46-1.42a3.78,3.78,0,0,1,1.17-2c1-1,3-2,6.59-2H65.69a9.33,9.33,0,0,1,2.75.54,5.17,5.17,0,0,1,2.92,2.36A6.3,6.3,0,0,1,72,48a4.36,4.36,0,0,1-.41,3H63.89l.19-.52.34-.91H53l-.3,0h-.08l-.38.09h-.06a4,4,0,0,0-.46.17l-.08,0a3.54,3.54,0,0,0-.47.27l-.09.06a3.28,3.28,0,0,0-.45.39l-.08.08a3.36,3.36,0,0,0-.4.55l0,.08a4,4,0,0,0-.32.75h0c-.2.67-.45,1.53-.71,2.45-.8,2.82-1.7,6.17-1.7,6.17a2.17,2.17,0,0,0,.11.43A3.2,3.2,0,0,0,49.19,63a5.58,5.58,0,0,0,2.48.5h19l-.12.34-2,5.48H44A7.15,7.15,0,0,1,39.7,67.4ZM67.4,81.12A25.71,25.71,0,0,1,47.45,72H48A25,25,0,0,0,67.4,80.73,25.52,25.52,0,0,0,86.83,72h.53A25.79,25.79,0,0,1,67.4,81.12Zm2.09-11.79,2.11-5.82H95.91l-2.43,5.82Zm38.75-.27.54-3.8c.15-1,.35-2.26.6-3.6h0c-.49,1.19-1,2.46-1.54,3.47L106,68.91h-1.49l-.32-3.73c-.08-1-.15-2.28-.2-3.51h0c-.25,1.22-.52,2.61-.74,3.6l-.89,3.8h-1.75l2.25-9.21h2.56l.28,3.51c.05.86.15,1.9.16,2.93h.05a30.63,30.63,0,0,1,1.21-2.94l1.66-3.5h2.59l-1.21,9.21Zm8.66,0-.19-2.39h-2.58l-1,2.39h-2l4.37-9.21h2.46l1,9.21Zm1.79-13.94h-1.95l2.49-10.24h2.85l.31,3.91c.06,1,.16,2.11.18,3.25h.06A34.09,34.09,0,0,1,124,48.77l1.84-3.89h2.88l-1.34,10.24h-2.07l.6-4.23c.16-1.11.38-2.51.66-4h0c-.55,1.32-1.17,2.74-1.71,3.86l-2,4.2h-1.65l-.35-4.15c-.09-1.12-.16-2.54-.22-3.91h0c-.28,1.35-.58,2.9-.83,4Zm3.06,13.94h-1.91l1.7-9.21h1.91Zm8.86,0h-2l-1.25-3.68a31.31,31.31,0,0,1-.88-3.21h0c-.09.9-.31,2.2-.57,3.66l-.6,3.23h-1.78l1.7-9.21h2.25l1.18,3.51c.36,1.18.6,2.13.81,3.14h0a24.91,24.91,0,0,1,.41-3.31l.61-3.35h1.79Zm5.29,0H134l1.38-7.49H133l.33-1.72H140l-.32,1.72h-2.39Zm9.61-5.58-.32,1.65H142l-.41,2.24h3.58l-.31,1.68h-5.5l1.7-9.21h5.3L146,61.52h-3.38l-.37,2Zm5.84,5.58-1.25-3.68a31.42,31.42,0,0,1-.88-3.21h0c-.09.9-.31,2.2-.57,3.66l-.6,3.23h-1.78l1.7-9.21h2.25l1.18,3.51c.36,1.18.6,2.13.81,3.14h0a25,25,0,0,1,.41-3.31l.61-3.35H155l-1.7,9.21Zm9,0-.19-2.39h-2.58l-1,2.39h-2l4.37-9.21h2.46l1,9.21Zm2.27-13.94h-2.08l1.84-10.06a11.49,11.49,0,0,1,2.6-.26,4.54,4.54,0,0,1,2.64.68,2.48,2.48,0,0,1,1.08,2.17,3.6,3.6,0,0,1-1.34,2.89,5.11,5.11,0,0,1-3.19,1c-.35,0-.65,0-.87-.06Zm7.8,13.94h-2l-1.25-3.68a31.42,31.42,0,0,1-.88-3.21h0c-.09.9-.31,2.2-.57,3.66l-.6,3.23h-1.78l1.7-9.21h2.25l1.18,3.51c.36,1.18.6,2.13.81,3.14h0a25,25,0,0,1,.41-3.31l.61-3.35h1.79Zm6.6-1.54a4.48,4.48,0,0,0,1.7-.3l.16,1.59a5.9,5.9,0,0,1-2.35.4,3.67,3.67,0,0,1-4-3.91,5.4,5.4,0,0,1,2.26-4.61,5.53,5.53,0,0,1,3.28-1,4.51,4.51,0,0,1,2,.38l-.53,1.6a3.82,3.82,0,0,0-1.62-.3,3.14,3.14,0,0,0-2,.71,3.82,3.82,0,0,0-1.24,3A2.21,2.21,0,0,0,177,67.51Zm9.58-6h-3.38l-.37,2H186l-.32,1.65h-3.18l-.41,2.24h3.58l-.31,1.68h-5.5l1.7-9.21h5.3Zm7.41,6a2.48,2.48,0,0,0,1-.16l.36-1.94h-1.4l.31-1.57h3.26l-.9,4.83a9.32,9.32,0,0,1-2.9.52,4.23,4.23,0,0,1-3-1,3.76,3.76,0,0,1-1.13-2.84,5.49,5.49,0,0,1,1.82-4.21,6.06,6.06,0,0,1,4-1.34,5.84,5.84,0,0,1,2.37.41l-.57,1.67a4.67,4.67,0,0,0-1.9-.38,3.59,3.59,0,0,0-2.27.74,3.8,3.8,0,0,0-1.3,3A2.1,2.1,0,0,0,194,67.48Zm10.4-1.05a18,18,0,0,0,.35,2.63h-2a14.15,14.15,0,0,1-.25-2.17c-.09-1.12-.46-1.46-1.22-1.46h-.58L200,69.06h-1.89L199.82,60a10.77,10.77,0,0,1,2.39-.23,4.39,4.39,0,0,1,2.35.53,2,2,0,0,1,1,1.79,2.69,2.69,0,0,1-2,2.61v0C204.06,65,204.3,65.6,204.38,66.43Zm8.82,1.45a4.57,4.57,0,0,1-3.3,1.33h0a3.53,3.53,0,0,1-3.63-3.84A6.24,6.24,0,0,1,207.91,61a4.62,4.62,0,0,1,3.27-1.31c2.37,0,3.61,1.64,3.61,3.84A6.24,6.24,0,0,1,213.2,67.88Zm1.49-12.76h-2l1.89-10.24h2.49l1.31,3.91c.4,1.31.66,2.37.9,3.5h0a27.92,27.92,0,0,1,.46-3.68l.68-3.72h2l-1.89,10.24h-2.2L217,51a34.9,34.9,0,0,1-1-3.57h0c-.1,1-.34,2.45-.63,4.07Zm8.26,10c-.52,2.79-1.7,4.13-4.15,4.13a2.67,2.67,0,0,1-3-2.94A7.48,7.48,0,0,1,216,65l.94-5.14h1.91l-1,5.3a5.3,5.3,0,0,0-.11,1.08,1.23,1.23,0,0,0,1.3,1.33c1,0,1.66-.68,2-2.39l1-5.32h1.91Zm7.13-.14a4.61,4.61,0,0,1-2.87.86c-.32,0-.58,0-.78-.05l-.61,3.31h-1.87L225.61,60a10.35,10.35,0,0,1,2.34-.23,4.09,4.09,0,0,1,2.38.62,2.23,2.23,0,0,1,1,2A3.24,3.24,0,0,1,230.08,64.94Z" transform="translate(-35.33 -27.66)"/><path class="cls-1" d="M67.47,54.62H66.8l-.64,2h.76q1.74,0,1.88-1T67.47,54.62Z" transform="translate(-35.33 -27.66)"/></svg>