<svg id="Layer_1" data-name="Layer 1" xmlns="http://www.w3.org/2000/svg" viewBox="0 0 215.53 42.5"><defs><style>.cls-1{fill:#fff;}</style></defs><title>deery-white</title><path class="cls-1" d="M232.5,65a2,2,0,0,1,.4-1.4,1.83,1.83,0,0,1,1.34-.41,2.38,2.38,0,0,1,.9.16,1.49,1.49,0,0,1,.63.47,1.28,1.28,0,0,1,.63-.61,2.56,2.56,0,0,1,1.09-.21,2.21,2.21,0,0,1,1.5.44,1.67,1.67,0,0,1,.5,1.32v4h-7Zm1.63,2h1V65.75a.84.84,0,0,0-.11-.52.51.51,0,0,0-.39-.12.54.54,0,0,0-.39.11.82.82,0,0,0-.11.53Zm3.61,0V65.68a.91.91,0,0,0-.12-.58.82.82,0,0,0-.9,0,.9.9,0,0,0-.13.57V67Z" transform="translate(-31.72 -36.06)"/><path class="cls-1" d="M235.52,60.67V59.61a.9.9,0,0,0-.15-.59.61.61,0,0,0-.49-.17.59.59,0,0,0-.48.16,1.07,1.07,0,0,0-.13.64v1Zm-3-1.73a4.5,4.5,0,0,1,.09-1,1.29,1.29,0,0,1,.27-.58,1.44,1.44,0,0,1,.62-.4,3,3,0,0,1,2,.07,1.4,1.4,0,0,1,.68.57,1.09,1.09,0,0,1,.48-.44,3.05,3.05,0,0,1,1-.15h.22c.91,0,1.42-.11,1.52-.25h.11v2a2.7,2.7,0,0,1-.86.1l-.58,0a.88.88,0,0,0-.54.17.63.63,0,0,0-.16.48v1.09h2.13v1.85h-7Z" transform="translate(-31.72 -36.06)"/><path class="cls-1" d="M239.48,56.76l-7-2V52.41l7-1.9v2l-.68.16v2l.68.17Zm-2.41-2.55V53l-2.46.57Z" transform="translate(-31.72 -36.06)"/><polygon class="cls-1" points="207.76 14.12 200.77 14.12 200.77 11.96 204.8 10.14 200.77 10.14 200.77 8.38 207.76 8.38 207.76 10.43 203.67 12.4 207.76 12.4 207.76 14.12"/><path class="cls-1" d="M232.49,43.69v-3a2.78,2.78,0,0,1,.89-2.23,4.82,4.82,0,0,1,5.21,0,2.78,2.78,0,0,1,.89,2.24v3Zm1.73-1.83h3.41V41a1.2,1.2,0,0,0-.4-1,2.16,2.16,0,0,0-1.31-.31,2.14,2.14,0,0,0-1.3.31,1.21,1.21,0,0,0-.4,1Z" transform="translate(-31.72 -36.06)"/><path class="cls-1" d="M242.94,39.29h.72a1.15,1.15,0,0,0,.7-.15.53.53,0,0,0,.1-.7.53.53,0,0,0-.25-.19,1.84,1.84,0,0,0-.6-.06h-.67Zm-.59,2.07V37.69h1.26a3.08,3.08,0,0,1,.94.1.91.91,0,0,1,.46.35,1,1,0,0,1,.17.54,1,1,0,0,1-.29.7,1.14,1.14,0,0,1-.76.34,1,1,0,0,1,.31.19,4.26,4.26,0,0,1,.54.73l.45.72h-.72l-.33-.58a3,3,0,0,0-.62-.85.76.76,0,0,0-.48-.13h-.35v1.56Zm1.5-4.73a2.9,2.9,0,0,0-1.4.37A2.64,2.64,0,0,0,241.38,38a2.84,2.84,0,0,0,0,2.84,2.67,2.67,0,0,0,1.06,1.05,2.84,2.84,0,0,0,2.83,0,2.66,2.66,0,0,0,1.05-1.05,2.86,2.86,0,0,0,0-2.84A2.62,2.62,0,0,0,245.24,37a2.91,2.91,0,0,0-1.4-.37m0-.57a3.51,3.51,0,0,1,1.68.44,3.14,3.14,0,0,1,1.28,1.26,3.42,3.42,0,0,1,0,3.41,3.16,3.16,0,0,1-1.26,1.26,3.42,3.42,0,0,1-3.4,0,3.17,3.17,0,0,1-1.26-1.26,3.42,3.42,0,0,1,0-3.41,3.15,3.15,0,0,1,1.28-1.26,3.51,3.51,0,0,1,1.68-.44" transform="translate(-31.72 -36.06)"/><path class="cls-1" d="M45,61.68h6a18.66,18.66,0,0,0,9.61-2.31q3.91-2.31,3.91-6.29c0-2.28-1.16-4.23-3.48-5.88s-5.64-2.42-10-2.42H45ZM31.72,68.82V37.57H51.61q12.94,0,19.39,4.67T77.45,53q0,7-6.9,11.39T52.59,68.82Z" transform="translate(-31.72 -36.06)"/><polygon class="cls-1" points="78.49 25.3 78.49 32.76 49.38 32.76 49.38 1.51 78.49 1.51 78.49 8.72 62.27 8.72 62.27 13.26 77.9 13.26 77.9 20.2 62.27 20.2 62.27 25.3 78.49 25.3"/><polygon class="cls-1" points="112.34 25.3 112.34 32.76 83.23 32.76 83.23 1.51 112.34 1.51 112.34 8.72 96.12 8.72 96.12 13.26 111.75 13.26 111.75 20.2 96.12 20.2 96.12 25.3 112.34 25.3"/><path class="cls-1" d="M187,68.82h-15L161.49,58.07V68.82H148.42V37.6h22.43c20,0,21.26,18.51,4.24,20.47ZM161.49,52h6.29a9.24,9.24,0,0,0,4.46-.93,3,3,0,0,0,1.68-2.77c0-2.47-1.88-3.54-5.64-3.54H161.5Z" transform="translate(-31.72 -36.06)"/><polygon class="cls-1" points="197.81 1.54 182.43 21.05 182.43 32.75 169.22 32.76 169.22 21.18 154.25 1.54 169.26 1.54 176 12.62 182.46 1.54 197.81 1.54"/><path class="cls-1" d="M33.39,75.61h2a2.75,2.75,0,0,0,1.4-.26.82.82,0,0,0,.41-.73.8.8,0,0,0-.24-.59,1.21,1.21,0,0,0-.64-.32,6.09,6.09,0,0,0-.95,0h-2Zm-1,2.86V73h2.89a9.82,9.82,0,0,1,1.17.05,2.9,2.9,0,0,1,.95.26,1.59,1.59,0,0,1,.61.53,1.29,1.29,0,0,1,.23.74,1.45,1.45,0,0,1-.62,1.18,3.85,3.85,0,0,1-2.25.48h-2v2.22Z" transform="translate(-31.72 -36.06)"/><path class="cls-1" d="M40.89,76.23h2.6l-.8-1.51a12.28,12.28,0,0,1-.54-1.13,5.48,5.48,0,0,1-.41,1Zm-2.21,2.24L41.62,73h1.09l3.14,5.46H44.7l-.9-1.65H40.6l-.84,1.65Z" transform="translate(-31.72 -36.06)"/><path class="cls-1" d="M48.86,78.47l-3-5.46H47l2,4c.16.32.29.62.4.89A9.81,9.81,0,0,1,49.8,77l2.07-4h1l-3,5.46Z" transform="translate(-31.72 -36.06)"/><polygon class="cls-1" points="22.11 42.41 22.11 36.95 27.66 36.95 27.66 37.6 23.13 37.6 23.13 39.27 27.38 39.27 27.38 39.91 23.13 39.91 23.13 41.77 27.84 41.77 27.84 42.41 22.11 42.41"/><path class="cls-1" d="M60.94,78.47V73h1.53l1.81,3.87c.17.36.29.63.37.81.09-.2.22-.49.41-.88L66.89,73h1.37v5.46h-1V73.9l-2.23,4.57h-.92l-2.22-4.65v4.65Z" transform="translate(-31.72 -36.06)"/><polygon class="cls-1" points="38.19 42.41 38.19 36.95 43.74 36.95 43.74 37.6 39.21 37.6 39.21 39.27 43.45 39.27 43.45 39.91 39.21 39.91 39.21 41.77 43.92 41.77 43.92 42.41 38.19 42.41"/><polygon class="cls-1" points="45.31 42.41 45.31 36.95 46.35 36.95 50.38 41.24 50.38 36.95 51.35 36.95 51.35 42.41 50.31 42.41 46.28 38.12 46.28 42.41 45.31 42.41"/><polygon class="cls-1" points="55.01 42.41 55.01 37.6 52.49 37.6 52.49 36.95 58.57 36.95 58.57 37.6 56.03 37.6 56.03 42.41 55.01 42.41"/><path class="cls-1" d="M95.33,75.61h2a2.75,2.75,0,0,0,1.4-.26.82.82,0,0,0,.41-.73.8.8,0,0,0-.24-.59,1.21,1.21,0,0,0-.64-.32,6.09,6.09,0,0,0-.95,0h-2Zm-1,2.86V73H97.2a9.82,9.82,0,0,1,1.17.05,2.9,2.9,0,0,1,.95.26,1.59,1.59,0,0,1,.61.53,1.29,1.29,0,0,1,.23.74,1.45,1.45,0,0,1-.62,1.18,3.85,3.85,0,0,1-2.25.48h-2v2.22Z" transform="translate(-31.72 -36.06)"/><path class="cls-1" d="M102.49,75.42h2.18a4.46,4.46,0,0,0,1.09-.1,1.19,1.19,0,0,0,.6-.33.72.72,0,0,0,.2-.49.73.73,0,0,0-.39-.64,2.41,2.41,0,0,0-1.25-.25h-2.43Zm-1,3V73h3.4a6.23,6.23,0,0,1,1.56.15,1.69,1.69,0,0,1,.85.52,1.24,1.24,0,0,1,.32.82,1.19,1.19,0,0,1-.53,1,3.27,3.27,0,0,1-1.63.51,2.85,2.85,0,0,1,.61.27,4.47,4.47,0,0,1,.84.73l1.33,1.49H107l-1-1.14c-.3-.33-.54-.58-.73-.75a2.08,2.08,0,0,0-.51-.37,2,2,0,0,0-.46-.15,4.63,4.63,0,0,0-.57,0h-1.18v2.42Z" transform="translate(-31.72 -36.06)"/><polygon class="cls-1" points="77.5 42.41 77.5 36.95 83.04 36.95 83.04 37.6 78.51 37.6 78.51 39.27 82.76 39.27 82.76 39.91 78.51 39.91 78.51 41.77 83.22 41.77 83.22 42.41 77.5 42.41"/><path class="cls-1" d="M116,76.72l1-.06a1.25,1.25,0,0,0,.32.67,1.77,1.77,0,0,0,.77.42,4,4,0,0,0,1.18.16,3.88,3.88,0,0,0,1-.12,1.52,1.52,0,0,0,.66-.34.65.65,0,0,0,.22-.47.59.59,0,0,0-.21-.45,1.68,1.68,0,0,0-.69-.32c-.21-.06-.66-.15-1.37-.27a9,9,0,0,1-1.48-.34,2,2,0,0,1-.82-.51,1,1,0,0,1-.27-.68,1.12,1.12,0,0,1,.33-.77,2.07,2.07,0,0,1,1-.55,5,5,0,0,1,1.41-.18,5.24,5.24,0,0,1,1.51.2,2.18,2.18,0,0,1,1,.57,1.37,1.37,0,0,1,.38.86l-1,.05a1,1,0,0,0-.53-.78,2.7,2.7,0,0,0-1.34-.26,2.84,2.84,0,0,0-1.34.24.69.69,0,0,0-.42.58.56.56,0,0,0,.3.48,5.13,5.13,0,0,0,1.53.39,13.54,13.54,0,0,1,1.7.35,2.38,2.38,0,0,1,1,.56,1.1,1.1,0,0,1,.32.78,1.2,1.2,0,0,1-.35.82,2.3,2.3,0,0,1-1,.6,4.76,4.76,0,0,1-1.48.21,6,6,0,0,1-1.74-.22,2.43,2.43,0,0,1-1.11-.65,1.49,1.49,0,0,1-.42-1" transform="translate(-31.72 -36.06)"/><polygon class="cls-1" points="91.8 42.41 91.8 36.95 97.34 36.95 97.34 37.6 92.81 37.6 92.81 39.27 97.06 39.27 97.06 39.91 92.81 39.91 92.81 41.77 97.52 41.77 97.52 42.41 91.8 42.41"/><path class="cls-1" d="M131.68,75.42h2.18a4.46,4.46,0,0,0,1.09-.1,1.19,1.19,0,0,0,.6-.33.72.72,0,0,0,.2-.49.73.73,0,0,0-.39-.64,2.41,2.41,0,0,0-1.25-.25h-2.43Zm-1,3V73h3.4a6.23,6.23,0,0,1,1.56.15,1.69,1.69,0,0,1,.85.52,1.24,1.24,0,0,1,.32.82,1.19,1.19,0,0,1-.53,1,3.27,3.27,0,0,1-1.63.51,2.85,2.85,0,0,1,.61.27,4.47,4.47,0,0,1,.84.73l1.33,1.49h-1.28l-1-1.14c-.3-.33-.54-.58-.73-.75a2.08,2.08,0,0,0-.51-.37,2,2,0,0,0-.46-.15,4.63,4.63,0,0,0-.57,0h-1.18v2.42Z" transform="translate(-31.72 -36.06)"/><path class="cls-1" d="M140.58,78.47l-3-5.46h1.1l2,4c.16.32.29.62.4.89a9.81,9.81,0,0,1,.41-.89l2.07-4h1l-3,5.46Z" transform="translate(-31.72 -36.06)"/><path class="cls-1" d="M146.91,76.23h2.6l-.8-1.51a12.28,12.28,0,0,1-.54-1.13,5.48,5.48,0,0,1-.41,1Zm-2.21,2.24L147.64,73h1.09l3.14,5.46h-1.16l-.9-1.65h-3.21l-.84,1.65Z" transform="translate(-31.72 -36.06)"/><polygon class="cls-1" points="122.92 42.41 122.92 37.6 120.39 37.6 120.39 36.95 126.47 36.95 126.47 37.6 123.93 37.6 123.93 42.41 122.92 42.41"/><rect class="cls-1" x="127.68" y="36.95" width="1.01" height="5.46"/><path class="cls-1" d="M163,75.82a1.85,1.85,0,0,0,.75,1.55,3.38,3.38,0,0,0,3.76,0,1.94,1.94,0,0,0,.74-1.63,2.12,2.12,0,0,0-.32-1.16,2.07,2.07,0,0,0-.93-.77,3.33,3.33,0,0,0-1.37-.27,3.22,3.22,0,0,0-1.86.53,2,2,0,0,0-.78,1.76m-1,0a2.51,2.51,0,0,1,1-2.13,4.3,4.3,0,0,1,2.65-.77,4.89,4.89,0,0,1,1.92.36,2.92,2.92,0,0,1,1.3,1,2.51,2.51,0,0,1,.45,1.46,2.48,2.48,0,0,1-.47,1.49,2.88,2.88,0,0,1-1.33,1,5.07,5.07,0,0,1-1.86.34,4.77,4.77,0,0,1-1.94-.37,2.93,2.93,0,0,1-1.29-1,2.37,2.37,0,0,1-.44-1.36" transform="translate(-31.72 -36.06)"/><polygon class="cls-1" points="138.81 42.41 138.81 36.95 139.86 36.95 143.89 41.24 143.89 36.95 144.86 36.95 144.86 42.41 143.82 42.41 139.79 38.12 139.79 42.41 138.81 42.41"/><path class="cls-1" d="M182.28,75.61h2a2.75,2.75,0,0,0,1.4-.26.82.82,0,0,0,.41-.73.8.8,0,0,0-.24-.59,1.21,1.21,0,0,0-.64-.32,6.09,6.09,0,0,0-.95,0h-2Zm-1,2.86V73h2.89a9.82,9.82,0,0,1,1.17.05,2.9,2.9,0,0,1,.95.26,1.59,1.59,0,0,1,.61.53,1.28,1.28,0,0,1,.23.74,1.45,1.45,0,0,1-.62,1.18,3.85,3.85,0,0,1-2.25.48h-2v2.22Z" transform="translate(-31.72 -36.06)"/><path class="cls-1" d="M189.45,75.42h2.18a4.46,4.46,0,0,0,1.09-.1,1.19,1.19,0,0,0,.6-.33.72.72,0,0,0,.2-.49.73.73,0,0,0-.39-.64,2.41,2.41,0,0,0-1.25-.25h-2.43Zm-1,3V73h3.4a6.23,6.23,0,0,1,1.56.15,1.69,1.69,0,0,1,.85.52,1.24,1.24,0,0,1,.32.82,1.19,1.19,0,0,1-.53,1,3.27,3.27,0,0,1-1.63.51,2.85,2.85,0,0,1,.61.27,4.47,4.47,0,0,1,.84.73l1.33,1.49h-1.28l-1-1.14c-.3-.33-.54-.58-.73-.75a2.08,2.08,0,0,0-.51-.37,2,2,0,0,0-.46-.15,4.63,4.63,0,0,0-.57,0h-1.18v2.42Z" transform="translate(-31.72 -36.06)"/><path class="cls-1" d="M196.9,75.82a1.85,1.85,0,0,0,.75,1.55,3.38,3.38,0,0,0,3.76,0,1.94,1.94,0,0,0,.74-1.63,2.12,2.12,0,0,0-.32-1.16,2.07,2.07,0,0,0-.93-.77,3.33,3.33,0,0,0-1.37-.27,3.22,3.22,0,0,0-1.86.53,2,2,0,0,0-.78,1.76m-1,0a2.51,2.51,0,0,1,1-2.13,4.3,4.3,0,0,1,2.65-.77,4.89,4.89,0,0,1,1.92.36,2.92,2.92,0,0,1,1.3,1,2.51,2.51,0,0,1,.45,1.46,2.48,2.48,0,0,1-.47,1.49,2.88,2.88,0,0,1-1.33,1,5.07,5.07,0,0,1-1.86.34,4.77,4.77,0,0,1-1.94-.37,2.93,2.93,0,0,1-1.29-1,2.37,2.37,0,0,1-.44-1.36" transform="translate(-31.72 -36.06)"/><path class="cls-1" d="M205.51,77.83h1.64a5.5,5.5,0,0,0,1.19-.1,2,2,0,0,0,.69-.28,1.7,1.7,0,0,0,.56-.69,2.49,2.49,0,0,0,.2-1.05,2,2,0,0,0-.39-1.31,1.92,1.92,0,0,0-1-.62,5.45,5.45,0,0,0-1.31-.11h-1.61Zm-1,.64V73h2.64a8.93,8.93,0,0,1,1.37.08,3.13,3.13,0,0,1,1.13.39,2.39,2.39,0,0,1,.91.93,2.7,2.7,0,0,1,.3,1.3,2.76,2.76,0,0,1-.21,1.1,2.41,2.41,0,0,1-.52.8,2.52,2.52,0,0,1-.7.49,3.52,3.52,0,0,1-.91.27,7.22,7.22,0,0,1-1.23.09Z" transform="translate(-31.72 -36.06)"/><path class="cls-1" d="M217.27,73h1v3.15a2.75,2.75,0,0,1-.26,1.31,1.89,1.89,0,0,1-.94.79,4.44,4.44,0,0,1-1.79.3,5,5,0,0,1-1.76-.26,1.84,1.84,0,0,1-1-.77,2.7,2.7,0,0,1-.29-1.37V73h1v3.15a2.25,2.25,0,0,0,.19,1,1.21,1.21,0,0,0,.64.52,3,3,0,0,0,1.11.18,2.7,2.7,0,0,0,1.6-.36,1.67,1.67,0,0,0,.48-1.39Z" transform="translate(-31.72 -36.06)"/><path class="cls-1" d="M225.45,76.56l1,.18a2.48,2.48,0,0,1-1.15,1.36,4.09,4.09,0,0,1-2,.47,4.85,4.85,0,0,1-2-.36,2.61,2.61,0,0,1-1.18-1,2.82,2.82,0,0,1-.41-1.46,2.47,2.47,0,0,1,.46-1.49,2.82,2.82,0,0,1,1.3-1,5.06,5.06,0,0,1,1.86-.33,4.08,4.08,0,0,1,1.94.42,2.28,2.28,0,0,1,1.09,1.17l-1,.17a1.76,1.76,0,0,0-.78-.87,2.68,2.68,0,0,0-1.28-.27,3.25,3.25,0,0,0-1.48.3,1.76,1.76,0,0,0-.83.81,2.42,2.42,0,0,0-.24,1,2.5,2.5,0,0,0,.28,1.22,1.77,1.77,0,0,0,.89.78,3.28,3.28,0,0,0,1.3.26,2.79,2.79,0,0,0,1.44-.35,1.75,1.75,0,0,0,.8-1" transform="translate(-31.72 -36.06)"/><polygon class="cls-1" points="197.94 42.41 197.94 37.6 195.42 37.6 195.42 36.95 201.5 36.95 201.5 37.6 198.96 37.6 198.96 42.41 197.94 42.41"/><path class="cls-1" d="M233.92,76.72l1-.06a1.25,1.25,0,0,0,.32.67,1.77,1.77,0,0,0,.77.42,4,4,0,0,0,1.18.16,3.88,3.88,0,0,0,1-.12,1.52,1.52,0,0,0,.66-.34A.65.65,0,0,0,239,77a.59.59,0,0,0-.21-.45,1.68,1.68,0,0,0-.69-.32c-.21-.06-.66-.15-1.37-.27a9,9,0,0,1-1.48-.34,2,2,0,0,1-.82-.51,1,1,0,0,1-.27-.68,1.12,1.12,0,0,1,.33-.77,2.07,2.07,0,0,1,1-.55,5,5,0,0,1,1.41-.18,5.24,5.24,0,0,1,1.51.2,2.18,2.18,0,0,1,1,.57,1.37,1.37,0,0,1,.38.86l-1,.05a1,1,0,0,0-.53-.78,2.7,2.7,0,0,0-1.34-.26,2.84,2.84,0,0,0-1.34.24.69.69,0,0,0-.42.58.56.56,0,0,0,.3.48,5.13,5.13,0,0,0,1.53.39,13.54,13.54,0,0,1,1.7.35,2.38,2.38,0,0,1,1,.56,1.1,1.1,0,0,1,.32.78,1.2,1.2,0,0,1-.35.82,2.3,2.3,0,0,1-1,.6,4.76,4.76,0,0,1-1.48.21,6,6,0,0,1-1.74-.22,2.43,2.43,0,0,1-1.11-.65,1.49,1.49,0,0,1-.42-1" transform="translate(-31.72 -36.06)"/></svg>