<svg id="Layer_1" data-name="Layer 1" xmlns="http://www.w3.org/2000/svg" viewBox="0 0 139.77 65.85"><defs><style>.cls-1{fill:#fff;}</style></defs><title>etnyre-white</title><path class="cls-1" d="M161.84,46.92a20.26,20.26,0,0,0-1.87-5q-.5-.93-1.09-1.82a25.28,25.28,0,0,0-4.29-4.86l-.85-.73c-4.34-3.58-10-6.32-16.26-8.4-11.67-3.88-25.39-5.49-36.34-6.11q-5.79-.33-11.58-.18-1.93.05-3.85.16-3.85.21-7.68.64-1.92.22-3.82.49-3.82.54-7.6,1.32-5.68,1.16-11.26,2.85a122.17,122.17,0,0,0-14.64,5.48A37.79,37.79,0,0,0,33.52,35q-1,.73-1.89,1.52A33.22,33.22,0,0,0,29,39q-.82.88-1.55,1.81a26.21,26.21,0,0,0-2,2.9,22.86,22.86,0,0,0-1.07,2,20.59,20.59,0,0,0-.84,2.12,17.85,17.85,0,0,0-.94,5.58q0,.58,0,1.16A17.13,17.13,0,0,0,23,57a18.12,18.12,0,0,0,.66,2.38q.21.6.47,1.2a27.86,27.86,0,0,0,5.47,8.21A32.12,32.12,0,0,0,33.16,72a42.69,42.69,0,0,0,8.47,5q1.14.52,2.31,1a77.18,77.18,0,0,0,9.63,3.1q1.22.31,2.45.6,3.12.71,6.2,1.29,4.63.87,9.21,1.46t9.15.88q1.52.1,3,.16,4.57.19,9.16.08,3.06-.08,6.15-.29t6.2-.57c2.1-.24,4.53-.55,7.17-.95,2-.3,4.08-.66,6.26-1.07,1.45-.28,2.93-.58,4.44-.91s3-.69,4.56-1.09l2.3-.61a84.33,84.33,0,0,0,16.45-6.27c1-.54,2-1.09,3-1.68a38.7,38.7,0,0,0,5.19-3.76,28.23,28.23,0,0,0,2.86-2.86,19.64,19.64,0,0,0,4.83-10.42A23.13,23.13,0,0,0,161.84,46.92Zm-2.43,8.18c-.69,5.6-5.93,11-10.79,13.84C132.92,78.21,119.16,80.3,104,82h0a131.52,131.52,0,0,1-44.41-2.56c-11.27-2.52-26.71-6.63-32.58-19C21.44,48.71,31.14,38,45.24,32.1a124.72,124.72,0,0,1,55.07-9h0c16.64,1,37.58,2.64,51.17,13.58C156.8,40.92,160.52,46.13,159.41,55.1Z" transform="translate(-22.62 -19.77)"/><path class="cls-1" d="M147.8,37.67c-12.87-9.23-31.94-11-49.77-12a121.3,121.3,0,0,0-52,8.66C32.77,39.69,23.34,48.89,28.86,60.2,34,70.67,48.52,74.92,59.69,77.51A123.49,123.49,0,0,0,101.38,80c14.41-1.51,28.18-3.13,43.32-11.84C150.14,65,155.56,60,156.09,54.89,156.93,46.84,153.46,41.73,147.8,37.67Zm-10.1,4.79a4.16,4.16,0,0,1,4.41,3.42h0a7,7,0,0,1-4.66,6.76,7,7,0,0,0,4.65-6.75h0a4.16,4.16,0,0,0-4.41-3.42,9.36,9.36,0,0,0-2.88.76A9.36,9.36,0,0,1,137.7,42.46Zm-8.77,1.34h0l.36.15.14.29L128.28,48l-.24.17h0l.23-.16,1.15-3.73-.14-.29-.36-.15h0c-1-.4-2.55.1-3.85.72C126.37,43.9,127.92,43.39,128.93,43.8ZM118.43,45l4.68-.52.26.29-.19.79h0l.19-.79-.26-.29-4.67.52Zm-17.22,2,4.65-.5.24.33a52.31,52.31,0,0,0-3.4,12.25c0,.11,0,.13.14.13a1.72,1.72,0,0,0,.63-.2h0l.3-.14-.31.14h0a1.72,1.72,0,0,1-.63.2c-.14,0-.15,0-.14-.13a52.31,52.31,0,0,1,3.4-12.25l-.24-.33-4.65.5ZM92.55,60.61h0c-.25.14-.31-.13-.59-.45-.14-2,1.28-4,2.34-6.12S96,50,93.74,48.42h0c-1.08-.72-2.58-.41-4.06.29,1.49-.7,3-1,4.07-.29h0C96,49.95,95.33,52,94.3,54S91.82,58.19,92,60.16C92.24,60.47,92.31,60.74,92.55,60.61ZM71.72,42.89l5.34-.57.25.31-1.17,3.71,18.67-2,.25.3-.76,2.5-.2.17h0l.2-.16.76-2.5-.25-.3-18.67,2,1.17-3.71-.25-.31-5.33.57Zm-3.54-4.34h0C69.86,39.8,69.67,44,69.67,44l-.21.23h0l.21-.22s.19-4.17-1.48-5.42h0c-4.41-3.22-9.54-2-14,0C58.64,36.57,63.78,35.32,68.19,38.54Zm2,8.46h0l-7,.78h0ZM46.69,68.74c-4.72-2.45-5.67-9.06-1.89-13a16.73,16.73,0,0,1,6.23-4,5.47,5.47,0,0,0-.87-1.13c-1-1-2.2-1.84-2.34-3.4q0-.3,0-.6a7.78,7.78,0,0,1,3.14-6,8.42,8.42,0,0,1,1.43-.91c4.91-2.45,10.77-4.53,15.68-.94C69.55,39.87,69.42,44,69.42,44l-4.85.57s.82-4.47-1.83-5.22c-3.19-.71-5.71.91-7.57,3.29l-.36.49C53.5,45,53.12,48,55.2,49.31c1.7,1.13,6.74.5,6.74.5l-.93,3-1.46,0c-5.48-.19-12.47,4.53-11.14,10.76a5.34,5.34,0,0,0,7.18,3.59c3.59-1.51,4.85-6.48,4.85-6.48l5.42-.5s-.06.37-.07.44C64.07,67.86,53.31,71.95,46.69,68.74ZM49.81,52q.42-.18.86-.33h0Q50.23,51.79,49.81,52Zm5.52-2.87h0c1.58,1.05,6.58.47,6.58.47l.26.3-.93,3-.22.17h0l.21-.16.93-3-.26-.3s-5,.59-6.58-.47h0c-1.9-1.21-1.61-4-.31-5.89a9.57,9.57,0,0,1,3.81-3.32A9.57,9.57,0,0,0,55,43.21C53.72,45.07,53.44,47.9,55.33,49.1Zm-6.7,14.49A5.1,5.1,0,0,0,55.49,67h0a5.1,5.1,0,0,1-6.86-3.42c-.88-4.13,2.05-7.62,5.73-9.33C50.68,56,47.76,59.47,48.64,63.59ZM66,60.75h0s0,.08,0,.12,0,0,0,0c-.81,3.17-3.34,5.73-6.48,7.33C62.63,66.61,65.16,64,66,60.86q0-.32,0-.65L65.82,60l-5.42.5h0l5.42-.5.17.18h0l.07.08S66,60.65,66,60.75Zm5.57,5.79a12.81,12.81,0,0,0,2.26-1.4,26.9,26.9,0,0,0,2.91-2.59h0a26.86,26.86,0,0,1-2.9,2.57A12.78,12.78,0,0,1,71.58,66.53Zm14.3-10.89-5.6,10.25L80.1,66h0l.17-.12,5.6-10.25a1.94,1.94,0,0,0,.33-.48,8.79,8.79,0,0,1,2.26-2.62,2.75,2.75,0,0,1,.5-.29,2.78,2.78,0,0,0-.49.29,8.79,8.79,0,0,0-2.26,2.62A1.94,1.94,0,0,1,85.88,55.65ZM95.6,65.3l.27.24a5.56,5.56,0,0,0,.52,2.3c.51,1,1.54,1.84,3.76,1.06a5.85,5.85,0,0,0,.59-.24,5.85,5.85,0,0,1-.6.25c-2.22.78-3.25-.07-3.76-1.06a5.56,5.56,0,0,1-.52-2.3l-.27-.24-4.78.63h0Zm-3.87-.81a9.87,9.87,0,0,0,2.55-1.8,21.2,21.2,0,0,0,2.34-2.61h0a21.16,21.16,0,0,1-2.33,2.6A9.84,9.84,0,0,1,91.73,64.48Zm.36,5.58c-1-.83-1.26-3.9-1.26-3.9l4.79-.63s-.06,5.22,4.6,3.59c3.75-1.32,4.72-5.66,5.67-9.06-1.89,1.89-4.53,4.72-7.56,2.83a1.38,1.38,0,0,1-.39-.31,7.48,7.48,0,0,1-1.18-3.09s-3.93,5.64-7.07,5.1a2.39,2.39,0,0,1-.62-.19c-4.91-2.45.4-8.62.57-11.82.09-1.67-2.4.27-3.65,2.48-.41.73-.26.35-.26.35L80.07,65.79l-3.9.44,1-4.47s-6.23,7-9.07,4.53c-5.1-4.34,1.7-16.56,1.7-16.56l-7.37.8.8-2.51,7.14-.8,1.37-4.1,5.34-.57L75.8,46.62l19-2.08L94.08,47l-18.8,2.08S70.56,58,71.12,62.89c.19.75,1.89.38,2.64-.19,4-3.4,8.12-13.33,8.12-13.33l3.65-.44h0L84.47,52.7s6.3-6,9.13-4.09c4.16,2.83-2.27,7.48-1.89,11.64.17.16.4.67.78.62a.48.48,0,0,0,.17-.06c4-2.2,8.56-13.52,8.56-13.52l4.65-.49a52.53,52.53,0,0,0-3.42,12.32c-.06.6.69.38,1.11.16,3.35-1.22,7.1-13.06,7.1-13.06l4.79-.57S111.61,61.91,105.69,68C102.3,71.47,96.12,73.27,92.09,70.06Zm10.12-6.75a11.94,11.94,0,0,0,3.2-2.45h0A11.87,11.87,0,0,1,102.21,63.32ZM85.78,49l-.84,3h0l.85-3-.26-.3-3.65.44h0l3.65-.44ZM71.37,62.84c.1.33,1.1.32,1.92-.11-.82.43-1.83.44-1.93.11-.5-4.5,3.55-12.49,4.07-13.5h0C74.91,50.36,70.87,58.34,71.37,62.84Zm34.5,5.31A13,13,0,0,1,102,70.87a13,13,0,0,0,3.9-2.71c3-3.08,5.45-8.71,7.15-13.53s2.67-8.91,2.67-8.91l-.26-.29-4.78.57h0l4.78-.57.26.29s-1,4.08-2.67,8.91S108.87,65.06,105.87,68.15Zm12.62-7.32-.14.52-.2.17h0l.2-.17.14-.52c1.72-6.34,2-10.19,5.12-11.81C120.46,50.65,120.21,54.5,118.49,60.83Zm-.24-.06-.14.52-5,.54,5.29-16.58,4.68-.52-.33,1.37s4.16-2.83,6-2.08l.36.15L128,47.9h-.2C120.24,48.13,120.52,52.42,118.26,60.77Zm14.94.11a4.27,4.27,0,0,1-3.42-1.39A8.14,8.14,0,0,1,128,54.43a9.5,9.5,0,0,1,.15-1.73,14.35,14.35,0,0,1,3.08-6.36,9.88,9.88,0,0,1,4.6-3.23,9.12,9.12,0,0,1,1.91-.4,3.93,3.93,0,0,1,4.16,3.21c.19,4.53-4,7.34-8.5,7.29h-.23s-1.32,3.6,1.27,5.25a1.84,1.84,0,0,0,.47.22c2.32.68,4.24-4.44,4.44-4.82,0,0,3.21-.31,3.21-.31s0,.16-.05.21a9.37,9.37,0,0,1-9.28,7.14Zm1.35-2.65a1.41,1.41,0,0,0,1.55,0,1.41,1.41,0,0,1-1.56,0c-2.08-1.33-1.43-4.1-1.23-4.8h0C133.11,54.14,132.46,56.91,134.54,58.23Zm2.75,1.9a10.18,10.18,0,0,0,5.41-6.32c0-.07.05-.23.05-.23l-.25-.29-1.6.14a9.21,9.21,0,0,0-1.72.23,8.83,8.83,0,0,1,1.73-.23l1.6-.14.25.29s0,.16-.05.23A10.18,10.18,0,0,1,137.29,60.13Zm7.59,5.51a4.42,4.42,0,1,1,4.42-4.42A4.42,4.42,0,0,1,144.88,65.63Z" transform="translate(-22.62 -19.77)"/><path class="cls-1" d="M144.88,57.66a3.53,3.53,0,1,0,3.48,2.82A3.56,3.56,0,0,0,144.88,57.66ZM147,63.41h-1.12c0-.1-.05-.18-.07-.24h0v0a1.94,1.94,0,0,1,0-.38v-.41a1.32,1.32,0,0,0,0-.33.44.44,0,0,0-.12-.2,1,1,0,0,0-.61-.14h-1v1.73h-1v0h0V59h2.38a2.43,2.43,0,0,1,.78.11,1.23,1.23,0,0,1,.47.31,1.34,1.34,0,0,1,.25.37v0h0a1.11,1.11,0,0,1,.09.46,1.22,1.22,0,0,1-.17.62,1,1,0,0,1-.55.42.87.87,0,0,1,.45.33.86.86,0,0,1,.1.28h0a1.94,1.94,0,0,1,0,.42v.3a2.15,2.15,0,0,0,0,.39.37.37,0,0,0,.18.24v0h0Z" transform="translate(-22.62 -19.77)"/><path class="cls-1" d="M145.47,59.8a1,1,0,0,0-.41-.07h-1v1h1a1.17,1.17,0,0,0,.43-.06.4.4,0,0,0,.25-.41.58.58,0,0,0-.06-.25A.39.39,0,0,0,145.47,59.8Z" transform="translate(-22.62 -19.77)"/><path class="cls-1" d="M134.25,51.33h.14c3.08-.12,4.06-3.3,3.87-5.89,0,0,.17-.57-.61-.19-2.46,1.21-3.36,3.54-3.78,5.68C133.86,51,134.26,51.29,134.25,51.33Zm3.5-5.87h0c-2.32,1.14-3.2,3.32-3.62,5.41l.09.09a1,1,0,0,1,.14.14h0a3.48,3.48,0,0,0,1.4-.34,3.48,3.48,0,0,1-1.41.34h0a1,1,0,0,0-.14-.14l-.09-.09C134.55,48.78,135.43,46.61,137.75,45.46Z" transform="translate(-22.62 -19.77)"/></svg>