<svg id="Layer_1" data-name="Layer 1" xmlns="http://www.w3.org/2000/svg" viewBox="0 0 139.97 66.05"><defs><style>.cls-1,.cls-3,.cls-4,.cls-5{fill:none;}.cls-1{stroke:#000;stroke-width:0.2px;}.cls-2{fill:#f3ea28;}.cls-3,.cls-4,.cls-5{stroke:#f3ea28;}.cls-3{stroke-width:0.18px;}.cls-4{stroke-width:0.1px;}.cls-5{stroke-width:0.09px;}.cls-6,.cls-7{fill:#020303;}.cls-7{fill-rule:evenodd;}</style></defs><title>etnyre</title><path d="M41.85,33.42a129,129,0,0,1,60.44-10.76c25,1.42,64.5,8,61,35.1-2.72,21.14-40.23,27.74-57,29.63a143.87,143.87,0,0,1-49.11-3c-13-3-26.44-8.49-31.92-21.13C19.75,50.4,30.51,38.52,41.85,33.42Z" transform="translate(-23.65 -22.34)"/><path class="cls-1" d="M41.85,33.42a129,129,0,0,1,60.44-10.76c25,1.42,64.5,8,61,35.1-2.72,21.14-40.23,27.74-57,29.63a143.87,143.87,0,0,1-49.11-3c-13-3-26.44-8.49-31.92-21.13C19.75,50.4,30.51,38.52,41.85,33.42Z" transform="translate(-23.65 -22.34)"/><path class="cls-2" d="M158.26,57.34c-.54,5.23-6.06,10.28-11.5,13.41-15.19,8.73-29,10.35-43.41,11.87a123.68,123.68,0,0,1-41.77-2.46c-11.14-2.58-25.82-6.85-31-17.44-5.63-11.54,4-20.83,17.27-26.18A121.5,121.5,0,0,1,100,27.88c17.81,1,37,2.75,49.89,12C155.59,44,159.11,49.19,158.26,57.34Zm-5.8-17.87c-13.53-10.89-34.38-12.51-51-13.53a124.47,124.47,0,0,0-55,9C32.37,40.84,22.89,51.46,28.39,63,34.2,75.23,49.51,79.32,60.8,81.85a131.26,131.26,0,0,0,44.33,2.56c15.13-1.7,28.85-3.79,44.51-13,4.83-2.85,10-8.17,10.67-13.66C161.4,48.84,157.74,43.71,152.47,39.47Z" transform="translate(-23.65 -22.34)"/><path class="cls-3" d="M158.26,57.34c-.54,5.23-6.06,10.28-11.5,13.41-15.19,8.73-29,10.35-43.41,11.87a123.68,123.68,0,0,1-41.77-2.46c-11.14-2.58-25.82-6.85-31-17.44-5.63-11.54,4-20.83,17.27-26.18A121.5,121.5,0,0,1,100,27.88c17.81,1,37,2.75,49.89,12C155.59,44,159.11,49.19,158.26,57.34Zm-5.8-17.87c-13.53-10.89-34.38-12.51-51-13.53a124.47,124.47,0,0,0-55,9C32.37,40.84,22.89,51.46,28.39,63,34.2,75.23,49.51,79.32,60.8,81.85a131.26,131.26,0,0,0,44.33,2.56c15.13-1.7,28.85-3.79,44.51-13,4.83-2.85,10-8.17,10.67-13.66C161.4,48.84,157.74,43.71,152.47,39.47Z" transform="translate(-23.65 -22.34)"/><path class="cls-2" d="M146.82,67.2a3.56,3.56,0,1,1,3.56-3.56A3.56,3.56,0,0,1,146.82,67.2Zm0-7.74A4.18,4.18,0,1,0,151,63.64,4.19,4.19,0,0,0,146.82,59.46Z" transform="translate(-23.65 -22.34)"/><path class="cls-4" d="M146.82,67.2a3.56,3.56,0,1,1,3.56-3.56A3.56,3.56,0,0,1,146.82,67.2Zm0-7.74A4.18,4.18,0,1,0,151,63.64,4.19,4.19,0,0,0,146.82,59.45Z" transform="translate(-23.65 -22.34)"/><path class="cls-2" d="M144.91,61.43v4.4h1V64.11h1a1,1,0,0,1,.61.14.75.75,0,0,1,.17.56v.41a1.94,1.94,0,0,0,0,.38c0,.06,0,.14.07.24H149v-.11a.37.37,0,0,1-.18-.25,2.09,2.09,0,0,1,0-.41v-.3a1.33,1.33,0,0,0-.14-.69.88.88,0,0,0-.48-.35,1,1,0,0,0,.58-.43,1.23,1.23,0,0,0,.17-.62,1.11,1.11,0,0,0-.09-.46,1.34,1.34,0,0,0-.25-.37,1.23,1.23,0,0,0-.47-.31,2.42,2.42,0,0,0-.78-.11Zm2.49.79a.45.45,0,0,1,.24.45.4.4,0,0,1-.25.41,1.17,1.17,0,0,1-.43.06h-1v-1h1A1,1,0,0,1,147.41,62.22Z" transform="translate(-23.65 -22.34)"/><path class="cls-5" d="M144.91,61.43v4.4h1V64.11h1a1,1,0,0,1,.61.14.75.75,0,0,1,.17.56v.41a1.94,1.94,0,0,0,0,.38c0,.06,0,.14.07.24H149v-.11a.37.37,0,0,1-.18-.25,2.09,2.09,0,0,1,0-.41v-.3a1.33,1.33,0,0,0-.14-.69.88.88,0,0,0-.48-.35,1,1,0,0,0,.58-.43,1.23,1.23,0,0,0,.17-.62,1.11,1.11,0,0,0-.09-.46,1.34,1.34,0,0,0-.25-.37,1.23,1.23,0,0,0-.47-.31,2.43,2.43,0,0,0-.78-.11Zm2.49.79a.45.45,0,0,1,.24.45.4.4,0,0,1-.25.41,1.17,1.17,0,0,1-.43.06h-1v-1h1A1,1,0,0,1,147.41,62.22Z" transform="translate(-23.65 -22.34)"/><path class="cls-2" d="M73.69,45.57l-1.37,4.1-7.14.79L64.39,53l7.37-.8S65,64.4,70.06,68.74c2.83,2.45,9.07-4.53,9.07-4.53l-1,4.47,3.9-.44,5.67-10.38s-.16.38.26-.35c1.25-2.21,3.74-4.15,3.65-2.48-.17,3.2-5.48,9.37-.57,11.82,3.21,1.51,7.68-4.91,7.68-4.91s.44,2.83,1.57,3.4c3,1.89,5.67-.94,7.56-2.83-.94,3.4-1.92,7.74-5.67,9.06C97.51,73.2,97.57,68,97.57,68l-4.79.63S93,71.68,94,72.51c4,3.21,10.21,1.41,13.6-2.08,5.92-6.08,9.76-22.33,9.76-22.33l-4.79.57s-3.75,11.84-7.1,13.06c-.42.21-1.17.43-1.11-.16a52.53,52.53,0,0,1,3.42-12.32l-4.65.49S98.6,61.07,94.61,63.26c-.47.26-.76-.38-.94-.57-.38-4.15,6-8.81,1.89-11.64-2.83-1.89-9.13,4.09-9.13,4.09l1.07-3.77-3.65.44s-4.16,9.94-8.12,13.33c-.76.57-2.46.94-2.64.19-.57-4.91,4.16-13.78,4.16-13.78L96,49.49l.76-2.5-19,2.08L79,45l-5.34.57" transform="translate(-23.65 -22.34)"/><path class="cls-2" d="M120.4,47.7l-5.29,16.58,5-.54.14-.52c2.27-8.35,2-12.64,9.59-12.88h.2l1.15-3.73-.36-.15c-1.89-.75-6,2.08-6,2.08l.33-1.37-4.68.52" transform="translate(-23.65 -22.34)"/><path class="cls-2" d="M67.8,62.7l-5.42.5s-1.26,5-4.85,6.48a5.34,5.34,0,0,1-7.18-3.59C49,59.87,56,55.15,61.49,55.34l1.46,0,.93-3s-5,.63-6.74-.5c-2.08-1.32-1.7-4.34-.38-6.23,1.89-2.64,4.53-4.53,7.93-3.77,2.64.76,1.83,5.22,1.83,5.22l4.85-.57s.13-4.09-1.38-5.22c-4.91-3.59-10.77-1.51-15.68.94-2.64,1.32-4.91,4.34-4.53,7.55C50,51.75,52,52.51,53,54.21a16.74,16.74,0,0,0-6.23,4c-3.78,4-2.83,10.57,1.89,13,6.61,3.21,17.38-.88,19.08-8.05,0-.07.07-.44.07-.44" transform="translate(-23.65 -22.34)"/><path class="cls-2" d="M139.67,45.15a9.6,9.6,0,0,0-6.52,3.63c-3,3.67-4.77,8.91-1.42,13.16,1.08,1.37,3,1.51,4.72,1.32a10.21,10.21,0,0,0,8-7.08c0-.05.05-.21.05-.21s-3.2.28-3.21.31c-.21.4-2.39,6.2-4.91,4.6s-1.27-5.25-1.27-5.25h.23c4.46,0,8.69-2.76,8.5-7.29a3.93,3.93,0,0,0-4.16-3.21" transform="translate(-23.65 -22.34)"/><path class="cls-6" d="M135.82,53.38c.42-2.14,1.31-4.47,3.78-5.68.78-.39.61.19.61.19.19,2.6-.79,5.78-3.87,5.89h-.14s-.39-.36-.38-.4" transform="translate(-23.65 -22.34)"/><path class="cls-7" d="M160.31,57.74c-.68,5.49-5.84,10.81-10.67,13.66-15.66,9.25-29.38,11.33-44.51,13A131.3,131.3,0,0,1,60.8,81.88C49.51,79.35,34.2,75.26,28.39,63c-5.49-11.55,4-22.18,18.08-28.06a124.49,124.49,0,0,1,55-9c16.66,1,37.51,2.64,51,13.53,5.27,4.24,8.93,9.38,7.84,18.25m-7.69-18.43C139,28.37,118.09,26.75,101.45,25.73h0a124.72,124.72,0,0,0-55.07,9c-14.1,5.88-23.8,16.61-18.2,28.38C34,75.48,49.49,79.58,60.75,82.1a131.52,131.52,0,0,0,44.41,2.56h0c15.14-1.7,28.9-3.79,44.6-13.06,4.86-2.87,10.1-8.24,10.79-13.84C161.66,48.8,157.94,43.59,152.62,39.31Z" transform="translate(-23.65 -22.34)"/><path class="cls-7" d="M158,57.34c-.53,5.1-5.95,10.1-11.39,13.23-15.14,8.71-28.91,10.33-43.32,11.84A123.49,123.49,0,0,1,61.63,80c-11.17-2.59-25.72-6.84-30.82-17.31C25.29,51.34,34.72,42.14,48,36.8a121.3,121.3,0,0,1,52-8.66c17.82,1,36.89,2.75,49.77,12,5.67,4.06,9.13,9.18,8.29,17.22m-8.16-17.41c-12.94-9.27-32.08-11.05-49.89-12a121.52,121.52,0,0,0-52.13,8.67C34.64,41.92,25,51.22,30.59,62.76c5.17,10.59,19.84,14.86,31,17.44a123.73,123.73,0,0,0,41.77,2.46c14.41-1.51,28.22-3.13,43.42-11.87,5.45-3.13,11-8.19,11.5-13.41C159.12,49.22,155.6,44,149.88,39.93Z" transform="translate(-23.65 -22.34)"/><path class="cls-7" d="M142.64,63.66a4.19,4.19,0,1,1,4.19,4.18,4.19,4.19,0,0,1-4.19-4.18m8.61,0a4.42,4.42,0,1,0-4.42,4.42A4.42,4.42,0,0,0,151.25,63.66Z" transform="translate(-23.65 -22.34)"/><path class="cls-6" d="M146.83,67a3.32,3.32,0,1,1,3.33-3.32A3.32,3.32,0,0,1,146.83,67m0-6.88a3.56,3.56,0,1,0,3.56,3.56A3.56,3.56,0,0,0,146.83,60.11Z" transform="translate(-23.65 -22.34)"/><line class="cls-6" x1="125.07" y1="39.38" x2="125.07" y2="39.38"/><path class="cls-7" d="M149,65.87h-1.12c0-.1-.05-.18-.07-.24a2,2,0,0,1,0-.38v-.41a.75.75,0,0,0-.17-.56,1,1,0,0,0-.61-.14h-1v1.73h-1V61.46h2.38a2.43,2.43,0,0,1,.78.11,1.22,1.22,0,0,1,.47.31,1.33,1.33,0,0,1,.25.37,1.11,1.11,0,0,1,.09.46,1.22,1.22,0,0,1-.17.62,1,1,0,0,1-.58.43.9.9,0,0,1,.48.35,1.34,1.34,0,0,1,.14.69v.3a2,2,0,0,0,0,.41.36.36,0,0,0,.18.25v.11m0-.42h0a2,2,0,0,1,0-.35v-.3a1.55,1.55,0,0,0-.18-.81.94.94,0,0,0-.19-.2,1.08,1.08,0,0,0,.3-.33,1.46,1.46,0,0,0,.2-.73,1.34,1.34,0,0,0-.11-.56,1.59,1.59,0,0,0-.29-.44,1.47,1.47,0,0,0-.55-.37,2.63,2.63,0,0,0-.86-.13h-2.38l-.24.24v4.41l.24.24h1l.24-.24V64.38H147a.79.79,0,0,1,.46.08s.08.12.09.39v.41a2.19,2.19,0,0,0,0,.42h0c0,.07,0,.16.07.26l.23.16H149l.24-.24v-.11l-.12-.21A.14.14,0,0,1,149,65.45Z" transform="translate(-23.65 -22.34)"/><path class="cls-7" d="M147.31,62.89h0a1,1,0,0,1-.34,0h-.72v-.51H147a.8.8,0,0,1,.31,0c.06,0,.11.08.11.23s0,.17-.11.2m.1-.64a1,1,0,0,0-.41-.07h-1v1h1a1.17,1.17,0,0,0,.43-.06.4.4,0,0,0,.25-.41A.45.45,0,0,0,147.41,62.25Z" transform="translate(-23.65 -22.34)"/><polyline class="cls-7" points="46.25 46.58 46.25 46.58 46.25 46.58 46.25 46.58"/><path class="cls-7" d="M100.18,65.55h0" transform="translate(-23.65 -22.34)"/><path class="cls-7" d="M94,72.51c-1-.83-1.26-3.9-1.26-3.9L97.57,68s-.06,5.22,4.6,3.59c3.75-1.32,4.72-5.66,5.67-9.06-1.89,1.89-4.53,4.72-7.56,2.83-1.13-.57-1.57-3.4-1.57-3.4S94.24,68.36,91,66.85c-4.91-2.45.4-8.62.57-11.82.09-1.67-2.4.27-3.65,2.48-.41.73-.26.35-.26.35L82,68.23l-3.9.44,1-4.47s-6.23,7-9.07,4.53c-5.1-4.34,1.7-16.56,1.7-16.56l-7.37.8.8-2.51,7.14-.8,1.37-4.1L79,45l-1.28,4.06,19-2.08L96,49.49l-18.8,2.08s-4.72,8.87-4.16,13.78c.19.75,1.89.38,2.64-.19,4-3.4,8.12-13.33,8.12-13.33l3.65-.44-1.07,3.77s6.3-6,9.13-4.09c4.16,2.83-2.27,7.48-1.89,11.64.19.19.47.83.94.57,4-2.2,8.56-13.52,8.56-13.52l4.65-.49a52.53,52.53,0,0,0-3.42,12.32c-.06.6.69.38,1.11.16,3.35-1.22,7.1-13.06,7.1-13.06l4.79-.57s-3.84,16.25-9.76,22.33c-3.39,3.48-9.57,5.28-13.6,2.08M115,57.07c1.7-4.83,2.67-8.91,2.67-8.91l-.26-.29-4.78.57-.2.16s-3.65,11.7-7,12.9h0a1.72,1.72,0,0,1-.63.2c-.14,0-.15,0-.14-.13A52.31,52.31,0,0,1,108,49.34L107.8,49l-4.65.5-.19.15s-4.5,11.22-8.46,13.4c-.25.14-.31-.13-.6-.45-.14-2,1.28-4,2.34-6.12s1.7-4.09-.55-5.63h0c-2.47-1.64-7.14,2.09-8.81,3.56l.85-3-.26-.3-3.65.44-.19.14S79.58,61.53,75.58,65c-.85.64-2.16.7-2.27.32-.5-4.5,3.55-12.49,4.07-13.5l18.67-2.06.2-.17.76-2.5-.25-.3-18.67,2,1.17-3.71L79,44.77l-5.34.57-.2.16-1.32,4-7,.78-.2.16-.8,2.51.25.31,6.92-.75c-1.12,2.13-6.18,12.41-1.43,16.45,1.58,1.37,4,.07,5.89-1.33A26.9,26.9,0,0,0,78.7,65l-.82,3.63.26.29,3.9-.44.18-.12,5.6-10.25a1.94,1.94,0,0,0,.33-.48A8.79,8.79,0,0,1,90.41,55a1.51,1.51,0,0,1,.81-.37s.16,0,.14.38c-.08,1.57-1.41,3.79-2.18,6.13s-.89,4.6,1.74,5.91h0c1.77.83,3.8-.53,5.31-1.93a21.21,21.21,0,0,0,2.34-2.61c.18.87.64,2.54,1.6,3,2.86,1.77,5.39-.44,7.2-2.24-.9,3.25-2,6.87-5.28,8-2.22.78-3.25-.07-3.76-1.06a5.56,5.56,0,0,1-.52-2.3l-.27-.24-4.79.63-.2.25s.17,3.13,1.35,4.07c4.16,3.32,10.48,1.43,13.92-2.1C110.82,67.52,113.27,61.89,115,57.07Z" transform="translate(-23.65 -22.34)"/><path class="cls-7" d="M120.21,63.22l-.14.52-5,.54L120.4,47.7l4.68-.52-.33,1.37s4.16-2.83,6-2.08l.36.15L130,50.35h-.2c-7.6.24-7.32,4.53-9.59,12.88m9.59-12.64H130l.24-.17,1.15-3.73-.14-.29-.36-.15h0c-1.62-.65-4.59,1-5.76,1.77l.19-.79-.26-.29-4.68.52-.2.16-5.29,16.58.25.31,5-.54.2-.17.14-.52C122.73,54.84,122.42,50.8,129.8,50.57Z" transform="translate(-23.65 -22.34)"/><polyline class="cls-7" points="20.89 26.23 20.89 26.22 20.89 26.22 20.89 26.23"/><path class="cls-7" d="M48.65,71.19c-4.72-2.45-5.67-9.06-1.89-13a16.74,16.74,0,0,1,6.23-4c-.94-1.7-3-2.45-3.21-4.53-.38-3.21,1.89-6.23,4.53-7.55,4.91-2.45,10.77-4.53,15.68-.94,1.51,1.13,1.38,5.22,1.38,5.22L66.53,47s.82-4.47-1.83-5.22c-3.4-.75-6,1.13-7.93,3.77-1.32,1.89-1.7,4.91.38,6.23,1.7,1.13,6.74.5,6.74.5l-.93,3-1.46,0C56,55.15,49,59.87,50.35,66.09a5.34,5.34,0,0,0,7.18,3.59c3.59-1.51,4.85-6.48,4.85-6.48l5.42-.5s-.06.37-.07.44C66,70.31,55.26,74.4,48.65,71.19m19.31-8h0c0-.09.08-.46.08-.46l-.26-.27-5.42.5-.21.18S60.93,68,57.43,69.46A5.1,5.1,0,0,1,50.58,66c-1.27-6,5.49-10.65,10.91-10.47h0l1.46,0,.22-.17.93-3-.26-.3s-5,.59-6.58-.47h0c-1.9-1.21-1.61-4-.31-5.89,1.86-2.6,4.42-4.4,7.68-3.68,1.17.34,1.61,1.5,1.73,2.69a8.92,8.92,0,0,1-.08,2.26l.26.28,4.85-.57.21-.23s.19-4.17-1.48-5.42h0c-5-3.68-11-1.53-15.92.92-2.7,1.35-5.05,4.45-4.66,7.78.18,2,2.18,3.06,3.08,4.39a17.45,17.45,0,0,0-6,3.91h0c-3.88,4.07-2.92,10.86,2,13.39h0C55.27,74.66,66.22,70.54,68,63.19Z" transform="translate(-23.65 -22.34)"/><line class="cls-6" x1="111.67" y1="33.54" x2="111.67" y2="33.54"/><path class="cls-7" d="M133.15,48.78a9.6,9.6,0,0,1,6.52-3.63,3.93,3.93,0,0,1,4.16,3.21c.19,4.53-4,7.34-8.5,7.29h-.23s-1.32,3.6,1.27,5.25,4.7-4.2,4.91-4.6c0,0,3.21-.31,3.21-.31s0,.16-.05.21a10.21,10.21,0,0,1-8,7.08c-1.7.19-3.64,0-4.72-1.32-3.35-4.25-1.55-9.49,1.42-13.16m3.33,14.72h0a10.45,10.45,0,0,0,8.16-7.24c0-.07.05-.23.05-.23l-.25-.29-1.6.14a5.52,5.52,0,0,0-1.8.29,19.7,19.7,0,0,1-1.58,3c-.91,1.33-1.94,2.15-3,1.48-2.08-1.33-1.43-4.1-1.23-4.8h.06c4.54,0,8.94-2.81,8.74-7.53h0a4.16,4.16,0,0,0-4.41-3.42A9.84,9.84,0,0,0,133,48.63c-3,3.7-4.88,9.08-1.42,13.46C132.71,63.56,134.77,63.69,136.48,63.5Z" transform="translate(-23.65 -22.34)"/><path class="cls-7" d="M136.33,53.54h0a.94.94,0,0,0-.14-.14l-.09-.09c.42-2.09,1.3-4.26,3.63-5.41a.89.89,0,0,1,.28-.1h0v.08c.18,2.58-.8,5.53-3.65,5.64m3.88-5.66s.17-.57-.61-.19c-2.46,1.21-3.36,3.54-3.78,5.68,0,0,.39.36.38.4h.14C139.42,53.66,140.4,50.48,140.22,47.89Z" transform="translate(-23.65 -22.34)"/></svg>