<?xml version="1.0" encoding="utf-8"?>
<!-- Generator: Adobe Illustrator 21.0.2, SVG Export Plug-In . SVG Version: 6.00 Build 0)  -->
<svg version="1.1" id="Layer_1" xmlns="http://www.w3.org/2000/svg" xmlns:xlink="http://www.w3.org/1999/xlink" x="0px" y="0px"
	 viewBox="0 0 249 108.3" style="enable-background:new 0 0 249 108.3;" xml:space="preserve">
<style type="text/css">
	.st0{fill:#FFFFFF;}
	.st1{font-family:'FranklinGothic-Medium';}
	.st2{font-size:5.04px;}
</style>
<text transform="matrix(1 0 0 1 218.2839 88.6946)" class="st0 st1 st2"> </text>
<polygon class="st0" points="58.8,71.3 56,70.8 53.2,69.9 50.6,68.8 48.1,67.4 45.8,65.7 43.7,63.8 41.8,61.7 40.1,59.4 38.7,56.9 
	37.6,54.3 36.8,51.5 36.3,48.6 36.1,45.5 36.3,42.5 36.8,39.6 37.6,36.8 38.7,34.1 40.1,31.6 41.8,29.3 43.7,27.2 45.8,25.3 
	48.1,23.6 50.6,22.2 53.2,21.1 56,20.3 58.8,19.8 61.9,19.6 64.6,19.8 67.3,20.1 69.8,20.9 72.3,21.8 74.6,22.9 76.8,24.3 
	68.5,33.1 67,32.4 65.4,31.8 63.6,31.6 61.9,31.4 59.8,31.6 57.8,32 56,32.7 54.2,33.7 52.7,34.9 51.3,36.3 50.1,37.8 49.2,39.6 
	48.4,41.5 48,43.4 47.9,45.5 48,47.6 48.4,49.6 49.2,51.4 50.1,53.1 51.3,54.7 52.6,56.1 54.2,57.3 55.9,58.2 57.7,59 59.7,59.4 
	61.8,59.6 63.2,59.5 64.4,59.3 65.3,58.9 66,58.5 66.6,58.1 67,57.6 67.3,57.1 67.5,56.7 67.6,56.3 67.6,56.1 67.6,56.1 67.5,54.9 
	67.3,54 67,53.3 66.6,52.6 66.1,52.2 65.6,51.9 65.1,51.6 64.6,51.5 64.2,51.4 63.9,51.4 63.7,51.4 63.6,51.4 79,35.2 79,64.8 
	77,66.5 74.8,68 72.4,69.1 70,70.2 67.4,70.8 64.7,71.3 61.9,71.4 "/>
<polygon class="st0" points="61.9,19.6 64.6,19.8 67.3,20.1 69.8,20.9 72.3,21.8 74.6,22.9 76.8,24.3 68.5,33.1 67,32.4 65.4,31.8 
	63.6,31.6 61.9,31.4 59.8,31.6 57.8,32 56,32.7 54.2,33.7 52.7,34.9 51.3,36.3 50.1,37.8 49.2,39.6 48.4,41.5 48,43.4 47.9,45.5 
	48,47.6 48.4,49.6 49.2,51.4 50.1,53.1 51.3,54.7 52.6,56.1 54.2,57.3 55.9,58.2 57.7,59 59.7,59.4 61.8,59.6 63.2,59.5 64.4,59.3 
	65.3,58.9 66,58.5 66.6,58.1 67,57.6 67.3,57.1 67.5,56.7 67.6,56.3 67.6,56.1 67.6,56.1 67.5,54.9 67.3,54 67,53.3 66.6,52.6 
	66.1,52.2 65.6,51.9 65.1,51.6 64.6,51.5 64.2,51.4 63.9,51.4 63.7,51.4 63.6,51.4 79,35.2 79,64.8 77,66.5 74.8,68 72.4,69.1 
	70,70.2 67.4,70.8 64.7,71.3 61.9,71.4 58.8,71.3 56,70.8 53.2,69.9 50.6,68.8 48.1,67.4 45.8,65.7 43.7,63.8 41.8,61.7 40.1,59.4 
	38.7,56.9 37.6,54.3 36.8,51.5 36.3,48.6 36.1,45.5 36.3,42.5 36.8,39.6 37.6,36.8 38.7,34.1 40.1,31.6 41.8,29.3 43.7,27.2 
	45.8,25.3 48.1,23.6 50.6,22.2 53.2,21.1 56,20.3 58.8,19.8 "/>
<path class="st0" d="M136.2,33.6L136.2,33.6L136.2,33.6L136.2,33.6z M98.4,44.8L97,45.3l-1.3,0.7l-1.1,0.9l-0.9,1.1l-0.7,1.3
	l-0.4,1.4l-0.2,1.5l0.2,1.6l0.5,1.5l0.7,1.3l1,1.1l10.3-10.8l-1.1-0.9l-1.2-0.7l-1.4-0.4l-1.5-0.2L98.4,44.8z M108.3,59.9h19.8
	l-9.9-10.1L108.3,59.9z M143.7,70.7V52l-0.1-1.5l-0.4-1.4l-0.7-1.2l-0.9-1.1l-1.1-0.9l-1.3-0.7l-1.4-0.4l-1.5-0.2l-1.4,0.2l-1.4,0.4
	l-1.3,0.7l-1.1,0.9l-0.9,1.1l-0.7,1.2l-0.4,1.4l-0.2,1.5v18.7h-25.2h-1.2h-0.8l-0.6-0.1h-0.6h-0.6l-2.5-0.2L95,70l-2.3-0.8l-2.1-1.1
	l-2-1.3l-1.7-1.6l-1.6-1.8l-1.3-2l-1.1-2.1l-0.8-2.3l-0.5-2.4l-0.2-2.5l0.2-2.5l0.5-2.4l0.8-2.3l1.1-2.1l1.3-2l1.6-1.8l1.7-1.6
	l2-1.3l2.1-1.1l2.3-0.8l2.4-0.5l2.5-0.2l2.4,0.2l2.3,0.4l2.2,0.8l2.1,1l1.9,1.3l1.7,1.6l1.6,1.7l1.3,1.9l1.1,2.1l0.8,2.2l0.5,2.3
	h0.1l0.5-2.3l0.8-2.2l1.1-2.1l1.3-1.9l1.5-1.7l1.8-1.5l1.9-1.3l2.1-1l2.3-0.8l2.3-0.4l2.4-0.2l2.5,0.2l2.4,0.5l2.3,0.8l2.2,1.1
	l1.9,1.3l1.8,1.6l1.6,1.8l1.3,2l1.1,2.1l0.8,2.3l0.4,2.4l0.2,2.5v18.6H143.7z"/>
<path class="st0" d="M99.9,33.6l2.4,0.2l2.3,0.4l2.2,0.8l2.1,1l1.9,1.3l1.7,1.6l1.6,1.7l1.3,1.9l1.1,2.1l0.8,2.2l0.5,2.3h0.1
	l0.5-2.3l0.8-2.2l1.1-2.1l1.3-1.9l1.5-1.7l1.8-1.5l1.9-1.3l2.1-1l2.3-0.8l2.3-0.4l2.4-0.2h-0.1l2.5,0.2l2.4,0.5l2.3,0.8l2.2,1.1
	l1.9,1.3l1.8,1.6l1.6,1.8l1.3,2l1.1,2.1l0.8,2.3l0.4,2.4l0.2,2.5v18.6h-11V52l-0.1-1.5l-0.4-1.4l-0.7-1.2l-0.9-1.1l-1.1-0.9
	l-1.3-0.7l-1.4-0.4l-1.5-0.2l-1.4,0.2l-1.4,0.4l-1.3,0.7l-1.1,0.9l-0.9,1.1l-0.7,1.2l-0.4,1.4l-0.2,1.5v18.7h-25.2h-1.2h-0.8
	l-0.6-0.1h-0.6h-0.6l-2.5-0.2L95,70l-2.3-0.8l-2.1-1.1l-2-1.3l-1.7-1.6l-1.6-1.8l-1.3-2l-1.1-2.1l-0.8-2.3l-0.5-2.4l-0.2-2.5
	l0.2-2.5l0.5-2.4l0.8-2.3l1.1-2.1l1.3-2l1.6-1.8l1.7-1.6l2-1.3l2.1-1.1l2.3-0.8l2.4-0.5L99.9,33.6z M99.9,44.6l-1.5,0.2L97,45.3
	l-1.3,0.7l-1.1,0.9l-0.9,1.1l-0.7,1.3l-0.4,1.4l-0.2,1.5l0.2,1.6l0.5,1.5l0.7,1.3l1,1.1l10.3-10.8l-1.1-0.9l-1.2-0.7l-1.4-0.4
	L99.9,44.6z M118.2,49.8l-9.9,10.1h19.8L118.2,49.8z"/>
<path class="st0" d="M153.5,31.6l9.9-10.1l9.9,10.1H153.5z M157.9,35.4H169v35.4h-11.1V35.4z"/>
<path class="st0" d="M163.4,21.5l9.9,10.1h-19.8L163.4,21.5z M157.9,35.4H169v35.4h-11.1V35.4z"/>
<path class="st0" d="M188.4,44.8l-1.4,0.4l-1.3,0.7l-1.1,0.9l-0.9,1.1l-0.7,1.3l-0.4,1.4l-0.2,1.5l0.2,1.6l0.5,1.5l0.7,1.3l1,1.1
	l10.3-10.8l-1.1-0.9l-1.2-0.7l-1.4-0.4l-1.5-0.2L188.4,44.8z M193.6,70.7h-1.2h-0.8l-0.6-0.1h-0.6h-0.6l-2.5-0.2L185,70l-2.3-0.8
	l-2.1-1.1l-2-1.3l-1.7-1.6l-1.6-1.8l-1.3-2l-1.1-2.1l-0.8-2.3l-0.4-2.4l-0.2-2.5l0.2-2.5l0.4-2.4l0.8-2.3l1.1-2.1l1.3-2l1.6-1.8
	l1.7-1.6l2-1.3l2.1-1.1l2.3-0.8l2.4-0.5l2.5-0.2l2.4,0.2l2.3,0.4l2.2,0.8l2.1,1l1.9,1.3l1.7,1.6l1.6,1.7l1.3,1.9l1.1,2.1l0.8,2.2
	l0.6,2.3l0.2,0.7l-9.9,10.1h9.9l-0.1,10.9H193.6z"/>
<path class="st0" d="M189.9,33.6l2.4,0.2l2.3,0.4l2.2,0.8l2.1,1l1.9,1.3l1.7,1.6l1.6,1.7l1.3,1.9l1.1,2.1l0.8,2.2l0.6,2.3l0.2,0.7
	l-9.9,10.1h9.9l-0.1,10.9h-14.5h-1.2h-0.8l-0.6-0.1h-0.6h-0.6l-2.5-0.2L185,70l-2.3-0.8l-2.1-1.1l-2-1.3l-1.7-1.6l-1.6-1.8l-1.3-2
	l-1.1-2.1l-0.8-2.3l-0.4-2.4l-0.2-2.5l0.2-2.5l0.4-2.4l0.8-2.3l1.1-2.1l1.3-2l1.6-1.8l1.7-1.6l2-1.3l2.1-1.1l2.3-0.8l2.4-0.5
	L189.9,33.6z M189.9,44.6l-1.5,0.2l-1.4,0.4l-1.3,0.7l-1.1,0.9l-0.9,1.1l-0.7,1.3l-0.4,1.4l-0.2,1.5l0.2,1.6l0.5,1.5l0.7,1.3l1,1.1
	l10.3-10.8l-1.1-0.9l-1.2-0.7l-1.4-0.4L189.9,44.6z"/>
<path class="st0" d="M212.2,64.6l-0.8,0.3l-0.6,0.6l-0.4,0.7l-0.1,1l0.1,1l0.4,0.8l0.6,0.6l0.8,0.4l0.9,0.1l0.9-0.1l0.8-0.4l0.6-0.6
	l0.4-0.8l0.1-1l-0.1-1l-0.4-0.7l-0.6-0.6l-0.8-0.3l-0.9-0.2L212.2,64.6z M212.2,70.5l-0.8-0.3l-0.7-0.5l-0.6-0.7l-0.3-0.8l-0.1-0.9
	l0.1-0.9l0.3-0.8l0.6-0.7l0.7-0.6l0.8-0.3l0.9-0.1l0.9,0.1l0.8,0.3l0.7,0.6l0.5,0.7l0.3,0.8l0.2,0.9l-0.2,0.9l-0.3,0.8l-0.5,0.7
	l-0.7,0.5l-0.8,0.3l-0.9,0.2L212.2,70.5z"/>
<path class="st0" d="M213.1,63.8l0.9,0.1l0.8,0.3l0.7,0.6l0.5,0.7l0.3,0.8l0.2,0.9l-0.2,0.9l-0.3,0.8l-0.5,0.7l-0.7,0.5l-0.8,0.3
	l-0.9,0.2l-0.9-0.2l-0.8-0.3l-0.7-0.5l-0.6-0.7l-0.3-0.8l-0.1-0.9l0.1-0.9l0.3-0.8l0.6-0.7l0.7-0.6l0.8-0.3L213.1,63.8z M213.1,64.4
	l-0.9,0.2l-0.8,0.3l-0.6,0.6l-0.4,0.7l-0.1,1l0.1,1l0.4,0.8l0.6,0.6l0.8,0.4l0.9,0.1l0.9-0.1l0.8-0.4l0.6-0.6l0.4-0.8l0.1-1l-0.1-1
	l-0.4-0.7l-0.6-0.6l-0.8-0.3L213.1,64.4z"/>
<path class="st0" d="M212.5,66.9h0.8h0.2h0.1h0.2l0.1-0.1l0.1-0.1l0.1-0.1v-0.1v-0.2l-0.1-0.1l-0.1-0.1l-0.2-0.1h-0.2h-0.2h-0.8
	V66.9z M213.8,68.8l-0.8-1.3h-0.6v1.3h-0.8v-3.1h1.7l0.5,0.1l0.4,0.2l0.2,0.3l0.1,0.4l-0.1,0.2l-0.1,0.2l-0.1,0.2l-0.2,0.1l-0.2,0.1
	h-0.2l0.8,1.3H213.8z"/>
<path class="st0" d="M211.7,65.7h1.7l0.5,0.1l0.4,0.2l0.2,0.3l0.1,0.4l-0.1,0.2l-0.1,0.2l-0.1,0.2l-0.2,0.1l-0.2,0.1h-0.2l0.8,1.3
	h-0.8l-0.8-1.3h-0.6v1.3h-0.8V65.7z M212.5,66.2v0.7h0.8h0.2h0.1h0.2l0.1-0.1l0.1-0.1l0.1-0.1v-0.1v-0.2l-0.1-0.1l-0.1-0.1l-0.2-0.1
	h-0.2h-0.2H212.5z"/>
<path class="st0" d="M42,84h3.1l-1.5-3.9h-0.1L42,84z M46.4,87.4l-1-2.5h-3.8l-1,2.5h-1.2l3.5-8.2h1.3l3.5,8.2H46.4z"/>
<path class="st0" d="M42.9,79.2h1.3l3.5,8.2h-1.3l-1-2.5h-3.8l-1,2.5h-1.2L42.9,79.2z M43.5,80.1L42,84h3.1L43.5,80.1L43.5,80.1z"/>
<polygon class="st0" points="54.7,87.4 54.7,80.1 51.7,80.1 51.7,79.2 58.8,79.2 58.8,80.1 55.9,80.1 55.9,87.4 "/>
<polygon class="st0" points="51.7,79.2 58.8,79.2 58.8,80.1 55.9,80.1 55.9,87.4 54.7,87.4 54.7,80.1 51.7,80.1 "/>
<polygon class="st0" points="60.4,87.4 60.4,79.2 66.6,79.2 66.6,80.1 61.6,80.1 61.6,82.7 66.2,82.7 66.2,83.6 61.6,83.6 
	61.6,86.4 66.6,86.4 66.6,87.4 "/>
<polygon class="st0" points="60.4,79.2 66.6,79.2 66.6,80.1 61.6,80.1 61.6,82.7 66.2,82.7 66.2,83.6 61.6,83.6 61.6,86.4 
	66.6,86.4 66.6,87.4 60.4,87.4 "/>
<path class="st0" d="M69.8,82.9h2.5h0.5l0.5-0.1l0.4-0.2l0.3-0.2l0.2-0.4l0.1-0.6L74.3,81L74,80.6l-0.3-0.3l-0.4-0.2l-0.6-0.1h-2.9
	V82.9z M74.5,87.4L74.3,87l-0.1-0.4l-0.1-0.6l-0.1-0.6L74,84.9l-0.1-0.4l-0.3-0.3l-0.4-0.2l-0.6-0.1h-2.9v3.5h-1.2v-8.2h4.2l0.9,0.1
	l0.8,0.3L75,80l0.3,0.6l0.1,0.7L75.4,82l-0.3,0.6l-0.5,0.4l-0.7,0.3v0.1l0.6,0.2l0.3,0.3l0.3,0.3l0.1,0.4l0.1,0.4l0.1,0.6l0.1,0.6
	l0.2,0.6l0.3,0.5H74.5z"/>
<path class="st0" d="M68.5,79.2h4.2l0.9,0.1l0.8,0.3L75,80l0.3,0.6l0.1,0.7L75.4,82l-0.3,0.6l-0.5,0.4l-0.7,0.3v0.1l0.6,0.2l0.3,0.3
	l0.3,0.3l0.1,0.4l0.1,0.4l0.1,0.6l0.1,0.6l0.2,0.6l0.3,0.5h-1.3L74.3,87l-0.1-0.4l-0.1-0.6l-0.1-0.6L74,84.9l-0.1-0.4l-0.3-0.3
	l-0.4-0.2l-0.6-0.1h-2.9v3.5h-1.2V79.2z M69.8,80.1v2.9h2.5h0.5l0.5-0.1l0.4-0.2l0.3-0.2l0.2-0.4l0.1-0.6L74.3,81L74,80.6l-0.3-0.3
	l-0.4-0.2l-0.6-0.1H69.8z"/>
<polygon class="st0" points="77.9,87.4 77.9,79.2 84.1,79.2 84.1,80.1 79.1,80.1 79.1,82.7 83.8,82.7 83.8,83.6 79.1,83.6 
	79.1,86.4 84.2,86.4 84.2,87.4 "/>
<polygon class="st0" points="77.9,79.2 84.1,79.2 84.1,80.1 79.1,80.1 79.1,82.7 83.8,82.7 83.8,83.6 79.1,83.6 79.1,86.4 
	84.2,86.4 84.2,87.4 77.9,87.4 "/>
<polygon class="st0" points="91.8,87.4 89.5,84 87,87.4 85.6,87.4 88.7,83.1 85.8,79.2 87.2,79.2 89.5,82.3 91.8,79.2 93.1,79.2 
	90.2,83.1 93.3,87.4 "/>
<polygon class="st0" points="85.8,79.2 87.2,79.2 89.5,82.3 91.8,79.2 93.1,79.2 90.2,83.1 93.3,87.4 91.8,87.4 89.5,84 87,87.4 
	85.6,87.4 88.7,83.1 "/>
<path class="st0" d="M100.3,82.7h2.4l0.7-0.1l0.5-0.2l0.4-0.3l0.2-0.3l0.1-0.5l-0.1-0.6l-0.3-0.3l-0.4-0.2l-0.6-0.1l-0.6-0.1h-2.4
	V82.7z M100.3,86.4h3l0.7-0.1l0.6-0.3l0.3-0.4l0.1-0.6l-0.1-0.6l-0.3-0.4l-0.4-0.3l-0.6-0.1l-0.6-0.1h-2.7V86.4z M99,87.4v-8.2h3.3
	h0.6l0.7,0.1l0.6,0.1l0.5,0.2l0.4,0.3l0.3,0.4l0.2,0.5l0.1,0.6l-0.1,0.6l-0.3,0.5l-0.4,0.4l-0.6,0.3l0.7,0.3l0.5,0.4l0.3,0.6
	l0.1,0.7l-0.1,0.6l-0.2,0.6l-0.4,0.5l-0.6,0.3l-0.7,0.3l-0.8,0.1H99z"/>
<path class="st0" d="M99,79.2h3.3h0.6l0.7,0.1l0.6,0.1l0.5,0.2l0.4,0.3l0.3,0.4l0.2,0.5l0.1,0.6l-0.1,0.6l-0.3,0.5l-0.4,0.4
	l-0.6,0.3l0.7,0.3l0.5,0.4l0.3,0.6l0.1,0.7l-0.1,0.6l-0.2,0.6l-0.4,0.5l-0.6,0.3l-0.7,0.3l-0.8,0.1H99V79.2z M100.3,80.1v2.6h2.4
	l0.7-0.1l0.5-0.2l0.4-0.3l0.2-0.3l0.1-0.5l-0.1-0.6l-0.3-0.3l-0.4-0.2l-0.6-0.1l-0.6-0.1H100.3z M100.3,83.6v2.9h3l0.7-0.1l0.6-0.3
	l0.3-0.4l0.1-0.6l-0.1-0.6l-0.3-0.4l-0.4-0.3l-0.6-0.1l-0.6-0.1H100.3z"/>
<path class="st0" d="M108.9,82.9h2.4h0.6l0.5-0.1l0.4-0.2l0.3-0.2l0.2-0.4l0.1-0.6l-0.1-0.4l-0.2-0.4l-0.3-0.3l-0.4-0.2l-0.6-0.1
	h-2.9V82.9z M113.6,87.4l-0.2-0.4l-0.1-0.4l-0.1-0.6l-0.1-0.6l-0.1-0.4l-0.2-0.4l-0.2-0.3l-0.4-0.2l-0.6-0.1h-2.9v3.5h-1.2v-8.2h4.2
	l0.9,0.1l0.7,0.3l0.6,0.4l0.3,0.6l0.1,0.7l-0.1,0.7l-0.3,0.6l-0.4,0.4l-0.7,0.3v0.1l0.6,0.2l0.3,0.3l0.2,0.3l0.2,0.4l0.1,0.4
	l0.1,0.6l0.1,0.6l0.2,0.6l0.3,0.5H113.6z"/>
<path class="st0" d="M107.7,79.2h4.2l0.9,0.1l0.7,0.3l0.6,0.4l0.3,0.6l0.1,0.7l-0.1,0.7l-0.3,0.6l-0.4,0.4l-0.7,0.3v0.1l0.6,0.2
	l0.3,0.3l0.2,0.3l0.2,0.4l0.1,0.4l0.1,0.6l0.1,0.6l0.2,0.6l0.3,0.5h-1.3l-0.2-0.4l-0.1-0.4l-0.1-0.6l-0.1-0.6l-0.1-0.4l-0.2-0.4
	l-0.2-0.3l-0.4-0.2l-0.6-0.1h-2.9v3.5h-1.2V79.2z M108.9,80.1v2.9h2.4h0.6l0.5-0.1l0.4-0.2l0.3-0.2l0.2-0.4l0.1-0.6l-0.1-0.4
	l-0.2-0.4l-0.3-0.3l-0.4-0.2l-0.6-0.1H108.9z"/>
<path class="st0" d="M117.8,84h3l-1.5-3.9L117.8,84z M122.2,87.4l-1-2.5h-3.8l-1,2.5h-1.2l3.5-8.2h1.3l3.5,8.2H122.2z"/>
<path class="st0" d="M118.7,79.2h1.3l3.5,8.2h-1.3l-1-2.5h-3.8l-1,2.5h-1.2L118.7,79.2z M119.3,80.1l-1.5,3.9h3L119.3,80.1z"/>
<polygon class="st0" points="130.3,87.4 125.6,80.8 125.5,80.8 125.5,87.4 124.4,87.4 124.4,79.2 125.7,79.2 130.4,85.8 130.4,79.2 
	131.6,79.2 131.6,87.4 "/>
<polygon class="st0" points="124.4,79.2 125.7,79.2 130.4,85.8 130.4,79.2 131.6,79.2 131.6,87.4 130.3,87.4 125.6,80.8 125.5,80.8 
	125.5,87.4 124.4,87.4 "/>
<path class="st0" d="M134.7,86.4h2h0.3l0.4-0.1l0.4-0.1l0.4-0.2l0.4-0.3l0.4-0.4l0.3-0.6l0.2-0.7l0.1-1l-0.1-0.9l-0.2-0.8l-0.4-0.6
	l-0.6-0.4l-0.8-0.3l-1-0.1h-2V86.4z M133.5,87.4v-8.2h3.1l1.1,0.1l0.9,0.2l0.8,0.4l0.6,0.6l0.5,0.7l0.3,0.9l0.1,1.1l-0.1,1.1l-0.3,1
	l-0.4,0.8l-0.6,0.6l-0.8,0.4l-1,0.3l-1.2,0.1H133.5z"/>
<path class="st0" d="M133.5,79.2h3.1l1.1,0.1l0.9,0.2l0.8,0.4l0.6,0.6l0.5,0.7l0.3,0.9l0.1,1.1l-0.1,1.1l-0.3,1l-0.4,0.8l-0.6,0.6
	l-0.8,0.4l-1,0.3l-1.2,0.1h-3.1V79.2z M134.7,80.1v6.4h2h0.3l0.4-0.1l0.4-0.1l0.4-0.2l0.4-0.3l0.4-0.4l0.3-0.6l0.2-0.7l0.1-1
	l-0.1-0.9l-0.2-0.8l-0.4-0.6l-0.6-0.4l-0.8-0.3l-1-0.1H134.7z"/>
</svg>
