<svg id="Layer_1" data-name="Layer 1" xmlns="http://www.w3.org/2000/svg" viewBox="0 0 222.92 34.63"><defs><style>.cls-1{fill:#fff;}</style></defs><title>graco-white</title><polygon class="cls-1" points="0 17.32 10 34.63 19.99 34.63 9.99 17.32 19.99 0 10 0 0 17.32"/><polyline class="cls-1" points="29.98 0 38.9 14.27 28.91 14.27 19.99 0"/><polyline class="cls-1" points="23.67 17.32 39.98 17.32 29.98 34.63 19.99 34.63 27.17 22.2 23.67 22.2"/><path class="cls-1" d="M168.95,67.34h10l-11-22.41h-14L143.74,67.34H153l1.81-4h12.26M156.8,58.93l4.09-9.1,4.19,9.1Z" transform="translate(-25.71 -36.93)"/><path class="cls-1" d="M135,58.59c1.22,0,4.86-1.51,5.61-2.44,1.18-1.48,1.18-4.83.59-7-1.15-4.22-10.94-4.22-10.94-4.22h-18.2V67.34H121V61.21H129c.88,0,2.8.35,2.8,1.93v4.2h9.46s.07-4.86-.36-6c-1.12-2.88-7.18-2.8-6-2.8m-4.84-2.45H121V50.19h9s2.23-.24,2.23,3c0,3-2.06,2.94-2.06,2.94" transform="translate(-25.71 -36.93)"/><path class="cls-1" d="M242.51,48.17c-3.76-3.91-14.28-3.23-14.28-3.23v0c-1.66-.08-10.58-.3-14,3.25-2.26,2.36-1.87,7.88-1.87,7.88s-.37,6,2.66,8.47c3.84,3.15,13.49,2.82,13.49,2.82v0c1.59,0,9.73,0,13.19-2.83,3-2.48,2.65-8.47,2.65-8.47s.39-5.51-1.87-7.88m-8.17,12.61c-1.73,1.54-6.11,1.28-6.11,1.28v0c-1,0-4.34,0-5.81-1.29-.89-.79-.59-4.93-.59-4.93s-.33-3.88.69-4.82c1.29-1.19,6-1,6-1v0c1,0,4.61,0,5.71,1s.69,4.83.69,4.83.29,4.13-.59,4.92" transform="translate(-25.71 -36.93)"/><path class="cls-1" d="M200,58.7v.64c0,2.57-1.83,2.74-5.62,2.74-5.49,0-5.72-1.26-5.72-4.52v-3.4c0-3.12.5-4.14,5.72-4.14,3.11,0,5.26.14,5.58,2.09V53h9.42v-.85c-.18-6.55-4.58-7.16-14-7.16-10.06,0-16.14,1-16.14,8.27v5.65c0,8,6.81,8.27,16.14,8.27,4,0,7.78,0,10.88-1.6s3.15-3.81,3.15-6.21V58.7Z" transform="translate(-25.71 -36.93)"/><path class="cls-1" d="M98.72,51.91c-.18-2.21-3.15-2.19-5.9-2.19-6.58,0-6.77,1.28-6.86,4.81v3.55c0,3.88,2.11,4.28,6.86,4.28s5.9-1.17,5.9-4.2H92.41l.28-3.27h15.59L108,58.43c0,7.37-2.93,8.71-15.19,8.71C82,67.15,76.54,66,76.54,58.9V53.25c0-7.22,6.22-8.3,16.28-8.3,8.87,0,15.19,0,15.19,7Z" transform="translate(-25.71 -36.93)"/><path class="cls-1" d="M244.67,47a1.84,1.84,0,1,1,.54,1.3,1.83,1.83,0,0,1-.54-1.3m1.84,2.11a2.11,2.11,0,1,0-1.5-.62,2.1,2.1,0,0,0,1.5.62" transform="translate(-25.71 -36.93)"/><path class="cls-1" d="M246.06,48h-.27V46h.92c.33,0,.65.11.65.54a.49.49,0,0,1-.28.48c.11,0,.23.1.24.37l0,.36c0,.11,0,.15.1.2v0h-.33a2.5,2.5,0,0,1,0-.5c0-.16,0-.36-.36-.36h-.65m0-.23h.62c.2,0,.41-.05.41-.35s-.23-.33-.36-.33h-.67Z" transform="translate(-25.71 -36.93)"/></svg>