<svg id="Layer_1" data-name="Layer 1" xmlns="http://www.w3.org/2000/svg" viewBox="0 0 188 67.24"><defs><style>.cls-1{fill:#060000;}.cls-2{fill:#ed1c24;}</style></defs><title>henderson</title><path class="cls-1" d="M78,64.44c.24-.94.57-2.22,2.23-2.22s1.33,1.28,1.1,2.22l-.76,3H77.22ZM67.25,77.78c-.82,3.19-.32,7.75,7,7.75s10.15-4.56,11-7.75l.74-2.9H78.64l-.87,3.41c-.24.94-.56,2.21-2.23,2.21s-1.33-1.28-1.09-2.21l1.49-5.84H86.58L88.5,65c.82-3.2.32-7.75-7-7.75s-10.15,4.56-11,7.75Z" transform="translate(-42.66 -18.29)"/><path class="cls-1" d="M92.8,57.75h7.07l-.77,3h.09c1.91-2.3,3.68-3.58,6.49-3.58,3.49,0,4.59,2.56,3.75,5.84L103.83,85H96.51l4.75-18.62c.25-1,.66-2.6-1-2.6s-2.16,2-2.33,2.6L93.18,85H85.85Z" transform="translate(-42.66 -18.29)"/><path class="cls-1" d="M119.36,75.56c-.48,1.87-1.13,4.43-3,4.43-.72,0-1.35-.38-1-1.79l3.52-13.8a2.09,2.09,0,0,1,1.87-1.66c1.53,0,1.42,1.79,1,3.45ZM133,50.94h-7.33l-2.37,9.28h-.09c-.57-2.09-1.82-3-4.47-3-3.58,0-6,2.56-7.09,6.9l-3.4,13.29c-1.3,5.11-.07,8.13,3.38,8.13a7.15,7.15,0,0,0,6-3.28h.09L117,85h7.33Z" transform="translate(-42.66 -18.29)"/><path class="cls-1" d="M139.32,64.44c.24-.94.57-2.22,2.23-2.22s1.34,1.28,1.1,2.22l-.76,3h-3.32ZM128.59,77.78c-.82,3.19-.32,7.75,7,7.75s10.15-4.56,11-7.75l.74-2.9H140l-.87,3.41c-.24.94-.57,2.21-2.23,2.21s-1.34-1.28-1.09-2.21l1.49-5.84h10.65l1.91-7.5c.82-3.2.32-7.75-7-7.75s-10.15,4.56-11,7.75Z" transform="translate(-42.66 -18.29)"/><path class="cls-1" d="M154.15,57.75h6.94l-1.23,4.81h.09c1.67-2.51,3.29-5.37,6.61-5.37l-2.27,8.86h-1.7c-2.51,0-3.64,1.58-4.12,3.45L154.52,85H147.2Z" transform="translate(-42.66 -18.29)"/><path class="cls-1" d="M163,76.41h6.56l-.42,1.66c-.27,1.06-.32,2.43,1.25,2.43,1.11,0,1.81-.76,2.13-2,.55-2.17-1.61-3.54-3.53-5.37S165.11,69,166.13,65a10,10,0,0,1,10.18-7.84c5.07,0,7.59,2.13,6.31,7.16l-.37,1.45h-6.56l.37-1.45c.18-.68.5-2.13-1-2.13a2.09,2.09,0,0,0-2.08,1.83c-.56,2.17,2,3.45,3.65,5.37,2,1.92,4,3.92,3,8.09-.57,2.22-2.51,8-10.48,8-6.47,0-7.7-2.85-6.56-7.33Z" transform="translate(-42.66 -18.29)"/><path class="cls-1" d="M192.06,64.44c.24-.94.56-2.22,2.23-2.22s1.33,1.28,1.09,2.22l-3.53,13.84c-.24.94-.57,2.21-2.23,2.21s-1.33-1.28-1.09-2.21ZM181.32,77.78c-.81,3.19-.32,7.75,7,7.75s10.16-4.56,11-7.75L202.58,65c.81-3.2.32-7.75-7-7.75s-10.16,4.56-11,7.75Z" transform="translate(-42.66 -18.29)"/><path class="cls-1" d="M206.89,57.75H214l-.77,3h.09c1.91-2.3,3.68-3.58,6.49-3.58,3.5,0,4.59,2.56,3.75,5.84L217.91,85h-7.33l4.75-18.62c.25-1,.66-2.6-1-2.6s-2.16,2-2.33,2.6L207.26,85h-7.33Z" transform="translate(-42.66 -18.29)"/><path class="cls-2" d="M225.74,54.5c-.6-4-7.76-12-28-20.9C171.94,22.17,145,18.29,145,18.29l-3.57,6.06a275.85,275.85,0,0,1,52.28,11.9c11.9,4,19.42,7.83,24.18,11-7.88-4.69-22.18-10.23-45.2-15C127,22.8,99.87,23.42,99.87,23.42l-3.72,8.68s23.06-1.78,70.91,4.5c31.31,4.11,46.17,9.9,53.07,13.88-7.4-3.8-21.91-8-49.65-11.52-51-6.51-106.89-2.1-106.89-2.1l-3.14,10S117.49,42,165.7,44.2c54.32,2.48,60.53,12.06,60.53,12.06-.16-.76-.21-.72-.49-1.76" transform="translate(-42.66 -18.29)"/><path class="cls-1" d="M227.9,57.2a2.84,2.84,0,0,1,1.35.36,2.54,2.54,0,0,1,1,1,2.77,2.77,0,0,1,0,2.75,2.57,2.57,0,0,1-1,1,2.77,2.77,0,0,1-2.74,0,2.58,2.58,0,0,1-1-1,2.77,2.77,0,0,1,0-2.75,2.55,2.55,0,0,1,1-1,2.84,2.84,0,0,1,1.36-.36m0,.46a2.33,2.33,0,0,0-1.13.3,2.12,2.12,0,0,0-.86.85,2.28,2.28,0,0,0,0,2.29,2.16,2.16,0,0,0,.85.85A2.29,2.29,0,0,0,229,62a2.14,2.14,0,0,0,.85-.85,2.3,2.3,0,0,0,.3-1.14,2.34,2.34,0,0,0-.31-1.15A2.11,2.11,0,0,0,229,58a2.33,2.33,0,0,0-1.13-.3m-1.21,3.83v-3h1a2.49,2.49,0,0,1,.76.08.73.73,0,0,1,.37.29.76.76,0,0,1,.14.43.79.79,0,0,1-.23.57.92.92,0,0,1-.62.27.81.81,0,0,1,.25.16,3.35,3.35,0,0,1,.44.59l.36.58h-.58l-.26-.47a2.43,2.43,0,0,0-.5-.69.62.62,0,0,0-.38-.1h-.28v1.26Zm.48-1.67h.58a.94.94,0,0,0,.57-.12.42.42,0,0,0,.08-.56.43.43,0,0,0-.2-.16,1.48,1.48,0,0,0-.48-.05h-.54Z" transform="translate(-42.66 -18.29)"/><polygon class="cls-1" points="8.69 32.65 16.53 32.65 13.28 45.38 17.79 45.38 21.05 32.65 28.88 32.65 20.19 66.69 12.35 66.69 16.05 52.2 11.54 52.2 7.84 66.69 0 66.69 8.69 32.65"/></svg>