<svg id="Layer_1" data-name="Layer 1" xmlns="http://www.w3.org/2000/svg" viewBox="0 0 209.13 39.8"><defs><style>.cls-1{fill:#231f20;}.cls-2{fill:#fff200;}.cls-3{fill:none;stroke:#fff200;stroke-width:1px;}</style></defs><title>midland</title><path class="cls-1" d="M92,64.8l.7-9.54q.11-1.1.21-2.2t.24-2.2q-.35,1-.83,2.2c-.33.77-.7,1.6-1.13,2.47l-4.5,9.26h-5.2l-1.08-9.26c-.12-.88-.19-1.7-.23-2.47s0-1.51,0-2.2c-.19.75-.39,1.48-.58,2.2s-.39,1.45-.6,2.19L76.21,64.8H67.64l8.61-24.08h9l.63,6c0,.19.05.47.09.84a34.33,34.33,0,0,1,.2,6.2h.15q.48-1.53,1.2-3.25t1.78-3.88l2.9-5.86h9l-.6,24.08" transform="translate(-32.67 -37.32)"/><polyline class="cls-1" points="69.54 27.48 73.99 3.41 82.9 3.41 78.44 27.48"/><path class="cls-1" d="M124.9,57.46a7.67,7.67,0,0,0,4.5-1.14,5.33,5.33,0,0,0,2-3.53,3.89,3.89,0,0,0-.64-3.51q-1.08-1.15-3.75-1.15h-.38M114.86,64.8l4.46-24.08h7.08a36.8,36.8,0,0,1,5.68.37,11,11,0,0,1,3.66,1.14,9.29,9.29,0,0,1,4,4.36,10.44,10.44,0,0,1,.54,6.18,13.58,13.58,0,0,1-2.81,6.15,16,16,0,0,1-5.65,4.36,14.93,14.93,0,0,1-4.13,1.15,45.23,45.23,0,0,1-6.42.36Z" transform="translate(-32.67 -37.32)"/><polyline class="cls-1" points="108.15 27.48 112.61 3.41 121.34 3.41 118.33 19.68 126.85 19.68 125.4 27.48"/><path class="cls-1" d="M172.51,56.07h3.63l-.24-2.73c-.11-1.38-.16-2.45-.16-3.19a16.41,16.41,0,0,1,.14-2.11h-.15a19.46,19.46,0,0,1-.64,2.11q-.41,1.12-1.34,3.19M159.3,64.8l13.13-24.08h9.72l4,24.08H176.8l-.22-3H170l-1.31,3Z" transform="translate(-32.67 -37.32)"/><path class="cls-1" d="M188.75,64.8l4.46-24.08h8.59L207,53.32a15.61,15.61,0,0,1,.14-1.86c.09-.68.23-1.57.43-2.66l1.49-8.08h8.4L213.05,64.8h-8.64l-5.16-12.5q0,.81-.12,1.73c-.07.62-.18,1.31-.32,2.08l-1.61,8.68" transform="translate(-32.67 -37.32)"/><path class="cls-1" d="M226.17,57.46a7.68,7.68,0,0,0,4.5-1.14,5.32,5.32,0,0,0,2-3.53,3.87,3.87,0,0,0-.65-3.51q-1.08-1.15-3.75-1.15h-.38M216.13,64.8l4.46-24.08h7.09a36.89,36.89,0,0,1,5.68.37A11,11,0,0,1,237,42.24a9.29,9.29,0,0,1,4,4.36,10.46,10.46,0,0,1,.54,6.18,13.57,13.57,0,0,1-2.81,6.15,16,16,0,0,1-5.65,4.36A15,15,0,0,1,229,64.44a45.29,45.29,0,0,1-6.42.36Z" transform="translate(-32.67 -37.32)"/><path class="cls-1" d="M63.34,52.19c0,7.94-6.75,14.37-15.09,14.37S33.17,60.13,33.17,52.19s6.75-14.37,15.08-14.37,15.09,6.44,15.09,14.37" transform="translate(-32.67 -37.32)"/><path class="cls-2" d="M36.83,43a97.79,97.79,0,0,1,11.49.75c4,.68,8.4,2.26,8,4.93C56,50.4,54,52.17,52.42,54.86c-1.44,2.46-1.08,4.86-.79,6.91a4.42,4.42,0,0,0,2.51,3.56A22.31,22.31,0,0,1,50,66.7a25.64,25.64,0,0,1-4.74-.55s-1.06-4.63.14-7.67a32,32,0,0,1,5-8.21c.67-.9.93-2.53-1.22-3.7a18.61,18.61,0,0,0-5.89-2.12,50.15,50.15,0,0,0-7.11-.75" transform="translate(-32.67 -37.32)"/><path class="cls-2" d="M36,44.11a57.73,57.73,0,0,1,6.39.75c2.15.48,5.89,1.71,6.32,2.94s.43,1.44-.72,2.94-8.12,8-7.69,13.48A23.71,23.71,0,0,1,37,61.77a33,33,0,0,1-2-2.87s4.74-5.13,7-7.25,2.16-4,.5-4.72a22.17,22.17,0,0,0-7-2" transform="translate(-32.67 -37.32)"/><ellipse class="cls-3" cx="15.58" cy="14.87" rx="15.08" ry="14.37"/><polyline class="cls-1" points="36.03 31.34 37.41 31.34 38.79 36.47 41.6 31.34 42.89 31.34 42.99 38.71 41.58 38.71 41.53 34.3 39.12 38.71 37.97 38.71 36.72 34.08 35.42 38.71 33.96 38.71"/><polyline class="cls-1" points="45.52 31.34 47 31.34 45.87 38.71 44.41 38.71"/><path class="cls-1" d="M82.72,70,82,74.73h.5a5.72,5.72,0,0,0,1.69-.18,2.36,2.36,0,0,0,1.18-.85,2.47,2.47,0,0,0,.44-1.5A2.25,2.25,0,0,0,85.5,71a2,2,0,0,0-.88-.76A3.57,3.57,0,0,0,83.11,70m-1.73-1.29h1.29a7.08,7.08,0,0,1,2.7.39,3.3,3.3,0,0,1,1.44,1.22,3.37,3.37,0,0,1,.55,1.92,3.78,3.78,0,0,1-.59,2.05,3.58,3.58,0,0,1-1.49,1.36A5.9,5.9,0,0,1,82.8,76H80.27Z" transform="translate(-32.67 -37.32)"/><polyline class="cls-1" points="56.59 31.34 58.09 31.34 57.18 37.43 59.73 37.43 59.56 38.71 55.49 38.71"/><path class="cls-1" d="M98,73.14l-.66-2.41-1.43,2.41m1-4.49h1.28l2,7.37H98.81l-.43-1.57H95.16L94.23,76H92.59Z" transform="translate(-32.67 -37.32)"/><polyline class="cls-1" points="69.89 31.34 71.22 31.34 74.12 36.35 74.87 31.34 76.37 31.34 75.26 38.71 73.94 38.71 71 33.65 70.24 38.71 68.78 38.71"/><path class="cls-1" d="M112.22,70l-.72,4.78h.5a5.72,5.72,0,0,0,1.69-.18,2.36,2.36,0,0,0,1.18-.85,2.47,2.47,0,0,0,.44-1.5A2.24,2.24,0,0,0,115,71a2,2,0,0,0-.88-.76A3.57,3.57,0,0,0,112.6,70m-1.73-1.29h1.29a7.08,7.08,0,0,1,2.7.39,3.29,3.29,0,0,1,1.44,1.22,3.38,3.38,0,0,1,.55,1.92,3.78,3.78,0,0,1-.59,2.05,3.6,3.6,0,0,1-1.49,1.36,5.9,5.9,0,0,1-2.49.43h-2.53Z" transform="translate(-32.67 -37.32)"/><polyline class="cls-1" points="89.83 31.34 91.2 31.34 92.58 36.47 95.39 31.34 96.68 31.34 96.79 38.71 95.37 38.71 95.32 34.3 92.91 38.71 91.76 38.71 90.51 34.08 89.21 38.71 87.76 38.71"/><path class="cls-1" d="M135.85,73.14l-.66-2.41-1.43,2.41m1-4.49h1.28l2,7.37h-1.48l-.43-1.57H133L132.05,76h-1.64Z" transform="translate(-32.67 -37.32)"/><path class="cls-1" d="M147.28,69.61l-1.11.93a2.4,2.4,0,0,0-.88-.58,3,3,0,0,0-1.12-.2,3.55,3.55,0,0,0-1.63.39,3.12,3.12,0,0,0-1.21,1,2.47,2.47,0,0,0-.43,1.39,2.12,2.12,0,0,0,.76,1.67,2.86,2.86,0,0,0,2,.66,3.68,3.68,0,0,0,2.21-.67l.9,1.08a5.79,5.79,0,0,1-3.2.89,4.88,4.88,0,0,1-2.17-.44,3.5,3.5,0,0,1-1.44-1.3,3.39,3.39,0,0,1-.54-1.85,3.68,3.68,0,0,1,.64-2A4.47,4.47,0,0,1,141.75,69a5.14,5.14,0,0,1,2.39-.56,4.66,4.66,0,0,1,3.15,1.14" transform="translate(-32.67 -37.32)"/><polyline class="cls-1" points="116.48 31.34 117.98 31.34 117.56 34.13 120.36 34.13 120.78 31.34 122.3 31.34 121.19 38.71 119.67 38.71 120.17 35.36 117.38 35.36 116.87 38.71 115.38 38.71"/><polyline class="cls-1" points="124.09 31.34 125.57 31.34 124.44 38.71 122.98 38.71"/><polyline class="cls-1" points="127.29 31.34 128.63 31.34 131.52 36.35 132.28 31.34 133.77 31.34 132.67 38.71 131.34 38.71 128.41 33.65 127.65 38.71 126.19 38.71"/><polyline class="cls-1" points="135.52 31.34 139.87 31.34 139.69 32.65 136.85 32.65 136.63 34.17 139.47 34.17 139.29 35.46 136.43 35.46 136.14 37.41 139.01 37.41 138.83 38.71 134.42 38.71"/><path class="cls-1" d="M175.28,71.61a3.75,3.75,0,0,0,1.63-.23.74.74,0,0,0,.38-.68.63.63,0,0,0-.15-.43.81.81,0,0,0-.44-.24,6.07,6.07,0,0,0-1.17-.07m-1.33-1.29h1.41a5.7,5.7,0,0,1,1.84.21,2.19,2.19,0,0,1,1,.71,1.76,1.76,0,0,1,.34,1.08,1.89,1.89,0,0,1-.5,1.32,2.75,2.75,0,0,1-1.51.77L178.56,76H177l-1.74-3.21h-.14L174.62,76h-1.52Z" transform="translate(-32.67 -37.32)"/><polyline class="cls-1" points="146.87 31.34 148.41 31.34 149.67 34.3 151.98 31.34 153.72 31.34 150.24 35.8 149.8 38.71 148.3 38.71 148.75 35.76"/><path class="cls-1" d="M197.69,69.61l-1.11.93a2.41,2.41,0,0,0-.88-.58,3.05,3.05,0,0,0-1.12-.2,3.54,3.54,0,0,0-1.63.39,3.12,3.12,0,0,0-1.21,1,2.47,2.47,0,0,0-.43,1.39,2.12,2.12,0,0,0,.76,1.67,2.86,2.86,0,0,0,2,.66,3.68,3.68,0,0,0,2.21-.67l.9,1.08a5.79,5.79,0,0,1-3.2.89,4.87,4.87,0,0,1-2.17-.44,3.51,3.51,0,0,1-1.44-1.3,3.4,3.4,0,0,1-.54-1.85,3.68,3.68,0,0,1,.64-2A4.47,4.47,0,0,1,192.15,69a5.14,5.14,0,0,1,2.39-.56,4.66,4.66,0,0,1,3.15,1.14" transform="translate(-32.67 -37.32)"/><path class="cls-1" d="M203.22,69.76a3.32,3.32,0,0,0-1.59.38,3,3,0,0,0-1.16,1.11,2.82,2.82,0,0,0-.44,1.49,2.13,2.13,0,0,0,.61,1.54,2.33,2.33,0,0,0,1.76.63,3.22,3.22,0,0,0,2.26-.85,2.72,2.72,0,0,0,.93-2.08,2.1,2.1,0,0,0-.65-1.62,2.41,2.41,0,0,0-1.71-.61m.06-1.29a4,4,0,0,1,2.75,1,3.2,3.2,0,0,1,1.09,2.48,4,4,0,0,1-.64,2.17,4.28,4.28,0,0,1-1.71,1.57,5.29,5.29,0,0,1-2.45.55,4,4,0,0,1-2.76-.93,3.15,3.15,0,0,1-1-2.46,4.08,4.08,0,0,1,1.23-3,4.76,4.76,0,0,1,3.52-1.38" transform="translate(-32.67 -37.32)"/><path class="cls-1" d="M208.67,74.47a.94.94,0,0,1,.65.25.79.79,0,0,1,0,1.2,1,1,0,0,1-1.31,0,.8.8,0,0,1,0-1.2.94.94,0,0,1,.66-.25" transform="translate(-32.67 -37.32)"/><polyline class="cls-1" points="178.82 37.38 179.96 37.99 178.44 39.8 177.73 39.41"/><polyline class="cls-1" points="185.71 31.34 187.19 31.34 186.07 38.71 184.6 38.71"/><polyline class="cls-1" points="188.92 31.34 190.25 31.34 193.15 36.35 193.9 31.34 195.4 31.34 194.29 38.71 192.97 38.71 190.03 33.65 189.27 38.71 187.81 38.71"/><path class="cls-1" d="M236.82,69.61l-1.11.93a2.4,2.4,0,0,0-.88-.58,3.05,3.05,0,0,0-1.12-.2,3.55,3.55,0,0,0-1.63.39,3.1,3.1,0,0,0-1.21,1,2.47,2.47,0,0,0-.43,1.39,2.12,2.12,0,0,0,.76,1.67,2.86,2.86,0,0,0,2,.66,3.67,3.67,0,0,0,2.21-.67l.9,1.08a5.79,5.79,0,0,1-3.2.89,4.87,4.87,0,0,1-2.17-.44,3.51,3.51,0,0,1-1.44-1.3,3.39,3.39,0,0,1-.54-1.85,3.68,3.68,0,0,1,.64-2A4.47,4.47,0,0,1,231.28,69a5.14,5.14,0,0,1,2.39-.56,4.66,4.66,0,0,1,3.15,1.14" transform="translate(-32.67 -37.32)"/><path class="cls-1" d="M238.33,74.47a.93.93,0,0,1,.65.25.79.79,0,0,1,0,1.2,1,1,0,0,1-1.31,0,.8.8,0,0,1,0-1.2.93.93,0,0,1,.65-.25" transform="translate(-32.67 -37.32)"/></svg>