<?xml version="1.0" encoding="utf-8"?>
<!-- Generator: Adobe Illustrator 21.0.2, SVG Export Plug-In . SVG Version: 6.00 Build 0)  -->
<svg version="1.1" id="Layer_1" xmlns="http://www.w3.org/2000/svg" xmlns:xlink="http://www.w3.org/1999/xlink" x="0px" y="0px"
	 viewBox="0 0 210.2 108.3" style="enable-background:new 0 0 210.2 108.3;" xml:space="preserve">
<style type="text/css">
	.st0{fill:#FFFFFF;}
</style>
<g>
	<g>
		<path class="st0" d="M133.6,60l4.7-11.1h21.6l-2.2,5.9c1.9-0.5,3.8-0.5,5.6-0.1c2.7,0.6,4.6,1.9,5.8,3.3l3.6-9.1h3.2
			c-6.3-10.9-19.6-21.3-46.9-22.1c-32.4-1-65.8,14.8-87.2,27.4c0.4,0.9,0.6,1.9,0.6,2.9c3.6-1.9,7.8-2.2,12.1-1
			c2.2,0.6,3.6,1.7,4.4,2.7c0.6-0.1,1.1-0.3,1.7-0.4c1.2-0.9,2.5-1.6,3.7-2c3.1-1.1,7.3-0.8,8.7-0.7c0.5-0.1,1.1-0.2,1.6-0.3
			c-0.1-0.3-0.1-0.7-0.1-1c0-3,2.3-6,6.6-6c2.8,0,4.7,1.3,5.8,3.1c1-0.9,2.3-1.6,3.8-2.1c4.6-1.3,7.4-0.7,7.9-0.6L99,49
			c0.9-0.4,1.9-0.6,3.1-0.6c3.8,0,6,2.5,6.5,5.2c11.7,0.9,20.1,4,28.7,10.1l1.5-3.7H133.6z"/>
		<path class="st0" d="M163,73.8c-1.7,0.8-4.2,1.6-7.4,1.6c-0.6,0-1.1,0-1.7-0.1c-1.3-0.1-2.4-0.4-3.4-0.9
			c15.6,11.5,29.5,7,30.7,0.1h-18.4L163,73.8z"/>
	</g>
	<g>
		<path class="st0" d="M26.1,66l1.5-4.4c0,0,4.5,0.9,4.9-2c0.4-2.9-3.9-3.1-4.7-1s-5.1,14-5.1,14l-6.4,0.3l4.9-13.4
			c0,0,2.4-8.1,10.4-7.7s9.3,4.8,5.9,9.9C33.5,67.4,26.1,66,26.1,66z"/>
		<path class="st0" d="M48.4,72.5h5.8l2.6-7.1c0,0,2.3-5.1-3.4-6.7c-9.5-2.7-15.7,4.4-16,8.8c-0.3,4.3,2.1,4.8,5.5,4.9
			c3.4,0.1,4,0.1,4,0.1l1.4-4c0,0-4.1,0.5-5.1-1.4c-0.6-1.2,0.6-4.5,4.5-4.9c3.4-0.3,4,1.8,3,4.4C49.7,69.3,48.4,72.5,48.4,72.5z"/>
		<path class="st0" d="M70.9,63.2l2-4.7c0,0-4.8-0.6-7.8,0.5C61.9,60,58,63.6,58,67.6s3.7,4.9,5.8,4.9c2.1,0,3.1,0,3.1,0l1.8-4.3
			l-2.8-0.1c0,0-2.4,0.1-2-2.1c0.4-2,1.6-2.7,3-2.9C68,63.1,70.9,63.2,70.9,63.2z"/>
		<path class="st0" d="M115.3,63.2l2-4.7c0,0-4.8-0.6-7.8,0.5c-3.2,1.1-7.1,4.7-7.1,8.7s3.7,4.9,5.8,4.9c2.1,0,3.1,0,3.1,0l1.8-4.3
			l-2.8-0.1c0,0-2.4,0.1-2-2.1c0.4-2,1.6-2.7,3-2.9C112.4,63.1,115.3,63.2,115.3,63.2z"/>
		<polygon class="st0" points="76.3,58.3 82.7,58.3 77.2,72.5 70.7,72.5 		"/>
		<path class="st0" d="M80.9,51.1c3,0,3.6,2.2,3.6,3.3s-0.8,2.8-3.6,2.8c-2.8,0-3.6-1.8-3.6-3S78.2,51.1,80.9,51.1z"/>
		<path class="st0" d="M101.8,51.1c3,0,3.6,2.2,3.6,3.3s-0.8,2.8-3.6,2.8c-2.8,0-3.6-1.8-3.6-3S99.1,51.1,101.8,51.1z"/>
		<path class="st0" d="M97.7,51.6l-2.2,4.7c0,0-2.5-0.3-3.5,0.4c-1,0.7-1.2,1.6-1.2,1.6H95l-1.6,4.2h-3.8l-3.7,10.1h-6l6.2-15.1
			c0,0,1.2-4.2,5.3-5.4S97.7,51.6,97.7,51.6z"/>
		<polygon class="st0" points="103.4,58.6 97.3,58.6 92.1,72.5 98.5,72.5 		"/>
		<polygon class="st0" points="140.1,51.6 155.4,51.6 153.6,56.7 148.9,56.7 143.6,71.8 136.9,71.8 142.9,56.7 137.9,56.7 		"/>
		<path class="st0" d="M163.5,64.7l2.7,2.7l-2.8,2.2c0,0-3.5,3-9.6,2.5c-6-0.5-6.4-6-3.1-9.8s7.7-5.9,11.8-5c4.6,1,5.3,4.3,5.3,4.3
			l-10.4,4.6l-1.3-2.3l5.2-2.6c0,0-1.5-1.2-3.8-0.1s-4,4.2-2.8,5.6c1.2,1.4,4.4,1.2,6.5-0.4C163.4,64.9,163.5,64.7,163.5,64.7z"/>
		<path class="st0" d="M174.6,51.6h5.3l-4.3,10.1c0,0,2.1,0.3,3.8-1.6c1.7-1.9,1.9-2.5,1.9-2.5h5.8c0,0-0.8,1.6-2.8,3.8
			c-1,1.1-2.8,2.4-2.8,2.4s1.4-0.1,2,0.8c0.6,0.9,0,2.4-0.5,3.6c-0.5,1.3-1.1,3.1-1.1,3.1h-5.5l1.4-3.5c0,0,0.5-1-0.4-1.7
			c-0.9-0.7-3.1-0.4-3.1-0.4l-2.1,5.5h-5.2L174.6,51.6z"/>
	</g>
	<g>
		<path class="st0" d="M188.7,52.1h-1.1v-0.4h2.6v0.4h-1.1v3.1h-0.5V52.1z"/>
		<path class="st0" d="M193.5,53.7c0-0.5-0.1-1.1-0.1-1.5h0c-0.1,0.4-0.3,0.8-0.4,1.3l-0.6,1.7h-0.3l-0.6-1.7
			c-0.2-0.5-0.3-0.9-0.4-1.3h0c0,0.4,0,1-0.1,1.5l-0.1,1.5h-0.4l0.2-3.5h0.6l0.6,1.7c0.1,0.4,0.3,0.8,0.3,1.2h0
			c0.1-0.3,0.2-0.7,0.4-1.2l0.6-1.7h0.6l0.2,3.5h-0.4L193.5,53.7z"/>
	</g>
</g>
</svg>
