<svg id="Layer_1" data-name="Layer 1" xmlns="http://www.w3.org/2000/svg" xmlns:xlink="http://www.w3.org/1999/xlink" viewBox="0 0 119.02 116.32"><defs><style>.cls-1{fill:none;}.cls-2{fill:#231f20;}.cls-3{clip-path:url(#clip-path);}.cls-4{fill:url(#linear-gradient);}.cls-5{clip-path:url(#clip-path-2);}.cls-6{fill:url(#linear-gradient-2);}.cls-7{fill:#b82937;}</style><clipPath id="clip-path" transform="translate(-12.19 5.32)"><path class="cls-1" d="M34,69.32V28.58l1.53,0,31.07,0c1.43.23,4.12,1.42,4.12,4.32V51c0,1.86-.9,3.58-2.89,3.58l3.69,3.69V45.63a5,5,0,0,1,1.18-3.52,4.68,4.68,0,0,1,3.31-1c1.64,0,11,0,18.45,0,5,0,9,0,9.47,0a5.51,5.51,0,0,1,5.25,5.3V57.43l-10.38,0,0-6.4H81.91l0,7.17,0,8.54s16.77,0,16.77,0V62l10.67,0-.05,9.87a6,6,0,0,1-6,5.18L75.17,77c-2,0-3.85-2.09-4.61-2.8l-.79-.78L51.53,55.16H45.25V69.33H34m1.8-1.81h7.56l0-13.9h9.12L71.7,72.93c.71.66,2.3,2.46,4.11,2.46l27.39,0c3.13,0,4.26-2,4.26-3.72,0-.12,0-7.83,0-7.83h-7v3.29c0,1-.37,1.39-1.53,1.39H81.55c-1.24,0-1.48-.57-1.48-1.53l0-16.29a1.55,1.55,0,0,1,1.37-1.5H99a1.54,1.54,0,0,1,1.12.37,1.59,1.59,0,0,1,.38,1.18v4.88h6.8V46.37a3.75,3.75,0,0,0-3.48-3.49H94.4c-7.5,0-16.83,0-18.48,0A2.61,2.61,0,0,0,74,43.5a3.18,3.18,0,0,0-.72,2.13v17L64,53.39l2.44,0a2.71,2.71,0,0,0,2.4-2.71V33c0-2.1-2.49-2.53-2.59-2.54H35.81Z"/></clipPath><linearGradient id="linear-gradient" x1="-222.5" y1="465.28" x2="-219.94" y2="465.28" gradientTransform="matrix(0, 34.11, 34.11, 0, -15798.78, 7597.42)" gradientUnits="userSpaceOnUse"><stop offset="0" stop-color="#939598"/><stop offset="0.23" stop-color="#fff"/><stop offset="0.27" stop-color="#f6f6f6"/><stop offset="0.34" stop-color="#dededf"/><stop offset="0.42" stop-color="#b6b8ba"/><stop offset="0.49" stop-color="#939598"/><stop offset="0.55" stop-color="#b6b8ba"/><stop offset="0.62" stop-color="#dededf"/><stop offset="0.68" stop-color="#f6f6f6"/><stop offset="0.72" stop-color="#fff"/><stop offset="1" stop-color="#939598"/></linearGradient><clipPath id="clip-path-2" transform="translate(-12.19 5.32)"><path class="cls-1" d="M44.53,37.2H60.79a1.24,1.24,0,0,1,.92.31,1.17,1.17,0,0,1,.3.88v7a1.13,1.13,0,0,1-.32.8,1.27,1.27,0,0,1-.9.35c-1,0-15.07,0-16.64,0a1.08,1.08,0,0,1-.78-.31A1.48,1.48,0,0,1,43,45.18V38.71c0-1.22.58-1.51,1.53-1.51m.25,7.62H60.17V39H44.78Z"/></clipPath><linearGradient id="linear-gradient-2" x1="-222.5" y1="465.23" x2="-219.94" y2="465.23" gradientTransform="matrix(0, 34.1, 34.1, 0, -15812.98, 7606.93)" xlink:href="#linear-gradient"/></defs><title>rc</title><path class="cls-2" d="M99.84,62.91v4.7s-16.77,0-16.77,0l0-8.54,0-7.17H100l0,6.4,10.38,0V47.26A5.51,5.51,0,0,0,105.07,42H95.6c-7.49,0-16.82,0-18.45,0a4.69,4.69,0,0,0-3.31,1,5,5,0,0,0-1.17,3.53V59.2L69,55.51c2,0,2.89-1.72,2.89-3.58V33.85c0-2.91-2.69-4.1-4.12-4.32l-31.07,0-1.53,0V70.22H46.37V56.06h6.27l18.24,18.3.79.78c.77.71,2.66,2.8,4.61,2.8l28.13.07a6,6,0,0,0,6-5.18l0-9.87-10.58,0M61.29,45.71H45.89V39.9H61.29Z" transform="translate(-12.19 5.32)"/><path class="cls-2" d="M43.3,38.69v6.47a1.22,1.22,0,0,0,.3.87.84.84,0,0,0,.6.24c1.5,0,15.69,0,16.64,0a1,1,0,0,0,.73-.28.86.86,0,0,0,.25-.62v-7a.94.94,0,0,0-.23-.7,1,1,0,0,0-.74-.24H44.57c-.83,0-1.28.2-1.28,1.26m23-8.55c.12,0,2.81.49,2.81,2.8V50.61a3,3,0,0,1-2.65,3l-2.43,0,.17-.44,9.25,9.21-.44.18v-17a3.41,3.41,0,0,1,.8-2.31,2.81,2.81,0,0,1,2.12-.7c1.65,0,10.94,0,18.41,0h9.51a4,4,0,0,1,3.74,3.75v9.53H100.3V50.74a1.36,1.36,0,0,0-.31-1,1.32,1.32,0,0,0-.94-.29H81.44a1.3,1.3,0,0,0-1.11,1.25l0,16.29c0,.88.18,1.27,1.22,1.28H99a1.46,1.46,0,0,0,1-.27,1.17,1.17,0,0,0,.24-.86V63.59h7.54s0,8,0,8.12a4.41,4.41,0,0,1-4.52,3.83c-1.9,0-27.07,0-27.49,0h0c-1.69,0-3.06-1.34-3.88-2.14l-.29-.28L52.5,53.85H43.64l0,13.91H35.6V30.13Z" transform="translate(-12.19 5.32)"/><g class="cls-3"><rect class="cls-4" x="31.14" y="8.02" width="81.13" height="89.64" transform="matrix(0.53, -0.85, 0.85, 0.53, -23.32, 90.91)"/></g><g class="cls-5"><rect class="cls-6" x="43.5" y="31.32" width="18.01" height="21.09" transform="translate(-23.03 69.49) rotate(-57.96)"/></g><path class="cls-7" d="M36.94,66.4l0-34.75H65.14c2.26,0,2.73,1.34,2.73,2.53V49.53c0,1.35,0,2.94-2.19,2.94-.93,0-4.21,0-3.93,0L74.35,65l0-19.19a2.11,2.11,0,0,1,.56-1.39A1.63,1.63,0,0,1,76.07,44c1.67,0,27.85,0,27.85,0a2.83,2.83,0,0,1,2.42,2.57l0,8.12h-4.74l0-3.73a3.12,3.12,0,0,0-.65-2.14c-.68-.68-1.71-.51-2.68-.51l-16.69,0a2.42,2.42,0,0,0-2.57,2.64l0,16.3a2.27,2.27,0,0,0,2.51,2.57H99a2.33,2.33,0,0,0,2.57-2.4l0-2.52h4.93l0,7v0a3.07,3.07,0,0,1-3.23,2.66H76.56a6.63,6.63,0,0,1-4.09-2.1L52.82,52.69l-10.37-.06V66.46l-5.52-.06M42,38.8v6.86a1.77,1.77,0,0,0,.63,1.48,2,2,0,0,0,1.49.5l16.57,0A2.59,2.59,0,0,0,62.48,47a2.86,2.86,0,0,0,.59-2.17V38.4a2.1,2.1,0,0,0-.54-1.59c-.44-.44-.9-.5-2.08-.5l-15.8,0C42.62,36.27,42,36.79,42,38.8Z" transform="translate(-12.19 5.32)"/></svg>