<svg id="Layer_1" data-name="Layer 1" xmlns="http://www.w3.org/2000/svg" viewBox="0 0 193.64 32.78"><defs><style>.cls-1{fill:#fff;}</style></defs><title>reelcraft-white</title><polygon class="cls-1" points="168.38 11.53 168.38 7.62 183.32 7.62 183.32 11.53 178.3 11.53 178.3 25.41 173.58 25.41 173.58 11.53 168.38 11.53"/><polygon class="cls-1" points="157.3 25.49 152.66 25.49 152.66 7.51 166.04 7.51 166.04 11.45 157.3 11.45 157.3 15.05 164.99 15.05 164.99 18.92 157.3 18.92 157.3 25.49"/><path class="cls-1" d="M180,63.08h-4.82l6.48-17.88h5L193,63.08h-4.82L187,59.91h-5.81Zm4.39-12.6h-.47l-1.71,5.61h3.71Z" transform="translate(-42.67 -37.75)"/><path class="cls-1" d="M77.49,56.77H74.58v6.59H70V45.55h7.93a18,18,0,0,1,3.81.33,4.81,4.81,0,0,1,2.19,1.19,3.64,3.64,0,0,1,.83,1.24,6.08,6.08,0,0,1,.5,2.26,4.78,4.78,0,0,1-.72,2.75A11.3,11.3,0,0,1,83,54.88c.17-.18-.11.09.33.37a1.78,1.78,0,0,1,.55.55,3.64,3.64,0,0,1,.74,1.71,11,11,0,0,1,.1,2.17,10.91,10.91,0,0,0,.16,2.39c.13.44.37.74.63.74v.55H80.66a4.23,4.23,0,0,1-.19-1.12c-.06-.49-.09-1.51-.09-2.37a6.82,6.82,0,0,0-.26-2A1.59,1.59,0,0,0,79,56.91a6.48,6.48,0,0,0-1.52-.15M74.58,53.2l3.58,0a3.62,3.62,0,0,0,1.9-.38A2.34,2.34,0,0,0,80.72,51a1.7,1.7,0,0,0-.61-1.41,2.63,2.63,0,0,0-1.56-.45l-4,0Z" transform="translate(-42.67 -37.75)"/><path class="cls-1" d="M154.24,51.38h-4.42a2.42,2.42,0,0,0-1-1.78,3.68,3.68,0,0,0-4.86.1,5.85,5.85,0,0,0-1.23,2,10.69,10.69,0,0,0-.31,2.85c0,.49,0,1,.07,1.4a6.38,6.38,0,0,0,.23,1.25,4.59,4.59,0,0,0,1.72,2.21,4.32,4.32,0,0,0,1.91.5A3.2,3.2,0,0,0,149.82,57h4.38a7.2,7.2,0,0,1-1.49,3.92A6.69,6.69,0,0,1,150,63.1a8.23,8.23,0,0,1-3.41.79,9.51,9.51,0,0,1-4-.83,7.83,7.83,0,0,1-2.92-2.38,8.84,8.84,0,0,1-1.2-2.36,12.25,12.25,0,0,1-.6-4,12,12,0,0,1,.8-4.36,8.58,8.58,0,0,1,2.15-3.13A8.49,8.49,0,0,1,143,45.49a7.82,7.82,0,0,1,3.24-.66,9.08,9.08,0,0,1,4.56,1.08,7,7,0,0,1,2.86,3.23,5.13,5.13,0,0,1,.6,2.24" transform="translate(-42.67 -37.75)"/><polygon class="cls-1" points="93.46 25.52 80.04 25.52 80.04 7.64 84.74 7.64 84.74 21.65 93.46 21.65 93.46 25.52"/><polygon class="cls-1" points="60.59 25.71 46.26 25.71 46.26 7.8 60.22 7.8 60.22 11.53 50.89 11.53 50.89 14.52 59.38 14.52 59.38 18.25 50.89 18.25 50.89 21.93 60.59 21.93 60.59 25.71"/><polygon class="cls-1" points="77.55 25.67 63.23 25.67 63.23 7.76 77.19 7.76 77.19 11.49 67.86 11.49 67.86 14.48 76.34 14.48 76.34 18.21 67.86 18.21 67.86 21.89 77.55 21.89 77.55 25.67"/><path class="cls-1" d="M164.86,56.51h-2.91V63.1h-4.46V45.22h7.8a17.32,17.32,0,0,1,3.81.39,4.8,4.8,0,0,1,2.19,1.19,3.61,3.61,0,0,1,.83,1.24,6.06,6.06,0,0,1,.5,2.26,4.77,4.77,0,0,1-.72,2.75,11.25,11.25,0,0,1-1.52,1.56c.17-.17-.11.09.33.37a1.73,1.73,0,0,1,.55.55,3.62,3.62,0,0,1,.74,1.71,11,11,0,0,1,.1,2.17,11,11,0,0,0,.16,2.39c.13.44.38.74.63.74v.54H168a4.21,4.21,0,0,1-.19-1.11c-.06-.49-.09-1.51-.09-2.37a6.85,6.85,0,0,0-.25-2,1.6,1.6,0,0,0-1.12-.95,6.54,6.54,0,0,0-1.52-.15m-2.91-3.56,3.58,0a3.61,3.61,0,0,0,1.9-.38,2.33,2.33,0,0,0,.67-1.76,1.7,1.7,0,0,0-.61-1.41,2.64,2.64,0,0,0-1.56-.45l-4,0Z" transform="translate(-42.67 -37.75)"/><ellipse class="cls-1" cx="12.35" cy="15.68" rx="3.26" ry="3.34"/><path class="cls-1" d="M54.7,61.13l0,.55h.84v-.55a.73.73,0,0,0-.4-.17A1.15,1.15,0,0,0,54.7,61.13Z" transform="translate(-42.67 -37.75)"/><path class="cls-1" d="M42.67,37.75V70.53H229.59V37.75ZM61.35,57.67a2.33,2.33,0,0,0,.6,0c.1,0,0-.2.2-.15a.67.67,0,0,1,.45.25c.15.15,0,.2.5.25a1.12,1.12,0,0,0,.65-.05c.25,0,1-.1,1-.1l.65,0a.6.6,0,0,0,.15.1.88.88,0,0,0,.3,0h.23V59.9h-.48l-.15.15H64l-.1-.15s0,0-.2,0h-.89a1.86,1.86,0,0,1-.4,0s0,0-.1.15-.25.25-.35.1a1,1,0,0,0-.65-.4c-.4-.1-.59-.2-.84-.25s-.32,0-.36-.15-.5-.13-.65,0-.2.25-.2.6a2.62,2.62,0,0,0,.17.78c.2.54.25.79.59,1s.35.37.65.4.4.14.45.38.08.27-.1.51a1.07,1.07,0,0,1-.28.3l-4.37,0a3.1,3.1,0,0,0-.41-.38l-1.87,0a1.45,1.45,0,0,1-.4.35c-.18.09-4.05,0-4.05,0s-.43,0-.48-.3-.17-.38-.08-.63,0-.46.38-.51a4.72,4.72,0,0,1,.6,0l.2-.15L51,60.1s.1-.15-.07-.58-1.29-.89-2.25-2.55A7.7,7.7,0,0,1,50,47.85a7,7,0,0,1,6.57-1.69,7.33,7.33,0,0,1,5.71,7.44,5.25,5.25,0,0,1-.56,2.55,2.32,2.32,0,0,0-.4,1C61.25,57.37,61.11,57.62,61.35,57.67ZM228.21,69.15H67.43v-30H228.21Z" transform="translate(-42.67 -37.75)"/><path class="cls-1" d="M233.58,38.08a2.78,2.78,0,0,1,1.35.35,2.53,2.53,0,0,1,1,1,2.73,2.73,0,0,1,0,2.73,2.58,2.58,0,0,1-1,1,2.74,2.74,0,0,1-2.72,0,2.58,2.58,0,0,1-1-1,2.74,2.74,0,0,1,0-2.73,2.53,2.53,0,0,1,1-1,2.78,2.78,0,0,1,1.35-.35m0,.54a2.23,2.23,0,0,0-1.08.28,2,2,0,0,0-.81.81,2.2,2.2,0,0,0,0,2.2,2.07,2.07,0,0,0,.81.81,2.18,2.18,0,0,0,2.18,0,2.1,2.1,0,0,0,.81-.81,2.2,2.2,0,0,0,0-2.2,2.05,2.05,0,0,0-.82-.81,2.24,2.24,0,0,0-1.08-.28m-1.24,3.66v-2.9h1.52a1.16,1.16,0,0,1,.45.12.73.73,0,0,1,.27.28.82.82,0,0,1,.11.42.77.77,0,0,1-.21.54.94.94,0,0,1-.58.28.71.71,0,0,1,.2.11,1.48,1.48,0,0,1,.2.22l.21.35.34.58h-.73l-.24-.47a2,2,0,0,0-.41-.6.65.65,0,0,0-.41-.12h-.15v1.19Zm.59-1.65h.24a2.92,2.92,0,0,0,.63,0,.37.37,0,0,0,.27-.36A.35.35,0,0,0,234,40a.38.38,0,0,0-.2-.14,2.83,2.83,0,0,0-.63,0h-.24Z" transform="translate(-42.67 -37.75)"/></svg>