<svg id="Layer_1" data-name="Layer 1" xmlns="http://www.w3.org/2000/svg" viewBox="0 0 193.64 32.78"><defs><style>.cls-1{fill:#fff;}.cls-2{fill:#e3173e;}.cls-3{fill:none;stroke:#0a0203;stroke-width:1.38px;}.cls-4{fill:#0a0203;}.cls-5{fill:#231f20;}</style></defs><title>reelcraft</title><rect class="cls-1" x="0.83" y="0.97" width="185.54" height="30.72"/><path class="cls-2" d="M64.36,72.21H41.82l0-32.11H64.34Zm-16-8.37a4.72,4.72,0,0,0-.6,0c-.35,0-.3.28-.38.51s0,.38.08.63.48.3.48.3,3.87.06,4.05,0a1.45,1.45,0,0,0,.4-.35l1.87,0a3.1,3.1,0,0,1,.41.38l4.37,0a1.07,1.07,0,0,0,.28-.3c.18-.24.15-.26.1-.51s-.12-.35-.45-.38-.3-.2-.64-.4-.4-.45-.6-1A2.62,2.62,0,0,1,57.6,62c0-.35,0-.45.2-.6s.6-.12.64,0,.12.1.36.15.45.15.84.25a1,1,0,0,1,.65.4c.1.15.3,0,.35-.1s.1-.15.1-.15a1.86,1.86,0,0,0,.4,0H62c.25,0,.2,0,.2,0l.1.15h1.39l.15-.15h.5V60.17h-.25a.88.88,0,0,1-.3,0,.6.6,0,0,1-.15-.1L63,60s-.74,0-1,.1a1.12,1.12,0,0,1-.65,0c-.5,0-.35-.1-.5-.25a.67.67,0,0,0-.45-.25c-.25,0-.1.15-.2.15a2.33,2.33,0,0,1-.6,0c-.25,0-.1-.3,0-.55a2.32,2.32,0,0,1,.4-1,5.25,5.25,0,0,0,.56-2.55,7.33,7.33,0,0,0-5.71-7.44,7,7,0,0,0-6.57,1.69A7.7,7.7,0,0,0,47,59.08c1,1.65,2.1,2.15,2.25,2.55s.07.58.07.58l-.7,1.49ZM53,63.77h.84v-.55a.73.73,0,0,0-.4-.17,1.15,1.15,0,0,0-.47.17Zm.3-11.58a3.34,3.34,0,1,0,3.26,3.34,3.3,3.3,0,0,0-3.26-3.34" transform="translate(-40.96 -39.85)"/><line class="cls-2" x1="24.08" y1="0.15" x2="24.08" y2="32.52"/><line class="cls-3" x1="24.07" y1="0.19" x2="24.07" y2="32.55"/><polygon class="cls-4" points="168.38 11.54 168.38 7.62 183.32 7.62 183.32 11.54 178.3 11.54 178.3 25.41 173.58 25.41 173.58 11.54 168.38 11.54"/><polygon class="cls-4" points="157.3 25.49 152.66 25.49 152.66 7.51 166.04 7.51 166.04 11.45 157.3 11.45 157.3 15.05 164.99 15.05 164.99 18.92 157.3 18.92 157.3 25.49"/><path class="cls-4" d="M178.26,65.18h-4.82l6.48-17.88h5l6.4,17.88h-4.82L185.27,62h-5.81Zm4.39-12.6h-.47l-1.71,5.61h3.71Z" transform="translate(-40.96 -39.85)"/><path class="cls-4" d="M75.79,58.87H72.87v6.59H68.28V47.65h7.93A18,18,0,0,1,80,48a4.81,4.81,0,0,1,2.19,1.19A3.64,3.64,0,0,1,83,50.41a6.08,6.08,0,0,1,.5,2.26,4.78,4.78,0,0,1-.72,2.75A11.3,11.3,0,0,1,81.32,57c.17-.18-.11.09.33.37a1.78,1.78,0,0,1,.55.55,3.64,3.64,0,0,1,.74,1.71,11,11,0,0,1,.1,2.17,10.91,10.91,0,0,0,.16,2.39c.13.44.37.74.63.74v.55H79a4.23,4.23,0,0,1-.19-1.12c-.06-.49-.09-1.51-.09-2.37a6.82,6.82,0,0,0-.26-2A1.59,1.59,0,0,0,77.3,59a6.48,6.48,0,0,0-1.52-.15M72.87,55.3l3.58,0a3.62,3.62,0,0,0,1.9-.38A2.34,2.34,0,0,0,79,53.15a1.7,1.7,0,0,0-.61-1.41,2.63,2.63,0,0,0-1.56-.45l-4,0Z" transform="translate(-40.96 -39.85)"/><path class="cls-4" d="M152.54,53.48h-4.42a2.42,2.42,0,0,0-1-1.78,3.68,3.68,0,0,0-4.86.1,5.85,5.85,0,0,0-1.23,2,10.69,10.69,0,0,0-.31,2.85c0,.49,0,1,.07,1.4a6.38,6.38,0,0,0,.23,1.25,4.59,4.59,0,0,0,1.72,2.21,4.32,4.32,0,0,0,1.91.5,3.2,3.2,0,0,0,3.44-2.95h4.38A7.2,7.2,0,0,1,151,63a6.69,6.69,0,0,1-2.72,2.21,8.23,8.23,0,0,1-3.41.79,9.51,9.51,0,0,1-4-.83,7.83,7.83,0,0,1-2.92-2.38,8.84,8.84,0,0,1-1.2-2.36,12.25,12.25,0,0,1-.6-4,12,12,0,0,1,.8-4.36A8.58,8.58,0,0,1,139.07,49a8.49,8.49,0,0,1,2.21-1.37,7.82,7.82,0,0,1,3.24-.66A9.08,9.08,0,0,1,149.08,48a7,7,0,0,1,2.86,3.23,5.13,5.13,0,0,1,.6,2.24" transform="translate(-40.96 -39.85)"/><polygon class="cls-4" points="93.46 25.52 80.04 25.52 80.04 7.65 84.74 7.65 84.74 21.65 93.46 21.65 93.46 25.52"/><polygon class="cls-4" points="60.59 25.71 46.26 25.71 46.26 7.8 60.22 7.8 60.22 11.53 50.89 11.53 50.89 14.52 59.38 14.52 59.38 18.25 50.89 18.25 50.89 21.93 60.59 21.93 60.59 25.71"/><polygon class="cls-4" points="77.55 25.67 63.23 25.67 63.23 7.76 77.19 7.76 77.19 11.49 67.86 11.49 67.86 14.48 76.34 14.48 76.34 18.21 67.86 18.21 67.86 21.89 77.55 21.89 77.55 25.67"/><path class="cls-4" d="M163.15,58.61h-2.91V65.2h-4.46V47.32h7.8a17.32,17.32,0,0,1,3.81.39,4.8,4.8,0,0,1,2.19,1.19,3.61,3.61,0,0,1,.83,1.24,6.06,6.06,0,0,1,.5,2.26,4.77,4.77,0,0,1-.72,2.75,11.25,11.25,0,0,1-1.52,1.56c.17-.17-.11.09.33.37a1.73,1.73,0,0,1,.55.55,3.62,3.62,0,0,1,.74,1.71,11,11,0,0,1,.1,2.17,11,11,0,0,0,.16,2.39c.13.44.38.74.63.74v.54h-4.87a4.21,4.21,0,0,1-.19-1.11c-.06-.49-.09-1.51-.09-2.37a6.85,6.85,0,0,0-.25-2,1.6,1.6,0,0,0-1.12-.95,6.54,6.54,0,0,0-1.52-.15M160.24,55l3.58,0a3.61,3.61,0,0,0,1.9-.38,2.33,2.33,0,0,0,.67-1.76,1.7,1.7,0,0,0-.61-1.41,2.64,2.64,0,0,0-1.56-.45l-4,0Z" transform="translate(-40.96 -39.85)"/><rect class="cls-3" x="0.69" y="0.69" width="185.54" height="31.39"/><path class="cls-5" d="M231.87,40.18a2.78,2.78,0,0,1,1.35.35,2.53,2.53,0,0,1,1,1,2.73,2.73,0,0,1,0,2.73,2.58,2.58,0,0,1-1,1,2.74,2.74,0,0,1-2.72,0,2.58,2.58,0,0,1-1-1,2.74,2.74,0,0,1,0-2.73,2.53,2.53,0,0,1,1-1,2.78,2.78,0,0,1,1.35-.35m0,.54a2.23,2.23,0,0,0-1.08.28,2,2,0,0,0-.81.81,2.2,2.2,0,0,0,0,2.2,2.07,2.07,0,0,0,.81.81,2.18,2.18,0,0,0,2.18,0,2.1,2.1,0,0,0,.81-.81,2.2,2.2,0,0,0,0-2.2A2.05,2.05,0,0,0,233,41a2.24,2.24,0,0,0-1.08-.28m-1.24,3.66v-2.9h1.52a1.16,1.16,0,0,1,.45.12.73.73,0,0,1,.27.28.82.82,0,0,1,.11.42.77.77,0,0,1-.21.54.94.94,0,0,1-.58.28.71.71,0,0,1,.2.11,1.48,1.48,0,0,1,.2.22l.21.35.34.58h-.73l-.24-.47a2,2,0,0,0-.41-.6.65.65,0,0,0-.41-.12h-.15v1.19Zm.59-1.65h.24a2.92,2.92,0,0,0,.63,0,.37.37,0,0,0,.27-.36.35.35,0,0,0-.07-.22.38.38,0,0,0-.2-.14,2.83,2.83,0,0,0-.63,0h-.24Z" transform="translate(-40.96 -39.85)"/></svg>