<?xml version="1.0" encoding="utf-8"?>
<!-- Generator: Adobe Illustrator 21.0.2, SVG Export Plug-In . SVG Version: 6.00 Build 0)  -->
<svg version="1.1" id="Layer_1" xmlns="http://www.w3.org/2000/svg" xmlns:xlink="http://www.w3.org/1999/xlink" x="0px" y="0px"
	 viewBox="0 0 279 108.3" style="enable-background:new 0 0 279 108.3;" xml:space="preserve">
<style type="text/css">
	.st0{fill:#9D5F32;}
</style>
<g>
	<g>
		<path d="M253.5,51c0,1,0.8,1.9,1.9,1.9c1,0,1.9-0.8,1.9-1.9c0-1-0.8-1.9-1.9-1.9C254.4,49.2,253.5,50,253.5,51 M254,51
			c0-0.8,0.6-1.4,1.4-1.4c0.8,0,1.4,0.6,1.4,1.4c0,0.8-0.6,1.4-1.4,1.4C254.6,52.5,254,51.8,254,51"/>
		<path d="M254.7,52.1V50h0.8c0.2,0,0.3,0,0.4,0.1c0.1,0,0.2,0.1,0.2,0.2c0.1,0.1,0.1,0.2,0.1,0.3c0,0.2,0,0.3-0.1,0.4
			c-0.1,0.1-0.2,0.2-0.4,0.2c0.1,0.1,0.1,0.1,0.2,0.2c0.1,0.1,0.1,0.2,0.2,0.3l0.2,0.4h-0.5l-0.3-0.5c-0.1-0.2-0.2-0.3-0.2-0.3
			c0,0-0.1-0.1-0.1-0.1c0,0-0.1,0-0.2,0h-0.1v0.9H254.7z M255.1,50.9h0.3c0.2,0,0.3,0,0.3,0c0,0,0.1,0,0.1-0.1c0,0,0-0.1,0-0.2
			c0-0.1,0-0.1-0.1-0.2c0,0-0.1-0.1-0.1-0.1c0,0-0.1,0-0.3,0h-0.3V50.9z"/>
		<path d="M134.9,66.3c-1.2,0-2.1-0.1-2.7-0.3c-1-0.3-1.5-1-1.5-1.9c0-0.5,0.1-1.1,0.4-1.9l3.4-9.6c0.5-1.4,1.4-2.4,2.6-2.9
			c1-0.5,2.3-0.7,4-0.7h9.1c1.3,0,2.2,0.1,2.8,0.3c1.1,0.3,1.7,1,1.7,1.9c0,0.4-0.1,0.9-0.3,1.5l-3.4,9.6c-0.6,1.6-1.5,2.7-2.7,3.3
			c-1,0.5-2.4,0.8-4.3,0.8H134.9z M142.8,54.1l-2.6,7.1c-0.2,0.4-0.2,0.7-0.1,0.9c0.1,0.2,0.3,0.3,0.7,0.3c0.8,0,1.3-0.4,1.6-1.2
			l2.6-7.1c0.1-0.2,0.1-0.5,0.1-0.6c0-0.4-0.3-0.6-0.8-0.6C143.6,52.8,143.1,53.3,142.8,54.1"/>
		<polygon points="151.2,66.3 157.4,49 166.2,49 167.1,56.1 169.6,49 177.7,49 171.5,66.3 163.2,66.3 162.2,58.2 159.3,66.3 		"/>
		<polygon points="173.3,66.3 179.5,49 193.8,49 192.4,52.9 186.9,52.9 186.3,54.8 191.7,54.8 190.3,58.8 184.8,58.8 183.6,62.4 
			189,62.4 187.6,66.3 		"/>
		<polygon points="233.1,66.3 239.2,49.2 253.3,49.2 251.9,53.1 246.5,53.1 245.8,55 251.2,55 249.8,58.9 244.4,58.9 243.2,62.4 
			248.5,62.4 247.2,66.3 		"/>
		<path d="M188.7,66.4L202,44.9h12.4l-3.2,21.5h-9.5l0.9-3.7h-2.6l-1.9,3.7H188.7z M201.8,59h1.9l1.2-5.8L201.8,59z"/>
		<path d="M224.7,60.4h-1.2l1.3-3.8h9.9l-3.5,9.8h-4.4l-0.3-1.2c-0.3,0.4-0.9,0.7-1.8,0.9c-0.8,0.2-1.9,0.3-3.2,0.3h-4.7
			c-1.2,0-2.1-0.1-2.7-0.3c-1-0.3-1.5-1-1.5-1.9c0-0.5,0.1-1.1,0.4-1.8l3.4-9.5c0.5-1.4,1.3-2.3,2.6-2.9c1-0.5,2.3-0.7,3.9-0.7h9
			c1.2,0,2.2,0.1,2.8,0.3c1.1,0.3,1.7,1,1.7,1.9c0,0.4-0.1,0.9-0.3,1.4l-0.6,1.7h-8.8l0.2-0.5c0.2-0.7,0-1-0.8-1
			c-0.7,0-1.2,0.4-1.5,1.2l-2.5,7c-0.1,0.3-0.1,0.5-0.1,0.6c0,0.4,0.3,0.6,0.8,0.6c0.7,0,1.3-0.4,1.5-1.2L224.7,60.4z M234.8,56.6
			l-3.5,9.8C231.7,65.4,232.8,62.1,234.8,56.6"/>
		<polygon points="119.5,49 118.7,51.2 116.1,51.2 115.4,52.9 120,52.9 115.2,66.3 124,66.3 128.8,52.9 133.3,52.9 134.7,49 		"/>
		<path d="M92.1,66.9c-4.1,0-6.2-1-6.2-3.1c0-0.4,0.1-0.9,0.3-1.4l1.5-4.3H100l-0.6,1.7c-0.2,0.6-0.2,1-0.1,1.3
			c0.1,0.3,0.5,0.4,1,0.4c1,0,1.7-0.6,2.2-1.8c0.3-0.7,0.4-1.3,0.2-1.6c-0.1-0.3-0.6-0.6-1.4-0.9l-7.4-2.6c-1.7-0.6-2.8-1.2-3.2-2
			c-0.2-0.3-0.3-0.7-0.3-1.2c0-0.5,0.1-1,0.3-1.6l0.9-2.5c1.1-3,4.1-4.4,9.1-4.4h12.5c4.1,0,6.2,1,6.2,3.1c0,0.4-0.1,0.9-0.2,1.4
			l-1,2.8h-12.3l0.1-0.3c0.2-0.5,0.2-0.9,0-1.2c-0.2-0.3-0.5-0.4-1-0.4c-1,0-1.6,0.4-1.9,1.1c-0.2,0.5,0,0.8,0.4,1.1
			c0.1,0.1,0.5,0.3,1.2,0.5l8.7,3.2c1.4,0.5,2.1,1.3,2.1,2.5c0,0.7-0.2,1.5-0.6,2.6l-0.9,2.6c-1.2,3.4-4.3,5.1-9.4,5.1H92.1z"/>
		<path class="st0" d="M83.4,62l1-2.9l-4-1.6l-1.2-1.2l-3.8-4L73.9,38l-1.2-0.4l-0.4,0.3l-0.5,6.9L71,44.8l-0.8-0.6l-0.1-0.5
			l-0.7-0.6l-0.6,0.2l-0.2-0.2l-0.9-9.6l-0.3-0.3l-11.2-1.5l-0.5-0.6l-1.2-0.3l-4.1,1.7l-1.4,19l-7.6,3.1l-0.1,0.7l-1,0.7h-0.3
			l-3.7,2v0.4l-3.4,1.6L31,62.6c0,0-8.8,3.6-12.4,5.9c10.3-2.4,21.3-4,36.5-4.2H63c7.2,0.1,14.1,0.5,20.4,1.2
			c-0.3-0.5-0.4-1.1-0.4-1.7C83.1,63.3,83.2,62.6,83.4,62"/>
	</g>
	<g>
		<path d="M86.8,71.2h4.1l-0.1,0.5h-3.5l-0.5,2.2h3.2L90,74.4h-3.2l-0.5,2.4h3.6l-0.1,0.5h-4.1L86.8,71.2z"/>
		<path d="M92.1,71.2h0.7l2.4,5.5h0l1.1-5.5h0.6l-1.3,6.2h-0.6l-2.4-5.5h0l-1.1,5.5h-0.6L92.1,71.2z"/>
		<path d="M102.7,73.1c0-1-0.8-1.5-1.9-1.5c-1.6,0-2.7,1.7-2.7,3.3c0,1.3,0.7,2.1,2,2.1c1.3,0,2.2-1,2.4-2.3h-2.1l0.1-0.5h2.6
			l-0.6,3.1h-0.4l0.1-1h0c-0.5,0.8-1.3,1.2-2.2,1.2c-1.6,0-2.4-1-2.4-2.6c0-2,1.1-3.8,3.3-3.8c1.5,0,2.4,0.8,2.4,2H102.7z"/>
		<path d="M105.5,71.2h0.6l-1.3,6.2h-0.6L105.5,71.2z"/>
		<path d="M107.8,71.2h0.7l2.4,5.5h0l1.1-5.5h0.6l-1.3,6.2h-0.6l-2.4-5.5h0l-1.1,5.5h-0.6L107.8,71.2z"/>
	</g>
	<g>
		<path d="M114.4,71.2h4.1l-0.1,0.5h-3.5l-0.5,2.2h3.2l-0.1,0.5h-3.2l-0.5,2.4h3.6l-0.1,0.5h-4.1L114.4,71.2z"/>
		<path d="M119.7,71.2h4.1l-0.1,0.5h-3.5l-0.5,2.2h3.2l-0.1,0.5h-3.2l-0.5,2.4h3.6l-0.1,0.5h-4.1L119.7,71.2z"/>
	</g>
	<g>
		<path d="M125,71.2h2.6c1,0,1.6,0.5,1.6,1.5c0,0.9-0.6,1.6-1.5,1.7v0c0.6,0.1,0.8,0.5,0.8,1.1c0,0.4-0.1,0.9-0.1,1.3
			c0,0.1,0,0.4,0.1,0.5h-0.6c-0.1,0-0.1-0.6-0.1-0.6c0-0.4,0.1-0.7,0.1-1.1c0-0.6-0.2-1-0.8-1h-2.1l-0.6,2.7h-0.6L125,71.2z
			 M125,74.1h2c0.9,0,1.6-0.4,1.6-1.3c0-0.7-0.3-1.1-1-1.1h-2.1L125,74.1z"/>
		<path d="M131.1,71.2h0.6l-1.3,6.2h-0.6L131.1,71.2z"/>
		<path d="M133.5,71.2h0.7l2.4,5.5h0l1.1-5.5h0.6l-1.3,6.2h-0.6l-2.4-5.5h0l-1.1,5.5h-0.6L133.5,71.2z"/>
		<path d="M144.1,73.1c0-1-0.8-1.5-1.9-1.5c-1.6,0-2.7,1.7-2.7,3.3c0,1.3,0.7,2.1,2,2.1c1.3,0,2.2-1,2.4-2.3h-2.1l0.1-0.5h2.6
			l-0.6,3.1h-0.4l0.1-1h0c-0.5,0.8-1.3,1.2-2.2,1.2c-1.6,0-2.4-1-2.4-2.6c0-2,1.1-3.8,3.3-3.8c1.5,0,2.4,0.8,2.4,2H144.1z"/>
		<path d="M149,71.2h4.7l-0.1,0.5h-2.1l-1.2,5.7h-0.6l1.2-5.7h-2.1L149,71.2z"/>
		<path d="M154.8,71.2h0.6l-0.6,2.7h3.5l0.6-2.7h0.6l-1.3,6.2h-0.6l0.6-3h-3.5l-0.6,3h-0.6L154.8,71.2z"/>
	</g>
	<g>
		<path d="M161.4,71.2h4.1l-0.1,0.5h-3.5l-0.5,2.2h3.2l-0.1,0.5h-3.2l-0.5,2.4h3.6l-0.1,0.5h-4.1L161.4,71.2z"/>
	</g>
	<g>
		<path d="M169.6,71.2h2.4c0.9,0,1.6,0.6,1.6,1.5c0,1.3-0.9,2-2.1,2h-2.1l-0.6,2.6h-0.6L169.6,71.2z M169.6,74.2h2
			c0.8,0,1.5-0.5,1.5-1.4c0-0.8-0.5-1.1-1.2-1.1h-1.8L169.6,74.2z"/>
		<path d="M174.4,74.9c0-2,1.2-3.8,3.3-3.8c1.5,0,2.5,1,2.5,2.6c0,2-1.2,3.8-3.3,3.8C175.3,77.5,174.4,76.4,174.4,74.9z M177.7,71.6
			c-1.8,0-2.7,1.7-2.7,3.4c0,1.3,0.7,2.1,2,2.1c1.6,0,2.6-1.7,2.6-3.2C179.7,72.5,179.1,71.6,177.7,71.6z"/>
		<path d="M181.5,71.2h0.6l0.3,5.5h0l2.6-5.5h0.7l0.4,5.4h0l2.5-5.4h0.6l-2.9,6.2h-0.6l-0.4-5.6h0l-2.6,5.6H182L181.5,71.2z"/>
	</g>
	<g>
		<path d="M190.4,71.2h4.1l-0.1,0.5h-3.5l-0.5,2.2h3.2l-0.1,0.5h-3.2l-0.5,2.4h3.6l-0.1,0.5h-4.1L190.4,71.2z"/>
	</g>
	<g>
		<path d="M195.7,71.2h2.6c1,0,1.6,0.5,1.6,1.5c0,0.9-0.6,1.6-1.5,1.7v0c0.6,0.1,0.8,0.5,0.8,1.1c0,0.4-0.1,0.9-0.1,1.3
			c0,0.1,0,0.4,0.1,0.5h-0.6c-0.1,0-0.1-0.6-0.1-0.6c0-0.4,0.1-0.7,0.1-1.1c0-0.6-0.2-1-0.8-1h-2.1l-0.6,2.7h-0.6L195.7,71.2z
			 M195.7,74.1h2c0.9,0,1.6-0.4,1.6-1.3c0-0.7-0.3-1.1-1-1.1h-2.1L195.7,74.1z"/>
		<path d="M203.5,74.9c0-2,1.2-3.8,3.3-3.8c1.5,0,2.5,1,2.5,2.6c0,2-1.2,3.8-3.3,3.8C204.4,77.5,203.5,76.4,203.5,74.9z M206.8,71.6
			c-1.8,0-2.7,1.7-2.7,3.4c0,1.3,0.7,2.1,2,2.1c1.6,0,2.6-1.7,2.6-3.2C208.7,72.5,208.1,71.6,206.8,71.6z"/>
		<path d="M211.3,71.2h3.9l-0.1,0.5h-3.3l-0.5,2.2h2.9l-0.1,0.5h-2.9l-0.6,2.9H210L211.3,71.2z"/>
	</g>
	<g>
		<path d="M218.5,71.2h0.6l0.3,5.5h0l2.6-5.5h0.7l0.4,5.4h0l2.5-5.4h0.6l-2.9,6.2h-0.6l-0.4-5.6h0l-2.6,5.6H219L218.5,71.2z"/>
	</g>
	<g>
		<path d="M228.9,71.2h0.6l1.1,6.2H230l-0.3-1.9h-2.8l-1.1,1.9h-0.6L228.9,71.2z M227.2,75h2.4l-0.5-3.2h0L227.2,75z"/>
		<path d="M231.6,71.2h4.7l-0.1,0.5h-2.1l-1.2,5.7h-0.6l1.2-5.7h-2.1L231.6,71.2z"/>
	</g>
	<g>
		<path d="M237.5,71.2h4.1l-0.1,0.5H238l-0.5,2.2h3.2l-0.1,0.5h-3.2l-0.5,2.4h3.6l-0.1,0.5h-4.1L237.5,71.2z"/>
	</g>
	<g>
		<path d="M242.8,71.2h2.6c1,0,1.6,0.5,1.6,1.5c0,0.9-0.6,1.6-1.5,1.7v0c0.6,0.1,0.8,0.5,0.8,1.1c0,0.4-0.1,0.9-0.1,1.3
			c0,0.1,0,0.4,0.1,0.5h-0.6c-0.1,0-0.1-0.6-0.1-0.6c0-0.4,0.1-0.7,0.1-1.1c0-0.6-0.2-1-0.8-1h-2.1l-0.6,2.7h-0.6L242.8,71.2z
			 M242.8,74.1h2c0.9,0,1.6-0.4,1.6-1.3c0-0.7-0.3-1.1-1-1.1h-2.1L242.8,74.1z"/>
	</g>
</g>
</svg>
