<?xml version="1.0" encoding="utf-8"?>
<!-- Generator: Adobe Illustrator 21.0.2, SVG Export Plug-In . SVG Version: 6.00 Build 0)  -->
<svg version="1.1" id="Layer_1" xmlns="http://www.w3.org/2000/svg" xmlns:xlink="http://www.w3.org/1999/xlink" x="0px" y="0px"
	 viewBox="0 0 279 108.3" style="enable-background:new 0 0 279 108.3;" xml:space="preserve">
<style type="text/css">
	.st0{fill:#FFFFFF;}
</style>
<g>
	<path class="st0" d="M34.7,44.5H28v-4.3h18.3v4.3h-6.7v19.3h-4.8V44.5z"/>
	<path class="st0" d="M49.9,40.3h4.8v12h10.1v-12h4.8v30.5h-4.8V56.7H54.7v7.2h-4.8V40.3z"/>
	<path class="st0" d="M74.6,40.3h15.6v4.3H79.4v3.3h9.5V52h-9.5v7.6h11.2v4.3H74.6V40.3z"/>
	<path class="st0" d="M112.5,63.8h-5.6l-3.9-6c-0.4,0.1-0.9,0.1-1.4,0.1H100v5.9h-4.8V40.3h6.5c6.6,0,10.5,3.2,10.5,8.9
		c0,3.7-1.6,6-4.5,7.3L112.5,63.8z M101.5,53.8c3.9,0,5.7-1.2,5.7-4.6s-1.8-4.6-5.7-4.6H100v9.2H101.5z"/>
	<path class="st0" d="M116.4,40h0.4l11.6,12.7L139.8,40h0.4v23.8h-4.7V55c0-1.6,0.2-4.1,0.2-4.1s-1.4,2.1-2.5,3.3l-4.7,5.2h-0.4
		l-4.7-5.2c-1.1-1.2-2.5-3.3-2.5-3.3s0.2,2.5,0.2,4.1v8.8h-4.6V40z"/>
	<path class="st0" d="M144.3,52.1c0-7,5.4-12.1,12.2-12.1c6.8,0,12.2,5.1,12.2,12.1c0,7-5.4,12.1-12.2,12.1
		C149.7,64.1,144.3,59,144.3,52.1z M163.7,52.1c0-4.4-2.9-7.8-7.2-7.8c-4.3,0-7.2,3.4-7.2,7.8s2.9,7.8,7.2,7.8
		C160.8,59.8,163.7,56.5,163.7,52.1z"/>
	<path class="st0" d="M173,52.3h8.7v4.2H173V52.3z"/>
	<path class="st0" d="M186.8,40.3h4.8v19.3h10.7v4.3h-15.5V40.3z"/>
	<path class="st0" d="M214.8,40.1h0.4L226,63.8h-5.1l-1.1-2.7h-9.6l-1.1,2.7h-4.7L214.8,40.1z M218.1,57.1l-1.7-4.1
		c-0.7-1.7-1.4-4.2-1.4-4.2s-0.7,2.6-1.4,4.2l-1.7,4.1H218.1z"/>
	<path class="st0" d="M232.2,56.3l-8.9-16.1h5.4l4.2,7.6c0.9,1.7,1.9,4.5,1.9,4.5s0.9-2.8,1.8-4.5l4-7.6h5L237.1,56v7.8h-4.9V56.3z"
		/>
</g>
</svg>
