<?xml version="1.0" encoding="utf-8"?>
<!-- Generator: Adobe Illustrator 21.0.2, SVG Export Plug-In . SVG Version: 6.00 Build 0)  -->
<svg version="1.1" id="Layer_1" xmlns="http://www.w3.org/2000/svg" xmlns:xlink="http://www.w3.org/1999/xlink" x="0px" y="0px"
	 viewBox="0 0 216 108.3" style="enable-background:new 0 0 216 108.3;" xml:space="preserve">
<style type="text/css">
	.st0{fill:#FFFFFF;}
</style>
<g>
	<g>
		<path class="st0" d="M33,36.3c0.7-0.4,1.3-0.9,2-1.3c0.5-0.3,0.7-1,0.4-1.5c-0.3-0.5-1-0.7-1.5-0.4c-0.7,0.4-1.3,0.9-2,1.3
			c-0.5,0.3-0.7,1-0.4,1.5C31.8,36.4,32.5,36.6,33,36.3z"/>
		<path class="st0" d="M32.8,43.9c1.7-2.1,3.7-3.9,5.8-5.5c2.1-1.6,4.3-3.3,6.7-4.4c0.6-0.3,0.1-1.2-0.6-1c-1.7,0.8-3,2-4.6,3
			c-0.3-0.5-0.9-0.9-1.5-0.5c-3,1.7-5.3,4.2-7.4,6.8C30.4,43.4,31.9,45,32.8,43.9z"/>
		<path class="st0" d="M32.6,50.8c4.6-5.5,10.6-9.8,16.6-13.6c1.6-1,3.3-1.4,4.8-2.3c0.2-0.1,0.4-0.3,0.5-0.5
			c0.3-1.2-3.2,0.4-3.5,0.5c-0.3,0.2-4.8,2.5-4.6,2.7c-0.3-0.4-0.8-0.6-1.4-0.2c-5.3,3.2-10,7.2-14,11.9
			C30.2,50.3,31.7,51.8,32.6,50.8z"/>
		<path class="st0" d="M33.1,57.9c2.9-4.3,6.5-8,10.5-11.3c3.9-3.2,8.5-5.6,12.6-8.5c2.2-1.5,4.3-3.1,6.8-4c0.7-0.2,0.4-1.3-0.3-1.1
			c-4,1.5-7.1,4.6-10.8,6.6C51.7,39,51,38.6,50.4,39c-7.2,5-14.2,10.4-19.2,17.8C30.4,58,32.3,59.1,33.1,57.9z"/>
		<path class="st0" d="M58,41c-0.3-0.3-0.8-0.5-1.3-0.2c-9.9,5.4-19.3,13.9-24.8,23.8c-0.7,1.2,1.2,2.3,1.9,1.1
			c5-8.9,12.7-16.2,21.3-21.4c5.4-3.3,10.6-7,16.1-10.1c0.3-0.1,0.5-0.3,0.7-0.6c0.1-0.3,0.1-0.7-0.2-0.8c-0.2-0.1-0.4,0-0.7,0.1
			c-2.3,1.2-4.5,2.6-6.7,4.1C63.7,37.4,58.2,41.2,58,41z"/>
		<path class="st0" d="M80.5,34.6c-0.1-0.3-0.4-0.3-0.8-0.3c-0.2,0-0.4,0.1-0.5,0.2C74,37,68.8,39.7,63.9,42.7
			c-0.1-0.5-0.6-0.7-1.1-0.7c-0.5,0.1-0.9,0.4-1.2,0.6c-5.8,4.3-11.3,8.8-16.4,13.9c-2.7,2.7-5.3,5.6-7.7,8.5
			c-2.2,2.6-5.5,5.7-6.3,9.1c-0.3,1.4,1.8,2,2.1,0.6c0.5-2.1,2.3-3.9,3.6-5.6c1.2-1.5,2.4-2.9,3.6-4.3c2.2-2.5,4.4-4.9,6.8-7.3
			c3-3,6.1-5.8,9.3-8.4c2.1-1.7,4.3-3.4,6.6-4.9c2.5-1.6,5.1-2.8,7.6-4.2c2.9-1.7,5.7-3.3,8.9-4.4C80.1,35.5,80.7,35.1,80.5,34.6z"
			/>
	</g>
	<g>
		<path class="st0" d="M74.1,72.8c-1.2,1-2.8,1.5-4.9,1.5c-2.1,0-3.8-0.5-4.9-1.5c-1.2-1-1.7-2.6-1.7-4.7v-9.8h3.4v9.8
			c0,0.4,0,0.8,0.1,1.3c0.1,0.4,0.2,0.8,0.5,1.1c0.2,0.3,0.6,0.6,1,0.8c0.4,0.2,1,0.3,1.7,0.3c1.2,0,2.1-0.3,2.5-0.8
			c0.5-0.5,0.7-1.4,0.7-2.6v-9.8h3.4v9.8C75.8,70.2,75.3,71.8,74.1,72.8z"/>
		<path class="st0" d="M81.4,70.2c0.2,0.4,0.4,0.7,0.8,0.9c0.3,0.2,0.7,0.4,1.1,0.5c0.4,0.1,0.9,0.2,1.3,0.2c0.3,0,0.6,0,1-0.1
			c0.4-0.1,0.7-0.2,1-0.3c0.3-0.1,0.6-0.3,0.8-0.6c0.2-0.3,0.3-0.6,0.3-1c0-0.4-0.1-0.8-0.4-1s-0.6-0.5-1.1-0.7
			c-0.4-0.2-0.9-0.3-1.5-0.5c-0.6-0.1-1.1-0.3-1.7-0.4c-0.6-0.1-1.2-0.3-1.7-0.5c-0.6-0.2-1.1-0.5-1.5-0.8c-0.4-0.3-0.8-0.8-1.1-1.3
			c-0.3-0.5-0.4-1.1-0.4-1.8c0-0.8,0.2-1.5,0.5-2.1c0.3-0.6,0.8-1.1,1.4-1.5c0.6-0.4,1.2-0.7,1.9-0.9c0.7-0.2,1.4-0.3,2.1-0.3
			c0.8,0,1.6,0.1,2.4,0.3c0.8,0.2,1.4,0.5,2,0.9c0.6,0.4,1.1,0.9,1.4,1.6c0.3,0.6,0.5,1.4,0.5,2.3h-3.3c0-0.5-0.1-0.9-0.3-1.2
			c-0.2-0.3-0.4-0.5-0.7-0.7c-0.3-0.2-0.6-0.3-1-0.4c-0.4-0.1-0.8-0.1-1.2-0.1c-0.3,0-0.6,0-0.8,0.1c-0.3,0.1-0.5,0.2-0.8,0.3
			c-0.2,0.1-0.4,0.3-0.6,0.5c-0.1,0.2-0.2,0.5-0.2,0.8c0,0.3,0.1,0.6,0.2,0.7c0.1,0.2,0.3,0.4,0.7,0.5c0.3,0.2,0.8,0.3,1.4,0.5
			s1.4,0.4,2.4,0.6c0.3,0.1,0.7,0.2,1.2,0.3c0.5,0.2,1,0.4,1.5,0.7c0.5,0.3,1,0.8,1.3,1.4c0.4,0.6,0.6,1.3,0.6,2.2
			c0,0.7-0.1,1.4-0.4,2c-0.3,0.6-0.7,1.1-1.2,1.6c-0.5,0.4-1.2,0.8-2,1c-0.8,0.2-1.8,0.4-2.8,0.4c-0.9,0-1.7-0.1-2.5-0.3
			c-0.8-0.2-1.5-0.5-2.2-1c-0.6-0.5-1.1-1-1.5-1.7c-0.4-0.7-0.5-1.5-0.5-2.5h3.3C81.2,69.3,81.3,69.8,81.4,70.2z"/>
		<path class="st0" d="M100.4,58.3c0.7,0,1.4,0.1,2,0.2c0.6,0.1,1.1,0.3,1.6,0.6s0.8,0.7,1,1.2c0.2,0.5,0.4,1.1,0.4,1.8
			c0,0.8-0.2,1.4-0.5,2c-0.4,0.5-0.9,1-1.6,1.3c1,0.3,1.7,0.8,2.2,1.5c0.5,0.7,0.7,1.5,0.7,2.5c0,0.8-0.2,1.5-0.5,2.1
			c-0.3,0.6-0.7,1.1-1.2,1.4c-0.5,0.4-1.1,0.6-1.8,0.8c-0.7,0.2-1.4,0.3-2.1,0.3h-7.6V58.3H100.4z M100,64.7c0.6,0,1.1-0.1,1.5-0.4
			c0.4-0.3,0.6-0.8,0.6-1.4c0-0.4-0.1-0.7-0.2-0.9c-0.1-0.2-0.3-0.4-0.5-0.5c-0.2-0.1-0.5-0.2-0.8-0.3c-0.3-0.1-0.6-0.1-0.9-0.1
			h-3.2v3.7H100z M100.2,71.3c0.3,0,0.7,0,1-0.1c0.3-0.1,0.6-0.2,0.8-0.3c0.2-0.2,0.4-0.4,0.6-0.6c0.1-0.3,0.2-0.6,0.2-1
			c0-0.8-0.2-1.4-0.7-1.7c-0.5-0.3-1.1-0.5-1.8-0.5h-3.8v4.3H100.2z"/>
		<path class="st0" d="M120.9,66.7v2.7h-6.6v-2.7H120.9z"/>
		<path class="st0" d="M132.3,70.2c0.2,0.4,0.4,0.7,0.8,0.9c0.3,0.2,0.7,0.4,1.1,0.5c0.4,0.1,0.9,0.2,1.3,0.2c0.3,0,0.6,0,1-0.1
			c0.4-0.1,0.7-0.2,1-0.3c0.3-0.1,0.6-0.3,0.8-0.6c0.2-0.3,0.3-0.6,0.3-1c0-0.4-0.1-0.8-0.4-1s-0.6-0.5-1.1-0.7
			c-0.4-0.2-0.9-0.3-1.5-0.5c-0.6-0.1-1.1-0.3-1.7-0.4c-0.6-0.1-1.2-0.3-1.7-0.5c-0.6-0.2-1.1-0.5-1.5-0.8c-0.4-0.3-0.8-0.8-1.1-1.3
			c-0.3-0.5-0.4-1.1-0.4-1.8c0-0.8,0.2-1.5,0.5-2.1c0.3-0.6,0.8-1.1,1.4-1.5c0.6-0.4,1.2-0.7,1.9-0.9c0.7-0.2,1.4-0.3,2.1-0.3
			c0.8,0,1.6,0.1,2.4,0.3c0.8,0.2,1.4,0.5,2,0.9c0.6,0.4,1.1,0.9,1.4,1.6c0.3,0.6,0.5,1.4,0.5,2.3H138c0-0.5-0.1-0.9-0.3-1.2
			c-0.2-0.3-0.4-0.5-0.7-0.7c-0.3-0.2-0.6-0.3-1-0.4c-0.4-0.1-0.8-0.1-1.2-0.1c-0.3,0-0.6,0-0.8,0.1c-0.3,0.1-0.5,0.2-0.8,0.3
			c-0.2,0.1-0.4,0.3-0.6,0.5c-0.1,0.2-0.2,0.5-0.2,0.8c0,0.3,0.1,0.6,0.2,0.7c0.1,0.2,0.3,0.4,0.7,0.5c0.3,0.2,0.8,0.3,1.4,0.5
			s1.4,0.4,2.4,0.6c0.3,0.1,0.7,0.2,1.2,0.3c0.5,0.2,1,0.4,1.5,0.7c0.5,0.3,1,0.8,1.3,1.4c0.4,0.6,0.6,1.3,0.6,2.2
			c0,0.7-0.1,1.4-0.4,2c-0.3,0.6-0.7,1.1-1.2,1.6c-0.5,0.4-1.2,0.8-2,1c-0.8,0.2-1.8,0.4-2.8,0.4c-0.9,0-1.7-0.1-2.5-0.3
			c-0.8-0.2-1.5-0.5-2.2-1c-0.6-0.5-1.1-1-1.5-1.7c-0.4-0.7-0.5-1.5-0.5-2.5h3.3C132,69.3,132.1,69.8,132.3,70.2z"/>
		<path class="st0" d="M155.7,58.3v2.9h-8.3v3.4h7.6v2.7h-7.6v3.8h8.5V74h-11.9V58.3H155.7z"/>
		<path class="st0" d="M168.2,62.5c-0.2-0.3-0.5-0.6-0.8-0.9c-0.3-0.2-0.7-0.4-1-0.6s-0.8-0.2-1.2-0.2c-0.8,0-1.4,0.2-2,0.5
			c-0.5,0.3-1,0.7-1.3,1.2c-0.3,0.5-0.6,1.1-0.7,1.7c-0.2,0.6-0.2,1.3-0.2,2c0,0.7,0.1,1.3,0.2,1.9c0.2,0.6,0.4,1.2,0.7,1.7
			c0.3,0.5,0.8,0.9,1.3,1.2c0.5,0.3,1.2,0.5,2,0.5c1.1,0,1.9-0.3,2.5-1c0.6-0.6,1-1.5,1.1-2.5h3.3c-0.1,1-0.3,1.9-0.7,2.7
			c-0.4,0.8-0.8,1.5-1.4,2c-0.6,0.6-1.3,1-2.1,1.3c-0.8,0.3-1.7,0.4-2.7,0.4c-1.2,0-2.3-0.2-3.2-0.6c-1-0.4-1.8-1-2.4-1.7
			c-0.7-0.7-1.2-1.6-1.5-2.6c-0.4-1-0.5-2.1-0.5-3.2c0-1.2,0.2-2.3,0.5-3.3c0.4-1,0.9-1.9,1.5-2.6c0.7-0.7,1.5-1.3,2.4-1.8
			c1-0.4,2-0.6,3.2-0.6c0.9,0,1.7,0.1,2.4,0.4c0.8,0.2,1.5,0.6,2.1,1.1c0.6,0.5,1.1,1.1,1.5,1.8c0.4,0.7,0.6,1.5,0.7,2.4h-3.3
			C168.6,63.2,168.4,62.9,168.2,62.5z"/>
	</g>
</g>
</svg>
